%TF.GenerationSoftware,KiCad,Pcbnew,7.0.2-6a45011f42~172~ubuntu22.04.1*%
%TF.CreationDate,2023-05-17T08:32:57+02:00*%
%TF.ProjectId,PowerMeterLC,506f7765-724d-4657-9465-724c432e6b69,rev?*%
%TF.SameCoordinates,Original*%
%TF.FileFunction,Drillmap*%
%TF.FilePolarity,Positive*%
%FSLAX45Y45*%
G04 Gerber Fmt 4.5, Leading zero omitted, Abs format (unit mm)*
G04 Created by KiCad (PCBNEW 7.0.2-6a45011f42~172~ubuntu22.04.1) date 2023-05-17 08:32:57*
%MOMM*%
%LPD*%
G01*
G04 APERTURE LIST*
%ADD10C,0.100000*%
%ADD11C,0.200000*%
%ADD12C,0.040000*%
%ADD13C,0.050000*%
%ADD14C,0.060000*%
%ADD15C,0.090000*%
%ADD16C,0.250000*%
G04 APERTURE END LIST*
D10*
X4200000Y-14950000D02*
X4200000Y-19650000D01*
X4200000Y-14950000D02*
G75*
G03*
X4050000Y-14800000I-150000J0D01*
G01*
X1200000Y-19650000D02*
X1200000Y-14950000D01*
X1350000Y-14800000D02*
G75*
G03*
X1200000Y-14950000I0J-150000D01*
G01*
X1200000Y-19650000D02*
G75*
G03*
X1350000Y-19800000I150000J0D01*
G01*
X4050000Y-19800000D02*
G75*
G03*
X4200000Y-19650000I0J150000D01*
G01*
X1350000Y-14800000D02*
X4050000Y-14800000D01*
X4050000Y-19800000D02*
X1350000Y-19800000D01*
D11*
D12*
X1240000Y-15072727D02*
X1280000Y-15112727D01*
X1280000Y-15072727D02*
X1240000Y-15112727D01*
X1240000Y-15256364D02*
X1280000Y-15296364D01*
X1280000Y-15256364D02*
X1240000Y-15296364D01*
X1240000Y-15440000D02*
X1280000Y-15480000D01*
X1280000Y-15440000D02*
X1240000Y-15480000D01*
X1240000Y-15630000D02*
X1280000Y-15670000D01*
X1280000Y-15630000D02*
X1240000Y-15670000D01*
X1240000Y-15813636D02*
X1280000Y-15853636D01*
X1280000Y-15813636D02*
X1240000Y-15853636D01*
X1240000Y-15997273D02*
X1280000Y-16037273D01*
X1280000Y-15997273D02*
X1240000Y-16037273D01*
X1240000Y-16180909D02*
X1280000Y-16220909D01*
X1280000Y-16180909D02*
X1240000Y-16220909D01*
X1240000Y-16364545D02*
X1280000Y-16404545D01*
X1280000Y-16364545D02*
X1240000Y-16404545D01*
X1240000Y-16548181D02*
X1280000Y-16588181D01*
X1280000Y-16548181D02*
X1240000Y-16588181D01*
X1240000Y-16731818D02*
X1280000Y-16771818D01*
X1280000Y-16731818D02*
X1240000Y-16771818D01*
X1240000Y-16915454D02*
X1280000Y-16955454D01*
X1280000Y-16915454D02*
X1240000Y-16955454D01*
X1240000Y-17099090D02*
X1280000Y-17139090D01*
X1280000Y-17099090D02*
X1240000Y-17139090D01*
X1240000Y-17282727D02*
X1280000Y-17322727D01*
X1280000Y-17282727D02*
X1240000Y-17322727D01*
X1240000Y-17466363D02*
X1280000Y-17506363D01*
X1280000Y-17466363D02*
X1240000Y-17506363D01*
X1240000Y-17649999D02*
X1280000Y-17689999D01*
X1280000Y-17649999D02*
X1240000Y-17689999D01*
X1240000Y-17833636D02*
X1280000Y-17873636D01*
X1280000Y-17833636D02*
X1240000Y-17873636D01*
X1240000Y-18017272D02*
X1280000Y-18057272D01*
X1280000Y-18017272D02*
X1240000Y-18057272D01*
X1240000Y-18200908D02*
X1280000Y-18240908D01*
X1280000Y-18200908D02*
X1240000Y-18240908D01*
X1240000Y-18384545D02*
X1280000Y-18424545D01*
X1280000Y-18384545D02*
X1240000Y-18424545D01*
X1240000Y-18568181D02*
X1280000Y-18608181D01*
X1280000Y-18568181D02*
X1240000Y-18608181D01*
X1240000Y-18751817D02*
X1280000Y-18791817D01*
X1280000Y-18751817D02*
X1240000Y-18791817D01*
X1240000Y-18935453D02*
X1280000Y-18975453D01*
X1280000Y-18935453D02*
X1240000Y-18975453D01*
X1240000Y-19119090D02*
X1280000Y-19159090D01*
X1280000Y-19119090D02*
X1240000Y-19159090D01*
X1240000Y-19302726D02*
X1280000Y-19342726D01*
X1280000Y-19302726D02*
X1240000Y-19342726D01*
X1240000Y-19486362D02*
X1280000Y-19526362D01*
X1280000Y-19486362D02*
X1240000Y-19526362D01*
X1290000Y-19670000D02*
X1330000Y-19710000D01*
X1330000Y-19670000D02*
X1290000Y-19710000D01*
X1457059Y-19700000D02*
X1497059Y-19740000D01*
X1497059Y-19700000D02*
X1457059Y-19740000D01*
X1591000Y-15580000D02*
X1631000Y-15620000D01*
X1631000Y-15580000D02*
X1591000Y-15620000D01*
X1591000Y-15670000D02*
X1631000Y-15710000D01*
X1631000Y-15670000D02*
X1591000Y-15710000D01*
X1591000Y-15770000D02*
X1631000Y-15810000D01*
X1631000Y-15770000D02*
X1591000Y-15810000D01*
X1601000Y-16680000D02*
X1641000Y-16720000D01*
X1641000Y-16680000D02*
X1601000Y-16720000D01*
X1620588Y-19700000D02*
X1660588Y-19740000D01*
X1660588Y-19700000D02*
X1620588Y-19740000D01*
X1661000Y-17950000D02*
X1701000Y-17990000D01*
X1701000Y-17950000D02*
X1661000Y-17990000D01*
X1784118Y-19700000D02*
X1824118Y-19740000D01*
X1824118Y-19700000D02*
X1784118Y-19740000D01*
X1871000Y-16290000D02*
X1911000Y-16330000D01*
X1911000Y-16290000D02*
X1871000Y-16330000D01*
X1911000Y-16390000D02*
X1951000Y-16430000D01*
X1951000Y-16390000D02*
X1911000Y-16430000D01*
X1947647Y-19700000D02*
X1987647Y-19740000D01*
X1987647Y-19700000D02*
X1947647Y-19740000D01*
X1961000Y-15670000D02*
X2001000Y-15710000D01*
X2001000Y-15670000D02*
X1961000Y-15710000D01*
X1971000Y-16490000D02*
X2011000Y-16530000D01*
X2011000Y-16490000D02*
X1971000Y-16530000D01*
X2002941Y-14860000D02*
X2042941Y-14900000D01*
X2042941Y-14860000D02*
X2002941Y-14900000D01*
X2041000Y-15520000D02*
X2081000Y-15560000D01*
X2081000Y-15520000D02*
X2041000Y-15560000D01*
X2111177Y-19700000D02*
X2151177Y-19740000D01*
X2151177Y-19700000D02*
X2111177Y-19740000D01*
X2121000Y-15220000D02*
X2161000Y-15260000D01*
X2161000Y-15220000D02*
X2121000Y-15260000D01*
X2166471Y-14860000D02*
X2206471Y-14900000D01*
X2206471Y-14860000D02*
X2166471Y-14900000D01*
X2274706Y-19700000D02*
X2314706Y-19740000D01*
X2314706Y-19700000D02*
X2274706Y-19740000D01*
X2328824Y-14860000D02*
X2368824Y-14900000D01*
X2368824Y-14860000D02*
X2328824Y-14900000D01*
X2438235Y-19700000D02*
X2478235Y-19740000D01*
X2478235Y-19700000D02*
X2438235Y-19740000D01*
X2492353Y-14860000D02*
X2532353Y-14900000D01*
X2532353Y-14860000D02*
X2492353Y-14900000D01*
X2601765Y-19700000D02*
X2641765Y-19740000D01*
X2641765Y-19700000D02*
X2601765Y-19740000D01*
X2650000Y-16180000D02*
X2690000Y-16220000D01*
X2690000Y-16180000D02*
X2650000Y-16220000D01*
X2655882Y-14860000D02*
X2695882Y-14900000D01*
X2695882Y-14860000D02*
X2655882Y-14900000D01*
X2721000Y-15490000D02*
X2761000Y-15530000D01*
X2761000Y-15490000D02*
X2721000Y-15530000D01*
X2721000Y-15600000D02*
X2761000Y-15640000D01*
X2761000Y-15600000D02*
X2721000Y-15640000D01*
X2765294Y-19700000D02*
X2805294Y-19740000D01*
X2805294Y-19700000D02*
X2765294Y-19740000D01*
X2819412Y-14860000D02*
X2859412Y-14900000D01*
X2859412Y-14860000D02*
X2819412Y-14900000D01*
X2831000Y-15490000D02*
X2871000Y-15530000D01*
X2871000Y-15490000D02*
X2831000Y-15530000D01*
X2831000Y-15600000D02*
X2871000Y-15640000D01*
X2871000Y-15600000D02*
X2831000Y-15640000D01*
X2861000Y-18860000D02*
X2901000Y-18900000D01*
X2901000Y-18860000D02*
X2861000Y-18900000D01*
X2928824Y-19700000D02*
X2968824Y-19740000D01*
X2968824Y-19700000D02*
X2928824Y-19740000D01*
X2982941Y-14860000D02*
X3022941Y-14900000D01*
X3022941Y-14860000D02*
X2982941Y-14900000D01*
X3092353Y-19700000D02*
X3132353Y-19740000D01*
X3132353Y-19700000D02*
X3092353Y-19740000D01*
X3101000Y-18560000D02*
X3141000Y-18600000D01*
X3141000Y-18560000D02*
X3101000Y-18600000D01*
X3146471Y-14860000D02*
X3186471Y-14900000D01*
X3186471Y-14860000D02*
X3146471Y-14900000D01*
X3181000Y-15220000D02*
X3221000Y-15260000D01*
X3221000Y-15220000D02*
X3181000Y-15260000D01*
X3181000Y-18560000D02*
X3221000Y-18600000D01*
X3221000Y-18560000D02*
X3181000Y-18600000D01*
X3255882Y-19700000D02*
X3295882Y-19740000D01*
X3295882Y-19700000D02*
X3255882Y-19740000D01*
X3310000Y-14860000D02*
X3350000Y-14900000D01*
X3350000Y-14860000D02*
X3310000Y-14900000D01*
X3351000Y-18860000D02*
X3391000Y-18900000D01*
X3391000Y-18860000D02*
X3351000Y-18900000D01*
X3419412Y-19700000D02*
X3459412Y-19740000D01*
X3459412Y-19700000D02*
X3419412Y-19740000D01*
X3582941Y-19700000D02*
X3622941Y-19740000D01*
X3622941Y-19700000D02*
X3582941Y-19740000D01*
X3721000Y-15980000D02*
X3761000Y-16020000D01*
X3761000Y-15980000D02*
X3721000Y-16020000D01*
X3740000Y-14850000D02*
X3780000Y-14890000D01*
X3780000Y-14850000D02*
X3740000Y-14890000D01*
X3746471Y-19700000D02*
X3786471Y-19740000D01*
X3786471Y-19700000D02*
X3746471Y-19740000D01*
X3781000Y-17630000D02*
X3821000Y-17670000D01*
X3821000Y-17630000D02*
X3781000Y-17670000D01*
X3781000Y-17723333D02*
X3821000Y-17763333D01*
X3821000Y-17723333D02*
X3781000Y-17763333D01*
X3781000Y-17816667D02*
X3821000Y-17856667D01*
X3821000Y-17816667D02*
X3781000Y-17856667D01*
X3781000Y-17910000D02*
X3821000Y-17950000D01*
X3821000Y-17910000D02*
X3781000Y-17950000D01*
X3850000Y-14850000D02*
X3890000Y-14890000D01*
X3890000Y-14850000D02*
X3850000Y-14890000D01*
X3881000Y-17630000D02*
X3921000Y-17670000D01*
X3921000Y-17630000D02*
X3881000Y-17670000D01*
X3881000Y-17723333D02*
X3921000Y-17763333D01*
X3921000Y-17723333D02*
X3881000Y-17763333D01*
X3881000Y-17816667D02*
X3921000Y-17856667D01*
X3921000Y-17816667D02*
X3881000Y-17856667D01*
X3881000Y-17910000D02*
X3921000Y-17950000D01*
X3921000Y-17910000D02*
X3881000Y-17950000D01*
X3910000Y-19700000D02*
X3950000Y-19740000D01*
X3950000Y-19700000D02*
X3910000Y-19740000D01*
X3970000Y-14850000D02*
X4010000Y-14890000D01*
X4010000Y-14850000D02*
X3970000Y-14890000D01*
X4070000Y-19670000D02*
X4110000Y-19710000D01*
X4110000Y-19670000D02*
X4070000Y-19710000D01*
X4080000Y-14870000D02*
X4120000Y-14910000D01*
X4120000Y-14870000D02*
X4080000Y-14910000D01*
X4130000Y-15000000D02*
X4170000Y-15040000D01*
X4170000Y-15000000D02*
X4130000Y-15040000D01*
X4130000Y-15130000D02*
X4170000Y-15170000D01*
X4170000Y-15130000D02*
X4130000Y-15170000D01*
X4130000Y-15273638D02*
X4170000Y-15313638D01*
X4170000Y-15273638D02*
X4130000Y-15313638D01*
X4130000Y-15457274D02*
X4170000Y-15497274D01*
X4170000Y-15457274D02*
X4130000Y-15497274D01*
X4130000Y-15640910D02*
X4170000Y-15680910D01*
X4170000Y-15640910D02*
X4130000Y-15680910D01*
X4130000Y-15824547D02*
X4170000Y-15864547D01*
X4170000Y-15824547D02*
X4130000Y-15864547D01*
X4130000Y-16008183D02*
X4170000Y-16048183D01*
X4170000Y-16008183D02*
X4130000Y-16048183D01*
X4130000Y-16191819D02*
X4170000Y-16231819D01*
X4170000Y-16191819D02*
X4130000Y-16231819D01*
X4130000Y-16375455D02*
X4170000Y-16415455D01*
X4170000Y-16375455D02*
X4130000Y-16415455D01*
X4130000Y-16559092D02*
X4170000Y-16599092D01*
X4170000Y-16559092D02*
X4130000Y-16599092D01*
X4130000Y-16742728D02*
X4170000Y-16782728D01*
X4170000Y-16742728D02*
X4130000Y-16782728D01*
X4130000Y-16926364D02*
X4170000Y-16966364D01*
X4170000Y-16926364D02*
X4130000Y-16966364D01*
X4130000Y-17110001D02*
X4170000Y-17150001D01*
X4170000Y-17110001D02*
X4130000Y-17150001D01*
X4130000Y-17293637D02*
X4170000Y-17333637D01*
X4170000Y-17293637D02*
X4130000Y-17333637D01*
X4130000Y-17477273D02*
X4170000Y-17517273D01*
X4170000Y-17477273D02*
X4130000Y-17517273D01*
X4130000Y-17660910D02*
X4170000Y-17700910D01*
X4170000Y-17660910D02*
X4130000Y-17700910D01*
X4130000Y-17844546D02*
X4170000Y-17884546D01*
X4170000Y-17844546D02*
X4130000Y-17884546D01*
X4130000Y-18028182D02*
X4170000Y-18068182D01*
X4170000Y-18028182D02*
X4130000Y-18068182D01*
X4130000Y-18211819D02*
X4170000Y-18251819D01*
X4170000Y-18211819D02*
X4130000Y-18251819D01*
X4130000Y-18395455D02*
X4170000Y-18435455D01*
X4170000Y-18395455D02*
X4130000Y-18435455D01*
X4130000Y-18579091D02*
X4170000Y-18619091D01*
X4170000Y-18579091D02*
X4130000Y-18619091D01*
X4130000Y-18762727D02*
X4170000Y-18802727D01*
X4170000Y-18762727D02*
X4130000Y-18802727D01*
X4130000Y-18946364D02*
X4170000Y-18986364D01*
X4170000Y-18946364D02*
X4130000Y-18986364D01*
X4130000Y-19130000D02*
X4170000Y-19170000D01*
X4170000Y-19130000D02*
X4130000Y-19170000D01*
X4130000Y-19280000D02*
X4170000Y-19320000D01*
X4170000Y-19280000D02*
X4130000Y-19320000D01*
X4130000Y-19420000D02*
X4170000Y-19460000D01*
X4170000Y-19420000D02*
X4130000Y-19460000D01*
X4130000Y-19560000D02*
X4170000Y-19600000D01*
X4170000Y-19560000D02*
X4130000Y-19600000D01*
D13*
X2584500Y-18362500D02*
G75*
G03*
X2584500Y-18362500I-25000J0D01*
G01*
X2639418Y-18229918D02*
G75*
G03*
X2639418Y-18229918I-25000J0D01*
G01*
X2639418Y-18495083D02*
G75*
G03*
X2639418Y-18495083I-25000J0D01*
G01*
X2772000Y-18175000D02*
G75*
G03*
X2772000Y-18175000I-25000J0D01*
G01*
X2772000Y-18550000D02*
G75*
G03*
X2772000Y-18550000I-25000J0D01*
G01*
X2904582Y-18229918D02*
G75*
G03*
X2904582Y-18229918I-25000J0D01*
G01*
X2904582Y-18495083D02*
G75*
G03*
X2904582Y-18495083I-25000J0D01*
G01*
X2959500Y-18362500D02*
G75*
G03*
X2959500Y-18362500I-25000J0D01*
G01*
D14*
X1763250Y-19210000D02*
X1763250Y-19270000D01*
X1733250Y-19240000D02*
X1793250Y-19240000D01*
D11*
X1793250Y-19270000D02*
X1793250Y-19210000D01*
X1793250Y-19210000D02*
G75*
G03*
X1733250Y-19210000I-30000J0D01*
G01*
X1733250Y-19210000D02*
X1733250Y-19270000D01*
X1733250Y-19270000D02*
G75*
G03*
X1793250Y-19270000I30000J0D01*
G01*
D14*
X1863250Y-18360000D02*
X1863250Y-18420000D01*
X1833250Y-18390000D02*
X1893250Y-18390000D01*
D11*
X1893250Y-18420000D02*
X1893250Y-18360000D01*
X1893250Y-18360000D02*
G75*
G03*
X1833250Y-18360000I-30000J0D01*
G01*
X1833250Y-18360000D02*
X1833250Y-18420000D01*
X1833250Y-18420000D02*
G75*
G03*
X1893250Y-18420000I30000J0D01*
G01*
D14*
X2313250Y-18510000D02*
X2313250Y-18570000D01*
X2283250Y-18540000D02*
X2343250Y-18540000D01*
D11*
X2343250Y-18570000D02*
X2343250Y-18510000D01*
X2343250Y-18510000D02*
G75*
G03*
X2283250Y-18510000I-30000J0D01*
G01*
X2283250Y-18510000D02*
X2283250Y-18570000D01*
X2283250Y-18570000D02*
G75*
G03*
X2343250Y-18570000I30000J0D01*
G01*
D14*
X2313250Y-18910000D02*
X2313250Y-18970000D01*
X2283250Y-18940000D02*
X2343250Y-18940000D01*
D11*
X2343250Y-18970000D02*
X2343250Y-18910000D01*
X2343250Y-18910000D02*
G75*
G03*
X2283250Y-18910000I-30000J0D01*
G01*
X2283250Y-18910000D02*
X2283250Y-18970000D01*
X2283250Y-18970000D02*
G75*
G03*
X2343250Y-18970000I30000J0D01*
G01*
D14*
X2313250Y-19210000D02*
X2313250Y-19270000D01*
X2283250Y-19240000D02*
X2343250Y-19240000D01*
D11*
X2343250Y-19270000D02*
X2343250Y-19210000D01*
X2343250Y-19210000D02*
G75*
G03*
X2283250Y-19210000I-30000J0D01*
G01*
X2283250Y-19210000D02*
X2283250Y-19270000D01*
X2283250Y-19270000D02*
G75*
G03*
X2343250Y-19270000I30000J0D01*
G01*
D14*
X2689000Y-19029500D02*
X2689000Y-19089500D01*
X2659000Y-19059500D02*
X2719000Y-19059500D01*
D11*
X2719000Y-19114500D02*
X2719000Y-19004500D01*
X2719000Y-19004500D02*
G75*
G03*
X2659000Y-19004500I-30000J0D01*
G01*
X2659000Y-19004500D02*
X2659000Y-19114500D01*
X2659000Y-19114500D02*
G75*
G03*
X2719000Y-19114500I30000J0D01*
G01*
D14*
X2689000Y-19446500D02*
X2689000Y-19506500D01*
X2659000Y-19476500D02*
X2719000Y-19476500D01*
D11*
X2719000Y-19516500D02*
X2719000Y-19436500D01*
X2719000Y-19436500D02*
G75*
G03*
X2659000Y-19436500I-30000J0D01*
G01*
X2659000Y-19436500D02*
X2659000Y-19516500D01*
X2659000Y-19516500D02*
G75*
G03*
X2719000Y-19516500I30000J0D01*
G01*
D14*
X3553000Y-19029500D02*
X3553000Y-19089500D01*
X3523000Y-19059500D02*
X3583000Y-19059500D01*
D11*
X3583000Y-19114500D02*
X3583000Y-19004500D01*
X3583000Y-19004500D02*
G75*
G03*
X3523000Y-19004500I-30000J0D01*
G01*
X3523000Y-19004500D02*
X3523000Y-19114500D01*
X3523000Y-19114500D02*
G75*
G03*
X3583000Y-19114500I30000J0D01*
G01*
D14*
X3553000Y-19446500D02*
X3553000Y-19506500D01*
X3523000Y-19476500D02*
X3583000Y-19476500D01*
D11*
X3583000Y-19516500D02*
X3583000Y-19436500D01*
X3583000Y-19436500D02*
G75*
G03*
X3523000Y-19436500I-30000J0D01*
G01*
X3523000Y-19436500D02*
X3523000Y-19516500D01*
X3523000Y-19516500D02*
G75*
G03*
X3583000Y-19516500I30000J0D01*
G01*
D15*
X2588820Y-17781820D02*
X2588820Y-17718180D01*
X2525180Y-17718180D01*
X2525180Y-17781820D01*
X2588820Y-17781820D01*
X2715820Y-17781820D02*
X2715820Y-17718180D01*
X2652180Y-17718180D01*
X2652180Y-17781820D01*
X2715820Y-17781820D01*
X2842820Y-17781820D02*
X2842820Y-17718180D01*
X2779180Y-17718180D01*
X2779180Y-17781820D01*
X2842820Y-17781820D01*
X2969820Y-17781820D02*
X2969820Y-17718180D01*
X2906180Y-17718180D01*
X2906180Y-17781820D01*
X2969820Y-17781820D01*
D16*
X2747000Y-18487500D02*
X2872000Y-18362500D01*
X2747000Y-18237500D01*
X2622000Y-18362500D01*
X2747000Y-18487500D01*
D11*
X1442619Y-20117524D02*
X1442619Y-19917524D01*
X1442619Y-19917524D02*
X1490238Y-19917524D01*
X1490238Y-19917524D02*
X1518809Y-19927048D01*
X1518809Y-19927048D02*
X1537857Y-19946095D01*
X1537857Y-19946095D02*
X1547381Y-19965143D01*
X1547381Y-19965143D02*
X1556905Y-20003238D01*
X1556905Y-20003238D02*
X1556905Y-20031810D01*
X1556905Y-20031810D02*
X1547381Y-20069905D01*
X1547381Y-20069905D02*
X1537857Y-20088952D01*
X1537857Y-20088952D02*
X1518809Y-20108000D01*
X1518809Y-20108000D02*
X1490238Y-20117524D01*
X1490238Y-20117524D02*
X1442619Y-20117524D01*
X1642619Y-20117524D02*
X1642619Y-19984190D01*
X1642619Y-20022286D02*
X1652143Y-20003238D01*
X1652143Y-20003238D02*
X1661667Y-19993714D01*
X1661667Y-19993714D02*
X1680714Y-19984190D01*
X1680714Y-19984190D02*
X1699762Y-19984190D01*
X1766428Y-20117524D02*
X1766428Y-19984190D01*
X1766428Y-19917524D02*
X1756905Y-19927048D01*
X1756905Y-19927048D02*
X1766428Y-19936571D01*
X1766428Y-19936571D02*
X1775952Y-19927048D01*
X1775952Y-19927048D02*
X1766428Y-19917524D01*
X1766428Y-19917524D02*
X1766428Y-19936571D01*
X1890238Y-20117524D02*
X1871190Y-20108000D01*
X1871190Y-20108000D02*
X1861667Y-20088952D01*
X1861667Y-20088952D02*
X1861667Y-19917524D01*
X1995000Y-20117524D02*
X1975952Y-20108000D01*
X1975952Y-20108000D02*
X1966428Y-20088952D01*
X1966428Y-20088952D02*
X1966428Y-19917524D01*
X2223571Y-20117524D02*
X2223571Y-19917524D01*
X2223571Y-19917524D02*
X2290238Y-20060381D01*
X2290238Y-20060381D02*
X2356905Y-19917524D01*
X2356905Y-19917524D02*
X2356905Y-20117524D01*
X2537857Y-20117524D02*
X2537857Y-20012762D01*
X2537857Y-20012762D02*
X2528333Y-19993714D01*
X2528333Y-19993714D02*
X2509286Y-19984190D01*
X2509286Y-19984190D02*
X2471190Y-19984190D01*
X2471190Y-19984190D02*
X2452143Y-19993714D01*
X2537857Y-20108000D02*
X2518810Y-20117524D01*
X2518810Y-20117524D02*
X2471190Y-20117524D01*
X2471190Y-20117524D02*
X2452143Y-20108000D01*
X2452143Y-20108000D02*
X2442619Y-20088952D01*
X2442619Y-20088952D02*
X2442619Y-20069905D01*
X2442619Y-20069905D02*
X2452143Y-20050857D01*
X2452143Y-20050857D02*
X2471190Y-20041333D01*
X2471190Y-20041333D02*
X2518810Y-20041333D01*
X2518810Y-20041333D02*
X2537857Y-20031810D01*
X2633095Y-19984190D02*
X2633095Y-20184190D01*
X2633095Y-19993714D02*
X2652143Y-19984190D01*
X2652143Y-19984190D02*
X2690238Y-19984190D01*
X2690238Y-19984190D02*
X2709286Y-19993714D01*
X2709286Y-19993714D02*
X2718810Y-20003238D01*
X2718810Y-20003238D02*
X2728333Y-20022286D01*
X2728333Y-20022286D02*
X2728333Y-20079429D01*
X2728333Y-20079429D02*
X2718810Y-20098476D01*
X2718810Y-20098476D02*
X2709286Y-20108000D01*
X2709286Y-20108000D02*
X2690238Y-20117524D01*
X2690238Y-20117524D02*
X2652143Y-20117524D01*
X2652143Y-20117524D02*
X2633095Y-20108000D01*
X2814048Y-20098476D02*
X2823571Y-20108000D01*
X2823571Y-20108000D02*
X2814048Y-20117524D01*
X2814048Y-20117524D02*
X2804524Y-20108000D01*
X2804524Y-20108000D02*
X2814048Y-20098476D01*
X2814048Y-20098476D02*
X2814048Y-20117524D01*
X2814048Y-19993714D02*
X2823571Y-20003238D01*
X2823571Y-20003238D02*
X2814048Y-20012762D01*
X2814048Y-20012762D02*
X2804524Y-20003238D01*
X2804524Y-20003238D02*
X2814048Y-19993714D01*
X2814048Y-19993714D02*
X2814048Y-20012762D01*
D12*
X1155000Y-20425000D02*
X1195000Y-20465000D01*
X1195000Y-20425000D02*
X1155000Y-20465000D01*
D11*
X1480714Y-20337524D02*
X1499762Y-20337524D01*
X1499762Y-20337524D02*
X1518809Y-20347048D01*
X1518809Y-20347048D02*
X1528333Y-20356571D01*
X1528333Y-20356571D02*
X1537857Y-20375619D01*
X1537857Y-20375619D02*
X1547381Y-20413714D01*
X1547381Y-20413714D02*
X1547381Y-20461333D01*
X1547381Y-20461333D02*
X1537857Y-20499429D01*
X1537857Y-20499429D02*
X1528333Y-20518476D01*
X1528333Y-20518476D02*
X1518809Y-20528000D01*
X1518809Y-20528000D02*
X1499762Y-20537524D01*
X1499762Y-20537524D02*
X1480714Y-20537524D01*
X1480714Y-20537524D02*
X1461667Y-20528000D01*
X1461667Y-20528000D02*
X1452143Y-20518476D01*
X1452143Y-20518476D02*
X1442619Y-20499429D01*
X1442619Y-20499429D02*
X1433095Y-20461333D01*
X1433095Y-20461333D02*
X1433095Y-20413714D01*
X1433095Y-20413714D02*
X1442619Y-20375619D01*
X1442619Y-20375619D02*
X1452143Y-20356571D01*
X1452143Y-20356571D02*
X1461667Y-20347048D01*
X1461667Y-20347048D02*
X1480714Y-20337524D01*
X1633095Y-20518476D02*
X1642619Y-20528000D01*
X1642619Y-20528000D02*
X1633095Y-20537524D01*
X1633095Y-20537524D02*
X1623571Y-20528000D01*
X1623571Y-20528000D02*
X1633095Y-20518476D01*
X1633095Y-20518476D02*
X1633095Y-20537524D01*
X1814048Y-20404190D02*
X1814048Y-20537524D01*
X1766428Y-20328000D02*
X1718809Y-20470857D01*
X1718809Y-20470857D02*
X1842619Y-20470857D01*
X1956905Y-20337524D02*
X1975952Y-20337524D01*
X1975952Y-20337524D02*
X1995000Y-20347048D01*
X1995000Y-20347048D02*
X2004524Y-20356571D01*
X2004524Y-20356571D02*
X2014048Y-20375619D01*
X2014048Y-20375619D02*
X2023571Y-20413714D01*
X2023571Y-20413714D02*
X2023571Y-20461333D01*
X2023571Y-20461333D02*
X2014048Y-20499429D01*
X2014048Y-20499429D02*
X2004524Y-20518476D01*
X2004524Y-20518476D02*
X1995000Y-20528000D01*
X1995000Y-20528000D02*
X1975952Y-20537524D01*
X1975952Y-20537524D02*
X1956905Y-20537524D01*
X1956905Y-20537524D02*
X1937857Y-20528000D01*
X1937857Y-20528000D02*
X1928333Y-20518476D01*
X1928333Y-20518476D02*
X1918809Y-20499429D01*
X1918809Y-20499429D02*
X1909286Y-20461333D01*
X1909286Y-20461333D02*
X1909286Y-20413714D01*
X1909286Y-20413714D02*
X1918809Y-20375619D01*
X1918809Y-20375619D02*
X1928333Y-20356571D01*
X1928333Y-20356571D02*
X1937857Y-20347048D01*
X1937857Y-20347048D02*
X1956905Y-20337524D01*
X2147381Y-20337524D02*
X2166429Y-20337524D01*
X2166429Y-20337524D02*
X2185476Y-20347048D01*
X2185476Y-20347048D02*
X2195000Y-20356571D01*
X2195000Y-20356571D02*
X2204524Y-20375619D01*
X2204524Y-20375619D02*
X2214048Y-20413714D01*
X2214048Y-20413714D02*
X2214048Y-20461333D01*
X2214048Y-20461333D02*
X2204524Y-20499429D01*
X2204524Y-20499429D02*
X2195000Y-20518476D01*
X2195000Y-20518476D02*
X2185476Y-20528000D01*
X2185476Y-20528000D02*
X2166429Y-20537524D01*
X2166429Y-20537524D02*
X2147381Y-20537524D01*
X2147381Y-20537524D02*
X2128333Y-20528000D01*
X2128333Y-20528000D02*
X2118810Y-20518476D01*
X2118810Y-20518476D02*
X2109286Y-20499429D01*
X2109286Y-20499429D02*
X2099762Y-20461333D01*
X2099762Y-20461333D02*
X2099762Y-20413714D01*
X2099762Y-20413714D02*
X2109286Y-20375619D01*
X2109286Y-20375619D02*
X2118810Y-20356571D01*
X2118810Y-20356571D02*
X2128333Y-20347048D01*
X2128333Y-20347048D02*
X2147381Y-20337524D01*
X2299762Y-20537524D02*
X2299762Y-20404190D01*
X2299762Y-20423238D02*
X2309286Y-20413714D01*
X2309286Y-20413714D02*
X2328333Y-20404190D01*
X2328333Y-20404190D02*
X2356905Y-20404190D01*
X2356905Y-20404190D02*
X2375952Y-20413714D01*
X2375952Y-20413714D02*
X2385476Y-20432762D01*
X2385476Y-20432762D02*
X2385476Y-20537524D01*
X2385476Y-20432762D02*
X2395000Y-20413714D01*
X2395000Y-20413714D02*
X2414048Y-20404190D01*
X2414048Y-20404190D02*
X2442619Y-20404190D01*
X2442619Y-20404190D02*
X2461667Y-20413714D01*
X2461667Y-20413714D02*
X2471191Y-20432762D01*
X2471191Y-20432762D02*
X2471191Y-20537524D01*
X2566429Y-20537524D02*
X2566429Y-20404190D01*
X2566429Y-20423238D02*
X2575952Y-20413714D01*
X2575952Y-20413714D02*
X2595000Y-20404190D01*
X2595000Y-20404190D02*
X2623572Y-20404190D01*
X2623572Y-20404190D02*
X2642619Y-20413714D01*
X2642619Y-20413714D02*
X2652143Y-20432762D01*
X2652143Y-20432762D02*
X2652143Y-20537524D01*
X2652143Y-20432762D02*
X2661667Y-20413714D01*
X2661667Y-20413714D02*
X2680714Y-20404190D01*
X2680714Y-20404190D02*
X2709286Y-20404190D01*
X2709286Y-20404190D02*
X2728333Y-20413714D01*
X2728333Y-20413714D02*
X2737857Y-20432762D01*
X2737857Y-20432762D02*
X2737857Y-20537524D01*
X3128333Y-20328000D02*
X2956905Y-20585143D01*
X3385476Y-20337524D02*
X3404524Y-20337524D01*
X3404524Y-20337524D02*
X3423572Y-20347048D01*
X3423572Y-20347048D02*
X3433095Y-20356571D01*
X3433095Y-20356571D02*
X3442619Y-20375619D01*
X3442619Y-20375619D02*
X3452143Y-20413714D01*
X3452143Y-20413714D02*
X3452143Y-20461333D01*
X3452143Y-20461333D02*
X3442619Y-20499429D01*
X3442619Y-20499429D02*
X3433095Y-20518476D01*
X3433095Y-20518476D02*
X3423572Y-20528000D01*
X3423572Y-20528000D02*
X3404524Y-20537524D01*
X3404524Y-20537524D02*
X3385476Y-20537524D01*
X3385476Y-20537524D02*
X3366429Y-20528000D01*
X3366429Y-20528000D02*
X3356905Y-20518476D01*
X3356905Y-20518476D02*
X3347381Y-20499429D01*
X3347381Y-20499429D02*
X3337857Y-20461333D01*
X3337857Y-20461333D02*
X3337857Y-20413714D01*
X3337857Y-20413714D02*
X3347381Y-20375619D01*
X3347381Y-20375619D02*
X3356905Y-20356571D01*
X3356905Y-20356571D02*
X3366429Y-20347048D01*
X3366429Y-20347048D02*
X3385476Y-20337524D01*
X3537857Y-20518476D02*
X3547381Y-20528000D01*
X3547381Y-20528000D02*
X3537857Y-20537524D01*
X3537857Y-20537524D02*
X3528333Y-20528000D01*
X3528333Y-20528000D02*
X3537857Y-20518476D01*
X3537857Y-20518476D02*
X3537857Y-20537524D01*
X3671191Y-20337524D02*
X3690238Y-20337524D01*
X3690238Y-20337524D02*
X3709286Y-20347048D01*
X3709286Y-20347048D02*
X3718810Y-20356571D01*
X3718810Y-20356571D02*
X3728333Y-20375619D01*
X3728333Y-20375619D02*
X3737857Y-20413714D01*
X3737857Y-20413714D02*
X3737857Y-20461333D01*
X3737857Y-20461333D02*
X3728333Y-20499429D01*
X3728333Y-20499429D02*
X3718810Y-20518476D01*
X3718810Y-20518476D02*
X3709286Y-20528000D01*
X3709286Y-20528000D02*
X3690238Y-20537524D01*
X3690238Y-20537524D02*
X3671191Y-20537524D01*
X3671191Y-20537524D02*
X3652143Y-20528000D01*
X3652143Y-20528000D02*
X3642619Y-20518476D01*
X3642619Y-20518476D02*
X3633095Y-20499429D01*
X3633095Y-20499429D02*
X3623572Y-20461333D01*
X3623572Y-20461333D02*
X3623572Y-20413714D01*
X3623572Y-20413714D02*
X3633095Y-20375619D01*
X3633095Y-20375619D02*
X3642619Y-20356571D01*
X3642619Y-20356571D02*
X3652143Y-20347048D01*
X3652143Y-20347048D02*
X3671191Y-20337524D01*
X3928333Y-20537524D02*
X3814048Y-20537524D01*
X3871191Y-20537524D02*
X3871191Y-20337524D01*
X3871191Y-20337524D02*
X3852143Y-20366095D01*
X3852143Y-20366095D02*
X3833095Y-20385143D01*
X3833095Y-20385143D02*
X3814048Y-20394667D01*
X4109286Y-20337524D02*
X4014048Y-20337524D01*
X4014048Y-20337524D02*
X4004524Y-20432762D01*
X4004524Y-20432762D02*
X4014048Y-20423238D01*
X4014048Y-20423238D02*
X4033095Y-20413714D01*
X4033095Y-20413714D02*
X4080714Y-20413714D01*
X4080714Y-20413714D02*
X4099762Y-20423238D01*
X4099762Y-20423238D02*
X4109286Y-20432762D01*
X4109286Y-20432762D02*
X4118810Y-20451810D01*
X4118810Y-20451810D02*
X4118810Y-20499429D01*
X4118810Y-20499429D02*
X4109286Y-20518476D01*
X4109286Y-20518476D02*
X4099762Y-20528000D01*
X4099762Y-20528000D02*
X4080714Y-20537524D01*
X4080714Y-20537524D02*
X4033095Y-20537524D01*
X4033095Y-20537524D02*
X4014048Y-20528000D01*
X4014048Y-20528000D02*
X4004524Y-20518476D01*
X4185476Y-20337524D02*
X4318810Y-20337524D01*
X4318810Y-20337524D02*
X4233095Y-20537524D01*
X4385476Y-20337524D02*
X4385476Y-20375619D01*
X4461667Y-20337524D02*
X4461667Y-20375619D01*
X4756905Y-20613714D02*
X4747381Y-20604190D01*
X4747381Y-20604190D02*
X4728334Y-20575619D01*
X4728334Y-20575619D02*
X4718810Y-20556571D01*
X4718810Y-20556571D02*
X4709286Y-20528000D01*
X4709286Y-20528000D02*
X4699762Y-20480381D01*
X4699762Y-20480381D02*
X4699762Y-20442286D01*
X4699762Y-20442286D02*
X4709286Y-20394667D01*
X4709286Y-20394667D02*
X4718810Y-20366095D01*
X4718810Y-20366095D02*
X4728334Y-20347048D01*
X4728334Y-20347048D02*
X4747381Y-20318476D01*
X4747381Y-20318476D02*
X4756905Y-20308952D01*
X4937857Y-20537524D02*
X4823572Y-20537524D01*
X4880715Y-20537524D02*
X4880715Y-20337524D01*
X4880715Y-20337524D02*
X4861667Y-20366095D01*
X4861667Y-20366095D02*
X4842619Y-20385143D01*
X4842619Y-20385143D02*
X4823572Y-20394667D01*
X5128334Y-20537524D02*
X5014048Y-20537524D01*
X5071191Y-20537524D02*
X5071191Y-20337524D01*
X5071191Y-20337524D02*
X5052143Y-20366095D01*
X5052143Y-20366095D02*
X5033096Y-20385143D01*
X5033096Y-20385143D02*
X5014048Y-20394667D01*
X5195000Y-20337524D02*
X5318810Y-20337524D01*
X5318810Y-20337524D02*
X5252143Y-20413714D01*
X5252143Y-20413714D02*
X5280715Y-20413714D01*
X5280715Y-20413714D02*
X5299762Y-20423238D01*
X5299762Y-20423238D02*
X5309286Y-20432762D01*
X5309286Y-20432762D02*
X5318810Y-20451810D01*
X5318810Y-20451810D02*
X5318810Y-20499429D01*
X5318810Y-20499429D02*
X5309286Y-20518476D01*
X5309286Y-20518476D02*
X5299762Y-20528000D01*
X5299762Y-20528000D02*
X5280715Y-20537524D01*
X5280715Y-20537524D02*
X5223572Y-20537524D01*
X5223572Y-20537524D02*
X5204524Y-20528000D01*
X5204524Y-20528000D02*
X5195000Y-20518476D01*
X5556905Y-20537524D02*
X5556905Y-20337524D01*
X5642619Y-20537524D02*
X5642619Y-20432762D01*
X5642619Y-20432762D02*
X5633096Y-20413714D01*
X5633096Y-20413714D02*
X5614048Y-20404190D01*
X5614048Y-20404190D02*
X5585477Y-20404190D01*
X5585477Y-20404190D02*
X5566429Y-20413714D01*
X5566429Y-20413714D02*
X5556905Y-20423238D01*
X5766429Y-20537524D02*
X5747381Y-20528000D01*
X5747381Y-20528000D02*
X5737857Y-20518476D01*
X5737857Y-20518476D02*
X5728334Y-20499429D01*
X5728334Y-20499429D02*
X5728334Y-20442286D01*
X5728334Y-20442286D02*
X5737857Y-20423238D01*
X5737857Y-20423238D02*
X5747381Y-20413714D01*
X5747381Y-20413714D02*
X5766429Y-20404190D01*
X5766429Y-20404190D02*
X5795000Y-20404190D01*
X5795000Y-20404190D02*
X5814048Y-20413714D01*
X5814048Y-20413714D02*
X5823572Y-20423238D01*
X5823572Y-20423238D02*
X5833096Y-20442286D01*
X5833096Y-20442286D02*
X5833096Y-20499429D01*
X5833096Y-20499429D02*
X5823572Y-20518476D01*
X5823572Y-20518476D02*
X5814048Y-20528000D01*
X5814048Y-20528000D02*
X5795000Y-20537524D01*
X5795000Y-20537524D02*
X5766429Y-20537524D01*
X5947381Y-20537524D02*
X5928334Y-20528000D01*
X5928334Y-20528000D02*
X5918810Y-20508952D01*
X5918810Y-20508952D02*
X5918810Y-20337524D01*
X6099762Y-20528000D02*
X6080715Y-20537524D01*
X6080715Y-20537524D02*
X6042619Y-20537524D01*
X6042619Y-20537524D02*
X6023572Y-20528000D01*
X6023572Y-20528000D02*
X6014048Y-20508952D01*
X6014048Y-20508952D02*
X6014048Y-20432762D01*
X6014048Y-20432762D02*
X6023572Y-20413714D01*
X6023572Y-20413714D02*
X6042619Y-20404190D01*
X6042619Y-20404190D02*
X6080715Y-20404190D01*
X6080715Y-20404190D02*
X6099762Y-20413714D01*
X6099762Y-20413714D02*
X6109286Y-20432762D01*
X6109286Y-20432762D02*
X6109286Y-20451810D01*
X6109286Y-20451810D02*
X6014048Y-20470857D01*
X6185477Y-20528000D02*
X6204524Y-20537524D01*
X6204524Y-20537524D02*
X6242619Y-20537524D01*
X6242619Y-20537524D02*
X6261667Y-20528000D01*
X6261667Y-20528000D02*
X6271191Y-20508952D01*
X6271191Y-20508952D02*
X6271191Y-20499429D01*
X6271191Y-20499429D02*
X6261667Y-20480381D01*
X6261667Y-20480381D02*
X6242619Y-20470857D01*
X6242619Y-20470857D02*
X6214048Y-20470857D01*
X6214048Y-20470857D02*
X6195000Y-20461333D01*
X6195000Y-20461333D02*
X6185477Y-20442286D01*
X6185477Y-20442286D02*
X6185477Y-20432762D01*
X6185477Y-20432762D02*
X6195000Y-20413714D01*
X6195000Y-20413714D02*
X6214048Y-20404190D01*
X6214048Y-20404190D02*
X6242619Y-20404190D01*
X6242619Y-20404190D02*
X6261667Y-20413714D01*
X6337858Y-20613714D02*
X6347381Y-20604190D01*
X6347381Y-20604190D02*
X6366429Y-20575619D01*
X6366429Y-20575619D02*
X6375953Y-20556571D01*
X6375953Y-20556571D02*
X6385477Y-20528000D01*
X6385477Y-20528000D02*
X6395000Y-20480381D01*
X6395000Y-20480381D02*
X6395000Y-20442286D01*
X6395000Y-20442286D02*
X6385477Y-20394667D01*
X6385477Y-20394667D02*
X6375953Y-20366095D01*
X6375953Y-20366095D02*
X6366429Y-20347048D01*
X6366429Y-20347048D02*
X6347381Y-20318476D01*
X6347381Y-20318476D02*
X6337858Y-20308952D01*
D13*
X1195000Y-20709000D02*
G75*
G03*
X1195000Y-20709000I-25000J0D01*
G01*
D11*
X1480714Y-20601524D02*
X1499762Y-20601524D01*
X1499762Y-20601524D02*
X1518809Y-20611048D01*
X1518809Y-20611048D02*
X1528333Y-20620571D01*
X1528333Y-20620571D02*
X1537857Y-20639619D01*
X1537857Y-20639619D02*
X1547381Y-20677714D01*
X1547381Y-20677714D02*
X1547381Y-20725333D01*
X1547381Y-20725333D02*
X1537857Y-20763429D01*
X1537857Y-20763429D02*
X1528333Y-20782476D01*
X1528333Y-20782476D02*
X1518809Y-20792000D01*
X1518809Y-20792000D02*
X1499762Y-20801524D01*
X1499762Y-20801524D02*
X1480714Y-20801524D01*
X1480714Y-20801524D02*
X1461667Y-20792000D01*
X1461667Y-20792000D02*
X1452143Y-20782476D01*
X1452143Y-20782476D02*
X1442619Y-20763429D01*
X1442619Y-20763429D02*
X1433095Y-20725333D01*
X1433095Y-20725333D02*
X1433095Y-20677714D01*
X1433095Y-20677714D02*
X1442619Y-20639619D01*
X1442619Y-20639619D02*
X1452143Y-20620571D01*
X1452143Y-20620571D02*
X1461667Y-20611048D01*
X1461667Y-20611048D02*
X1480714Y-20601524D01*
X1633095Y-20782476D02*
X1642619Y-20792000D01*
X1642619Y-20792000D02*
X1633095Y-20801524D01*
X1633095Y-20801524D02*
X1623571Y-20792000D01*
X1623571Y-20792000D02*
X1633095Y-20782476D01*
X1633095Y-20782476D02*
X1633095Y-20801524D01*
X1823571Y-20601524D02*
X1728333Y-20601524D01*
X1728333Y-20601524D02*
X1718809Y-20696762D01*
X1718809Y-20696762D02*
X1728333Y-20687238D01*
X1728333Y-20687238D02*
X1747381Y-20677714D01*
X1747381Y-20677714D02*
X1795000Y-20677714D01*
X1795000Y-20677714D02*
X1814048Y-20687238D01*
X1814048Y-20687238D02*
X1823571Y-20696762D01*
X1823571Y-20696762D02*
X1833095Y-20715810D01*
X1833095Y-20715810D02*
X1833095Y-20763429D01*
X1833095Y-20763429D02*
X1823571Y-20782476D01*
X1823571Y-20782476D02*
X1814048Y-20792000D01*
X1814048Y-20792000D02*
X1795000Y-20801524D01*
X1795000Y-20801524D02*
X1747381Y-20801524D01*
X1747381Y-20801524D02*
X1728333Y-20792000D01*
X1728333Y-20792000D02*
X1718809Y-20782476D01*
X1956905Y-20601524D02*
X1975952Y-20601524D01*
X1975952Y-20601524D02*
X1995000Y-20611048D01*
X1995000Y-20611048D02*
X2004524Y-20620571D01*
X2004524Y-20620571D02*
X2014048Y-20639619D01*
X2014048Y-20639619D02*
X2023571Y-20677714D01*
X2023571Y-20677714D02*
X2023571Y-20725333D01*
X2023571Y-20725333D02*
X2014048Y-20763429D01*
X2014048Y-20763429D02*
X2004524Y-20782476D01*
X2004524Y-20782476D02*
X1995000Y-20792000D01*
X1995000Y-20792000D02*
X1975952Y-20801524D01*
X1975952Y-20801524D02*
X1956905Y-20801524D01*
X1956905Y-20801524D02*
X1937857Y-20792000D01*
X1937857Y-20792000D02*
X1928333Y-20782476D01*
X1928333Y-20782476D02*
X1918809Y-20763429D01*
X1918809Y-20763429D02*
X1909286Y-20725333D01*
X1909286Y-20725333D02*
X1909286Y-20677714D01*
X1909286Y-20677714D02*
X1918809Y-20639619D01*
X1918809Y-20639619D02*
X1928333Y-20620571D01*
X1928333Y-20620571D02*
X1937857Y-20611048D01*
X1937857Y-20611048D02*
X1956905Y-20601524D01*
X2147381Y-20601524D02*
X2166429Y-20601524D01*
X2166429Y-20601524D02*
X2185476Y-20611048D01*
X2185476Y-20611048D02*
X2195000Y-20620571D01*
X2195000Y-20620571D02*
X2204524Y-20639619D01*
X2204524Y-20639619D02*
X2214048Y-20677714D01*
X2214048Y-20677714D02*
X2214048Y-20725333D01*
X2214048Y-20725333D02*
X2204524Y-20763429D01*
X2204524Y-20763429D02*
X2195000Y-20782476D01*
X2195000Y-20782476D02*
X2185476Y-20792000D01*
X2185476Y-20792000D02*
X2166429Y-20801524D01*
X2166429Y-20801524D02*
X2147381Y-20801524D01*
X2147381Y-20801524D02*
X2128333Y-20792000D01*
X2128333Y-20792000D02*
X2118810Y-20782476D01*
X2118810Y-20782476D02*
X2109286Y-20763429D01*
X2109286Y-20763429D02*
X2099762Y-20725333D01*
X2099762Y-20725333D02*
X2099762Y-20677714D01*
X2099762Y-20677714D02*
X2109286Y-20639619D01*
X2109286Y-20639619D02*
X2118810Y-20620571D01*
X2118810Y-20620571D02*
X2128333Y-20611048D01*
X2128333Y-20611048D02*
X2147381Y-20601524D01*
X2299762Y-20801524D02*
X2299762Y-20668190D01*
X2299762Y-20687238D02*
X2309286Y-20677714D01*
X2309286Y-20677714D02*
X2328333Y-20668190D01*
X2328333Y-20668190D02*
X2356905Y-20668190D01*
X2356905Y-20668190D02*
X2375952Y-20677714D01*
X2375952Y-20677714D02*
X2385476Y-20696762D01*
X2385476Y-20696762D02*
X2385476Y-20801524D01*
X2385476Y-20696762D02*
X2395000Y-20677714D01*
X2395000Y-20677714D02*
X2414048Y-20668190D01*
X2414048Y-20668190D02*
X2442619Y-20668190D01*
X2442619Y-20668190D02*
X2461667Y-20677714D01*
X2461667Y-20677714D02*
X2471191Y-20696762D01*
X2471191Y-20696762D02*
X2471191Y-20801524D01*
X2566429Y-20801524D02*
X2566429Y-20668190D01*
X2566429Y-20687238D02*
X2575952Y-20677714D01*
X2575952Y-20677714D02*
X2595000Y-20668190D01*
X2595000Y-20668190D02*
X2623572Y-20668190D01*
X2623572Y-20668190D02*
X2642619Y-20677714D01*
X2642619Y-20677714D02*
X2652143Y-20696762D01*
X2652143Y-20696762D02*
X2652143Y-20801524D01*
X2652143Y-20696762D02*
X2661667Y-20677714D01*
X2661667Y-20677714D02*
X2680714Y-20668190D01*
X2680714Y-20668190D02*
X2709286Y-20668190D01*
X2709286Y-20668190D02*
X2728333Y-20677714D01*
X2728333Y-20677714D02*
X2737857Y-20696762D01*
X2737857Y-20696762D02*
X2737857Y-20801524D01*
X3128333Y-20592000D02*
X2956905Y-20849143D01*
X3385476Y-20601524D02*
X3404524Y-20601524D01*
X3404524Y-20601524D02*
X3423572Y-20611048D01*
X3423572Y-20611048D02*
X3433095Y-20620571D01*
X3433095Y-20620571D02*
X3442619Y-20639619D01*
X3442619Y-20639619D02*
X3452143Y-20677714D01*
X3452143Y-20677714D02*
X3452143Y-20725333D01*
X3452143Y-20725333D02*
X3442619Y-20763429D01*
X3442619Y-20763429D02*
X3433095Y-20782476D01*
X3433095Y-20782476D02*
X3423572Y-20792000D01*
X3423572Y-20792000D02*
X3404524Y-20801524D01*
X3404524Y-20801524D02*
X3385476Y-20801524D01*
X3385476Y-20801524D02*
X3366429Y-20792000D01*
X3366429Y-20792000D02*
X3356905Y-20782476D01*
X3356905Y-20782476D02*
X3347381Y-20763429D01*
X3347381Y-20763429D02*
X3337857Y-20725333D01*
X3337857Y-20725333D02*
X3337857Y-20677714D01*
X3337857Y-20677714D02*
X3347381Y-20639619D01*
X3347381Y-20639619D02*
X3356905Y-20620571D01*
X3356905Y-20620571D02*
X3366429Y-20611048D01*
X3366429Y-20611048D02*
X3385476Y-20601524D01*
X3537857Y-20782476D02*
X3547381Y-20792000D01*
X3547381Y-20792000D02*
X3537857Y-20801524D01*
X3537857Y-20801524D02*
X3528333Y-20792000D01*
X3528333Y-20792000D02*
X3537857Y-20782476D01*
X3537857Y-20782476D02*
X3537857Y-20801524D01*
X3671191Y-20601524D02*
X3690238Y-20601524D01*
X3690238Y-20601524D02*
X3709286Y-20611048D01*
X3709286Y-20611048D02*
X3718810Y-20620571D01*
X3718810Y-20620571D02*
X3728333Y-20639619D01*
X3728333Y-20639619D02*
X3737857Y-20677714D01*
X3737857Y-20677714D02*
X3737857Y-20725333D01*
X3737857Y-20725333D02*
X3728333Y-20763429D01*
X3728333Y-20763429D02*
X3718810Y-20782476D01*
X3718810Y-20782476D02*
X3709286Y-20792000D01*
X3709286Y-20792000D02*
X3690238Y-20801524D01*
X3690238Y-20801524D02*
X3671191Y-20801524D01*
X3671191Y-20801524D02*
X3652143Y-20792000D01*
X3652143Y-20792000D02*
X3642619Y-20782476D01*
X3642619Y-20782476D02*
X3633095Y-20763429D01*
X3633095Y-20763429D02*
X3623572Y-20725333D01*
X3623572Y-20725333D02*
X3623572Y-20677714D01*
X3623572Y-20677714D02*
X3633095Y-20639619D01*
X3633095Y-20639619D02*
X3642619Y-20620571D01*
X3642619Y-20620571D02*
X3652143Y-20611048D01*
X3652143Y-20611048D02*
X3671191Y-20601524D01*
X3928333Y-20801524D02*
X3814048Y-20801524D01*
X3871191Y-20801524D02*
X3871191Y-20601524D01*
X3871191Y-20601524D02*
X3852143Y-20630095D01*
X3852143Y-20630095D02*
X3833095Y-20649143D01*
X3833095Y-20649143D02*
X3814048Y-20658667D01*
X4023572Y-20801524D02*
X4061667Y-20801524D01*
X4061667Y-20801524D02*
X4080714Y-20792000D01*
X4080714Y-20792000D02*
X4090238Y-20782476D01*
X4090238Y-20782476D02*
X4109286Y-20753905D01*
X4109286Y-20753905D02*
X4118810Y-20715810D01*
X4118810Y-20715810D02*
X4118810Y-20639619D01*
X4118810Y-20639619D02*
X4109286Y-20620571D01*
X4109286Y-20620571D02*
X4099762Y-20611048D01*
X4099762Y-20611048D02*
X4080714Y-20601524D01*
X4080714Y-20601524D02*
X4042619Y-20601524D01*
X4042619Y-20601524D02*
X4023572Y-20611048D01*
X4023572Y-20611048D02*
X4014048Y-20620571D01*
X4014048Y-20620571D02*
X4004524Y-20639619D01*
X4004524Y-20639619D02*
X4004524Y-20687238D01*
X4004524Y-20687238D02*
X4014048Y-20706286D01*
X4014048Y-20706286D02*
X4023572Y-20715810D01*
X4023572Y-20715810D02*
X4042619Y-20725333D01*
X4042619Y-20725333D02*
X4080714Y-20725333D01*
X4080714Y-20725333D02*
X4099762Y-20715810D01*
X4099762Y-20715810D02*
X4109286Y-20706286D01*
X4109286Y-20706286D02*
X4118810Y-20687238D01*
X4185476Y-20601524D02*
X4318810Y-20601524D01*
X4318810Y-20601524D02*
X4233095Y-20801524D01*
X4385476Y-20601524D02*
X4385476Y-20639619D01*
X4461667Y-20601524D02*
X4461667Y-20639619D01*
X4756905Y-20877714D02*
X4747381Y-20868190D01*
X4747381Y-20868190D02*
X4728334Y-20839619D01*
X4728334Y-20839619D02*
X4718810Y-20820571D01*
X4718810Y-20820571D02*
X4709286Y-20792000D01*
X4709286Y-20792000D02*
X4699762Y-20744381D01*
X4699762Y-20744381D02*
X4699762Y-20706286D01*
X4699762Y-20706286D02*
X4709286Y-20658667D01*
X4709286Y-20658667D02*
X4718810Y-20630095D01*
X4718810Y-20630095D02*
X4728334Y-20611048D01*
X4728334Y-20611048D02*
X4747381Y-20582476D01*
X4747381Y-20582476D02*
X4756905Y-20572952D01*
X4861667Y-20687238D02*
X4842619Y-20677714D01*
X4842619Y-20677714D02*
X4833096Y-20668190D01*
X4833096Y-20668190D02*
X4823572Y-20649143D01*
X4823572Y-20649143D02*
X4823572Y-20639619D01*
X4823572Y-20639619D02*
X4833096Y-20620571D01*
X4833096Y-20620571D02*
X4842619Y-20611048D01*
X4842619Y-20611048D02*
X4861667Y-20601524D01*
X4861667Y-20601524D02*
X4899762Y-20601524D01*
X4899762Y-20601524D02*
X4918810Y-20611048D01*
X4918810Y-20611048D02*
X4928334Y-20620571D01*
X4928334Y-20620571D02*
X4937857Y-20639619D01*
X4937857Y-20639619D02*
X4937857Y-20649143D01*
X4937857Y-20649143D02*
X4928334Y-20668190D01*
X4928334Y-20668190D02*
X4918810Y-20677714D01*
X4918810Y-20677714D02*
X4899762Y-20687238D01*
X4899762Y-20687238D02*
X4861667Y-20687238D01*
X4861667Y-20687238D02*
X4842619Y-20696762D01*
X4842619Y-20696762D02*
X4833096Y-20706286D01*
X4833096Y-20706286D02*
X4823572Y-20725333D01*
X4823572Y-20725333D02*
X4823572Y-20763429D01*
X4823572Y-20763429D02*
X4833096Y-20782476D01*
X4833096Y-20782476D02*
X4842619Y-20792000D01*
X4842619Y-20792000D02*
X4861667Y-20801524D01*
X4861667Y-20801524D02*
X4899762Y-20801524D01*
X4899762Y-20801524D02*
X4918810Y-20792000D01*
X4918810Y-20792000D02*
X4928334Y-20782476D01*
X4928334Y-20782476D02*
X4937857Y-20763429D01*
X4937857Y-20763429D02*
X4937857Y-20725333D01*
X4937857Y-20725333D02*
X4928334Y-20706286D01*
X4928334Y-20706286D02*
X4918810Y-20696762D01*
X4918810Y-20696762D02*
X4899762Y-20687238D01*
X5175953Y-20801524D02*
X5175953Y-20601524D01*
X5261667Y-20801524D02*
X5261667Y-20696762D01*
X5261667Y-20696762D02*
X5252143Y-20677714D01*
X5252143Y-20677714D02*
X5233096Y-20668190D01*
X5233096Y-20668190D02*
X5204524Y-20668190D01*
X5204524Y-20668190D02*
X5185477Y-20677714D01*
X5185477Y-20677714D02*
X5175953Y-20687238D01*
X5385477Y-20801524D02*
X5366429Y-20792000D01*
X5366429Y-20792000D02*
X5356905Y-20782476D01*
X5356905Y-20782476D02*
X5347381Y-20763429D01*
X5347381Y-20763429D02*
X5347381Y-20706286D01*
X5347381Y-20706286D02*
X5356905Y-20687238D01*
X5356905Y-20687238D02*
X5366429Y-20677714D01*
X5366429Y-20677714D02*
X5385477Y-20668190D01*
X5385477Y-20668190D02*
X5414048Y-20668190D01*
X5414048Y-20668190D02*
X5433096Y-20677714D01*
X5433096Y-20677714D02*
X5442619Y-20687238D01*
X5442619Y-20687238D02*
X5452143Y-20706286D01*
X5452143Y-20706286D02*
X5452143Y-20763429D01*
X5452143Y-20763429D02*
X5442619Y-20782476D01*
X5442619Y-20782476D02*
X5433096Y-20792000D01*
X5433096Y-20792000D02*
X5414048Y-20801524D01*
X5414048Y-20801524D02*
X5385477Y-20801524D01*
X5566429Y-20801524D02*
X5547381Y-20792000D01*
X5547381Y-20792000D02*
X5537858Y-20772952D01*
X5537858Y-20772952D02*
X5537858Y-20601524D01*
X5718810Y-20792000D02*
X5699762Y-20801524D01*
X5699762Y-20801524D02*
X5661667Y-20801524D01*
X5661667Y-20801524D02*
X5642619Y-20792000D01*
X5642619Y-20792000D02*
X5633096Y-20772952D01*
X5633096Y-20772952D02*
X5633096Y-20696762D01*
X5633096Y-20696762D02*
X5642619Y-20677714D01*
X5642619Y-20677714D02*
X5661667Y-20668190D01*
X5661667Y-20668190D02*
X5699762Y-20668190D01*
X5699762Y-20668190D02*
X5718810Y-20677714D01*
X5718810Y-20677714D02*
X5728334Y-20696762D01*
X5728334Y-20696762D02*
X5728334Y-20715810D01*
X5728334Y-20715810D02*
X5633096Y-20734857D01*
X5804524Y-20792000D02*
X5823572Y-20801524D01*
X5823572Y-20801524D02*
X5861667Y-20801524D01*
X5861667Y-20801524D02*
X5880715Y-20792000D01*
X5880715Y-20792000D02*
X5890238Y-20772952D01*
X5890238Y-20772952D02*
X5890238Y-20763429D01*
X5890238Y-20763429D02*
X5880715Y-20744381D01*
X5880715Y-20744381D02*
X5861667Y-20734857D01*
X5861667Y-20734857D02*
X5833096Y-20734857D01*
X5833096Y-20734857D02*
X5814048Y-20725333D01*
X5814048Y-20725333D02*
X5804524Y-20706286D01*
X5804524Y-20706286D02*
X5804524Y-20696762D01*
X5804524Y-20696762D02*
X5814048Y-20677714D01*
X5814048Y-20677714D02*
X5833096Y-20668190D01*
X5833096Y-20668190D02*
X5861667Y-20668190D01*
X5861667Y-20668190D02*
X5880715Y-20677714D01*
X5956905Y-20877714D02*
X5966429Y-20868190D01*
X5966429Y-20868190D02*
X5985477Y-20839619D01*
X5985477Y-20839619D02*
X5995000Y-20820571D01*
X5995000Y-20820571D02*
X6004524Y-20792000D01*
X6004524Y-20792000D02*
X6014048Y-20744381D01*
X6014048Y-20744381D02*
X6014048Y-20706286D01*
X6014048Y-20706286D02*
X6004524Y-20658667D01*
X6004524Y-20658667D02*
X5995000Y-20630095D01*
X5995000Y-20630095D02*
X5985477Y-20611048D01*
X5985477Y-20611048D02*
X5966429Y-20582476D01*
X5966429Y-20582476D02*
X5956905Y-20572952D01*
D14*
X1165000Y-20943000D02*
X1165000Y-21003000D01*
X1135000Y-20973000D02*
X1195000Y-20973000D01*
D11*
X1480714Y-20865524D02*
X1499762Y-20865524D01*
X1499762Y-20865524D02*
X1518809Y-20875048D01*
X1518809Y-20875048D02*
X1528333Y-20884571D01*
X1528333Y-20884571D02*
X1537857Y-20903619D01*
X1537857Y-20903619D02*
X1547381Y-20941714D01*
X1547381Y-20941714D02*
X1547381Y-20989333D01*
X1547381Y-20989333D02*
X1537857Y-21027429D01*
X1537857Y-21027429D02*
X1528333Y-21046476D01*
X1528333Y-21046476D02*
X1518809Y-21056000D01*
X1518809Y-21056000D02*
X1499762Y-21065524D01*
X1499762Y-21065524D02*
X1480714Y-21065524D01*
X1480714Y-21065524D02*
X1461667Y-21056000D01*
X1461667Y-21056000D02*
X1452143Y-21046476D01*
X1452143Y-21046476D02*
X1442619Y-21027429D01*
X1442619Y-21027429D02*
X1433095Y-20989333D01*
X1433095Y-20989333D02*
X1433095Y-20941714D01*
X1433095Y-20941714D02*
X1442619Y-20903619D01*
X1442619Y-20903619D02*
X1452143Y-20884571D01*
X1452143Y-20884571D02*
X1461667Y-20875048D01*
X1461667Y-20875048D02*
X1480714Y-20865524D01*
X1633095Y-21046476D02*
X1642619Y-21056000D01*
X1642619Y-21056000D02*
X1633095Y-21065524D01*
X1633095Y-21065524D02*
X1623571Y-21056000D01*
X1623571Y-21056000D02*
X1633095Y-21046476D01*
X1633095Y-21046476D02*
X1633095Y-21065524D01*
X1814048Y-20865524D02*
X1775952Y-20865524D01*
X1775952Y-20865524D02*
X1756905Y-20875048D01*
X1756905Y-20875048D02*
X1747381Y-20884571D01*
X1747381Y-20884571D02*
X1728333Y-20913143D01*
X1728333Y-20913143D02*
X1718809Y-20951238D01*
X1718809Y-20951238D02*
X1718809Y-21027429D01*
X1718809Y-21027429D02*
X1728333Y-21046476D01*
X1728333Y-21046476D02*
X1737857Y-21056000D01*
X1737857Y-21056000D02*
X1756905Y-21065524D01*
X1756905Y-21065524D02*
X1795000Y-21065524D01*
X1795000Y-21065524D02*
X1814048Y-21056000D01*
X1814048Y-21056000D02*
X1823571Y-21046476D01*
X1823571Y-21046476D02*
X1833095Y-21027429D01*
X1833095Y-21027429D02*
X1833095Y-20979810D01*
X1833095Y-20979810D02*
X1823571Y-20960762D01*
X1823571Y-20960762D02*
X1814048Y-20951238D01*
X1814048Y-20951238D02*
X1795000Y-20941714D01*
X1795000Y-20941714D02*
X1756905Y-20941714D01*
X1756905Y-20941714D02*
X1737857Y-20951238D01*
X1737857Y-20951238D02*
X1728333Y-20960762D01*
X1728333Y-20960762D02*
X1718809Y-20979810D01*
X1956905Y-20865524D02*
X1975952Y-20865524D01*
X1975952Y-20865524D02*
X1995000Y-20875048D01*
X1995000Y-20875048D02*
X2004524Y-20884571D01*
X2004524Y-20884571D02*
X2014048Y-20903619D01*
X2014048Y-20903619D02*
X2023571Y-20941714D01*
X2023571Y-20941714D02*
X2023571Y-20989333D01*
X2023571Y-20989333D02*
X2014048Y-21027429D01*
X2014048Y-21027429D02*
X2004524Y-21046476D01*
X2004524Y-21046476D02*
X1995000Y-21056000D01*
X1995000Y-21056000D02*
X1975952Y-21065524D01*
X1975952Y-21065524D02*
X1956905Y-21065524D01*
X1956905Y-21065524D02*
X1937857Y-21056000D01*
X1937857Y-21056000D02*
X1928333Y-21046476D01*
X1928333Y-21046476D02*
X1918809Y-21027429D01*
X1918809Y-21027429D02*
X1909286Y-20989333D01*
X1909286Y-20989333D02*
X1909286Y-20941714D01*
X1909286Y-20941714D02*
X1918809Y-20903619D01*
X1918809Y-20903619D02*
X1928333Y-20884571D01*
X1928333Y-20884571D02*
X1937857Y-20875048D01*
X1937857Y-20875048D02*
X1956905Y-20865524D01*
X2147381Y-20865524D02*
X2166429Y-20865524D01*
X2166429Y-20865524D02*
X2185476Y-20875048D01*
X2185476Y-20875048D02*
X2195000Y-20884571D01*
X2195000Y-20884571D02*
X2204524Y-20903619D01*
X2204524Y-20903619D02*
X2214048Y-20941714D01*
X2214048Y-20941714D02*
X2214048Y-20989333D01*
X2214048Y-20989333D02*
X2204524Y-21027429D01*
X2204524Y-21027429D02*
X2195000Y-21046476D01*
X2195000Y-21046476D02*
X2185476Y-21056000D01*
X2185476Y-21056000D02*
X2166429Y-21065524D01*
X2166429Y-21065524D02*
X2147381Y-21065524D01*
X2147381Y-21065524D02*
X2128333Y-21056000D01*
X2128333Y-21056000D02*
X2118810Y-21046476D01*
X2118810Y-21046476D02*
X2109286Y-21027429D01*
X2109286Y-21027429D02*
X2099762Y-20989333D01*
X2099762Y-20989333D02*
X2099762Y-20941714D01*
X2099762Y-20941714D02*
X2109286Y-20903619D01*
X2109286Y-20903619D02*
X2118810Y-20884571D01*
X2118810Y-20884571D02*
X2128333Y-20875048D01*
X2128333Y-20875048D02*
X2147381Y-20865524D01*
X2299762Y-21065524D02*
X2299762Y-20932190D01*
X2299762Y-20951238D02*
X2309286Y-20941714D01*
X2309286Y-20941714D02*
X2328333Y-20932190D01*
X2328333Y-20932190D02*
X2356905Y-20932190D01*
X2356905Y-20932190D02*
X2375952Y-20941714D01*
X2375952Y-20941714D02*
X2385476Y-20960762D01*
X2385476Y-20960762D02*
X2385476Y-21065524D01*
X2385476Y-20960762D02*
X2395000Y-20941714D01*
X2395000Y-20941714D02*
X2414048Y-20932190D01*
X2414048Y-20932190D02*
X2442619Y-20932190D01*
X2442619Y-20932190D02*
X2461667Y-20941714D01*
X2461667Y-20941714D02*
X2471191Y-20960762D01*
X2471191Y-20960762D02*
X2471191Y-21065524D01*
X2566429Y-21065524D02*
X2566429Y-20932190D01*
X2566429Y-20951238D02*
X2575952Y-20941714D01*
X2575952Y-20941714D02*
X2595000Y-20932190D01*
X2595000Y-20932190D02*
X2623572Y-20932190D01*
X2623572Y-20932190D02*
X2642619Y-20941714D01*
X2642619Y-20941714D02*
X2652143Y-20960762D01*
X2652143Y-20960762D02*
X2652143Y-21065524D01*
X2652143Y-20960762D02*
X2661667Y-20941714D01*
X2661667Y-20941714D02*
X2680714Y-20932190D01*
X2680714Y-20932190D02*
X2709286Y-20932190D01*
X2709286Y-20932190D02*
X2728333Y-20941714D01*
X2728333Y-20941714D02*
X2737857Y-20960762D01*
X2737857Y-20960762D02*
X2737857Y-21065524D01*
X3128333Y-20856000D02*
X2956905Y-21113143D01*
X3385476Y-20865524D02*
X3404524Y-20865524D01*
X3404524Y-20865524D02*
X3423572Y-20875048D01*
X3423572Y-20875048D02*
X3433095Y-20884571D01*
X3433095Y-20884571D02*
X3442619Y-20903619D01*
X3442619Y-20903619D02*
X3452143Y-20941714D01*
X3452143Y-20941714D02*
X3452143Y-20989333D01*
X3452143Y-20989333D02*
X3442619Y-21027429D01*
X3442619Y-21027429D02*
X3433095Y-21046476D01*
X3433095Y-21046476D02*
X3423572Y-21056000D01*
X3423572Y-21056000D02*
X3404524Y-21065524D01*
X3404524Y-21065524D02*
X3385476Y-21065524D01*
X3385476Y-21065524D02*
X3366429Y-21056000D01*
X3366429Y-21056000D02*
X3356905Y-21046476D01*
X3356905Y-21046476D02*
X3347381Y-21027429D01*
X3347381Y-21027429D02*
X3337857Y-20989333D01*
X3337857Y-20989333D02*
X3337857Y-20941714D01*
X3337857Y-20941714D02*
X3347381Y-20903619D01*
X3347381Y-20903619D02*
X3356905Y-20884571D01*
X3356905Y-20884571D02*
X3366429Y-20875048D01*
X3366429Y-20875048D02*
X3385476Y-20865524D01*
X3537857Y-21046476D02*
X3547381Y-21056000D01*
X3547381Y-21056000D02*
X3537857Y-21065524D01*
X3537857Y-21065524D02*
X3528333Y-21056000D01*
X3528333Y-21056000D02*
X3537857Y-21046476D01*
X3537857Y-21046476D02*
X3537857Y-21065524D01*
X3671191Y-20865524D02*
X3690238Y-20865524D01*
X3690238Y-20865524D02*
X3709286Y-20875048D01*
X3709286Y-20875048D02*
X3718810Y-20884571D01*
X3718810Y-20884571D02*
X3728333Y-20903619D01*
X3728333Y-20903619D02*
X3737857Y-20941714D01*
X3737857Y-20941714D02*
X3737857Y-20989333D01*
X3737857Y-20989333D02*
X3728333Y-21027429D01*
X3728333Y-21027429D02*
X3718810Y-21046476D01*
X3718810Y-21046476D02*
X3709286Y-21056000D01*
X3709286Y-21056000D02*
X3690238Y-21065524D01*
X3690238Y-21065524D02*
X3671191Y-21065524D01*
X3671191Y-21065524D02*
X3652143Y-21056000D01*
X3652143Y-21056000D02*
X3642619Y-21046476D01*
X3642619Y-21046476D02*
X3633095Y-21027429D01*
X3633095Y-21027429D02*
X3623572Y-20989333D01*
X3623572Y-20989333D02*
X3623572Y-20941714D01*
X3623572Y-20941714D02*
X3633095Y-20903619D01*
X3633095Y-20903619D02*
X3642619Y-20884571D01*
X3642619Y-20884571D02*
X3652143Y-20875048D01*
X3652143Y-20875048D02*
X3671191Y-20865524D01*
X3814048Y-20884571D02*
X3823572Y-20875048D01*
X3823572Y-20875048D02*
X3842619Y-20865524D01*
X3842619Y-20865524D02*
X3890238Y-20865524D01*
X3890238Y-20865524D02*
X3909286Y-20875048D01*
X3909286Y-20875048D02*
X3918810Y-20884571D01*
X3918810Y-20884571D02*
X3928333Y-20903619D01*
X3928333Y-20903619D02*
X3928333Y-20922667D01*
X3928333Y-20922667D02*
X3918810Y-20951238D01*
X3918810Y-20951238D02*
X3804524Y-21065524D01*
X3804524Y-21065524D02*
X3928333Y-21065524D01*
X3995000Y-20865524D02*
X4118810Y-20865524D01*
X4118810Y-20865524D02*
X4052143Y-20941714D01*
X4052143Y-20941714D02*
X4080714Y-20941714D01*
X4080714Y-20941714D02*
X4099762Y-20951238D01*
X4099762Y-20951238D02*
X4109286Y-20960762D01*
X4109286Y-20960762D02*
X4118810Y-20979810D01*
X4118810Y-20979810D02*
X4118810Y-21027429D01*
X4118810Y-21027429D02*
X4109286Y-21046476D01*
X4109286Y-21046476D02*
X4099762Y-21056000D01*
X4099762Y-21056000D02*
X4080714Y-21065524D01*
X4080714Y-21065524D02*
X4023572Y-21065524D01*
X4023572Y-21065524D02*
X4004524Y-21056000D01*
X4004524Y-21056000D02*
X3995000Y-21046476D01*
X4290238Y-20865524D02*
X4252143Y-20865524D01*
X4252143Y-20865524D02*
X4233095Y-20875048D01*
X4233095Y-20875048D02*
X4223572Y-20884571D01*
X4223572Y-20884571D02*
X4204524Y-20913143D01*
X4204524Y-20913143D02*
X4195000Y-20951238D01*
X4195000Y-20951238D02*
X4195000Y-21027429D01*
X4195000Y-21027429D02*
X4204524Y-21046476D01*
X4204524Y-21046476D02*
X4214048Y-21056000D01*
X4214048Y-21056000D02*
X4233095Y-21065524D01*
X4233095Y-21065524D02*
X4271191Y-21065524D01*
X4271191Y-21065524D02*
X4290238Y-21056000D01*
X4290238Y-21056000D02*
X4299762Y-21046476D01*
X4299762Y-21046476D02*
X4309286Y-21027429D01*
X4309286Y-21027429D02*
X4309286Y-20979810D01*
X4309286Y-20979810D02*
X4299762Y-20960762D01*
X4299762Y-20960762D02*
X4290238Y-20951238D01*
X4290238Y-20951238D02*
X4271191Y-20941714D01*
X4271191Y-20941714D02*
X4233095Y-20941714D01*
X4233095Y-20941714D02*
X4214048Y-20951238D01*
X4214048Y-20951238D02*
X4204524Y-20960762D01*
X4204524Y-20960762D02*
X4195000Y-20979810D01*
X4385476Y-20865524D02*
X4385476Y-20903619D01*
X4461667Y-20865524D02*
X4461667Y-20903619D01*
X4756905Y-21141714D02*
X4747381Y-21132190D01*
X4747381Y-21132190D02*
X4728334Y-21103619D01*
X4728334Y-21103619D02*
X4718810Y-21084571D01*
X4718810Y-21084571D02*
X4709286Y-21056000D01*
X4709286Y-21056000D02*
X4699762Y-21008381D01*
X4699762Y-21008381D02*
X4699762Y-20970286D01*
X4699762Y-20970286D02*
X4709286Y-20922667D01*
X4709286Y-20922667D02*
X4718810Y-20894095D01*
X4718810Y-20894095D02*
X4728334Y-20875048D01*
X4728334Y-20875048D02*
X4747381Y-20846476D01*
X4747381Y-20846476D02*
X4756905Y-20836952D01*
X4871191Y-20865524D02*
X4890238Y-20865524D01*
X4890238Y-20865524D02*
X4909286Y-20875048D01*
X4909286Y-20875048D02*
X4918810Y-20884571D01*
X4918810Y-20884571D02*
X4928334Y-20903619D01*
X4928334Y-20903619D02*
X4937857Y-20941714D01*
X4937857Y-20941714D02*
X4937857Y-20989333D01*
X4937857Y-20989333D02*
X4928334Y-21027429D01*
X4928334Y-21027429D02*
X4918810Y-21046476D01*
X4918810Y-21046476D02*
X4909286Y-21056000D01*
X4909286Y-21056000D02*
X4890238Y-21065524D01*
X4890238Y-21065524D02*
X4871191Y-21065524D01*
X4871191Y-21065524D02*
X4852143Y-21056000D01*
X4852143Y-21056000D02*
X4842619Y-21046476D01*
X4842619Y-21046476D02*
X4833096Y-21027429D01*
X4833096Y-21027429D02*
X4823572Y-20989333D01*
X4823572Y-20989333D02*
X4823572Y-20941714D01*
X4823572Y-20941714D02*
X4833096Y-20903619D01*
X4833096Y-20903619D02*
X4842619Y-20884571D01*
X4842619Y-20884571D02*
X4852143Y-20875048D01*
X4852143Y-20875048D02*
X4871191Y-20865524D01*
X5175953Y-21065524D02*
X5175953Y-20865524D01*
X5261667Y-21065524D02*
X5261667Y-20960762D01*
X5261667Y-20960762D02*
X5252143Y-20941714D01*
X5252143Y-20941714D02*
X5233096Y-20932190D01*
X5233096Y-20932190D02*
X5204524Y-20932190D01*
X5204524Y-20932190D02*
X5185477Y-20941714D01*
X5185477Y-20941714D02*
X5175953Y-20951238D01*
X5385477Y-21065524D02*
X5366429Y-21056000D01*
X5366429Y-21056000D02*
X5356905Y-21046476D01*
X5356905Y-21046476D02*
X5347381Y-21027429D01*
X5347381Y-21027429D02*
X5347381Y-20970286D01*
X5347381Y-20970286D02*
X5356905Y-20951238D01*
X5356905Y-20951238D02*
X5366429Y-20941714D01*
X5366429Y-20941714D02*
X5385477Y-20932190D01*
X5385477Y-20932190D02*
X5414048Y-20932190D01*
X5414048Y-20932190D02*
X5433096Y-20941714D01*
X5433096Y-20941714D02*
X5442619Y-20951238D01*
X5442619Y-20951238D02*
X5452143Y-20970286D01*
X5452143Y-20970286D02*
X5452143Y-21027429D01*
X5452143Y-21027429D02*
X5442619Y-21046476D01*
X5442619Y-21046476D02*
X5433096Y-21056000D01*
X5433096Y-21056000D02*
X5414048Y-21065524D01*
X5414048Y-21065524D02*
X5385477Y-21065524D01*
X5566429Y-21065524D02*
X5547381Y-21056000D01*
X5547381Y-21056000D02*
X5537858Y-21036952D01*
X5537858Y-21036952D02*
X5537858Y-20865524D01*
X5718810Y-21056000D02*
X5699762Y-21065524D01*
X5699762Y-21065524D02*
X5661667Y-21065524D01*
X5661667Y-21065524D02*
X5642619Y-21056000D01*
X5642619Y-21056000D02*
X5633096Y-21036952D01*
X5633096Y-21036952D02*
X5633096Y-20960762D01*
X5633096Y-20960762D02*
X5642619Y-20941714D01*
X5642619Y-20941714D02*
X5661667Y-20932190D01*
X5661667Y-20932190D02*
X5699762Y-20932190D01*
X5699762Y-20932190D02*
X5718810Y-20941714D01*
X5718810Y-20941714D02*
X5728334Y-20960762D01*
X5728334Y-20960762D02*
X5728334Y-20979810D01*
X5728334Y-20979810D02*
X5633096Y-20998857D01*
X5804524Y-21056000D02*
X5823572Y-21065524D01*
X5823572Y-21065524D02*
X5861667Y-21065524D01*
X5861667Y-21065524D02*
X5880715Y-21056000D01*
X5880715Y-21056000D02*
X5890238Y-21036952D01*
X5890238Y-21036952D02*
X5890238Y-21027429D01*
X5890238Y-21027429D02*
X5880715Y-21008381D01*
X5880715Y-21008381D02*
X5861667Y-20998857D01*
X5861667Y-20998857D02*
X5833096Y-20998857D01*
X5833096Y-20998857D02*
X5814048Y-20989333D01*
X5814048Y-20989333D02*
X5804524Y-20970286D01*
X5804524Y-20970286D02*
X5804524Y-20960762D01*
X5804524Y-20960762D02*
X5814048Y-20941714D01*
X5814048Y-20941714D02*
X5833096Y-20932190D01*
X5833096Y-20932190D02*
X5861667Y-20932190D01*
X5861667Y-20932190D02*
X5880715Y-20941714D01*
X6128334Y-20989333D02*
X6280715Y-20989333D01*
X6204524Y-21065524D02*
X6204524Y-20913143D01*
X6537858Y-21065524D02*
X6575953Y-21065524D01*
X6575953Y-21065524D02*
X6595000Y-21056000D01*
X6595000Y-21056000D02*
X6604524Y-21046476D01*
X6604524Y-21046476D02*
X6623572Y-21017905D01*
X6623572Y-21017905D02*
X6633096Y-20979810D01*
X6633096Y-20979810D02*
X6633096Y-20903619D01*
X6633096Y-20903619D02*
X6623572Y-20884571D01*
X6623572Y-20884571D02*
X6614048Y-20875048D01*
X6614048Y-20875048D02*
X6595000Y-20865524D01*
X6595000Y-20865524D02*
X6556905Y-20865524D01*
X6556905Y-20865524D02*
X6537858Y-20875048D01*
X6537858Y-20875048D02*
X6528334Y-20884571D01*
X6528334Y-20884571D02*
X6518810Y-20903619D01*
X6518810Y-20903619D02*
X6518810Y-20951238D01*
X6518810Y-20951238D02*
X6528334Y-20970286D01*
X6528334Y-20970286D02*
X6537858Y-20979810D01*
X6537858Y-20979810D02*
X6556905Y-20989333D01*
X6556905Y-20989333D02*
X6595000Y-20989333D01*
X6595000Y-20989333D02*
X6614048Y-20979810D01*
X6614048Y-20979810D02*
X6623572Y-20970286D01*
X6623572Y-20970286D02*
X6633096Y-20951238D01*
X6861667Y-21056000D02*
X6880715Y-21065524D01*
X6880715Y-21065524D02*
X6918810Y-21065524D01*
X6918810Y-21065524D02*
X6937858Y-21056000D01*
X6937858Y-21056000D02*
X6947381Y-21036952D01*
X6947381Y-21036952D02*
X6947381Y-21027429D01*
X6947381Y-21027429D02*
X6937858Y-21008381D01*
X6937858Y-21008381D02*
X6918810Y-20998857D01*
X6918810Y-20998857D02*
X6890239Y-20998857D01*
X6890239Y-20998857D02*
X6871191Y-20989333D01*
X6871191Y-20989333D02*
X6861667Y-20970286D01*
X6861667Y-20970286D02*
X6861667Y-20960762D01*
X6861667Y-20960762D02*
X6871191Y-20941714D01*
X6871191Y-20941714D02*
X6890239Y-20932190D01*
X6890239Y-20932190D02*
X6918810Y-20932190D01*
X6918810Y-20932190D02*
X6937858Y-20941714D01*
X7061667Y-21065524D02*
X7042620Y-21056000D01*
X7042620Y-21056000D02*
X7033096Y-21036952D01*
X7033096Y-21036952D02*
X7033096Y-20865524D01*
X7166429Y-21065524D02*
X7147381Y-21056000D01*
X7147381Y-21056000D02*
X7137858Y-21046476D01*
X7137858Y-21046476D02*
X7128334Y-21027429D01*
X7128334Y-21027429D02*
X7128334Y-20970286D01*
X7128334Y-20970286D02*
X7137858Y-20951238D01*
X7137858Y-20951238D02*
X7147381Y-20941714D01*
X7147381Y-20941714D02*
X7166429Y-20932190D01*
X7166429Y-20932190D02*
X7195001Y-20932190D01*
X7195001Y-20932190D02*
X7214048Y-20941714D01*
X7214048Y-20941714D02*
X7223572Y-20951238D01*
X7223572Y-20951238D02*
X7233096Y-20970286D01*
X7233096Y-20970286D02*
X7233096Y-21027429D01*
X7233096Y-21027429D02*
X7223572Y-21046476D01*
X7223572Y-21046476D02*
X7214048Y-21056000D01*
X7214048Y-21056000D02*
X7195001Y-21065524D01*
X7195001Y-21065524D02*
X7166429Y-21065524D01*
X7290239Y-20932190D02*
X7366429Y-20932190D01*
X7318810Y-20865524D02*
X7318810Y-21036952D01*
X7318810Y-21036952D02*
X7328334Y-21056000D01*
X7328334Y-21056000D02*
X7347381Y-21065524D01*
X7347381Y-21065524D02*
X7366429Y-21065524D01*
X7423572Y-21056000D02*
X7442620Y-21065524D01*
X7442620Y-21065524D02*
X7480715Y-21065524D01*
X7480715Y-21065524D02*
X7499762Y-21056000D01*
X7499762Y-21056000D02*
X7509286Y-21036952D01*
X7509286Y-21036952D02*
X7509286Y-21027429D01*
X7509286Y-21027429D02*
X7499762Y-21008381D01*
X7499762Y-21008381D02*
X7480715Y-20998857D01*
X7480715Y-20998857D02*
X7452143Y-20998857D01*
X7452143Y-20998857D02*
X7433096Y-20989333D01*
X7433096Y-20989333D02*
X7423572Y-20970286D01*
X7423572Y-20970286D02*
X7423572Y-20960762D01*
X7423572Y-20960762D02*
X7433096Y-20941714D01*
X7433096Y-20941714D02*
X7452143Y-20932190D01*
X7452143Y-20932190D02*
X7480715Y-20932190D01*
X7480715Y-20932190D02*
X7499762Y-20941714D01*
X7575953Y-21141714D02*
X7585477Y-21132190D01*
X7585477Y-21132190D02*
X7604524Y-21103619D01*
X7604524Y-21103619D02*
X7614048Y-21084571D01*
X7614048Y-21084571D02*
X7623572Y-21056000D01*
X7623572Y-21056000D02*
X7633096Y-21008381D01*
X7633096Y-21008381D02*
X7633096Y-20970286D01*
X7633096Y-20970286D02*
X7623572Y-20922667D01*
X7623572Y-20922667D02*
X7614048Y-20894095D01*
X7614048Y-20894095D02*
X7604524Y-20875048D01*
X7604524Y-20875048D02*
X7585477Y-20846476D01*
X7585477Y-20846476D02*
X7575953Y-20836952D01*
D15*
X1181820Y-21268820D02*
X1181820Y-21205180D01*
X1118180Y-21205180D01*
X1118180Y-21268820D01*
X1181820Y-21268820D01*
D11*
X1480714Y-21129524D02*
X1499762Y-21129524D01*
X1499762Y-21129524D02*
X1518809Y-21139048D01*
X1518809Y-21139048D02*
X1528333Y-21148571D01*
X1528333Y-21148571D02*
X1537857Y-21167619D01*
X1537857Y-21167619D02*
X1547381Y-21205714D01*
X1547381Y-21205714D02*
X1547381Y-21253333D01*
X1547381Y-21253333D02*
X1537857Y-21291429D01*
X1537857Y-21291429D02*
X1528333Y-21310476D01*
X1528333Y-21310476D02*
X1518809Y-21320000D01*
X1518809Y-21320000D02*
X1499762Y-21329524D01*
X1499762Y-21329524D02*
X1480714Y-21329524D01*
X1480714Y-21329524D02*
X1461667Y-21320000D01*
X1461667Y-21320000D02*
X1452143Y-21310476D01*
X1452143Y-21310476D02*
X1442619Y-21291429D01*
X1442619Y-21291429D02*
X1433095Y-21253333D01*
X1433095Y-21253333D02*
X1433095Y-21205714D01*
X1433095Y-21205714D02*
X1442619Y-21167619D01*
X1442619Y-21167619D02*
X1452143Y-21148571D01*
X1452143Y-21148571D02*
X1461667Y-21139048D01*
X1461667Y-21139048D02*
X1480714Y-21129524D01*
X1633095Y-21310476D02*
X1642619Y-21320000D01*
X1642619Y-21320000D02*
X1633095Y-21329524D01*
X1633095Y-21329524D02*
X1623571Y-21320000D01*
X1623571Y-21320000D02*
X1633095Y-21310476D01*
X1633095Y-21310476D02*
X1633095Y-21329524D01*
X1737857Y-21329524D02*
X1775952Y-21329524D01*
X1775952Y-21329524D02*
X1795000Y-21320000D01*
X1795000Y-21320000D02*
X1804524Y-21310476D01*
X1804524Y-21310476D02*
X1823571Y-21281905D01*
X1823571Y-21281905D02*
X1833095Y-21243810D01*
X1833095Y-21243810D02*
X1833095Y-21167619D01*
X1833095Y-21167619D02*
X1823571Y-21148571D01*
X1823571Y-21148571D02*
X1814048Y-21139048D01*
X1814048Y-21139048D02*
X1795000Y-21129524D01*
X1795000Y-21129524D02*
X1756905Y-21129524D01*
X1756905Y-21129524D02*
X1737857Y-21139048D01*
X1737857Y-21139048D02*
X1728333Y-21148571D01*
X1728333Y-21148571D02*
X1718809Y-21167619D01*
X1718809Y-21167619D02*
X1718809Y-21215238D01*
X1718809Y-21215238D02*
X1728333Y-21234286D01*
X1728333Y-21234286D02*
X1737857Y-21243810D01*
X1737857Y-21243810D02*
X1756905Y-21253333D01*
X1756905Y-21253333D02*
X1795000Y-21253333D01*
X1795000Y-21253333D02*
X1814048Y-21243810D01*
X1814048Y-21243810D02*
X1823571Y-21234286D01*
X1823571Y-21234286D02*
X1833095Y-21215238D01*
X1956905Y-21129524D02*
X1975952Y-21129524D01*
X1975952Y-21129524D02*
X1995000Y-21139048D01*
X1995000Y-21139048D02*
X2004524Y-21148571D01*
X2004524Y-21148571D02*
X2014048Y-21167619D01*
X2014048Y-21167619D02*
X2023571Y-21205714D01*
X2023571Y-21205714D02*
X2023571Y-21253333D01*
X2023571Y-21253333D02*
X2014048Y-21291429D01*
X2014048Y-21291429D02*
X2004524Y-21310476D01*
X2004524Y-21310476D02*
X1995000Y-21320000D01*
X1995000Y-21320000D02*
X1975952Y-21329524D01*
X1975952Y-21329524D02*
X1956905Y-21329524D01*
X1956905Y-21329524D02*
X1937857Y-21320000D01*
X1937857Y-21320000D02*
X1928333Y-21310476D01*
X1928333Y-21310476D02*
X1918809Y-21291429D01*
X1918809Y-21291429D02*
X1909286Y-21253333D01*
X1909286Y-21253333D02*
X1909286Y-21205714D01*
X1909286Y-21205714D02*
X1918809Y-21167619D01*
X1918809Y-21167619D02*
X1928333Y-21148571D01*
X1928333Y-21148571D02*
X1937857Y-21139048D01*
X1937857Y-21139048D02*
X1956905Y-21129524D01*
X2147381Y-21129524D02*
X2166429Y-21129524D01*
X2166429Y-21129524D02*
X2185476Y-21139048D01*
X2185476Y-21139048D02*
X2195000Y-21148571D01*
X2195000Y-21148571D02*
X2204524Y-21167619D01*
X2204524Y-21167619D02*
X2214048Y-21205714D01*
X2214048Y-21205714D02*
X2214048Y-21253333D01*
X2214048Y-21253333D02*
X2204524Y-21291429D01*
X2204524Y-21291429D02*
X2195000Y-21310476D01*
X2195000Y-21310476D02*
X2185476Y-21320000D01*
X2185476Y-21320000D02*
X2166429Y-21329524D01*
X2166429Y-21329524D02*
X2147381Y-21329524D01*
X2147381Y-21329524D02*
X2128333Y-21320000D01*
X2128333Y-21320000D02*
X2118810Y-21310476D01*
X2118810Y-21310476D02*
X2109286Y-21291429D01*
X2109286Y-21291429D02*
X2099762Y-21253333D01*
X2099762Y-21253333D02*
X2099762Y-21205714D01*
X2099762Y-21205714D02*
X2109286Y-21167619D01*
X2109286Y-21167619D02*
X2118810Y-21148571D01*
X2118810Y-21148571D02*
X2128333Y-21139048D01*
X2128333Y-21139048D02*
X2147381Y-21129524D01*
X2299762Y-21329524D02*
X2299762Y-21196190D01*
X2299762Y-21215238D02*
X2309286Y-21205714D01*
X2309286Y-21205714D02*
X2328333Y-21196190D01*
X2328333Y-21196190D02*
X2356905Y-21196190D01*
X2356905Y-21196190D02*
X2375952Y-21205714D01*
X2375952Y-21205714D02*
X2385476Y-21224762D01*
X2385476Y-21224762D02*
X2385476Y-21329524D01*
X2385476Y-21224762D02*
X2395000Y-21205714D01*
X2395000Y-21205714D02*
X2414048Y-21196190D01*
X2414048Y-21196190D02*
X2442619Y-21196190D01*
X2442619Y-21196190D02*
X2461667Y-21205714D01*
X2461667Y-21205714D02*
X2471191Y-21224762D01*
X2471191Y-21224762D02*
X2471191Y-21329524D01*
X2566429Y-21329524D02*
X2566429Y-21196190D01*
X2566429Y-21215238D02*
X2575952Y-21205714D01*
X2575952Y-21205714D02*
X2595000Y-21196190D01*
X2595000Y-21196190D02*
X2623572Y-21196190D01*
X2623572Y-21196190D02*
X2642619Y-21205714D01*
X2642619Y-21205714D02*
X2652143Y-21224762D01*
X2652143Y-21224762D02*
X2652143Y-21329524D01*
X2652143Y-21224762D02*
X2661667Y-21205714D01*
X2661667Y-21205714D02*
X2680714Y-21196190D01*
X2680714Y-21196190D02*
X2709286Y-21196190D01*
X2709286Y-21196190D02*
X2728333Y-21205714D01*
X2728333Y-21205714D02*
X2737857Y-21224762D01*
X2737857Y-21224762D02*
X2737857Y-21329524D01*
X3128333Y-21120000D02*
X2956905Y-21377143D01*
X3385476Y-21129524D02*
X3404524Y-21129524D01*
X3404524Y-21129524D02*
X3423572Y-21139048D01*
X3423572Y-21139048D02*
X3433095Y-21148571D01*
X3433095Y-21148571D02*
X3442619Y-21167619D01*
X3442619Y-21167619D02*
X3452143Y-21205714D01*
X3452143Y-21205714D02*
X3452143Y-21253333D01*
X3452143Y-21253333D02*
X3442619Y-21291429D01*
X3442619Y-21291429D02*
X3433095Y-21310476D01*
X3433095Y-21310476D02*
X3423572Y-21320000D01*
X3423572Y-21320000D02*
X3404524Y-21329524D01*
X3404524Y-21329524D02*
X3385476Y-21329524D01*
X3385476Y-21329524D02*
X3366429Y-21320000D01*
X3366429Y-21320000D02*
X3356905Y-21310476D01*
X3356905Y-21310476D02*
X3347381Y-21291429D01*
X3347381Y-21291429D02*
X3337857Y-21253333D01*
X3337857Y-21253333D02*
X3337857Y-21205714D01*
X3337857Y-21205714D02*
X3347381Y-21167619D01*
X3347381Y-21167619D02*
X3356905Y-21148571D01*
X3356905Y-21148571D02*
X3366429Y-21139048D01*
X3366429Y-21139048D02*
X3385476Y-21129524D01*
X3537857Y-21310476D02*
X3547381Y-21320000D01*
X3547381Y-21320000D02*
X3537857Y-21329524D01*
X3537857Y-21329524D02*
X3528333Y-21320000D01*
X3528333Y-21320000D02*
X3537857Y-21310476D01*
X3537857Y-21310476D02*
X3537857Y-21329524D01*
X3671191Y-21129524D02*
X3690238Y-21129524D01*
X3690238Y-21129524D02*
X3709286Y-21139048D01*
X3709286Y-21139048D02*
X3718810Y-21148571D01*
X3718810Y-21148571D02*
X3728333Y-21167619D01*
X3728333Y-21167619D02*
X3737857Y-21205714D01*
X3737857Y-21205714D02*
X3737857Y-21253333D01*
X3737857Y-21253333D02*
X3728333Y-21291429D01*
X3728333Y-21291429D02*
X3718810Y-21310476D01*
X3718810Y-21310476D02*
X3709286Y-21320000D01*
X3709286Y-21320000D02*
X3690238Y-21329524D01*
X3690238Y-21329524D02*
X3671191Y-21329524D01*
X3671191Y-21329524D02*
X3652143Y-21320000D01*
X3652143Y-21320000D02*
X3642619Y-21310476D01*
X3642619Y-21310476D02*
X3633095Y-21291429D01*
X3633095Y-21291429D02*
X3623572Y-21253333D01*
X3623572Y-21253333D02*
X3623572Y-21205714D01*
X3623572Y-21205714D02*
X3633095Y-21167619D01*
X3633095Y-21167619D02*
X3642619Y-21148571D01*
X3642619Y-21148571D02*
X3652143Y-21139048D01*
X3652143Y-21139048D02*
X3671191Y-21129524D01*
X3804524Y-21129524D02*
X3928333Y-21129524D01*
X3928333Y-21129524D02*
X3861667Y-21205714D01*
X3861667Y-21205714D02*
X3890238Y-21205714D01*
X3890238Y-21205714D02*
X3909286Y-21215238D01*
X3909286Y-21215238D02*
X3918810Y-21224762D01*
X3918810Y-21224762D02*
X3928333Y-21243810D01*
X3928333Y-21243810D02*
X3928333Y-21291429D01*
X3928333Y-21291429D02*
X3918810Y-21310476D01*
X3918810Y-21310476D02*
X3909286Y-21320000D01*
X3909286Y-21320000D02*
X3890238Y-21329524D01*
X3890238Y-21329524D02*
X3833095Y-21329524D01*
X3833095Y-21329524D02*
X3814048Y-21320000D01*
X3814048Y-21320000D02*
X3804524Y-21310476D01*
X4109286Y-21129524D02*
X4014048Y-21129524D01*
X4014048Y-21129524D02*
X4004524Y-21224762D01*
X4004524Y-21224762D02*
X4014048Y-21215238D01*
X4014048Y-21215238D02*
X4033095Y-21205714D01*
X4033095Y-21205714D02*
X4080714Y-21205714D01*
X4080714Y-21205714D02*
X4099762Y-21215238D01*
X4099762Y-21215238D02*
X4109286Y-21224762D01*
X4109286Y-21224762D02*
X4118810Y-21243810D01*
X4118810Y-21243810D02*
X4118810Y-21291429D01*
X4118810Y-21291429D02*
X4109286Y-21310476D01*
X4109286Y-21310476D02*
X4099762Y-21320000D01*
X4099762Y-21320000D02*
X4080714Y-21329524D01*
X4080714Y-21329524D02*
X4033095Y-21329524D01*
X4033095Y-21329524D02*
X4014048Y-21320000D01*
X4014048Y-21320000D02*
X4004524Y-21310476D01*
X4290238Y-21196190D02*
X4290238Y-21329524D01*
X4242619Y-21120000D02*
X4195000Y-21262857D01*
X4195000Y-21262857D02*
X4318810Y-21262857D01*
X4385476Y-21129524D02*
X4385476Y-21167619D01*
X4461667Y-21129524D02*
X4461667Y-21167619D01*
X4756905Y-21405714D02*
X4747381Y-21396190D01*
X4747381Y-21396190D02*
X4728334Y-21367619D01*
X4728334Y-21367619D02*
X4718810Y-21348571D01*
X4718810Y-21348571D02*
X4709286Y-21320000D01*
X4709286Y-21320000D02*
X4699762Y-21272381D01*
X4699762Y-21272381D02*
X4699762Y-21234286D01*
X4699762Y-21234286D02*
X4709286Y-21186667D01*
X4709286Y-21186667D02*
X4718810Y-21158095D01*
X4718810Y-21158095D02*
X4728334Y-21139048D01*
X4728334Y-21139048D02*
X4747381Y-21110476D01*
X4747381Y-21110476D02*
X4756905Y-21100952D01*
X4918810Y-21196190D02*
X4918810Y-21329524D01*
X4871191Y-21120000D02*
X4823572Y-21262857D01*
X4823572Y-21262857D02*
X4947381Y-21262857D01*
X5175953Y-21329524D02*
X5175953Y-21129524D01*
X5261667Y-21329524D02*
X5261667Y-21224762D01*
X5261667Y-21224762D02*
X5252143Y-21205714D01*
X5252143Y-21205714D02*
X5233096Y-21196190D01*
X5233096Y-21196190D02*
X5204524Y-21196190D01*
X5204524Y-21196190D02*
X5185477Y-21205714D01*
X5185477Y-21205714D02*
X5175953Y-21215238D01*
X5385477Y-21329524D02*
X5366429Y-21320000D01*
X5366429Y-21320000D02*
X5356905Y-21310476D01*
X5356905Y-21310476D02*
X5347381Y-21291429D01*
X5347381Y-21291429D02*
X5347381Y-21234286D01*
X5347381Y-21234286D02*
X5356905Y-21215238D01*
X5356905Y-21215238D02*
X5366429Y-21205714D01*
X5366429Y-21205714D02*
X5385477Y-21196190D01*
X5385477Y-21196190D02*
X5414048Y-21196190D01*
X5414048Y-21196190D02*
X5433096Y-21205714D01*
X5433096Y-21205714D02*
X5442619Y-21215238D01*
X5442619Y-21215238D02*
X5452143Y-21234286D01*
X5452143Y-21234286D02*
X5452143Y-21291429D01*
X5452143Y-21291429D02*
X5442619Y-21310476D01*
X5442619Y-21310476D02*
X5433096Y-21320000D01*
X5433096Y-21320000D02*
X5414048Y-21329524D01*
X5414048Y-21329524D02*
X5385477Y-21329524D01*
X5566429Y-21329524D02*
X5547381Y-21320000D01*
X5547381Y-21320000D02*
X5537858Y-21300952D01*
X5537858Y-21300952D02*
X5537858Y-21129524D01*
X5718810Y-21320000D02*
X5699762Y-21329524D01*
X5699762Y-21329524D02*
X5661667Y-21329524D01*
X5661667Y-21329524D02*
X5642619Y-21320000D01*
X5642619Y-21320000D02*
X5633096Y-21300952D01*
X5633096Y-21300952D02*
X5633096Y-21224762D01*
X5633096Y-21224762D02*
X5642619Y-21205714D01*
X5642619Y-21205714D02*
X5661667Y-21196190D01*
X5661667Y-21196190D02*
X5699762Y-21196190D01*
X5699762Y-21196190D02*
X5718810Y-21205714D01*
X5718810Y-21205714D02*
X5728334Y-21224762D01*
X5728334Y-21224762D02*
X5728334Y-21243810D01*
X5728334Y-21243810D02*
X5633096Y-21262857D01*
X5804524Y-21320000D02*
X5823572Y-21329524D01*
X5823572Y-21329524D02*
X5861667Y-21329524D01*
X5861667Y-21329524D02*
X5880715Y-21320000D01*
X5880715Y-21320000D02*
X5890238Y-21300952D01*
X5890238Y-21300952D02*
X5890238Y-21291429D01*
X5890238Y-21291429D02*
X5880715Y-21272381D01*
X5880715Y-21272381D02*
X5861667Y-21262857D01*
X5861667Y-21262857D02*
X5833096Y-21262857D01*
X5833096Y-21262857D02*
X5814048Y-21253333D01*
X5814048Y-21253333D02*
X5804524Y-21234286D01*
X5804524Y-21234286D02*
X5804524Y-21224762D01*
X5804524Y-21224762D02*
X5814048Y-21205714D01*
X5814048Y-21205714D02*
X5833096Y-21196190D01*
X5833096Y-21196190D02*
X5861667Y-21196190D01*
X5861667Y-21196190D02*
X5880715Y-21205714D01*
X5956905Y-21405714D02*
X5966429Y-21396190D01*
X5966429Y-21396190D02*
X5985477Y-21367619D01*
X5985477Y-21367619D02*
X5995000Y-21348571D01*
X5995000Y-21348571D02*
X6004524Y-21320000D01*
X6004524Y-21320000D02*
X6014048Y-21272381D01*
X6014048Y-21272381D02*
X6014048Y-21234286D01*
X6014048Y-21234286D02*
X6004524Y-21186667D01*
X6004524Y-21186667D02*
X5995000Y-21158095D01*
X5995000Y-21158095D02*
X5985477Y-21139048D01*
X5985477Y-21139048D02*
X5966429Y-21110476D01*
X5966429Y-21110476D02*
X5956905Y-21100952D01*
X1095000Y-21601000D02*
X1195000Y-21501000D01*
X1095000Y-21401000D01*
X995000Y-21501000D01*
X1095000Y-21601000D01*
X1433095Y-21412571D02*
X1442619Y-21403048D01*
X1442619Y-21403048D02*
X1461667Y-21393524D01*
X1461667Y-21393524D02*
X1509286Y-21393524D01*
X1509286Y-21393524D02*
X1528333Y-21403048D01*
X1528333Y-21403048D02*
X1537857Y-21412571D01*
X1537857Y-21412571D02*
X1547381Y-21431619D01*
X1547381Y-21431619D02*
X1547381Y-21450667D01*
X1547381Y-21450667D02*
X1537857Y-21479238D01*
X1537857Y-21479238D02*
X1423571Y-21593524D01*
X1423571Y-21593524D02*
X1547381Y-21593524D01*
X1633095Y-21574476D02*
X1642619Y-21584000D01*
X1642619Y-21584000D02*
X1633095Y-21593524D01*
X1633095Y-21593524D02*
X1623571Y-21584000D01*
X1623571Y-21584000D02*
X1633095Y-21574476D01*
X1633095Y-21574476D02*
X1633095Y-21593524D01*
X1823571Y-21393524D02*
X1728333Y-21393524D01*
X1728333Y-21393524D02*
X1718809Y-21488762D01*
X1718809Y-21488762D02*
X1728333Y-21479238D01*
X1728333Y-21479238D02*
X1747381Y-21469714D01*
X1747381Y-21469714D02*
X1795000Y-21469714D01*
X1795000Y-21469714D02*
X1814048Y-21479238D01*
X1814048Y-21479238D02*
X1823571Y-21488762D01*
X1823571Y-21488762D02*
X1833095Y-21507810D01*
X1833095Y-21507810D02*
X1833095Y-21555429D01*
X1833095Y-21555429D02*
X1823571Y-21574476D01*
X1823571Y-21574476D02*
X1814048Y-21584000D01*
X1814048Y-21584000D02*
X1795000Y-21593524D01*
X1795000Y-21593524D02*
X1747381Y-21593524D01*
X1747381Y-21593524D02*
X1728333Y-21584000D01*
X1728333Y-21584000D02*
X1718809Y-21574476D01*
X1956905Y-21393524D02*
X1975952Y-21393524D01*
X1975952Y-21393524D02*
X1995000Y-21403048D01*
X1995000Y-21403048D02*
X2004524Y-21412571D01*
X2004524Y-21412571D02*
X2014048Y-21431619D01*
X2014048Y-21431619D02*
X2023571Y-21469714D01*
X2023571Y-21469714D02*
X2023571Y-21517333D01*
X2023571Y-21517333D02*
X2014048Y-21555429D01*
X2014048Y-21555429D02*
X2004524Y-21574476D01*
X2004524Y-21574476D02*
X1995000Y-21584000D01*
X1995000Y-21584000D02*
X1975952Y-21593524D01*
X1975952Y-21593524D02*
X1956905Y-21593524D01*
X1956905Y-21593524D02*
X1937857Y-21584000D01*
X1937857Y-21584000D02*
X1928333Y-21574476D01*
X1928333Y-21574476D02*
X1918809Y-21555429D01*
X1918809Y-21555429D02*
X1909286Y-21517333D01*
X1909286Y-21517333D02*
X1909286Y-21469714D01*
X1909286Y-21469714D02*
X1918809Y-21431619D01*
X1918809Y-21431619D02*
X1928333Y-21412571D01*
X1928333Y-21412571D02*
X1937857Y-21403048D01*
X1937857Y-21403048D02*
X1956905Y-21393524D01*
X2147381Y-21393524D02*
X2166429Y-21393524D01*
X2166429Y-21393524D02*
X2185476Y-21403048D01*
X2185476Y-21403048D02*
X2195000Y-21412571D01*
X2195000Y-21412571D02*
X2204524Y-21431619D01*
X2204524Y-21431619D02*
X2214048Y-21469714D01*
X2214048Y-21469714D02*
X2214048Y-21517333D01*
X2214048Y-21517333D02*
X2204524Y-21555429D01*
X2204524Y-21555429D02*
X2195000Y-21574476D01*
X2195000Y-21574476D02*
X2185476Y-21584000D01*
X2185476Y-21584000D02*
X2166429Y-21593524D01*
X2166429Y-21593524D02*
X2147381Y-21593524D01*
X2147381Y-21593524D02*
X2128333Y-21584000D01*
X2128333Y-21584000D02*
X2118810Y-21574476D01*
X2118810Y-21574476D02*
X2109286Y-21555429D01*
X2109286Y-21555429D02*
X2099762Y-21517333D01*
X2099762Y-21517333D02*
X2099762Y-21469714D01*
X2099762Y-21469714D02*
X2109286Y-21431619D01*
X2109286Y-21431619D02*
X2118810Y-21412571D01*
X2118810Y-21412571D02*
X2128333Y-21403048D01*
X2128333Y-21403048D02*
X2147381Y-21393524D01*
X2299762Y-21593524D02*
X2299762Y-21460190D01*
X2299762Y-21479238D02*
X2309286Y-21469714D01*
X2309286Y-21469714D02*
X2328333Y-21460190D01*
X2328333Y-21460190D02*
X2356905Y-21460190D01*
X2356905Y-21460190D02*
X2375952Y-21469714D01*
X2375952Y-21469714D02*
X2385476Y-21488762D01*
X2385476Y-21488762D02*
X2385476Y-21593524D01*
X2385476Y-21488762D02*
X2395000Y-21469714D01*
X2395000Y-21469714D02*
X2414048Y-21460190D01*
X2414048Y-21460190D02*
X2442619Y-21460190D01*
X2442619Y-21460190D02*
X2461667Y-21469714D01*
X2461667Y-21469714D02*
X2471191Y-21488762D01*
X2471191Y-21488762D02*
X2471191Y-21593524D01*
X2566429Y-21593524D02*
X2566429Y-21460190D01*
X2566429Y-21479238D02*
X2575952Y-21469714D01*
X2575952Y-21469714D02*
X2595000Y-21460190D01*
X2595000Y-21460190D02*
X2623572Y-21460190D01*
X2623572Y-21460190D02*
X2642619Y-21469714D01*
X2642619Y-21469714D02*
X2652143Y-21488762D01*
X2652143Y-21488762D02*
X2652143Y-21593524D01*
X2652143Y-21488762D02*
X2661667Y-21469714D01*
X2661667Y-21469714D02*
X2680714Y-21460190D01*
X2680714Y-21460190D02*
X2709286Y-21460190D01*
X2709286Y-21460190D02*
X2728333Y-21469714D01*
X2728333Y-21469714D02*
X2737857Y-21488762D01*
X2737857Y-21488762D02*
X2737857Y-21593524D01*
X3128333Y-21384000D02*
X2956905Y-21641143D01*
X3385476Y-21393524D02*
X3404524Y-21393524D01*
X3404524Y-21393524D02*
X3423572Y-21403048D01*
X3423572Y-21403048D02*
X3433095Y-21412571D01*
X3433095Y-21412571D02*
X3442619Y-21431619D01*
X3442619Y-21431619D02*
X3452143Y-21469714D01*
X3452143Y-21469714D02*
X3452143Y-21517333D01*
X3452143Y-21517333D02*
X3442619Y-21555429D01*
X3442619Y-21555429D02*
X3433095Y-21574476D01*
X3433095Y-21574476D02*
X3423572Y-21584000D01*
X3423572Y-21584000D02*
X3404524Y-21593524D01*
X3404524Y-21593524D02*
X3385476Y-21593524D01*
X3385476Y-21593524D02*
X3366429Y-21584000D01*
X3366429Y-21584000D02*
X3356905Y-21574476D01*
X3356905Y-21574476D02*
X3347381Y-21555429D01*
X3347381Y-21555429D02*
X3337857Y-21517333D01*
X3337857Y-21517333D02*
X3337857Y-21469714D01*
X3337857Y-21469714D02*
X3347381Y-21431619D01*
X3347381Y-21431619D02*
X3356905Y-21412571D01*
X3356905Y-21412571D02*
X3366429Y-21403048D01*
X3366429Y-21403048D02*
X3385476Y-21393524D01*
X3537857Y-21574476D02*
X3547381Y-21584000D01*
X3547381Y-21584000D02*
X3537857Y-21593524D01*
X3537857Y-21593524D02*
X3528333Y-21584000D01*
X3528333Y-21584000D02*
X3537857Y-21574476D01*
X3537857Y-21574476D02*
X3537857Y-21593524D01*
X3671191Y-21393524D02*
X3690238Y-21393524D01*
X3690238Y-21393524D02*
X3709286Y-21403048D01*
X3709286Y-21403048D02*
X3718810Y-21412571D01*
X3718810Y-21412571D02*
X3728333Y-21431619D01*
X3728333Y-21431619D02*
X3737857Y-21469714D01*
X3737857Y-21469714D02*
X3737857Y-21517333D01*
X3737857Y-21517333D02*
X3728333Y-21555429D01*
X3728333Y-21555429D02*
X3718810Y-21574476D01*
X3718810Y-21574476D02*
X3709286Y-21584000D01*
X3709286Y-21584000D02*
X3690238Y-21593524D01*
X3690238Y-21593524D02*
X3671191Y-21593524D01*
X3671191Y-21593524D02*
X3652143Y-21584000D01*
X3652143Y-21584000D02*
X3642619Y-21574476D01*
X3642619Y-21574476D02*
X3633095Y-21555429D01*
X3633095Y-21555429D02*
X3623572Y-21517333D01*
X3623572Y-21517333D02*
X3623572Y-21469714D01*
X3623572Y-21469714D02*
X3633095Y-21431619D01*
X3633095Y-21431619D02*
X3642619Y-21412571D01*
X3642619Y-21412571D02*
X3652143Y-21403048D01*
X3652143Y-21403048D02*
X3671191Y-21393524D01*
X3833095Y-21593524D02*
X3871191Y-21593524D01*
X3871191Y-21593524D02*
X3890238Y-21584000D01*
X3890238Y-21584000D02*
X3899762Y-21574476D01*
X3899762Y-21574476D02*
X3918810Y-21545905D01*
X3918810Y-21545905D02*
X3928333Y-21507810D01*
X3928333Y-21507810D02*
X3928333Y-21431619D01*
X3928333Y-21431619D02*
X3918810Y-21412571D01*
X3918810Y-21412571D02*
X3909286Y-21403048D01*
X3909286Y-21403048D02*
X3890238Y-21393524D01*
X3890238Y-21393524D02*
X3852143Y-21393524D01*
X3852143Y-21393524D02*
X3833095Y-21403048D01*
X3833095Y-21403048D02*
X3823572Y-21412571D01*
X3823572Y-21412571D02*
X3814048Y-21431619D01*
X3814048Y-21431619D02*
X3814048Y-21479238D01*
X3814048Y-21479238D02*
X3823572Y-21498286D01*
X3823572Y-21498286D02*
X3833095Y-21507810D01*
X3833095Y-21507810D02*
X3852143Y-21517333D01*
X3852143Y-21517333D02*
X3890238Y-21517333D01*
X3890238Y-21517333D02*
X3909286Y-21507810D01*
X3909286Y-21507810D02*
X3918810Y-21498286D01*
X3918810Y-21498286D02*
X3928333Y-21479238D01*
X4042619Y-21479238D02*
X4023572Y-21469714D01*
X4023572Y-21469714D02*
X4014048Y-21460190D01*
X4014048Y-21460190D02*
X4004524Y-21441143D01*
X4004524Y-21441143D02*
X4004524Y-21431619D01*
X4004524Y-21431619D02*
X4014048Y-21412571D01*
X4014048Y-21412571D02*
X4023572Y-21403048D01*
X4023572Y-21403048D02*
X4042619Y-21393524D01*
X4042619Y-21393524D02*
X4080714Y-21393524D01*
X4080714Y-21393524D02*
X4099762Y-21403048D01*
X4099762Y-21403048D02*
X4109286Y-21412571D01*
X4109286Y-21412571D02*
X4118810Y-21431619D01*
X4118810Y-21431619D02*
X4118810Y-21441143D01*
X4118810Y-21441143D02*
X4109286Y-21460190D01*
X4109286Y-21460190D02*
X4099762Y-21469714D01*
X4099762Y-21469714D02*
X4080714Y-21479238D01*
X4080714Y-21479238D02*
X4042619Y-21479238D01*
X4042619Y-21479238D02*
X4023572Y-21488762D01*
X4023572Y-21488762D02*
X4014048Y-21498286D01*
X4014048Y-21498286D02*
X4004524Y-21517333D01*
X4004524Y-21517333D02*
X4004524Y-21555429D01*
X4004524Y-21555429D02*
X4014048Y-21574476D01*
X4014048Y-21574476D02*
X4023572Y-21584000D01*
X4023572Y-21584000D02*
X4042619Y-21593524D01*
X4042619Y-21593524D02*
X4080714Y-21593524D01*
X4080714Y-21593524D02*
X4099762Y-21584000D01*
X4099762Y-21584000D02*
X4109286Y-21574476D01*
X4109286Y-21574476D02*
X4118810Y-21555429D01*
X4118810Y-21555429D02*
X4118810Y-21517333D01*
X4118810Y-21517333D02*
X4109286Y-21498286D01*
X4109286Y-21498286D02*
X4099762Y-21488762D01*
X4099762Y-21488762D02*
X4080714Y-21479238D01*
X4290238Y-21460190D02*
X4290238Y-21593524D01*
X4242619Y-21384000D02*
X4195000Y-21526857D01*
X4195000Y-21526857D02*
X4318810Y-21526857D01*
X4385476Y-21393524D02*
X4385476Y-21431619D01*
X4461667Y-21393524D02*
X4461667Y-21431619D01*
X4756905Y-21669714D02*
X4747381Y-21660190D01*
X4747381Y-21660190D02*
X4728334Y-21631619D01*
X4728334Y-21631619D02*
X4718810Y-21612571D01*
X4718810Y-21612571D02*
X4709286Y-21584000D01*
X4709286Y-21584000D02*
X4699762Y-21536381D01*
X4699762Y-21536381D02*
X4699762Y-21498286D01*
X4699762Y-21498286D02*
X4709286Y-21450667D01*
X4709286Y-21450667D02*
X4718810Y-21422095D01*
X4718810Y-21422095D02*
X4728334Y-21403048D01*
X4728334Y-21403048D02*
X4747381Y-21374476D01*
X4747381Y-21374476D02*
X4756905Y-21364952D01*
X4937857Y-21593524D02*
X4823572Y-21593524D01*
X4880715Y-21593524D02*
X4880715Y-21393524D01*
X4880715Y-21393524D02*
X4861667Y-21422095D01*
X4861667Y-21422095D02*
X4842619Y-21441143D01*
X4842619Y-21441143D02*
X4823572Y-21450667D01*
X5175953Y-21593524D02*
X5175953Y-21393524D01*
X5261667Y-21593524D02*
X5261667Y-21488762D01*
X5261667Y-21488762D02*
X5252143Y-21469714D01*
X5252143Y-21469714D02*
X5233096Y-21460190D01*
X5233096Y-21460190D02*
X5204524Y-21460190D01*
X5204524Y-21460190D02*
X5185477Y-21469714D01*
X5185477Y-21469714D02*
X5175953Y-21479238D01*
X5385477Y-21593524D02*
X5366429Y-21584000D01*
X5366429Y-21584000D02*
X5356905Y-21574476D01*
X5356905Y-21574476D02*
X5347381Y-21555429D01*
X5347381Y-21555429D02*
X5347381Y-21498286D01*
X5347381Y-21498286D02*
X5356905Y-21479238D01*
X5356905Y-21479238D02*
X5366429Y-21469714D01*
X5366429Y-21469714D02*
X5385477Y-21460190D01*
X5385477Y-21460190D02*
X5414048Y-21460190D01*
X5414048Y-21460190D02*
X5433096Y-21469714D01*
X5433096Y-21469714D02*
X5442619Y-21479238D01*
X5442619Y-21479238D02*
X5452143Y-21498286D01*
X5452143Y-21498286D02*
X5452143Y-21555429D01*
X5452143Y-21555429D02*
X5442619Y-21574476D01*
X5442619Y-21574476D02*
X5433096Y-21584000D01*
X5433096Y-21584000D02*
X5414048Y-21593524D01*
X5414048Y-21593524D02*
X5385477Y-21593524D01*
X5566429Y-21593524D02*
X5547381Y-21584000D01*
X5547381Y-21584000D02*
X5537858Y-21564952D01*
X5537858Y-21564952D02*
X5537858Y-21393524D01*
X5718810Y-21584000D02*
X5699762Y-21593524D01*
X5699762Y-21593524D02*
X5661667Y-21593524D01*
X5661667Y-21593524D02*
X5642619Y-21584000D01*
X5642619Y-21584000D02*
X5633096Y-21564952D01*
X5633096Y-21564952D02*
X5633096Y-21488762D01*
X5633096Y-21488762D02*
X5642619Y-21469714D01*
X5642619Y-21469714D02*
X5661667Y-21460190D01*
X5661667Y-21460190D02*
X5699762Y-21460190D01*
X5699762Y-21460190D02*
X5718810Y-21469714D01*
X5718810Y-21469714D02*
X5728334Y-21488762D01*
X5728334Y-21488762D02*
X5728334Y-21507810D01*
X5728334Y-21507810D02*
X5633096Y-21526857D01*
X5795000Y-21669714D02*
X5804524Y-21660190D01*
X5804524Y-21660190D02*
X5823572Y-21631619D01*
X5823572Y-21631619D02*
X5833096Y-21612571D01*
X5833096Y-21612571D02*
X5842619Y-21584000D01*
X5842619Y-21584000D02*
X5852143Y-21536381D01*
X5852143Y-21536381D02*
X5852143Y-21498286D01*
X5852143Y-21498286D02*
X5842619Y-21450667D01*
X5842619Y-21450667D02*
X5833096Y-21422095D01*
X5833096Y-21422095D02*
X5823572Y-21403048D01*
X5823572Y-21403048D02*
X5804524Y-21374476D01*
X5804524Y-21374476D02*
X5795000Y-21364952D01*
M02*
