%TF.GenerationSoftware,KiCad,Pcbnew,7.0.2-6a45011f42~172~ubuntu22.04.1*%
%TF.CreationDate,2023-05-17T08:32:53+02:00*%
%TF.ProjectId,PowerMeterLC,506f7765-724d-4657-9465-724c432e6b69,rev?*%
%TF.SameCoordinates,Original*%
%TF.FileFunction,Legend,Top*%
%TF.FilePolarity,Positive*%
%FSLAX46Y46*%
G04 Gerber Fmt 4.6, Leading zero omitted, Abs format (unit mm)*
G04 Created by KiCad (PCBNEW 7.0.2-6a45011f42~172~ubuntu22.04.1) date 2023-05-17 08:32:53*
%MOMM*%
%LPD*%
G01*
G04 APERTURE LIST*
G04 Aperture macros list*
%AMRoundRect*
0 Rectangle with rounded corners*
0 $1 Rounding radius*
0 $2 $3 $4 $5 $6 $7 $8 $9 X,Y pos of 4 corners*
0 Add a 4 corners polygon primitive as box body*
4,1,4,$2,$3,$4,$5,$6,$7,$8,$9,$2,$3,0*
0 Add four circle primitives for the rounded corners*
1,1,$1+$1,$2,$3*
1,1,$1+$1,$4,$5*
1,1,$1+$1,$6,$7*
1,1,$1+$1,$8,$9*
0 Add four rect primitives between the rounded corners*
20,1,$1+$1,$2,$3,$4,$5,0*
20,1,$1+$1,$4,$5,$6,$7,0*
20,1,$1+$1,$6,$7,$8,$9,0*
20,1,$1+$1,$8,$9,$2,$3,0*%
G04 Aperture macros list end*
%ADD10C,0.150000*%
%ADD11C,0.120000*%
%ADD12R,1.500000X1.500000*%
%ADD13C,0.800000*%
%ADD14C,5.000000*%
%ADD15RoundRect,0.200000X0.200000X0.275000X-0.200000X0.275000X-0.200000X-0.275000X0.200000X-0.275000X0*%
%ADD16RoundRect,0.200000X-0.200000X-0.275000X0.200000X-0.275000X0.200000X0.275000X-0.200000X0.275000X0*%
%ADD17RoundRect,0.200000X-0.275000X0.200000X-0.275000X-0.200000X0.275000X-0.200000X0.275000X0.200000X0*%
%ADD18R,1.500000X0.900000*%
%ADD19R,0.700000X0.700000*%
%ADD20RoundRect,0.225000X-0.225000X-0.250000X0.225000X-0.250000X0.225000X0.250000X-0.225000X0.250000X0*%
%ADD21RoundRect,0.225000X0.225000X0.250000X-0.225000X0.250000X-0.225000X-0.250000X0.225000X-0.250000X0*%
%ADD22R,2.000000X1.500000*%
%ADD23R,2.000000X3.800000*%
%ADD24C,0.600000*%
%ADD25R,0.600000X1.160000*%
%ADD26R,0.300000X1.160000*%
%ADD27O,0.900000X2.000000*%
%ADD28O,0.900000X1.700000*%
%ADD29RoundRect,0.250000X0.250000X0.475000X-0.250000X0.475000X-0.250000X-0.475000X0.250000X-0.475000X0*%
%ADD30RoundRect,0.250000X-0.250000X-0.475000X0.250000X-0.475000X0.250000X0.475000X-0.250000X0.475000X0*%
%ADD31C,1.200000*%
%ADD32O,1.400000X2.000000*%
%ADD33R,1.400000X2.000000*%
%ADD34R,1.070000X1.800000*%
%ADD35O,1.070000X1.800000*%
G04 APERTURE END LIST*
D10*
X13577619Y-195971428D02*
X13577619Y-195780952D01*
X13577619Y-195780952D02*
X13625238Y-195685714D01*
X13625238Y-195685714D02*
X13720476Y-195590476D01*
X13720476Y-195590476D02*
X13910952Y-195542857D01*
X13910952Y-195542857D02*
X14244285Y-195542857D01*
X14244285Y-195542857D02*
X14434761Y-195590476D01*
X14434761Y-195590476D02*
X14530000Y-195685714D01*
X14530000Y-195685714D02*
X14577619Y-195780952D01*
X14577619Y-195780952D02*
X14577619Y-195971428D01*
X14577619Y-195971428D02*
X14530000Y-196066666D01*
X14530000Y-196066666D02*
X14434761Y-196161904D01*
X14434761Y-196161904D02*
X14244285Y-196209523D01*
X14244285Y-196209523D02*
X13910952Y-196209523D01*
X13910952Y-196209523D02*
X13720476Y-196161904D01*
X13720476Y-196161904D02*
X13625238Y-196066666D01*
X13625238Y-196066666D02*
X13577619Y-195971428D01*
X13910952Y-195114285D02*
X14910952Y-195114285D01*
X13958571Y-195114285D02*
X13910952Y-195019047D01*
X13910952Y-195019047D02*
X13910952Y-194828571D01*
X13910952Y-194828571D02*
X13958571Y-194733333D01*
X13958571Y-194733333D02*
X14006190Y-194685714D01*
X14006190Y-194685714D02*
X14101428Y-194638095D01*
X14101428Y-194638095D02*
X14387142Y-194638095D01*
X14387142Y-194638095D02*
X14482380Y-194685714D01*
X14482380Y-194685714D02*
X14530000Y-194733333D01*
X14530000Y-194733333D02*
X14577619Y-194828571D01*
X14577619Y-194828571D02*
X14577619Y-195019047D01*
X14577619Y-195019047D02*
X14530000Y-195114285D01*
X14530000Y-193828571D02*
X14577619Y-193923809D01*
X14577619Y-193923809D02*
X14577619Y-194114285D01*
X14577619Y-194114285D02*
X14530000Y-194209523D01*
X14530000Y-194209523D02*
X14434761Y-194257142D01*
X14434761Y-194257142D02*
X14053809Y-194257142D01*
X14053809Y-194257142D02*
X13958571Y-194209523D01*
X13958571Y-194209523D02*
X13910952Y-194114285D01*
X13910952Y-194114285D02*
X13910952Y-193923809D01*
X13910952Y-193923809D02*
X13958571Y-193828571D01*
X13958571Y-193828571D02*
X14053809Y-193780952D01*
X14053809Y-193780952D02*
X14149047Y-193780952D01*
X14149047Y-193780952D02*
X14244285Y-194257142D01*
X13910952Y-193352380D02*
X14577619Y-193352380D01*
X14006190Y-193352380D02*
X13958571Y-193304761D01*
X13958571Y-193304761D02*
X13910952Y-193209523D01*
X13910952Y-193209523D02*
X13910952Y-193066666D01*
X13910952Y-193066666D02*
X13958571Y-192971428D01*
X13958571Y-192971428D02*
X14053809Y-192923809D01*
X14053809Y-192923809D02*
X14577619Y-192923809D01*
X14291904Y-192495237D02*
X14291904Y-192019047D01*
X14577619Y-192590475D02*
X13577619Y-192257142D01*
X13577619Y-192257142D02*
X14577619Y-191923809D01*
X14577619Y-191590475D02*
X13910952Y-191590475D01*
X14006190Y-191590475D02*
X13958571Y-191542856D01*
X13958571Y-191542856D02*
X13910952Y-191447618D01*
X13910952Y-191447618D02*
X13910952Y-191304761D01*
X13910952Y-191304761D02*
X13958571Y-191209523D01*
X13958571Y-191209523D02*
X14053809Y-191161904D01*
X14053809Y-191161904D02*
X14577619Y-191161904D01*
X14053809Y-191161904D02*
X13958571Y-191114285D01*
X13958571Y-191114285D02*
X13910952Y-191019047D01*
X13910952Y-191019047D02*
X13910952Y-190876190D01*
X13910952Y-190876190D02*
X13958571Y-190780951D01*
X13958571Y-190780951D02*
X14053809Y-190733332D01*
X14053809Y-190733332D02*
X14577619Y-190733332D01*
X13910952Y-190257142D02*
X14910952Y-190257142D01*
X13958571Y-190257142D02*
X13910952Y-190161904D01*
X13910952Y-190161904D02*
X13910952Y-189971428D01*
X13910952Y-189971428D02*
X13958571Y-189876190D01*
X13958571Y-189876190D02*
X14006190Y-189828571D01*
X14006190Y-189828571D02*
X14101428Y-189780952D01*
X14101428Y-189780952D02*
X14387142Y-189780952D01*
X14387142Y-189780952D02*
X14482380Y-189828571D01*
X14482380Y-189828571D02*
X14530000Y-189876190D01*
X14530000Y-189876190D02*
X14577619Y-189971428D01*
X14577619Y-189971428D02*
X14577619Y-190161904D01*
X14577619Y-190161904D02*
X14530000Y-190257142D01*
X14577619Y-188590475D02*
X13577619Y-188590475D01*
X13577619Y-188590475D02*
X14291904Y-188257142D01*
X14291904Y-188257142D02*
X13577619Y-187923809D01*
X13577619Y-187923809D02*
X14577619Y-187923809D01*
X14530000Y-187066666D02*
X14577619Y-187161904D01*
X14577619Y-187161904D02*
X14577619Y-187352380D01*
X14577619Y-187352380D02*
X14530000Y-187447618D01*
X14530000Y-187447618D02*
X14434761Y-187495237D01*
X14434761Y-187495237D02*
X14053809Y-187495237D01*
X14053809Y-187495237D02*
X13958571Y-187447618D01*
X13958571Y-187447618D02*
X13910952Y-187352380D01*
X13910952Y-187352380D02*
X13910952Y-187161904D01*
X13910952Y-187161904D02*
X13958571Y-187066666D01*
X13958571Y-187066666D02*
X14053809Y-187019047D01*
X14053809Y-187019047D02*
X14149047Y-187019047D01*
X14149047Y-187019047D02*
X14244285Y-187495237D01*
X13910952Y-186733332D02*
X13910952Y-186352380D01*
X13577619Y-186590475D02*
X14434761Y-186590475D01*
X14434761Y-186590475D02*
X14530000Y-186542856D01*
X14530000Y-186542856D02*
X14577619Y-186447618D01*
X14577619Y-186447618D02*
X14577619Y-186352380D01*
X14530000Y-185638094D02*
X14577619Y-185733332D01*
X14577619Y-185733332D02*
X14577619Y-185923808D01*
X14577619Y-185923808D02*
X14530000Y-186019046D01*
X14530000Y-186019046D02*
X14434761Y-186066665D01*
X14434761Y-186066665D02*
X14053809Y-186066665D01*
X14053809Y-186066665D02*
X13958571Y-186019046D01*
X13958571Y-186019046D02*
X13910952Y-185923808D01*
X13910952Y-185923808D02*
X13910952Y-185733332D01*
X13910952Y-185733332D02*
X13958571Y-185638094D01*
X13958571Y-185638094D02*
X14053809Y-185590475D01*
X14053809Y-185590475D02*
X14149047Y-185590475D01*
X14149047Y-185590475D02*
X14244285Y-186066665D01*
X14577619Y-185161903D02*
X13910952Y-185161903D01*
X14101428Y-185161903D02*
X14006190Y-185114284D01*
X14006190Y-185114284D02*
X13958571Y-185066665D01*
X13958571Y-185066665D02*
X13910952Y-184971427D01*
X13910952Y-184971427D02*
X13910952Y-184876189D01*
X13577619Y-183923807D02*
X14577619Y-183590474D01*
X14577619Y-183590474D02*
X13577619Y-183257141D01*
X13577619Y-182733331D02*
X13577619Y-182638093D01*
X13577619Y-182638093D02*
X13625238Y-182542855D01*
X13625238Y-182542855D02*
X13672857Y-182495236D01*
X13672857Y-182495236D02*
X13768095Y-182447617D01*
X13768095Y-182447617D02*
X13958571Y-182399998D01*
X13958571Y-182399998D02*
X14196666Y-182399998D01*
X14196666Y-182399998D02*
X14387142Y-182447617D01*
X14387142Y-182447617D02*
X14482380Y-182495236D01*
X14482380Y-182495236D02*
X14530000Y-182542855D01*
X14530000Y-182542855D02*
X14577619Y-182638093D01*
X14577619Y-182638093D02*
X14577619Y-182733331D01*
X14577619Y-182733331D02*
X14530000Y-182828569D01*
X14530000Y-182828569D02*
X14482380Y-182876188D01*
X14482380Y-182876188D02*
X14387142Y-182923807D01*
X14387142Y-182923807D02*
X14196666Y-182971426D01*
X14196666Y-182971426D02*
X13958571Y-182971426D01*
X13958571Y-182971426D02*
X13768095Y-182923807D01*
X13768095Y-182923807D02*
X13672857Y-182876188D01*
X13672857Y-182876188D02*
X13625238Y-182828569D01*
X13625238Y-182828569D02*
X13577619Y-182733331D01*
X14482380Y-181971426D02*
X14530000Y-181923807D01*
X14530000Y-181923807D02*
X14577619Y-181971426D01*
X14577619Y-181971426D02*
X14530000Y-182019045D01*
X14530000Y-182019045D02*
X14482380Y-181971426D01*
X14482380Y-181971426D02*
X14577619Y-181971426D01*
X14577619Y-180971427D02*
X14577619Y-181542855D01*
X14577619Y-181257141D02*
X13577619Y-181257141D01*
X13577619Y-181257141D02*
X13720476Y-181352379D01*
X13720476Y-181352379D02*
X13815714Y-181447617D01*
X13815714Y-181447617D02*
X13863333Y-181542855D01*
D11*
%TO.C,SW2*%
X24460000Y-166140000D02*
X24460000Y-172260000D01*
X20760000Y-166140000D02*
X24460000Y-166140000D01*
X24460000Y-172260000D02*
X20760000Y-172260000D01*
X20760000Y-172260000D02*
X20760000Y-166140000D01*
%TO.C,R10*%
X19347258Y-181822500D02*
X18872742Y-181822500D01*
X19347258Y-180777500D02*
X18872742Y-180777500D01*
%TO.C,R2*%
X18547742Y-166577500D02*
X19022258Y-166577500D01*
X18547742Y-167622500D02*
X19022258Y-167622500D01*
%TO.C,R7*%
X22932500Y-175987742D02*
X22932500Y-176462258D01*
X21887500Y-175987742D02*
X21887500Y-176462258D01*
%TO.C,U4*%
X18000000Y-142300000D02*
X18000000Y-148800000D01*
X18000000Y-142300000D02*
X36000000Y-142300000D01*
X18000000Y-162300000D02*
X18000000Y-162050000D01*
X36000000Y-142300000D02*
X36000000Y-148800000D01*
X36000000Y-148300000D02*
X18050000Y-148300000D01*
X36000000Y-162050000D02*
X36000000Y-162300000D01*
X36000000Y-162300000D02*
X18000000Y-162300000D01*
%TO.C,C17*%
X32369420Y-183990000D02*
X32650580Y-183990000D01*
X32369420Y-185010000D02*
X32650580Y-185010000D01*
%TO.C,R3*%
X18547742Y-169977500D02*
X19022258Y-169977500D01*
X18547742Y-171022500D02*
X19022258Y-171022500D01*
%TO.C,C10*%
X15475580Y-150010000D02*
X15194420Y-150010000D01*
X15475580Y-148990000D02*
X15194420Y-148990000D01*
%TO.C,U2*%
X31310000Y-174490000D02*
X37320000Y-174490000D01*
X33560000Y-181310000D02*
X37320000Y-181310000D01*
X37320000Y-174490000D02*
X37320000Y-175750000D01*
X37320000Y-181310000D02*
X37320000Y-180050000D01*
%TO.C,J2*%
X26740000Y-191855000D02*
X26740000Y-193655000D01*
X26740000Y-197365000D02*
X26740000Y-195905000D01*
X35680000Y-191855000D02*
X35680000Y-193655000D01*
X35680000Y-197365000D02*
X26740000Y-197365000D01*
X35680000Y-197365000D02*
X35680000Y-195905000D01*
%TO.C,R4*%
X33897742Y-186977500D02*
X34372258Y-186977500D01*
X33897742Y-188022500D02*
X34372258Y-188022500D01*
%TO.C,C12*%
X36621252Y-173835000D02*
X36098748Y-173835000D01*
X36621252Y-172365000D02*
X36098748Y-172365000D01*
%TO.C,C14*%
X32448748Y-181965000D02*
X32971252Y-181965000D01*
X32448748Y-183435000D02*
X32971252Y-183435000D01*
%TO.C,C18*%
X27359420Y-162990000D02*
X27640580Y-162990000D01*
X27359420Y-164010000D02*
X27640580Y-164010000D01*
%TO.C,C13*%
X15475580Y-153210000D02*
X15194420Y-153210000D01*
X15475580Y-152190000D02*
X15194420Y-152190000D01*
%TO.C,C5*%
X32159420Y-162990000D02*
X32440580Y-162990000D01*
X32159420Y-164010000D02*
X32440580Y-164010000D01*
%TO.C,R11*%
X18872742Y-179177500D02*
X19347258Y-179177500D01*
X18872742Y-180222500D02*
X19347258Y-180222500D01*
%TO.C,R9*%
X20932500Y-175987742D02*
X20932500Y-176462258D01*
X19887500Y-175987742D02*
X19887500Y-176462258D01*
%TO.C,C15*%
X15421252Y-155335000D02*
X14898748Y-155335000D01*
X15421252Y-153865000D02*
X14898748Y-153865000D01*
%TO.C,C16*%
X15475580Y-151610000D02*
X15194420Y-151610000D01*
X15475580Y-150590000D02*
X15194420Y-150590000D01*
%TO.C,SW1*%
X34150000Y-166140000D02*
X34150000Y-172260000D01*
X30450000Y-166140000D02*
X34150000Y-166140000D01*
X34150000Y-172260000D02*
X30450000Y-172260000D01*
X30450000Y-172260000D02*
X30450000Y-166140000D01*
%TO.C,R6*%
X18547742Y-168277500D02*
X19022258Y-168277500D01*
X18547742Y-169322500D02*
X19022258Y-169322500D01*
%TO.C,J3*%
X24832500Y-185900000D02*
X24832500Y-184900000D01*
X24832500Y-184900000D02*
X24332500Y-185400000D01*
X24332500Y-185400000D02*
X24832500Y-185900000D01*
X24032500Y-194700000D02*
X24032500Y-183300000D01*
X24032500Y-194700000D02*
X23732500Y-194700000D01*
X24032500Y-183300000D02*
X19432500Y-183300000D01*
X23732500Y-194700000D02*
X23732500Y-197500000D01*
X17932500Y-197500000D02*
X23732500Y-197500000D01*
X17932500Y-194700000D02*
X17932500Y-197500000D01*
X17932500Y-194700000D02*
X16732500Y-194700000D01*
X16732500Y-194700000D02*
X16732500Y-183300000D01*
X16732500Y-183300000D02*
X17832500Y-183300000D01*
%TO.C,C11*%
X36700580Y-171810000D02*
X36419420Y-171810000D01*
X36700580Y-170790000D02*
X36419420Y-170790000D01*
%TO.C,SW3*%
X29320000Y-166140000D02*
X29320000Y-172260000D01*
X25620000Y-166140000D02*
X29320000Y-166140000D01*
X29320000Y-172260000D02*
X25620000Y-172260000D01*
X25620000Y-172260000D02*
X25620000Y-166140000D01*
%TO.C,R5*%
X30847742Y-186977500D02*
X31322258Y-186977500D01*
X30847742Y-188022500D02*
X31322258Y-188022500D01*
%TO.C,D2*%
X24915000Y-175955000D02*
X24915000Y-176420000D01*
X24915000Y-178580000D02*
X24915000Y-179045000D01*
X30262814Y-176419173D02*
G75*
G03*
X24915001Y-175955170I-2787814J-1080827D01*
G01*
X29729478Y-176419572D02*
G75*
G03*
X25220317Y-176420000I-2254478J-1080428D01*
G01*
X25220316Y-178580000D02*
G75*
G03*
X29729479Y-178580429I2254684J1080000D01*
G01*
X24915001Y-179044830D02*
G75*
G03*
X30262814Y-178580827I2559999J1544830D01*
G01*
%TO.C,C19*%
X22198748Y-180265000D02*
X22721252Y-180265000D01*
X22198748Y-181735000D02*
X22721252Y-181735000D01*
%TO.C,R8*%
X18932500Y-175987742D02*
X18932500Y-176462258D01*
X17887500Y-175987742D02*
X17887500Y-176462258D01*
%TO.C,C6*%
X22394420Y-162990000D02*
X22675580Y-162990000D01*
X22394420Y-164010000D02*
X22675580Y-164010000D01*
%TD*%
%LPC*%
D12*
%TO.C,SW2*%
X22610000Y-165300000D03*
X22610000Y-173100000D03*
%TD*%
D13*
%TO.C,TP1*%
X25595000Y-183625000D03*
X26144175Y-182299175D03*
X26144175Y-184950825D03*
X27470000Y-181750000D03*
D14*
X27470000Y-183625000D03*
D13*
X27470000Y-185500000D03*
X28795825Y-182299175D03*
X28795825Y-184950825D03*
X29345000Y-183625000D03*
%TD*%
D15*
%TO.C,R10*%
X19935000Y-181300000D03*
X18285000Y-181300000D03*
%TD*%
D16*
%TO.C,R2*%
X17960000Y-167100000D03*
X19610000Y-167100000D03*
%TD*%
D17*
%TO.C,R7*%
X22410000Y-175400000D03*
X22410000Y-177050000D03*
%TD*%
D18*
%TO.C,U4*%
X18250000Y-149400000D03*
X18250000Y-150900000D03*
X18250000Y-152400000D03*
X18250000Y-153900000D03*
X18250000Y-155400000D03*
X18250000Y-156900000D03*
X18250000Y-158400000D03*
X18250000Y-159900000D03*
X18250000Y-161400000D03*
X35750000Y-161400000D03*
X35750000Y-159900000D03*
X35750000Y-158400000D03*
X35750000Y-156900000D03*
X35750000Y-155400000D03*
X35750000Y-153900000D03*
X35750000Y-152400000D03*
X35750000Y-150900000D03*
X35750000Y-149400000D03*
D19*
X26860000Y-154500000D03*
X26860000Y-155600000D03*
X26860000Y-156700000D03*
X27910000Y-154500000D03*
X27910000Y-155600000D03*
X27910000Y-156700000D03*
X29060000Y-154500000D03*
X29060000Y-155600000D03*
X29060000Y-156700000D03*
%TD*%
D20*
%TO.C,C17*%
X31735000Y-184500000D03*
X33285000Y-184500000D03*
%TD*%
D16*
%TO.C,R3*%
X17960000Y-170500000D03*
X19610000Y-170500000D03*
%TD*%
D21*
%TO.C,C10*%
X16110000Y-149500000D03*
X14560000Y-149500000D03*
%TD*%
D22*
%TO.C,U2*%
X32260000Y-175600000D03*
X32260000Y-177900000D03*
D23*
X38560000Y-177900000D03*
D22*
X32260000Y-180200000D03*
%TD*%
D24*
%TO.C,J2*%
X28320000Y-191075000D03*
X34100000Y-191075000D03*
D25*
X28010000Y-190015000D03*
X28810000Y-190015000D03*
D26*
X29960000Y-190015000D03*
X30960000Y-190015000D03*
X31460000Y-190015000D03*
X32460000Y-190015000D03*
D25*
X33610000Y-190015000D03*
X34410000Y-190015000D03*
X34410000Y-190015000D03*
X33610000Y-190015000D03*
D26*
X32960000Y-190015000D03*
X31960000Y-190015000D03*
X30460000Y-190015000D03*
X29460000Y-190015000D03*
D25*
X28810000Y-190015000D03*
X28010000Y-190015000D03*
D27*
X26890000Y-190595000D03*
D28*
X26890000Y-194765000D03*
D27*
X35530000Y-190595000D03*
D28*
X35530000Y-194765000D03*
%TD*%
D16*
%TO.C,R4*%
X33310000Y-187500000D03*
X34960000Y-187500000D03*
%TD*%
D29*
%TO.C,C12*%
X37310000Y-173100000D03*
X35410000Y-173100000D03*
%TD*%
D30*
%TO.C,C14*%
X31760000Y-182700000D03*
X33660000Y-182700000D03*
%TD*%
D20*
%TO.C,C18*%
X26725000Y-163500000D03*
X28275000Y-163500000D03*
%TD*%
D21*
%TO.C,C13*%
X16110000Y-152700000D03*
X14560000Y-152700000D03*
%TD*%
D20*
%TO.C,C5*%
X31525000Y-163500000D03*
X33075000Y-163500000D03*
%TD*%
D16*
%TO.C,R11*%
X18285000Y-179700000D03*
X19935000Y-179700000D03*
%TD*%
D17*
%TO.C,R9*%
X20410000Y-175400000D03*
X20410000Y-177050000D03*
%TD*%
D29*
%TO.C,C15*%
X16110000Y-154600000D03*
X14210000Y-154600000D03*
%TD*%
D21*
%TO.C,C16*%
X16110000Y-151100000D03*
X14560000Y-151100000D03*
%TD*%
D12*
%TO.C,SW1*%
X32300000Y-165300000D03*
X32300000Y-173100000D03*
%TD*%
D16*
%TO.C,R6*%
X17960000Y-168800000D03*
X19610000Y-168800000D03*
%TD*%
D31*
%TO.C,J3*%
X20832500Y-191100000D03*
X20832500Y-184100000D03*
D32*
X17632500Y-192400000D03*
X23132500Y-189400000D03*
X23132500Y-192400000D03*
X18632500Y-183900000D03*
D33*
X23132500Y-185400000D03*
%TD*%
D21*
%TO.C,C11*%
X37335000Y-171300000D03*
X35785000Y-171300000D03*
%TD*%
D12*
%TO.C,SW3*%
X27470000Y-165300000D03*
X27470000Y-173100000D03*
%TD*%
D16*
%TO.C,R5*%
X30260000Y-187500000D03*
X31910000Y-187500000D03*
%TD*%
D34*
%TO.C,D2*%
X25570000Y-177500000D03*
D35*
X26840000Y-177500000D03*
X28110000Y-177500000D03*
X29380000Y-177500000D03*
%TD*%
D30*
%TO.C,C19*%
X21510000Y-181000000D03*
X23410000Y-181000000D03*
%TD*%
D17*
%TO.C,R8*%
X18410000Y-175400000D03*
X18410000Y-177050000D03*
%TD*%
D20*
%TO.C,C6*%
X21760000Y-163500000D03*
X23310000Y-163500000D03*
%TD*%
%LPD*%
M02*
