M48
; DRILL file {KiCad 7.0.2-6a45011f42~172~ubuntu22.04.1} date Wed 17 May 2023 08:32:56
; FORMAT={-:-/ absolute / metric / decimal}
; #@! TF.CreationDate,2023-05-17T08:32:56+02:00
; #@! TF.GenerationSoftware,Kicad,Pcbnew,7.0.2-6a45011f42~172~ubuntu22.04.1
; #@! TF.FileFunction,Plated,1,4,PTH
FMAT,2
METRIC
; #@! TA.AperFunction,Plated,PTH,ViaDrill
T1C0.400
; #@! TA.AperFunction,Plated,PTH,ComponentDrill
T2C0.500
; #@! TA.AperFunction,Plated,PTH,ComponentDrill
T3C0.600
; #@! TA.AperFunction,Plated,PTH,ComponentDrill
T4C0.900
; #@! TA.AperFunction,Plated,PTH,ComponentDrill
T5C2.500
%
G90
G05
T1
X12.6Y-150.927
X12.6Y-152.764
X12.6Y-154.6
X12.6Y-156.5
X12.6Y-158.336
X12.6Y-160.173
X12.6Y-162.009
X12.6Y-163.845
X12.6Y-165.682
X12.6Y-167.518
X12.6Y-169.355
X12.6Y-171.191
X12.6Y-173.027
X12.6Y-174.864
X12.6Y-176.7
X12.6Y-178.536
X12.6Y-180.373
X12.6Y-182.209
X12.6Y-184.045
X12.6Y-185.882
X12.6Y-187.718
X12.6Y-189.555
X12.6Y-191.391
X12.6Y-193.227
X12.6Y-195.064
X13.1Y-196.9
X14.771Y-197.2
X16.11Y-156.0
X16.11Y-156.9
X16.11Y-157.9
X16.21Y-167.0
X16.406Y-197.2
X16.81Y-179.7
X18.041Y-197.2
X18.91Y-163.1
X19.31Y-164.1
X19.676Y-197.2
X19.81Y-156.9
X19.91Y-165.1
X20.229Y-148.8
X20.61Y-155.4
X21.312Y-197.2
X21.41Y-152.4
X21.865Y-148.8
X22.947Y-197.2
X23.488Y-148.8
X24.582Y-197.2
X25.124Y-148.8
X26.218Y-197.2
X26.7Y-162.0
X26.759Y-148.8
X27.41Y-155.1
X27.41Y-156.2
X27.853Y-197.2
X28.394Y-148.8
X28.51Y-155.1
X28.51Y-156.2
X28.81Y-188.8
X29.488Y-197.2
X30.029Y-148.8
X31.124Y-197.2
X31.21Y-185.8
X31.665Y-148.8
X32.01Y-152.4
X32.01Y-185.8
X32.759Y-197.2
X33.3Y-148.8
X33.71Y-188.8
X34.394Y-197.2
X36.029Y-197.2
X37.41Y-160.0
X37.6Y-148.7
X37.665Y-197.2
X38.01Y-176.5
X38.01Y-177.433
X38.01Y-178.367
X38.01Y-179.3
X38.7Y-148.7
X39.01Y-176.5
X39.01Y-177.433
X39.01Y-178.367
X39.01Y-179.3
X39.3Y-197.2
X39.9Y-148.7
X40.9Y-196.9
X41.0Y-148.9
X41.5Y-150.2
X41.5Y-151.5
X41.5Y-152.936
X41.5Y-154.773
X41.5Y-156.609
X41.5Y-158.445
X41.5Y-160.282
X41.5Y-162.118
X41.5Y-163.955
X41.5Y-165.791
X41.5Y-167.627
X41.5Y-169.464
X41.5Y-171.3
X41.5Y-173.136
X41.5Y-174.973
X41.5Y-176.809
X41.5Y-178.645
X41.5Y-180.482
X41.5Y-182.318
X41.5Y-184.155
X41.5Y-185.991
X41.5Y-187.827
X41.5Y-189.664
X41.5Y-191.5
X41.5Y-193.0
X41.5Y-194.4
X41.5Y-195.8
T2
X25.595Y-183.625
X26.144Y-182.299
X26.144Y-184.951
X27.47Y-181.75
X27.47Y-185.5
X28.796Y-182.299
X28.796Y-184.951
X29.345Y-183.625
T4
X25.57Y-177.5
X26.84Y-177.5
X28.11Y-177.5
X29.38Y-177.5
T5
X27.47Y-183.625
T3
X17.633Y-192.7G85X17.633Y-192.1
G05
X18.633Y-184.2G85X18.633Y-183.6
G05
X23.133Y-185.7G85X23.133Y-185.1
G05
X23.133Y-189.7G85X23.133Y-189.1
G05
X23.133Y-192.7G85X23.133Y-192.1
G05
X26.89Y-191.145G85X26.89Y-190.045
G05
X26.89Y-195.165G85X26.89Y-194.365
G05
X35.53Y-191.145G85X35.53Y-190.045
G05
X35.53Y-195.165G85X35.53Y-194.365
G05
T0
M30
