%TF.GenerationSoftware,KiCad,Pcbnew,7.0.2-6a45011f42~172~ubuntu22.04.1*%
%TF.CreationDate,2023-05-17T08:32:53+02:00*%
%TF.ProjectId,PowerMeterLC,506f7765-724d-4657-9465-724c432e6b69,rev?*%
%TF.SameCoordinates,Original*%
%TF.FileFunction,Paste,Top*%
%TF.FilePolarity,Positive*%
%FSLAX46Y46*%
G04 Gerber Fmt 4.6, Leading zero omitted, Abs format (unit mm)*
G04 Created by KiCad (PCBNEW 7.0.2-6a45011f42~172~ubuntu22.04.1) date 2023-05-17 08:32:53*
%MOMM*%
%LPD*%
G01*
G04 APERTURE LIST*
G04 Aperture macros list*
%AMRoundRect*
0 Rectangle with rounded corners*
0 $1 Rounding radius*
0 $2 $3 $4 $5 $6 $7 $8 $9 X,Y pos of 4 corners*
0 Add a 4 corners polygon primitive as box body*
4,1,4,$2,$3,$4,$5,$6,$7,$8,$9,$2,$3,0*
0 Add four circle primitives for the rounded corners*
1,1,$1+$1,$2,$3*
1,1,$1+$1,$4,$5*
1,1,$1+$1,$6,$7*
1,1,$1+$1,$8,$9*
0 Add four rect primitives between the rounded corners*
20,1,$1+$1,$2,$3,$4,$5,0*
20,1,$1+$1,$4,$5,$6,$7,0*
20,1,$1+$1,$6,$7,$8,$9,0*
20,1,$1+$1,$8,$9,$2,$3,0*%
G04 Aperture macros list end*
%ADD10R,1.500000X1.500000*%
%ADD11RoundRect,0.200000X0.200000X0.275000X-0.200000X0.275000X-0.200000X-0.275000X0.200000X-0.275000X0*%
%ADD12RoundRect,0.200000X-0.200000X-0.275000X0.200000X-0.275000X0.200000X0.275000X-0.200000X0.275000X0*%
%ADD13RoundRect,0.200000X-0.275000X0.200000X-0.275000X-0.200000X0.275000X-0.200000X0.275000X0.200000X0*%
%ADD14R,1.500000X0.900000*%
%ADD15R,0.700000X0.700000*%
%ADD16RoundRect,0.225000X-0.225000X-0.250000X0.225000X-0.250000X0.225000X0.250000X-0.225000X0.250000X0*%
%ADD17RoundRect,0.225000X0.225000X0.250000X-0.225000X0.250000X-0.225000X-0.250000X0.225000X-0.250000X0*%
%ADD18R,2.000000X1.500000*%
%ADD19R,2.000000X3.800000*%
%ADD20R,0.600000X1.160000*%
%ADD21R,0.300000X1.160000*%
%ADD22RoundRect,0.250000X0.250000X0.475000X-0.250000X0.475000X-0.250000X-0.475000X0.250000X-0.475000X0*%
%ADD23RoundRect,0.250000X-0.250000X-0.475000X0.250000X-0.475000X0.250000X0.475000X-0.250000X0.475000X0*%
G04 APERTURE END LIST*
D10*
%TO.C,SW2*%
X22610000Y-165300000D03*
X22610000Y-173100000D03*
%TD*%
D11*
%TO.C,R10*%
X19935000Y-181300000D03*
X18285000Y-181300000D03*
%TD*%
D12*
%TO.C,R2*%
X17960000Y-167100000D03*
X19610000Y-167100000D03*
%TD*%
D13*
%TO.C,R7*%
X22410000Y-175400000D03*
X22410000Y-177050000D03*
%TD*%
D14*
%TO.C,U4*%
X18250000Y-149400000D03*
X18250000Y-150900000D03*
X18250000Y-152400000D03*
X18250000Y-153900000D03*
X18250000Y-155400000D03*
X18250000Y-156900000D03*
X18250000Y-158400000D03*
X18250000Y-159900000D03*
X18250000Y-161400000D03*
X35750000Y-161400000D03*
X35750000Y-159900000D03*
X35750000Y-158400000D03*
X35750000Y-156900000D03*
X35750000Y-155400000D03*
X35750000Y-153900000D03*
X35750000Y-152400000D03*
X35750000Y-150900000D03*
X35750000Y-149400000D03*
D15*
X26860000Y-154500000D03*
X26860000Y-155600000D03*
X26860000Y-156700000D03*
X27910000Y-154500000D03*
X27910000Y-155600000D03*
X27910000Y-156700000D03*
X29060000Y-154500000D03*
X29060000Y-155600000D03*
X29060000Y-156700000D03*
%TD*%
D16*
%TO.C,C17*%
X31735000Y-184500000D03*
X33285000Y-184500000D03*
%TD*%
D12*
%TO.C,R3*%
X17960000Y-170500000D03*
X19610000Y-170500000D03*
%TD*%
D17*
%TO.C,C10*%
X16110000Y-149500000D03*
X14560000Y-149500000D03*
%TD*%
D18*
%TO.C,U2*%
X32260000Y-175600000D03*
X32260000Y-177900000D03*
D19*
X38560000Y-177900000D03*
D18*
X32260000Y-180200000D03*
%TD*%
D20*
%TO.C,J2*%
X28010000Y-190015000D03*
X28810000Y-190015000D03*
D21*
X29960000Y-190015000D03*
X30960000Y-190015000D03*
X31460000Y-190015000D03*
X32460000Y-190015000D03*
D20*
X33610000Y-190015000D03*
X34410000Y-190015000D03*
X34410000Y-190015000D03*
X33610000Y-190015000D03*
D21*
X32960000Y-190015000D03*
X31960000Y-190015000D03*
X30460000Y-190015000D03*
X29460000Y-190015000D03*
D20*
X28810000Y-190015000D03*
X28010000Y-190015000D03*
%TD*%
D12*
%TO.C,R4*%
X33310000Y-187500000D03*
X34960000Y-187500000D03*
%TD*%
D22*
%TO.C,C12*%
X37310000Y-173100000D03*
X35410000Y-173100000D03*
%TD*%
D23*
%TO.C,C14*%
X31760000Y-182700000D03*
X33660000Y-182700000D03*
%TD*%
D16*
%TO.C,C18*%
X26725000Y-163500000D03*
X28275000Y-163500000D03*
%TD*%
D17*
%TO.C,C13*%
X16110000Y-152700000D03*
X14560000Y-152700000D03*
%TD*%
D16*
%TO.C,C5*%
X31525000Y-163500000D03*
X33075000Y-163500000D03*
%TD*%
D12*
%TO.C,R11*%
X18285000Y-179700000D03*
X19935000Y-179700000D03*
%TD*%
D13*
%TO.C,R9*%
X20410000Y-175400000D03*
X20410000Y-177050000D03*
%TD*%
D22*
%TO.C,C15*%
X16110000Y-154600000D03*
X14210000Y-154600000D03*
%TD*%
D17*
%TO.C,C16*%
X16110000Y-151100000D03*
X14560000Y-151100000D03*
%TD*%
D10*
%TO.C,SW1*%
X32300000Y-165300000D03*
X32300000Y-173100000D03*
%TD*%
D12*
%TO.C,R6*%
X17960000Y-168800000D03*
X19610000Y-168800000D03*
%TD*%
D17*
%TO.C,C11*%
X37335000Y-171300000D03*
X35785000Y-171300000D03*
%TD*%
D10*
%TO.C,SW3*%
X27470000Y-165300000D03*
X27470000Y-173100000D03*
%TD*%
D12*
%TO.C,R5*%
X30260000Y-187500000D03*
X31910000Y-187500000D03*
%TD*%
D23*
%TO.C,C19*%
X21510000Y-181000000D03*
X23410000Y-181000000D03*
%TD*%
D13*
%TO.C,R8*%
X18410000Y-175400000D03*
X18410000Y-177050000D03*
%TD*%
D16*
%TO.C,C6*%
X21760000Y-163500000D03*
X23310000Y-163500000D03*
%TD*%
M02*
