%TF.GenerationSoftware,KiCad,Pcbnew,7.0.2-6a45011f42~172~ubuntu22.04.1*%
%TF.CreationDate,2023-05-17T08:32:53+02:00*%
%TF.ProjectId,PowerMeterLC,506f7765-724d-4657-9465-724c432e6b69,rev?*%
%TF.SameCoordinates,Original*%
%TF.FileFunction,Copper,L1,Top*%
%TF.FilePolarity,Positive*%
%FSLAX46Y46*%
G04 Gerber Fmt 4.6, Leading zero omitted, Abs format (unit mm)*
G04 Created by KiCad (PCBNEW 7.0.2-6a45011f42~172~ubuntu22.04.1) date 2023-05-17 08:32:53*
%MOMM*%
%LPD*%
G01*
G04 APERTURE LIST*
G04 Aperture macros list*
%AMRoundRect*
0 Rectangle with rounded corners*
0 $1 Rounding radius*
0 $2 $3 $4 $5 $6 $7 $8 $9 X,Y pos of 4 corners*
0 Add a 4 corners polygon primitive as box body*
4,1,4,$2,$3,$4,$5,$6,$7,$8,$9,$2,$3,0*
0 Add four circle primitives for the rounded corners*
1,1,$1+$1,$2,$3*
1,1,$1+$1,$4,$5*
1,1,$1+$1,$6,$7*
1,1,$1+$1,$8,$9*
0 Add four rect primitives between the rounded corners*
20,1,$1+$1,$2,$3,$4,$5,0*
20,1,$1+$1,$4,$5,$6,$7,0*
20,1,$1+$1,$6,$7,$8,$9,0*
20,1,$1+$1,$8,$9,$2,$3,0*%
G04 Aperture macros list end*
%TA.AperFunction,SMDPad,CuDef*%
%ADD10R,1.500000X1.500000*%
%TD*%
%TA.AperFunction,ComponentPad*%
%ADD11C,0.800000*%
%TD*%
%TA.AperFunction,ComponentPad*%
%ADD12C,5.000000*%
%TD*%
%TA.AperFunction,SMDPad,CuDef*%
%ADD13RoundRect,0.200000X0.200000X0.275000X-0.200000X0.275000X-0.200000X-0.275000X0.200000X-0.275000X0*%
%TD*%
%TA.AperFunction,SMDPad,CuDef*%
%ADD14RoundRect,0.200000X-0.200000X-0.275000X0.200000X-0.275000X0.200000X0.275000X-0.200000X0.275000X0*%
%TD*%
%TA.AperFunction,SMDPad,CuDef*%
%ADD15RoundRect,0.200000X-0.275000X0.200000X-0.275000X-0.200000X0.275000X-0.200000X0.275000X0.200000X0*%
%TD*%
%TA.AperFunction,SMDPad,CuDef*%
%ADD16R,1.500000X0.900000*%
%TD*%
%TA.AperFunction,SMDPad,CuDef*%
%ADD17R,0.700000X0.700000*%
%TD*%
%TA.AperFunction,SMDPad,CuDef*%
%ADD18RoundRect,0.225000X-0.225000X-0.250000X0.225000X-0.250000X0.225000X0.250000X-0.225000X0.250000X0*%
%TD*%
%TA.AperFunction,SMDPad,CuDef*%
%ADD19RoundRect,0.225000X0.225000X0.250000X-0.225000X0.250000X-0.225000X-0.250000X0.225000X-0.250000X0*%
%TD*%
%TA.AperFunction,SMDPad,CuDef*%
%ADD20R,2.000000X1.500000*%
%TD*%
%TA.AperFunction,SMDPad,CuDef*%
%ADD21R,2.000000X3.800000*%
%TD*%
%TA.AperFunction,SMDPad,CuDef*%
%ADD22R,0.600000X1.160000*%
%TD*%
%TA.AperFunction,SMDPad,CuDef*%
%ADD23R,0.300000X1.160000*%
%TD*%
%TA.AperFunction,ComponentPad*%
%ADD24O,0.900000X2.000000*%
%TD*%
%TA.AperFunction,ComponentPad*%
%ADD25O,0.900000X1.700000*%
%TD*%
%TA.AperFunction,SMDPad,CuDef*%
%ADD26RoundRect,0.250000X0.250000X0.475000X-0.250000X0.475000X-0.250000X-0.475000X0.250000X-0.475000X0*%
%TD*%
%TA.AperFunction,SMDPad,CuDef*%
%ADD27RoundRect,0.250000X-0.250000X-0.475000X0.250000X-0.475000X0.250000X0.475000X-0.250000X0.475000X0*%
%TD*%
%TA.AperFunction,ComponentPad*%
%ADD28O,1.400000X2.000000*%
%TD*%
%TA.AperFunction,ComponentPad*%
%ADD29R,1.400000X2.000000*%
%TD*%
%TA.AperFunction,ComponentPad*%
%ADD30R,1.070000X1.800000*%
%TD*%
%TA.AperFunction,ComponentPad*%
%ADD31O,1.070000X1.800000*%
%TD*%
%TA.AperFunction,ViaPad*%
%ADD32C,0.800000*%
%TD*%
%TA.AperFunction,Conductor*%
%ADD33C,0.250000*%
%TD*%
%TA.AperFunction,Conductor*%
%ADD34C,0.150000*%
%TD*%
%TA.AperFunction,Conductor*%
%ADD35C,0.500000*%
%TD*%
G04 APERTURE END LIST*
D10*
%TO.P,SW2,1,1*%
%TO.N,/CHIP_BOOT*%
X22610000Y-165300000D03*
%TO.P,SW2,2,2*%
%TO.N,GND*%
X22610000Y-173100000D03*
%TD*%
D11*
%TO.P,TP1,1,1*%
%TO.N,GND*%
X25595000Y-183625000D03*
X26144175Y-182299175D03*
X26144175Y-184950825D03*
X27470000Y-181750000D03*
D12*
X27470000Y-183625000D03*
D11*
X27470000Y-185500000D03*
X28795825Y-182299175D03*
X28795825Y-184950825D03*
X29345000Y-183625000D03*
%TD*%
D13*
%TO.P,R10,1*%
%TO.N,Net-(C19-Pad1)*%
X19935000Y-181300000D03*
%TO.P,R10,2*%
%TO.N,GND*%
X18285000Y-181300000D03*
%TD*%
D14*
%TO.P,R2,1*%
%TO.N,+3V3*%
X17960000Y-167100000D03*
%TO.P,R2,2*%
%TO.N,/CHIP_BOOT*%
X19610000Y-167100000D03*
%TD*%
D15*
%TO.P,R7,1*%
%TO.N,/LED_R*%
X22410000Y-175400000D03*
%TO.P,R7,2*%
%TO.N,Net-(D2-RK)*%
X22410000Y-177050000D03*
%TD*%
D16*
%TO.P,U4,1,3V3*%
%TO.N,+3V3*%
X18250000Y-149400000D03*
%TO.P,U4,2,EN/CHIP_PU*%
%TO.N,/CHIP_EN*%
X18250000Y-150900000D03*
%TO.P,U4,3,GPIO4/ADC1_CH4*%
%TO.N,/LED_R*%
X18250000Y-152400000D03*
%TO.P,U4,4,GPIO5/ADC2_CH0*%
%TO.N,unconnected-(U4-GPIO5{slash}ADC2_CH0-Pad4)*%
X18250000Y-153900000D03*
%TO.P,U4,5,GPIO6*%
%TO.N,/LED_B*%
X18250000Y-155400000D03*
%TO.P,U4,6,GPIO7*%
%TO.N,/LED_G*%
X18250000Y-156900000D03*
%TO.P,U4,7,GPIO8*%
%TO.N,unconnected-(U4-GPIO8-Pad7)*%
X18250000Y-158400000D03*
%TO.P,U4,8,GPIO9*%
%TO.N,/CHIP_BOOT*%
X18250000Y-159900000D03*
%TO.P,U4,9,GND*%
%TO.N,GND*%
X18250000Y-161400000D03*
%TO.P,U4,10,GPIO10*%
%TO.N,unconnected-(U4-GPIO10-Pad10)*%
X35750000Y-161400000D03*
%TO.P,U4,11,GPIO20/U0RXD*%
%TO.N,/BLE_MODE*%
X35750000Y-159900000D03*
%TO.P,U4,12,GPIO21/U0TXD*%
%TO.N,unconnected-(U4-GPIO21{slash}U0TXD-Pad12)*%
X35750000Y-158400000D03*
%TO.P,U4,13,GPIO18/USB_D-*%
%TO.N,/USB_D+*%
X35750000Y-156900000D03*
%TO.P,U4,14,GPIO19/USB_D+*%
%TO.N,/USB_D-*%
X35750000Y-155400000D03*
%TO.P,U4,15,GPIO3/ADC1_CH3*%
%TO.N,unconnected-(U4-GPIO3{slash}ADC1_CH3-Pad15)*%
X35750000Y-153900000D03*
%TO.P,U4,16,GPIO2/ADC1_CH2*%
%TO.N,/CURRENT_SENSE*%
X35750000Y-152400000D03*
%TO.P,U4,17,GPIO1/ADC1_CH1/XTAL_32K_N*%
%TO.N,unconnected-(U4-GPIO1{slash}ADC1_CH1{slash}XTAL_32K_N-Pad17)*%
X35750000Y-150900000D03*
%TO.P,U4,18,GPIO0/ADC1_CH0/XTAL_32K_P*%
%TO.N,unconnected-(U4-GPIO0{slash}ADC1_CH0{slash}XTAL_32K_P-Pad18)*%
X35750000Y-149400000D03*
D17*
%TO.P,U4,19,GND*%
%TO.N,GND*%
X26860000Y-154500000D03*
X26860000Y-155600000D03*
X26860000Y-156700000D03*
X27910000Y-154500000D03*
X27910000Y-155600000D03*
X27910000Y-156700000D03*
X29060000Y-154500000D03*
X29060000Y-155600000D03*
X29060000Y-156700000D03*
%TD*%
D18*
%TO.P,C17,1*%
%TO.N,+5VA*%
X31735000Y-184500000D03*
%TO.P,C17,2*%
%TO.N,GND*%
X33285000Y-184500000D03*
%TD*%
D14*
%TO.P,R3,1*%
%TO.N,+3V3*%
X17960000Y-170500000D03*
%TO.P,R3,2*%
%TO.N,/CHIP_EN*%
X19610000Y-170500000D03*
%TD*%
D19*
%TO.P,C10,1*%
%TO.N,+3V3*%
X16110000Y-149500000D03*
%TO.P,C10,2*%
%TO.N,GND*%
X14560000Y-149500000D03*
%TD*%
D20*
%TO.P,U2,1,GND*%
%TO.N,GND*%
X32260000Y-175600000D03*
%TO.P,U2,2,VO*%
%TO.N,+3V3*%
X32260000Y-177900000D03*
D21*
X38560000Y-177900000D03*
D20*
%TO.P,U2,3,VI*%
%TO.N,+5VA*%
X32260000Y-180200000D03*
%TD*%
D22*
%TO.P,J2,A1,GND*%
%TO.N,GND*%
X28010000Y-190015000D03*
%TO.P,J2,A4,VBUS*%
%TO.N,+5VA*%
X28810000Y-190015000D03*
D23*
%TO.P,J2,A5,CC1*%
%TO.N,Net-(J2-CC1)*%
X29960000Y-190015000D03*
%TO.P,J2,A6,D+*%
%TO.N,/USB_D-*%
X30960000Y-190015000D03*
%TO.P,J2,A7,D-*%
%TO.N,/USB_D+*%
X31460000Y-190015000D03*
%TO.P,J2,A8,SBU1*%
%TO.N,unconnected-(J2-SBU1-PadA8)*%
X32460000Y-190015000D03*
D22*
%TO.P,J2,A9,VBUS*%
%TO.N,+5VA*%
X33610000Y-190015000D03*
%TO.P,J2,A12,GND*%
%TO.N,GND*%
X34410000Y-190015000D03*
%TO.P,J2,B1,GND*%
X34410000Y-190015000D03*
%TO.P,J2,B4,VBUS*%
%TO.N,+5VA*%
X33610000Y-190015000D03*
D23*
%TO.P,J2,B5,CC2*%
%TO.N,Net-(J2-CC2)*%
X32960000Y-190015000D03*
%TO.P,J2,B6,D+*%
%TO.N,/USB_D-*%
X31960000Y-190015000D03*
%TO.P,J2,B7,D-*%
%TO.N,/USB_D+*%
X30460000Y-190015000D03*
%TO.P,J2,B8,SBU2*%
%TO.N,unconnected-(J2-SBU2-PadB8)*%
X29460000Y-190015000D03*
D22*
%TO.P,J2,B9,VBUS*%
%TO.N,+5VA*%
X28810000Y-190015000D03*
%TO.P,J2,B12,GND*%
%TO.N,GND*%
X28010000Y-190015000D03*
D24*
%TO.P,J2,S1,SHIELD*%
%TO.N,unconnected-(J2-SHIELD-PadS1)*%
X26890000Y-190595000D03*
D25*
X26890000Y-194765000D03*
D24*
X35530000Y-190595000D03*
D25*
X35530000Y-194765000D03*
%TD*%
D14*
%TO.P,R4,1*%
%TO.N,Net-(J2-CC2)*%
X33310000Y-187500000D03*
%TO.P,R4,2*%
%TO.N,GND*%
X34960000Y-187500000D03*
%TD*%
D26*
%TO.P,C12,1*%
%TO.N,+3V3*%
X37310000Y-173100000D03*
%TO.P,C12,2*%
%TO.N,GND*%
X35410000Y-173100000D03*
%TD*%
D27*
%TO.P,C14,1*%
%TO.N,+5VA*%
X31760000Y-182700000D03*
%TO.P,C14,2*%
%TO.N,GND*%
X33660000Y-182700000D03*
%TD*%
D18*
%TO.P,C18,1*%
%TO.N,/BLE_MODE*%
X26725000Y-163500000D03*
%TO.P,C18,2*%
%TO.N,GND*%
X28275000Y-163500000D03*
%TD*%
D19*
%TO.P,C13,1*%
%TO.N,+3V3*%
X16110000Y-152700000D03*
%TO.P,C13,2*%
%TO.N,GND*%
X14560000Y-152700000D03*
%TD*%
D18*
%TO.P,C5,1*%
%TO.N,/CHIP_EN*%
X31525000Y-163500000D03*
%TO.P,C5,2*%
%TO.N,GND*%
X33075000Y-163500000D03*
%TD*%
D14*
%TO.P,R11,1*%
%TO.N,+3V3*%
X18285000Y-179700000D03*
%TO.P,R11,2*%
%TO.N,Net-(C19-Pad1)*%
X19935000Y-179700000D03*
%TD*%
D15*
%TO.P,R9,1*%
%TO.N,/LED_B*%
X20410000Y-175400000D03*
%TO.P,R9,2*%
%TO.N,Net-(D2-BK)*%
X20410000Y-177050000D03*
%TD*%
D26*
%TO.P,C15,1*%
%TO.N,+3V3*%
X16110000Y-154600000D03*
%TO.P,C15,2*%
%TO.N,GND*%
X14210000Y-154600000D03*
%TD*%
D19*
%TO.P,C16,1*%
%TO.N,+3V3*%
X16110000Y-151100000D03*
%TO.P,C16,2*%
%TO.N,GND*%
X14560000Y-151100000D03*
%TD*%
D10*
%TO.P,SW1,1,1*%
%TO.N,/CHIP_EN*%
X32300000Y-165300000D03*
%TO.P,SW1,2,2*%
%TO.N,GND*%
X32300000Y-173100000D03*
%TD*%
D14*
%TO.P,R6,1*%
%TO.N,+3V3*%
X17960000Y-168800000D03*
%TO.P,R6,2*%
%TO.N,/BLE_MODE*%
X19610000Y-168800000D03*
%TD*%
D28*
%TO.P,J3,*%
%TO.N,*%
X17632500Y-192400000D03*
%TO.P,J3,R1*%
%TO.N,unconnected-(J3-PadR1)*%
X23132500Y-189400000D03*
%TO.P,J3,R2*%
%TO.N,unconnected-(J3-PadR2)*%
X23132500Y-192400000D03*
%TO.P,J3,S*%
%TO.N,Net-(C19-Pad1)*%
X18632500Y-183900000D03*
D29*
%TO.P,J3,T*%
%TO.N,/CURRENT_SENSE*%
X23132500Y-185400000D03*
%TD*%
D19*
%TO.P,C11,1*%
%TO.N,+3V3*%
X37335000Y-171300000D03*
%TO.P,C11,2*%
%TO.N,GND*%
X35785000Y-171300000D03*
%TD*%
D10*
%TO.P,SW3,1,1*%
%TO.N,/BLE_MODE*%
X27470000Y-165300000D03*
%TO.P,SW3,2,2*%
%TO.N,GND*%
X27470000Y-173100000D03*
%TD*%
D14*
%TO.P,R5,1*%
%TO.N,Net-(J2-CC1)*%
X30260000Y-187500000D03*
%TO.P,R5,2*%
%TO.N,GND*%
X31910000Y-187500000D03*
%TD*%
D30*
%TO.P,D2,1,GK*%
%TO.N,Net-(D2-GK)*%
X25570000Y-177500000D03*
D31*
%TO.P,D2,2,BK*%
%TO.N,Net-(D2-BK)*%
X26840000Y-177500000D03*
%TO.P,D2,3,A*%
%TO.N,+3V3*%
X28110000Y-177500000D03*
%TO.P,D2,4,RK*%
%TO.N,Net-(D2-RK)*%
X29380000Y-177500000D03*
%TD*%
D27*
%TO.P,C19,1*%
%TO.N,Net-(C19-Pad1)*%
X21510000Y-181000000D03*
%TO.P,C19,2*%
%TO.N,GND*%
X23410000Y-181000000D03*
%TD*%
D15*
%TO.P,R8,1*%
%TO.N,/LED_G*%
X18410000Y-175400000D03*
%TO.P,R8,2*%
%TO.N,Net-(D2-GK)*%
X18410000Y-177050000D03*
%TD*%
D18*
%TO.P,C6,1*%
%TO.N,/CHIP_BOOT*%
X21760000Y-163500000D03*
%TO.P,C6,2*%
%TO.N,GND*%
X23310000Y-163500000D03*
%TD*%
D32*
%TO.N,GND*%
X12600000Y-163845452D03*
X41500000Y-193000000D03*
X41500000Y-191500000D03*
X41500000Y-160281829D03*
X12600000Y-156500000D03*
X26217648Y-197200000D03*
X34394118Y-197200000D03*
X12600000Y-189554534D03*
X41500000Y-154772740D03*
X12600000Y-184045445D03*
X12600000Y-162009089D03*
X41500000Y-167627281D03*
X41500000Y-194400000D03*
X28510000Y-155100000D03*
X41500000Y-152936377D03*
X29488236Y-197200000D03*
X25123530Y-148800000D03*
X12600000Y-187718171D03*
X12600000Y-160172726D03*
X37600000Y-148700000D03*
X41500000Y-151500000D03*
X41500000Y-174972733D03*
X41500000Y-171300007D03*
X41500000Y-158445466D03*
X12600000Y-152763637D03*
X41500000Y-169463644D03*
X19676472Y-197200000D03*
X12600000Y-178536356D03*
X12600000Y-176699993D03*
X28510000Y-156200000D03*
X13100000Y-196900000D03*
X41500000Y-184154548D03*
X41500000Y-189663637D03*
X26758824Y-148800000D03*
X12600000Y-150927274D03*
X18041178Y-197200000D03*
X12600000Y-167518178D03*
X32758824Y-197200000D03*
X12600000Y-185881808D03*
X41500000Y-178645459D03*
X36029412Y-197200000D03*
X41500000Y-163954555D03*
X41500000Y-165790918D03*
X41500000Y-156609103D03*
X12600000Y-154600000D03*
X30029412Y-148800000D03*
X41000000Y-148900000D03*
X41500000Y-150200000D03*
X24582354Y-197200000D03*
X12600000Y-165681815D03*
X12600000Y-174863630D03*
X22947060Y-197200000D03*
X12600000Y-171190904D03*
X31123530Y-197200000D03*
X38700000Y-148700000D03*
X21864706Y-148800000D03*
X12600000Y-182209082D03*
X41500000Y-173136370D03*
X37664706Y-197200000D03*
X41500000Y-187827274D03*
X12600000Y-158336363D03*
X16405884Y-197200000D03*
X23488236Y-148800000D03*
X27852942Y-197200000D03*
X41500000Y-195800000D03*
X39900000Y-148700000D03*
X41500000Y-180481822D03*
X12600000Y-193227260D03*
X41500000Y-185990911D03*
X12600000Y-169354541D03*
X41500000Y-162118192D03*
X28394118Y-148800000D03*
X27410000Y-156200000D03*
X21311766Y-197200000D03*
X12600000Y-173027267D03*
X27410000Y-155100000D03*
X12600000Y-180372719D03*
X12600000Y-191390897D03*
X14770590Y-197200000D03*
X41500000Y-182318185D03*
X41500000Y-176809096D03*
X39300000Y-197200000D03*
X12600000Y-195063623D03*
X31664706Y-148800000D03*
X33300000Y-148800000D03*
X20229412Y-148800000D03*
X40900000Y-196900000D03*
%TO.N,+5VA*%
X33710000Y-188800000D03*
X31210000Y-185800000D03*
X32010000Y-185800000D03*
X28810000Y-188800000D03*
%TO.N,+3V3*%
X38010000Y-179300000D03*
X39010000Y-178366666D03*
X39010000Y-177433333D03*
X16110000Y-156900000D03*
X38010000Y-178366666D03*
X16110000Y-156000000D03*
X39010000Y-179300000D03*
X16210000Y-167000000D03*
X16110000Y-157900000D03*
X38010000Y-176500000D03*
X16810000Y-179700000D03*
X38010000Y-177433333D03*
X39010000Y-176500000D03*
%TO.N,/BLE_MODE*%
X26700000Y-162000000D03*
X37410000Y-160000000D03*
%TO.N,/LED_R*%
X19910000Y-165100000D03*
X21410000Y-152400000D03*
%TO.N,/LED_G*%
X19810000Y-156900000D03*
X18910000Y-163100000D03*
%TO.N,/LED_B*%
X19310000Y-164100000D03*
X20610000Y-155400000D03*
%TO.N,/CURRENT_SENSE*%
X32010000Y-152400000D03*
%TD*%
D33*
%TO.N,/CHIP_EN*%
X32300000Y-165300000D02*
X32300000Y-164700000D01*
X32300000Y-167500000D02*
X32300000Y-165300000D01*
X32100000Y-164075000D02*
X31525000Y-163500000D01*
D34*
X23810000Y-158200000D02*
X23810000Y-153200000D01*
D33*
X19610000Y-170500000D02*
X29300000Y-170500000D01*
D34*
X21510000Y-150900000D02*
X18250000Y-150900000D01*
X26360000Y-160750000D02*
X23810000Y-158200000D01*
D33*
X28775000Y-160750000D02*
X26360000Y-160750000D01*
X32300000Y-164700000D02*
X32100000Y-164500000D01*
X29300000Y-170500000D02*
X32300000Y-167500000D01*
D34*
X23810000Y-153200000D02*
X21510000Y-150900000D01*
D33*
X32100000Y-164500000D02*
X32100000Y-164075000D01*
X31525000Y-163500000D02*
X28775000Y-160750000D01*
D34*
%TO.N,/CHIP_BOOT*%
X21760000Y-163500000D02*
X22610000Y-164350000D01*
X21810000Y-160700000D02*
X21010000Y-159900000D01*
X21760000Y-163500000D02*
X21810000Y-163450000D01*
X21810000Y-163450000D02*
X21810000Y-160700000D01*
X22110000Y-167000000D02*
X19710000Y-167000000D01*
X21010000Y-159900000D02*
X18250000Y-159900000D01*
X22610000Y-165300000D02*
X22610000Y-166500000D01*
X22610000Y-166500000D02*
X22110000Y-167000000D01*
X19710000Y-167000000D02*
X19610000Y-167100000D01*
X22610000Y-164350000D02*
X22610000Y-165300000D01*
%TO.N,/USB_D-*%
X34110000Y-162700000D02*
X40200000Y-168790000D01*
X31460000Y-191650000D02*
X31960000Y-191150000D01*
X40200000Y-190710000D02*
X38310000Y-192600000D01*
X35750000Y-155400000D02*
X34610000Y-155400000D01*
X34110000Y-155900000D02*
X34110000Y-162700000D01*
X30960000Y-191150000D02*
X30960000Y-190015000D01*
X40200000Y-168790000D02*
X40200000Y-190710000D01*
X38310000Y-192600000D02*
X32410000Y-192600000D01*
X32410000Y-192600000D02*
X30960000Y-191150000D01*
X31960000Y-191150000D02*
X31960000Y-190015000D01*
X34610000Y-155400000D02*
X34110000Y-155900000D01*
%TO.N,/USB_D+*%
X35750000Y-156900000D02*
X38210000Y-156900000D01*
X30460000Y-190015000D02*
X30460000Y-188750000D01*
X31210000Y-193000000D02*
X30460000Y-192250000D01*
X30460000Y-192250000D02*
X30460000Y-190015000D01*
X40550000Y-159240000D02*
X40550000Y-190860000D01*
X38210000Y-156900000D02*
X40550000Y-159240000D01*
X31310000Y-188600000D02*
X31460000Y-188750000D01*
X40550000Y-190860000D02*
X38410000Y-193000000D01*
X30610000Y-188600000D02*
X31310000Y-188600000D01*
X31460000Y-188750000D02*
X31460000Y-190015000D01*
X38410000Y-193000000D02*
X31210000Y-193000000D01*
X30460000Y-188750000D02*
X30610000Y-188600000D01*
D35*
%TO.N,+5VA*%
X33710000Y-188800000D02*
X33610000Y-188900000D01*
X33610000Y-188900000D02*
X33610000Y-190015000D01*
X28810000Y-188800000D02*
X28810000Y-190015000D01*
D33*
%TO.N,Net-(J2-CC1)*%
X30060000Y-187700000D02*
X30260000Y-187500000D01*
D34*
X29960000Y-187800000D02*
X30260000Y-187500000D01*
X29960000Y-190015000D02*
X29960000Y-187800000D01*
%TO.N,Net-(J2-CC2)*%
X32960000Y-187850000D02*
X33310000Y-187500000D01*
X32960000Y-190015000D02*
X32960000Y-187850000D01*
D33*
X33060000Y-187750000D02*
X33310000Y-187500000D01*
%TO.N,+3V3*%
X17960000Y-168750000D02*
X16210000Y-167000000D01*
D34*
X28110000Y-177500000D02*
X28110000Y-179100000D01*
X31110000Y-177900000D02*
X32260000Y-177900000D01*
X28110000Y-179100000D02*
X28410000Y-179400000D01*
D33*
X17960000Y-168800000D02*
X17960000Y-168750000D01*
D34*
X28410000Y-179400000D02*
X29610000Y-179400000D01*
X18285000Y-179700000D02*
X16810000Y-179700000D01*
X29610000Y-179400000D02*
X31110000Y-177900000D01*
X16310000Y-167100000D02*
X16210000Y-167000000D01*
D33*
X16210000Y-168750000D02*
X16210000Y-167000000D01*
D34*
X17960000Y-167100000D02*
X16310000Y-167100000D01*
D33*
X17960000Y-170500000D02*
X16210000Y-168750000D01*
D34*
%TO.N,/BLE_MODE*%
X37310000Y-159900000D02*
X35750000Y-159900000D01*
D33*
X26725000Y-163500000D02*
X26725000Y-162025000D01*
D34*
X37410000Y-160000000D02*
X37310000Y-159900000D01*
D33*
X27470000Y-164245000D02*
X26725000Y-163500000D01*
X27470000Y-165300000D02*
X27470000Y-164245000D01*
X27470000Y-167130000D02*
X27470000Y-165300000D01*
X26725000Y-162025000D02*
X26700000Y-162000000D01*
X19610000Y-168800000D02*
X25800000Y-168800000D01*
X25800000Y-168800000D02*
X27470000Y-167130000D01*
D34*
%TO.N,Net-(D2-GK)*%
X19710000Y-178800000D02*
X18410000Y-177500000D01*
X25570000Y-178540000D02*
X25310000Y-178800000D01*
X25310000Y-178800000D02*
X19710000Y-178800000D01*
X18410000Y-177500000D02*
X18410000Y-177050000D01*
X25570000Y-177500000D02*
X25570000Y-178540000D01*
%TO.N,Net-(D2-BK)*%
X26840000Y-176230000D02*
X26560000Y-175950000D01*
X22610000Y-178300000D02*
X20810000Y-178300000D01*
X26560000Y-175950000D02*
X24960000Y-175950000D01*
X24960000Y-175950000D02*
X22610000Y-178300000D01*
X20410000Y-177900000D02*
X20410000Y-177050000D01*
X20810000Y-178300000D02*
X20410000Y-177900000D01*
X26840000Y-177500000D02*
X26840000Y-176230000D01*
%TO.N,Net-(D2-RK)*%
X29380000Y-176270000D02*
X28710000Y-175600000D01*
X29380000Y-177500000D02*
X29380000Y-176270000D01*
X24810000Y-175600000D02*
X23360000Y-177050000D01*
X28710000Y-175600000D02*
X24810000Y-175600000D01*
X23360000Y-177050000D02*
X22410000Y-177050000D01*
%TO.N,/LED_R*%
X20010000Y-174500000D02*
X15010000Y-169500000D01*
X21510000Y-174500000D02*
X20010000Y-174500000D01*
X22410000Y-175400000D02*
X21510000Y-174500000D01*
X21410000Y-152400000D02*
X18250000Y-152400000D01*
X15010000Y-169500000D02*
X15010000Y-166300000D01*
X16210000Y-165100000D02*
X19910000Y-165100000D01*
X15010000Y-166300000D02*
X16210000Y-165100000D01*
%TO.N,/LED_G*%
X15910000Y-163100000D02*
X18910000Y-163100000D01*
X18410000Y-175400000D02*
X14210000Y-171200000D01*
X14210000Y-171200000D02*
X14210000Y-164800000D01*
X19810000Y-156900000D02*
X18250000Y-156900000D01*
X14210000Y-164800000D02*
X15910000Y-163100000D01*
%TO.N,/LED_B*%
X20610000Y-155400000D02*
X18250000Y-155400000D01*
X14560000Y-165750000D02*
X16210000Y-164100000D01*
X16210000Y-164100000D02*
X19310000Y-164100000D01*
X14560000Y-169750000D02*
X14560000Y-165750000D01*
X20410000Y-175400000D02*
X20210000Y-175400000D01*
X20210000Y-175400000D02*
X14560000Y-169750000D01*
%TO.N,Net-(C19-Pad1)*%
X18632500Y-182602500D02*
X18632500Y-183900000D01*
X21210000Y-181300000D02*
X21510000Y-181000000D01*
X19935000Y-181300000D02*
X19935000Y-179700000D01*
X19935000Y-181300000D02*
X21210000Y-181300000D01*
X19935000Y-181300000D02*
X18632500Y-182602500D01*
%TO.N,/CURRENT_SENSE*%
X32010000Y-152400000D02*
X35750000Y-152400000D01*
%TD*%
%TA.AperFunction,Conductor*%
%TO.N,+3V3*%
G36*
X18721971Y-148902381D02*
G01*
X18800618Y-148918024D01*
X18845308Y-148936535D01*
X18901626Y-148974166D01*
X18935833Y-149008373D01*
X18973462Y-149064688D01*
X18991976Y-149109387D01*
X19007617Y-149188019D01*
X19010000Y-149212210D01*
X19010000Y-149587789D01*
X19007617Y-149611980D01*
X18991976Y-149690612D01*
X18973462Y-149735311D01*
X18935836Y-149791623D01*
X18901623Y-149825836D01*
X18845311Y-149863462D01*
X18800612Y-149881976D01*
X18721980Y-149897617D01*
X18697789Y-149900000D01*
X16910000Y-149900000D01*
X16910000Y-150199998D01*
X16910000Y-150199999D01*
X16910000Y-157987789D01*
X16907617Y-158011980D01*
X16891976Y-158090612D01*
X16873462Y-158135311D01*
X16835836Y-158191623D01*
X16801623Y-158225836D01*
X16745311Y-158263462D01*
X16700612Y-158281976D01*
X16621980Y-158297617D01*
X16597789Y-158300000D01*
X15522211Y-158300000D01*
X15498020Y-158297617D01*
X15419387Y-158281976D01*
X15374689Y-158263462D01*
X15318373Y-158225833D01*
X15284166Y-158191626D01*
X15246535Y-158135308D01*
X15228024Y-158090618D01*
X15212381Y-158011971D01*
X15210000Y-157987789D01*
X15210000Y-153799965D01*
X15211337Y-153781805D01*
X15220182Y-153722062D01*
X15230707Y-153687296D01*
X15256493Y-153632666D01*
X15265444Y-153616833D01*
X15559615Y-153175577D01*
X15610000Y-153100000D01*
X15610000Y-149212210D01*
X15612381Y-149188029D01*
X15628025Y-149109379D01*
X15646534Y-149064693D01*
X15684168Y-149008370D01*
X15718370Y-148974168D01*
X15774693Y-148936534D01*
X15819379Y-148918025D01*
X15898028Y-148902381D01*
X15922211Y-148900000D01*
X18697789Y-148900000D01*
X18721971Y-148902381D01*
G37*
%TD.AperFunction*%
%TD*%
%TA.AperFunction,Conductor*%
%TO.N,+3V3*%
G36*
X37721971Y-170802381D02*
G01*
X37800618Y-170818024D01*
X37845308Y-170836535D01*
X37901626Y-170874166D01*
X37935833Y-170908373D01*
X37973462Y-170964688D01*
X37991976Y-171009387D01*
X38007617Y-171088019D01*
X38010000Y-171112209D01*
X38010000Y-174100000D01*
X38097868Y-174187869D01*
X38097869Y-174187869D01*
X39674641Y-175764642D01*
X39674644Y-175764644D01*
X39710000Y-175800000D01*
X39710000Y-176500000D01*
X36810000Y-176500000D01*
X36810000Y-171112209D01*
X36812381Y-171088029D01*
X36828025Y-171009379D01*
X36846534Y-170964693D01*
X36884168Y-170908370D01*
X36918370Y-170874168D01*
X36974693Y-170836534D01*
X37019379Y-170818025D01*
X37098028Y-170802381D01*
X37122211Y-170800000D01*
X37697789Y-170800000D01*
X37721971Y-170802381D01*
G37*
%TD.AperFunction*%
%TD*%
%TA.AperFunction,Conductor*%
%TO.N,+3V3*%
G36*
X39772103Y-175822477D02*
G01*
X39806677Y-175883193D01*
X39810000Y-175911709D01*
X39810000Y-179687789D01*
X39807617Y-179711980D01*
X39791976Y-179790612D01*
X39773462Y-179835311D01*
X39735836Y-179891623D01*
X39701623Y-179925836D01*
X39645311Y-179963462D01*
X39600612Y-179981976D01*
X39521980Y-179997617D01*
X39497789Y-180000000D01*
X37516720Y-180000000D01*
X37497410Y-179998487D01*
X37475294Y-179995000D01*
X37434015Y-179988492D01*
X37397268Y-179976610D01*
X37371327Y-179963462D01*
X37340018Y-179947593D01*
X37323483Y-179937516D01*
X35688640Y-178756795D01*
X35688637Y-178756793D01*
X35610000Y-178700000D01*
X35512995Y-178700000D01*
X31422211Y-178700000D01*
X31398020Y-178697617D01*
X31319387Y-178681976D01*
X31274689Y-178663462D01*
X31218373Y-178625833D01*
X31184166Y-178591626D01*
X31146535Y-178535308D01*
X31128024Y-178490618D01*
X31112381Y-178411971D01*
X31110000Y-178387789D01*
X31110000Y-177412210D01*
X31112381Y-177388029D01*
X31128025Y-177309379D01*
X31146534Y-177264693D01*
X31184168Y-177208370D01*
X31218370Y-177174168D01*
X31274693Y-177136534D01*
X31319379Y-177118025D01*
X31398028Y-177102381D01*
X31422211Y-177100000D01*
X35608441Y-177100000D01*
X35710000Y-177100000D01*
X36810000Y-176258823D01*
X36810000Y-176500000D01*
X39710000Y-176500000D01*
X39710000Y-175800000D01*
X39729133Y-175800000D01*
X39772103Y-175822477D01*
G37*
%TD.AperFunction*%
%TD*%
%TA.AperFunction,Conductor*%
%TO.N,GND*%
G36*
X40504417Y-148000815D02*
G01*
X40569755Y-148005489D01*
X40712453Y-148016719D01*
X40729056Y-148019168D01*
X40818500Y-148038625D01*
X40820979Y-148039192D01*
X40932570Y-148065983D01*
X40946925Y-148070365D01*
X41037735Y-148104236D01*
X41041696Y-148105794D01*
X41142794Y-148147670D01*
X41154758Y-148153394D01*
X41241588Y-148200807D01*
X41246915Y-148203892D01*
X41338433Y-148259974D01*
X41347951Y-148266432D01*
X41427845Y-148326241D01*
X41434037Y-148331193D01*
X41515086Y-148400416D01*
X41522235Y-148407025D01*
X41592973Y-148477763D01*
X41599582Y-148484912D01*
X41668793Y-148565947D01*
X41673770Y-148572169D01*
X41733564Y-148652045D01*
X41740024Y-148661565D01*
X41796100Y-148753072D01*
X41799206Y-148758436D01*
X41846602Y-148845237D01*
X41852330Y-148857209D01*
X41868702Y-148896733D01*
X41894181Y-148958245D01*
X41895790Y-148962335D01*
X41929627Y-149053056D01*
X41934019Y-149067442D01*
X41960793Y-149178964D01*
X41961385Y-149181553D01*
X41980828Y-149270933D01*
X41983280Y-149287561D01*
X41994517Y-149430330D01*
X41999184Y-149495586D01*
X41999499Y-149504425D01*
X41999500Y-196495572D01*
X41999184Y-196504418D01*
X41994517Y-196569668D01*
X41983279Y-196712441D01*
X41980828Y-196729066D01*
X41961390Y-196818423D01*
X41960798Y-196821012D01*
X41934019Y-196932556D01*
X41929627Y-196946942D01*
X41895790Y-197037663D01*
X41894169Y-197041784D01*
X41852330Y-197142789D01*
X41846602Y-197154761D01*
X41799206Y-197241562D01*
X41796100Y-197246926D01*
X41740024Y-197338433D01*
X41733564Y-197347953D01*
X41673770Y-197427829D01*
X41668793Y-197434051D01*
X41599582Y-197515086D01*
X41592973Y-197522235D01*
X41522235Y-197592973D01*
X41515086Y-197599582D01*
X41434051Y-197668793D01*
X41427829Y-197673770D01*
X41347953Y-197733564D01*
X41338433Y-197740024D01*
X41246926Y-197796100D01*
X41241562Y-197799206D01*
X41154761Y-197846602D01*
X41142789Y-197852330D01*
X41041784Y-197894169D01*
X41037663Y-197895790D01*
X40946942Y-197929627D01*
X40932556Y-197934019D01*
X40821012Y-197960798D01*
X40818423Y-197961390D01*
X40729067Y-197980828D01*
X40712439Y-197983280D01*
X40569669Y-197994517D01*
X40504416Y-197999184D01*
X40495575Y-197999500D01*
X13504428Y-197999500D01*
X13495582Y-197999184D01*
X13430331Y-197994517D01*
X13287557Y-197983279D01*
X13270932Y-197980828D01*
X13181575Y-197961390D01*
X13178986Y-197960798D01*
X13067442Y-197934019D01*
X13053056Y-197929627D01*
X12999050Y-197909484D01*
X12962324Y-197895785D01*
X12958245Y-197894181D01*
X12913578Y-197875679D01*
X12857209Y-197852330D01*
X12845237Y-197846602D01*
X12758436Y-197799206D01*
X12753072Y-197796100D01*
X12661565Y-197740024D01*
X12652045Y-197733564D01*
X12572169Y-197673770D01*
X12565955Y-197668799D01*
X12484912Y-197599582D01*
X12477763Y-197592973D01*
X12407025Y-197522235D01*
X12400416Y-197515086D01*
X12331193Y-197434037D01*
X12326241Y-197427845D01*
X12266432Y-197347951D01*
X12259974Y-197338433D01*
X12203898Y-197246926D01*
X12200807Y-197241588D01*
X12153394Y-197154758D01*
X12147668Y-197142789D01*
X12105794Y-197041696D01*
X12104236Y-197037735D01*
X12070365Y-196946925D01*
X12065983Y-196932570D01*
X12039192Y-196820979D01*
X12038625Y-196818500D01*
X12019168Y-196729054D01*
X12016719Y-196712449D01*
X12005489Y-196569755D01*
X12000814Y-196504392D01*
X12000500Y-196495576D01*
X12000500Y-195205925D01*
X26239500Y-195205925D01*
X26239987Y-195209784D01*
X26239988Y-195209791D01*
X26254928Y-195328059D01*
X26315431Y-195480870D01*
X26412034Y-195613834D01*
X26412036Y-195613835D01*
X26412037Y-195613837D01*
X26538674Y-195718600D01*
X26687387Y-195788579D01*
X26848830Y-195819376D01*
X26848832Y-195819375D01*
X26848833Y-195819376D01*
X26947248Y-195813184D01*
X27012860Y-195809056D01*
X27169171Y-195758268D01*
X27307940Y-195670202D01*
X27420448Y-195550393D01*
X27499627Y-195406368D01*
X27499628Y-195406365D01*
X27540500Y-195247179D01*
X27540500Y-195205925D01*
X34879500Y-195205925D01*
X34879987Y-195209784D01*
X34879988Y-195209791D01*
X34894928Y-195328059D01*
X34955431Y-195480870D01*
X35052034Y-195613834D01*
X35052036Y-195613835D01*
X35052037Y-195613837D01*
X35178674Y-195718600D01*
X35327387Y-195788579D01*
X35488830Y-195819376D01*
X35488832Y-195819375D01*
X35488833Y-195819376D01*
X35587248Y-195813184D01*
X35652860Y-195809056D01*
X35809171Y-195758268D01*
X35947940Y-195670202D01*
X36060448Y-195550393D01*
X36139627Y-195406368D01*
X36139628Y-195406365D01*
X36180500Y-195247179D01*
X36180500Y-194327969D01*
X36180500Y-194324075D01*
X36165071Y-194201942D01*
X36165071Y-194201940D01*
X36104568Y-194049129D01*
X36007965Y-193916165D01*
X35939829Y-193859798D01*
X35881326Y-193811400D01*
X35732613Y-193741421D01*
X35607732Y-193717598D01*
X35571166Y-193710623D01*
X35407141Y-193720943D01*
X35250829Y-193771732D01*
X35112059Y-193859797D01*
X34999552Y-193979606D01*
X34920371Y-194123634D01*
X34879500Y-194282820D01*
X34879500Y-194282823D01*
X34879500Y-195205925D01*
X27540500Y-195205925D01*
X27540500Y-194327969D01*
X27540500Y-194324075D01*
X27525071Y-194201942D01*
X27525071Y-194201940D01*
X27464568Y-194049129D01*
X27367965Y-193916165D01*
X27299829Y-193859798D01*
X27241326Y-193811400D01*
X27092613Y-193741421D01*
X26967732Y-193717598D01*
X26931166Y-193710623D01*
X26767141Y-193720943D01*
X26610829Y-193771732D01*
X26472059Y-193859797D01*
X26359552Y-193979606D01*
X26280371Y-194123634D01*
X26239500Y-194282820D01*
X26239500Y-194282822D01*
X26239500Y-194282823D01*
X26239500Y-195205925D01*
X12000500Y-195205925D01*
X12000500Y-192747192D01*
X16732000Y-192747192D01*
X16732337Y-192750404D01*
X16732338Y-192750411D01*
X16746826Y-192888257D01*
X16805320Y-193068284D01*
X16899966Y-193232216D01*
X17026629Y-193372889D01*
X17179769Y-193484151D01*
X17352697Y-193561144D01*
X17537852Y-193600500D01*
X17537854Y-193600500D01*
X17727148Y-193600500D01*
X17850584Y-193574262D01*
X17912303Y-193561144D01*
X18085230Y-193484151D01*
X18238371Y-193372888D01*
X18365033Y-193232216D01*
X18459679Y-193068284D01*
X18518174Y-192888256D01*
X18533000Y-192747192D01*
X22232000Y-192747192D01*
X22232337Y-192750404D01*
X22232338Y-192750411D01*
X22246826Y-192888257D01*
X22305320Y-193068284D01*
X22399966Y-193232216D01*
X22526629Y-193372889D01*
X22679769Y-193484151D01*
X22852697Y-193561144D01*
X23037852Y-193600500D01*
X23037854Y-193600500D01*
X23227148Y-193600500D01*
X23350584Y-193574262D01*
X23412303Y-193561144D01*
X23585230Y-193484151D01*
X23738371Y-193372888D01*
X23865033Y-193232216D01*
X23959679Y-193068284D01*
X24018174Y-192888256D01*
X24033000Y-192747192D01*
X24033000Y-192052808D01*
X24018174Y-191911744D01*
X23959679Y-191731716D01*
X23959679Y-191731715D01*
X23865033Y-191567783D01*
X23738370Y-191427110D01*
X23585230Y-191315848D01*
X23412302Y-191238855D01*
X23227148Y-191199500D01*
X23227146Y-191199500D01*
X23037854Y-191199500D01*
X23037852Y-191199500D01*
X22852697Y-191238855D01*
X22679769Y-191315848D01*
X22526629Y-191427110D01*
X22399966Y-191567783D01*
X22305320Y-191731715D01*
X22246826Y-191911742D01*
X22242753Y-191950500D01*
X22232000Y-192052808D01*
X22232000Y-192747192D01*
X18533000Y-192747192D01*
X18533000Y-192052808D01*
X18518174Y-191911744D01*
X18459679Y-191731716D01*
X18459679Y-191731715D01*
X18365033Y-191567783D01*
X18238370Y-191427110D01*
X18085230Y-191315848D01*
X17912302Y-191238855D01*
X17727148Y-191199500D01*
X17727146Y-191199500D01*
X17537854Y-191199500D01*
X17537852Y-191199500D01*
X17352697Y-191238855D01*
X17179769Y-191315848D01*
X17026629Y-191427110D01*
X16899966Y-191567783D01*
X16805320Y-191731715D01*
X16746826Y-191911742D01*
X16742753Y-191950500D01*
X16732000Y-192052808D01*
X16732000Y-192747192D01*
X12000500Y-192747192D01*
X12000500Y-191053685D01*
X19978240Y-191053685D01*
X19988254Y-191238407D01*
X20037745Y-191416658D01*
X20124399Y-191580103D01*
X20244163Y-191721100D01*
X20391436Y-191833055D01*
X20559330Y-191910731D01*
X20559331Y-191910731D01*
X20559333Y-191910732D01*
X20740003Y-191950500D01*
X20875254Y-191950500D01*
X20878613Y-191950500D01*
X21016410Y-191935514D01*
X21191721Y-191876444D01*
X21350236Y-191781070D01*
X21484541Y-191653849D01*
X21588358Y-191500730D01*
X21656831Y-191328875D01*
X21686760Y-191146317D01*
X21676745Y-190961593D01*
X21676587Y-190961025D01*
X21627254Y-190783341D01*
X21540600Y-190619896D01*
X21494250Y-190565329D01*
X21420837Y-190478900D01*
X21420836Y-190478899D01*
X21273563Y-190366944D01*
X21105669Y-190289268D01*
X20924997Y-190249500D01*
X20786387Y-190249500D01*
X20783052Y-190249862D01*
X20783046Y-190249863D01*
X20648591Y-190264485D01*
X20473279Y-190323556D01*
X20314762Y-190418931D01*
X20180460Y-190546149D01*
X20076640Y-190699272D01*
X20008169Y-190871121D01*
X19978240Y-191053685D01*
X12000500Y-191053685D01*
X12000500Y-189747192D01*
X22232000Y-189747192D01*
X22232337Y-189750404D01*
X22232338Y-189750411D01*
X22246826Y-189888257D01*
X22305320Y-190068284D01*
X22399966Y-190232216D01*
X22526629Y-190372889D01*
X22679769Y-190484151D01*
X22852697Y-190561144D01*
X23037852Y-190600500D01*
X23037854Y-190600500D01*
X23227148Y-190600500D01*
X23350584Y-190574262D01*
X23412303Y-190561144D01*
X23585230Y-190484151D01*
X23674998Y-190418931D01*
X23738370Y-190372889D01*
X23865033Y-190232216D01*
X23959679Y-190068284D01*
X23959678Y-190068283D01*
X24018174Y-189888256D01*
X24033000Y-189747192D01*
X24033000Y-189052808D01*
X24018174Y-188911744D01*
X23974436Y-188777132D01*
X23959679Y-188731715D01*
X23865033Y-188567783D01*
X23738370Y-188427110D01*
X23585230Y-188315848D01*
X23412302Y-188238855D01*
X23227148Y-188199500D01*
X23227146Y-188199500D01*
X23037854Y-188199500D01*
X23037852Y-188199500D01*
X22852697Y-188238855D01*
X22679769Y-188315848D01*
X22526629Y-188427110D01*
X22399966Y-188567783D01*
X22305320Y-188731715D01*
X22246826Y-188911742D01*
X22237603Y-188999501D01*
X22232000Y-189052808D01*
X22232000Y-189747192D01*
X12000500Y-189747192D01*
X12000500Y-186419748D01*
X22232000Y-186419748D01*
X22243632Y-186478230D01*
X22287947Y-186544552D01*
X22354269Y-186588867D01*
X22412751Y-186600500D01*
X22412752Y-186600500D01*
X23852249Y-186600500D01*
X23881489Y-186594683D01*
X23910731Y-186588867D01*
X23977052Y-186544552D01*
X24021367Y-186478231D01*
X24033000Y-186419748D01*
X24033000Y-184380252D01*
X24021367Y-184321769D01*
X24021367Y-184321768D01*
X23977052Y-184255447D01*
X23910730Y-184211132D01*
X23852249Y-184199500D01*
X23852248Y-184199500D01*
X22412752Y-184199500D01*
X22412751Y-184199500D01*
X22354269Y-184211132D01*
X22287947Y-184255447D01*
X22243632Y-184321769D01*
X22232000Y-184380251D01*
X22232000Y-186419748D01*
X12000500Y-186419748D01*
X12000500Y-184247192D01*
X17732000Y-184247192D01*
X17732337Y-184250404D01*
X17732338Y-184250411D01*
X17746826Y-184388257D01*
X17805320Y-184568284D01*
X17899966Y-184732216D01*
X18026629Y-184872889D01*
X18179769Y-184984151D01*
X18352697Y-185061144D01*
X18537852Y-185100500D01*
X18537854Y-185100500D01*
X18727148Y-185100500D01*
X18850583Y-185074262D01*
X18912303Y-185061144D01*
X19085230Y-184984151D01*
X19132048Y-184950136D01*
X19238370Y-184872889D01*
X19365033Y-184732216D01*
X19459679Y-184568284D01*
X19481629Y-184500730D01*
X19518174Y-184388256D01*
X19533000Y-184247192D01*
X19533000Y-184053685D01*
X19978240Y-184053685D01*
X19988254Y-184238407D01*
X20037745Y-184416658D01*
X20124399Y-184580103D01*
X20244163Y-184721100D01*
X20391436Y-184833055D01*
X20559330Y-184910731D01*
X20559331Y-184910731D01*
X20559333Y-184910732D01*
X20740003Y-184950500D01*
X20875254Y-184950500D01*
X20878613Y-184950500D01*
X21016410Y-184935514D01*
X21191721Y-184876444D01*
X21350236Y-184781070D01*
X21484541Y-184653849D01*
X21588358Y-184500730D01*
X21656831Y-184328875D01*
X21686760Y-184146317D01*
X21676745Y-183961593D01*
X21627254Y-183783341D01*
X21540600Y-183619896D01*
X21420837Y-183478900D01*
X21420836Y-183478899D01*
X21273563Y-183366944D01*
X21105669Y-183289268D01*
X20924997Y-183249500D01*
X20786387Y-183249500D01*
X20783052Y-183249862D01*
X20783046Y-183249863D01*
X20648591Y-183264485D01*
X20473279Y-183323556D01*
X20314762Y-183418931D01*
X20180460Y-183546149D01*
X20076640Y-183699272D01*
X20008169Y-183871121D01*
X19978240Y-184053685D01*
X19533000Y-184053685D01*
X19533000Y-183552808D01*
X19518174Y-183411744D01*
X19470327Y-183264486D01*
X19459679Y-183231715D01*
X19365033Y-183067783D01*
X19238370Y-182927110D01*
X19085232Y-182815849D01*
X19058759Y-182804063D01*
X19005521Y-182758812D01*
X18985200Y-182691963D01*
X19004245Y-182624740D01*
X19021509Y-182603106D01*
X19612798Y-182011816D01*
X19674119Y-181978333D01*
X19700477Y-181975499D01*
X19703475Y-181975499D01*
X19703481Y-181975500D01*
X20166518Y-181975499D01*
X20260304Y-181960646D01*
X20373342Y-181903050D01*
X20463050Y-181813342D01*
X20520646Y-181700304D01*
X20522613Y-181687884D01*
X20523846Y-181680102D01*
X20553775Y-181616967D01*
X20613087Y-181580036D01*
X20646319Y-181575500D01*
X20729900Y-181575500D01*
X20796939Y-181595185D01*
X20842694Y-181647989D01*
X20846942Y-181658546D01*
X20857207Y-181687884D01*
X20937849Y-181797150D01*
X21047115Y-181877792D01*
X21047118Y-181877793D01*
X21175301Y-181922646D01*
X21205734Y-181925500D01*
X21208627Y-181925500D01*
X21811373Y-181925500D01*
X21814266Y-181925500D01*
X21844699Y-181922646D01*
X21972882Y-181877793D01*
X21972882Y-181877792D01*
X21972884Y-181877792D01*
X22082150Y-181797150D01*
X22162792Y-181687884D01*
X22176752Y-181647989D01*
X22207646Y-181559699D01*
X22210500Y-181529266D01*
X22210500Y-180470734D01*
X22207646Y-180440301D01*
X22162793Y-180312118D01*
X22162792Y-180312115D01*
X22082150Y-180202849D01*
X21972884Y-180122207D01*
X21844696Y-180077353D01*
X21817151Y-180074770D01*
X21817139Y-180074769D01*
X21814266Y-180074500D01*
X21205734Y-180074500D01*
X21202861Y-180074769D01*
X21202848Y-180074770D01*
X21175303Y-180077353D01*
X21047115Y-180122207D01*
X20937849Y-180202849D01*
X20857207Y-180312115D01*
X20812353Y-180440303D01*
X20809770Y-180467848D01*
X20809769Y-180467861D01*
X20809500Y-180470734D01*
X20809500Y-180473626D01*
X20809500Y-180900500D01*
X20789815Y-180967539D01*
X20737011Y-181013294D01*
X20685500Y-181024500D01*
X20646318Y-181024500D01*
X20579279Y-181004815D01*
X20533524Y-180952011D01*
X20523845Y-180919901D01*
X20520646Y-180899696D01*
X20482738Y-180825299D01*
X20463050Y-180786657D01*
X20373342Y-180696949D01*
X20278204Y-180648473D01*
X20227409Y-180600499D01*
X20210500Y-180537989D01*
X20210500Y-180462010D01*
X20230185Y-180394971D01*
X20278205Y-180351525D01*
X20288048Y-180346509D01*
X20373342Y-180303050D01*
X20463050Y-180213342D01*
X20520646Y-180100304D01*
X20535500Y-180006519D01*
X20535499Y-179393482D01*
X20520646Y-179299696D01*
X20498277Y-179255794D01*
X20485381Y-179187125D01*
X20511658Y-179122385D01*
X20568764Y-179082128D01*
X20608762Y-179075500D01*
X25270656Y-179075500D01*
X25294847Y-179077883D01*
X25310000Y-179080897D01*
X25325153Y-179077883D01*
X25325153Y-179077882D01*
X25337132Y-179075500D01*
X25337133Y-179075500D01*
X25417495Y-179059515D01*
X25469898Y-179024500D01*
X25485622Y-179013994D01*
X25485621Y-179013994D01*
X25499052Y-179005021D01*
X25499054Y-179005017D01*
X25508624Y-178998624D01*
X25517211Y-178985771D01*
X25532624Y-178966990D01*
X25736990Y-178762624D01*
X25755775Y-178747208D01*
X25768624Y-178738624D01*
X25787328Y-178710633D01*
X25788986Y-178708152D01*
X25824094Y-178655610D01*
X25877706Y-178610804D01*
X25927196Y-178600500D01*
X26124749Y-178600500D01*
X26156139Y-178594256D01*
X26183231Y-178588867D01*
X26249552Y-178544552D01*
X26267560Y-178517600D01*
X26321172Y-178472796D01*
X26390497Y-178464089D01*
X26432659Y-178479104D01*
X26546700Y-178544945D01*
X26711412Y-178594257D01*
X26883057Y-178604254D01*
X27052380Y-178574398D01*
X27210253Y-178506298D01*
X27348167Y-178403625D01*
X27378993Y-178366887D01*
X27437161Y-178328188D01*
X27507022Y-178327078D01*
X27559073Y-178356399D01*
X27667800Y-178458978D01*
X27766448Y-178515932D01*
X27772500Y-178519426D01*
X27820715Y-178569993D01*
X27834500Y-178626813D01*
X27834500Y-179060656D01*
X27832117Y-179084847D01*
X27829710Y-179096950D01*
X27829103Y-179100000D01*
X27829182Y-179100399D01*
X27832117Y-179115151D01*
X27832117Y-179115154D01*
X27833935Y-179124292D01*
X27834500Y-179127132D01*
X27834500Y-179127133D01*
X27850485Y-179207495D01*
X27857923Y-179218627D01*
X27861766Y-179224378D01*
X27893397Y-179271719D01*
X27911374Y-179298622D01*
X27911375Y-179298622D01*
X27911376Y-179298624D01*
X27924222Y-179307207D01*
X27943011Y-179322627D01*
X28187370Y-179566986D01*
X28202791Y-179585776D01*
X28211376Y-179598624D01*
X28224218Y-179607204D01*
X28224222Y-179607208D01*
X28234377Y-179613993D01*
X28234378Y-179613994D01*
X28260534Y-179631471D01*
X28302505Y-179659515D01*
X28382867Y-179675500D01*
X28382868Y-179675500D01*
X28394846Y-179677882D01*
X28394847Y-179677883D01*
X28410000Y-179680897D01*
X28425153Y-179677883D01*
X28449344Y-179675500D01*
X29570656Y-179675500D01*
X29594847Y-179677883D01*
X29610000Y-179680897D01*
X29625153Y-179677883D01*
X29625153Y-179677882D01*
X29637132Y-179675500D01*
X29637133Y-179675500D01*
X29717495Y-179659515D01*
X29742654Y-179642703D01*
X29759466Y-179631471D01*
X29799051Y-179605022D01*
X29799054Y-179605017D01*
X29808624Y-179598624D01*
X29817211Y-179585771D01*
X29832624Y-179566990D01*
X30778906Y-178620708D01*
X30840227Y-178587225D01*
X30909919Y-178592209D01*
X30965852Y-178634081D01*
X30972940Y-178644636D01*
X30974235Y-178646797D01*
X30975669Y-178649479D01*
X30977360Y-178652010D01*
X30977362Y-178652013D01*
X30979765Y-178655610D01*
X31013300Y-178705797D01*
X31038856Y-178736936D01*
X31073063Y-178771143D01*
X31075406Y-178773066D01*
X31075415Y-178773074D01*
X31098267Y-178791828D01*
X31137601Y-178849574D01*
X31139470Y-178919418D01*
X31103283Y-178979186D01*
X31045968Y-179008844D01*
X31038813Y-179010401D01*
X31037268Y-179010768D01*
X31028649Y-179012878D01*
X30947914Y-179055899D01*
X30896558Y-179100399D01*
X30896518Y-179100435D01*
X30895111Y-179101655D01*
X30893769Y-179102970D01*
X30877156Y-179119247D01*
X30832509Y-179199064D01*
X30815852Y-179255794D01*
X30812825Y-179266102D01*
X30811249Y-179277065D01*
X30804499Y-179324003D01*
X30804499Y-185196133D01*
X30784814Y-185263172D01*
X30782084Y-185267242D01*
X30280305Y-185984070D01*
X30280299Y-185984079D01*
X30278224Y-185987044D01*
X30276504Y-185990239D01*
X30276502Y-185990243D01*
X30257214Y-186026080D01*
X30257208Y-186026092D01*
X30255490Y-186029285D01*
X30254159Y-186032648D01*
X30254152Y-186032664D01*
X30234337Y-186082747D01*
X30233586Y-186084802D01*
X30229472Y-186096405D01*
X30222014Y-186187598D01*
X30228672Y-186233898D01*
X30231959Y-186256758D01*
X30232337Y-186258589D01*
X30232342Y-186258613D01*
X30237051Y-186281373D01*
X30280061Y-186362086D01*
X30324560Y-186413441D01*
X30324581Y-186413464D01*
X30325816Y-186414889D01*
X30343407Y-186432843D01*
X30423224Y-186477490D01*
X30490263Y-186497175D01*
X30548161Y-186505500D01*
X30548165Y-186505500D01*
X32382678Y-186505500D01*
X32386000Y-186505500D01*
X32429684Y-186500803D01*
X32481195Y-186489597D01*
X32482732Y-186489232D01*
X32491350Y-186487121D01*
X32491368Y-186487111D01*
X32491373Y-186487110D01*
X32572085Y-186444100D01*
X32605796Y-186414889D01*
X32623441Y-186399600D01*
X32623446Y-186399595D01*
X32624889Y-186398345D01*
X32642843Y-186380754D01*
X32687490Y-186300937D01*
X32707175Y-186233898D01*
X32715500Y-186176000D01*
X32715499Y-182136482D01*
X32735184Y-182069444D01*
X32751818Y-182048802D01*
X33003470Y-181797150D01*
X33418991Y-181381630D01*
X33433693Y-181365262D01*
X33450327Y-181344620D01*
X33487490Y-181273575D01*
X33507175Y-181206536D01*
X33515500Y-181148638D01*
X33515500Y-179324000D01*
X33510803Y-179280316D01*
X33499597Y-179228805D01*
X33499232Y-179227268D01*
X33497121Y-179218649D01*
X33497110Y-179218629D01*
X33497110Y-179218627D01*
X33454100Y-179137915D01*
X33430519Y-179110701D01*
X33401495Y-179047147D01*
X33411438Y-178977989D01*
X33457193Y-178925185D01*
X33524233Y-178905500D01*
X35503454Y-178905500D01*
X35570493Y-178925185D01*
X35576055Y-178928976D01*
X37203165Y-180104111D01*
X37205179Y-180105478D01*
X37216539Y-180112996D01*
X37218585Y-180114270D01*
X37233074Y-180123073D01*
X37235183Y-180124275D01*
X37247113Y-180130893D01*
X37249263Y-180132009D01*
X37302181Y-180158805D01*
X37302200Y-180158813D01*
X37304363Y-180159910D01*
X37306596Y-180160830D01*
X37306602Y-180160833D01*
X37313412Y-180163639D01*
X37334043Y-180172142D01*
X37370790Y-180184024D01*
X37402011Y-180191485D01*
X37448820Y-180198865D01*
X37465406Y-180201480D01*
X37467821Y-180201789D01*
X37481358Y-180203359D01*
X37483757Y-180203570D01*
X37500668Y-180204872D01*
X37503087Y-180204990D01*
X37516720Y-180205500D01*
X37519149Y-180205524D01*
X39496264Y-180205500D01*
X39497789Y-180205500D01*
X39517935Y-180204510D01*
X39542126Y-180202127D01*
X39562071Y-180199168D01*
X39640703Y-180183527D01*
X39679250Y-180171835D01*
X39723949Y-180153321D01*
X39742047Y-180143647D01*
X39810448Y-180129405D01*
X39875692Y-180154404D01*
X39917063Y-180210708D01*
X39924500Y-180253005D01*
X39924500Y-190544522D01*
X39904815Y-190611561D01*
X39888181Y-190632203D01*
X38232203Y-192288181D01*
X38170880Y-192321666D01*
X38144522Y-192324500D01*
X32575478Y-192324500D01*
X32508439Y-192304815D01*
X32487797Y-192288181D01*
X31937296Y-191737680D01*
X31903811Y-191676357D01*
X31908795Y-191606665D01*
X31937292Y-191562322D01*
X32126990Y-191372624D01*
X32145770Y-191357212D01*
X32158624Y-191348624D01*
X32219515Y-191257495D01*
X32235500Y-191177133D01*
X32235500Y-191177132D01*
X32237883Y-191165154D01*
X32237883Y-191165151D01*
X32240897Y-191150000D01*
X32237883Y-191134847D01*
X32235500Y-191110656D01*
X32235500Y-190919500D01*
X32255185Y-190852461D01*
X32307989Y-190806706D01*
X32359500Y-190795500D01*
X32629749Y-190795500D01*
X32660481Y-190789386D01*
X32685808Y-190784349D01*
X32734190Y-190784349D01*
X32790250Y-190795500D01*
X32790252Y-190795500D01*
X33129747Y-190795500D01*
X33129748Y-190795500D01*
X33185813Y-190784348D01*
X33234187Y-190784348D01*
X33290252Y-190795500D01*
X33439432Y-190795500D01*
X33506471Y-190815185D01*
X33552226Y-190867989D01*
X33562170Y-190937147D01*
X33556272Y-190961025D01*
X33555946Y-190961942D01*
X33545618Y-191112922D01*
X33576407Y-191261083D01*
X33576407Y-191261084D01*
X33576408Y-191261085D01*
X33646029Y-191395447D01*
X33735961Y-191491740D01*
X33749321Y-191506045D01*
X33783447Y-191526797D01*
X33878618Y-191584672D01*
X34024335Y-191625500D01*
X34024337Y-191625500D01*
X34133421Y-191625500D01*
X34137658Y-191625500D01*
X34249920Y-191610070D01*
X34388720Y-191549780D01*
X34506108Y-191454278D01*
X34593377Y-191330647D01*
X34643417Y-191189848D01*
X34684413Y-191133274D01*
X34749491Y-191107844D01*
X34817986Y-191121634D01*
X34868152Y-191170267D01*
X34883278Y-191215835D01*
X34894928Y-191308059D01*
X34955431Y-191460870D01*
X35052034Y-191593834D01*
X35052036Y-191593835D01*
X35052037Y-191593837D01*
X35178674Y-191698600D01*
X35327387Y-191768579D01*
X35488830Y-191799376D01*
X35488832Y-191799375D01*
X35488833Y-191799376D01*
X35587248Y-191793184D01*
X35652860Y-191789056D01*
X35809171Y-191738268D01*
X35947940Y-191650202D01*
X36060448Y-191530393D01*
X36139627Y-191386368D01*
X36149318Y-191348624D01*
X36180500Y-191227179D01*
X36180500Y-190007969D01*
X36180500Y-190007968D01*
X36180500Y-190004075D01*
X36165071Y-189881942D01*
X36165071Y-189881940D01*
X36104568Y-189729129D01*
X36007965Y-189596165D01*
X35939829Y-189539798D01*
X35881326Y-189491400D01*
X35732613Y-189421421D01*
X35607732Y-189397598D01*
X35571166Y-189390623D01*
X35407141Y-189400943D01*
X35250829Y-189451732D01*
X35112059Y-189539797D01*
X34999552Y-189659606D01*
X34920371Y-189803634D01*
X34879500Y-189962820D01*
X34879500Y-190914221D01*
X34859815Y-190981260D01*
X34807011Y-191027015D01*
X34737853Y-191036959D01*
X34674297Y-191007934D01*
X34636523Y-190949156D01*
X34634094Y-190939450D01*
X34623592Y-190888916D01*
X34623592Y-190888915D01*
X34553971Y-190754553D01*
X34450680Y-190643956D01*
X34450679Y-190643955D01*
X34450678Y-190643954D01*
X34321384Y-190565329D01*
X34321383Y-190565328D01*
X34321382Y-190565328D01*
X34201043Y-190531610D01*
X34141802Y-190494568D01*
X34111991Y-190431378D01*
X34110500Y-190412209D01*
X34110500Y-189415251D01*
X34096956Y-189347163D01*
X34103183Y-189277571D01*
X34129744Y-189242309D01*
X34128344Y-189241234D01*
X34164239Y-189194453D01*
X34234536Y-189102841D01*
X34295044Y-188956762D01*
X34315682Y-188800000D01*
X34295044Y-188643238D01*
X34234536Y-188497159D01*
X34184500Y-188431950D01*
X34138282Y-188371717D01*
X34012841Y-188275464D01*
X34012841Y-188275463D01*
X33875348Y-188218512D01*
X33820946Y-188174672D01*
X33798881Y-188108378D01*
X33816160Y-188040679D01*
X33835119Y-188016272D01*
X33838050Y-188013342D01*
X33895646Y-187900304D01*
X33910500Y-187806519D01*
X33910499Y-187193482D01*
X33895646Y-187099696D01*
X33867965Y-187045370D01*
X33838050Y-186986657D01*
X33748343Y-186896950D01*
X33635302Y-186839353D01*
X33541521Y-186824500D01*
X33078485Y-186824500D01*
X33031589Y-186831927D01*
X32984696Y-186839354D01*
X32984694Y-186839354D01*
X32984693Y-186839355D01*
X32871657Y-186896949D01*
X32781950Y-186986656D01*
X32724353Y-187099697D01*
X32709500Y-187193478D01*
X32709500Y-187682127D01*
X32690347Y-187747352D01*
X32693559Y-187777224D01*
X32693146Y-187779399D01*
X32679103Y-187849999D01*
X32682117Y-187865151D01*
X32684500Y-187889343D01*
X32684500Y-189110500D01*
X32664815Y-189177539D01*
X32612011Y-189223294D01*
X32560500Y-189234500D01*
X32290252Y-189234500D01*
X32272600Y-189238011D01*
X32234190Y-189245651D01*
X32185810Y-189245651D01*
X32147399Y-189238011D01*
X32129748Y-189234500D01*
X31859499Y-189234500D01*
X31792460Y-189214815D01*
X31746705Y-189162011D01*
X31735499Y-189110500D01*
X31735499Y-189049588D01*
X31735499Y-188789334D01*
X31737880Y-188765164D01*
X31740897Y-188750000D01*
X31731414Y-188702327D01*
X31719515Y-188642505D01*
X31699309Y-188612266D01*
X31658624Y-188551375D01*
X31645776Y-188542791D01*
X31626986Y-188527370D01*
X31532627Y-188433011D01*
X31517205Y-188414219D01*
X31508623Y-188401375D01*
X31495779Y-188392793D01*
X31495778Y-188392792D01*
X31485622Y-188386006D01*
X31459465Y-188368528D01*
X31438480Y-188354506D01*
X31417493Y-188340483D01*
X31325156Y-188322117D01*
X31325153Y-188322117D01*
X31309999Y-188319102D01*
X31294847Y-188322117D01*
X31270656Y-188324500D01*
X30776255Y-188324500D01*
X30709216Y-188304815D01*
X30663461Y-188252011D01*
X30653517Y-188182853D01*
X30682542Y-188119297D01*
X30688574Y-188112819D01*
X30788049Y-188013343D01*
X30788050Y-188013342D01*
X30845646Y-187900304D01*
X30860500Y-187806519D01*
X30860499Y-187193482D01*
X30845646Y-187099696D01*
X30817965Y-187045370D01*
X30788050Y-186986657D01*
X30698343Y-186896950D01*
X30585302Y-186839353D01*
X30491521Y-186824500D01*
X30028485Y-186824500D01*
X29981589Y-186831927D01*
X29934696Y-186839354D01*
X29934694Y-186839354D01*
X29934693Y-186839355D01*
X29821657Y-186896949D01*
X29731950Y-186986656D01*
X29674353Y-187099697D01*
X29659500Y-187193478D01*
X29659500Y-187806514D01*
X29659501Y-187806518D01*
X29674354Y-187900304D01*
X29674354Y-187900305D01*
X29677427Y-187919703D01*
X29677236Y-187919733D01*
X29684500Y-187949986D01*
X29684500Y-189110500D01*
X29664815Y-189177539D01*
X29612011Y-189223294D01*
X29560500Y-189234500D01*
X29465580Y-189234500D01*
X29398541Y-189214815D01*
X29352786Y-189162011D01*
X29342842Y-189092853D01*
X29351019Y-189063047D01*
X29356594Y-189049588D01*
X29395044Y-188956762D01*
X29415682Y-188800000D01*
X29395044Y-188643238D01*
X29334536Y-188497159D01*
X29284500Y-188431950D01*
X29238282Y-188371717D01*
X29112840Y-188275463D01*
X28966762Y-188214956D01*
X28810000Y-188194317D01*
X28653237Y-188214956D01*
X28507159Y-188275463D01*
X28381717Y-188371717D01*
X28285463Y-188497159D01*
X28224956Y-188643237D01*
X28204317Y-188800000D01*
X28224956Y-188956762D01*
X28285462Y-189102838D01*
X28333876Y-189165932D01*
X28359070Y-189231102D01*
X28359500Y-189241419D01*
X28359500Y-189261733D01*
X28339815Y-189328772D01*
X28338603Y-189330623D01*
X28321132Y-189356769D01*
X28309500Y-189415251D01*
X28309500Y-190412644D01*
X28289815Y-190479683D01*
X28237011Y-190525438D01*
X28202387Y-190535489D01*
X28170079Y-190539930D01*
X28031280Y-190600219D01*
X27913892Y-190695721D01*
X27826621Y-190819354D01*
X27781340Y-190946764D01*
X27740342Y-191003341D01*
X27675264Y-191028771D01*
X27606769Y-191014980D01*
X27556603Y-190966348D01*
X27540500Y-190905239D01*
X27540500Y-190007969D01*
X27540500Y-190004075D01*
X27525071Y-189881942D01*
X27525071Y-189881940D01*
X27464568Y-189729129D01*
X27367965Y-189596165D01*
X27299829Y-189539798D01*
X27241326Y-189491400D01*
X27092613Y-189421421D01*
X26967732Y-189397598D01*
X26931166Y-189390623D01*
X26767141Y-189400943D01*
X26610829Y-189451732D01*
X26472059Y-189539797D01*
X26359552Y-189659606D01*
X26280371Y-189803634D01*
X26239500Y-189962820D01*
X26239500Y-189962822D01*
X26239500Y-189962823D01*
X26239500Y-191185925D01*
X26239987Y-191189784D01*
X26239988Y-191189791D01*
X26254928Y-191308059D01*
X26315431Y-191460870D01*
X26412034Y-191593834D01*
X26412036Y-191593835D01*
X26412037Y-191593837D01*
X26538674Y-191698600D01*
X26687387Y-191768579D01*
X26848830Y-191799376D01*
X26848832Y-191799375D01*
X26848833Y-191799376D01*
X26947248Y-191793184D01*
X27012860Y-191789056D01*
X27169171Y-191738268D01*
X27307940Y-191650202D01*
X27420448Y-191530393D01*
X27499627Y-191386368D01*
X27509318Y-191348624D01*
X27544396Y-191212005D01*
X27547264Y-191212741D01*
X27560185Y-191168739D01*
X27612989Y-191122984D01*
X27682147Y-191113040D01*
X27745703Y-191142065D01*
X27783477Y-191200843D01*
X27785906Y-191210550D01*
X27796406Y-191261083D01*
X27861323Y-191386365D01*
X27866029Y-191395447D01*
X27955961Y-191491740D01*
X27969321Y-191506045D01*
X28003447Y-191526797D01*
X28098618Y-191584672D01*
X28244335Y-191625500D01*
X28244337Y-191625500D01*
X28353421Y-191625500D01*
X28357658Y-191625500D01*
X28469920Y-191610070D01*
X28608720Y-191549780D01*
X28726108Y-191454278D01*
X28813377Y-191330647D01*
X28864054Y-191188056D01*
X28874381Y-191037079D01*
X28874380Y-191037078D01*
X28874381Y-191037076D01*
X28855191Y-190944728D01*
X28860824Y-190875086D01*
X28903214Y-190819545D01*
X28968903Y-190795739D01*
X28976597Y-190795500D01*
X29129747Y-190795500D01*
X29129748Y-190795500D01*
X29185813Y-190784348D01*
X29234187Y-190784348D01*
X29290252Y-190795500D01*
X29290253Y-190795500D01*
X29629746Y-190795500D01*
X29629748Y-190795500D01*
X29685813Y-190784348D01*
X29734187Y-190784348D01*
X29790252Y-190795500D01*
X29790253Y-190795500D01*
X30060500Y-190795500D01*
X30127539Y-190815185D01*
X30173294Y-190867989D01*
X30184500Y-190919500D01*
X30184500Y-192210656D01*
X30182117Y-192234847D01*
X30179103Y-192249999D01*
X30182117Y-192265151D01*
X30182117Y-192265154D01*
X30190006Y-192304815D01*
X30200485Y-192357495D01*
X30261376Y-192448624D01*
X30274221Y-192457206D01*
X30293011Y-192472627D01*
X30987370Y-193166986D01*
X31002791Y-193185776D01*
X31011376Y-193198624D01*
X31024217Y-193207204D01*
X31024223Y-193207209D01*
X31048744Y-193223593D01*
X31102503Y-193259514D01*
X31102505Y-193259515D01*
X31182867Y-193275500D01*
X31182868Y-193275500D01*
X31194846Y-193277882D01*
X31194847Y-193277883D01*
X31210000Y-193280897D01*
X31225153Y-193277883D01*
X31249344Y-193275500D01*
X38370656Y-193275500D01*
X38394847Y-193277883D01*
X38410000Y-193280897D01*
X38425153Y-193277883D01*
X38425153Y-193277882D01*
X38437132Y-193275500D01*
X38437133Y-193275500D01*
X38517495Y-193259515D01*
X38571257Y-193223592D01*
X38585622Y-193213994D01*
X38585621Y-193213994D01*
X38599052Y-193205021D01*
X38599054Y-193205017D01*
X38608624Y-193198624D01*
X38617211Y-193185771D01*
X38632624Y-193166990D01*
X40716990Y-191082624D01*
X40735770Y-191067212D01*
X40748624Y-191058624D01*
X40809515Y-190967495D01*
X40820112Y-190914221D01*
X40827883Y-190875154D01*
X40827883Y-190875151D01*
X40828684Y-190871125D01*
X40830897Y-190860000D01*
X40827883Y-190844847D01*
X40825500Y-190820656D01*
X40825500Y-159279343D01*
X40827883Y-159255151D01*
X40830897Y-159240000D01*
X40811895Y-159144475D01*
X40811295Y-159138372D01*
X40809515Y-159132506D01*
X40809515Y-159132505D01*
X40748624Y-159041376D01*
X40735776Y-159032791D01*
X40716986Y-159017370D01*
X38432627Y-156733011D01*
X38417205Y-156714219D01*
X38408623Y-156701375D01*
X38385623Y-156686007D01*
X38385622Y-156686006D01*
X38337627Y-156653937D01*
X38317495Y-156640485D01*
X38317494Y-156640484D01*
X38225154Y-156622117D01*
X38225153Y-156622117D01*
X38210000Y-156619102D01*
X38194847Y-156622117D01*
X38170656Y-156624500D01*
X36824500Y-156624500D01*
X36757461Y-156604815D01*
X36711706Y-156552011D01*
X36700500Y-156500500D01*
X36700500Y-156430251D01*
X36688867Y-156371769D01*
X36644552Y-156305448D01*
X36627895Y-156294318D01*
X36578231Y-156261133D01*
X36578229Y-156261132D01*
X36566211Y-156253102D01*
X36521406Y-156199490D01*
X36512699Y-156130165D01*
X36542853Y-156067137D01*
X36566211Y-156046898D01*
X36578229Y-156038867D01*
X36578231Y-156038867D01*
X36644552Y-155994552D01*
X36688867Y-155928231D01*
X36700500Y-155869748D01*
X36700500Y-154930252D01*
X36688867Y-154871769D01*
X36644552Y-154805448D01*
X36578231Y-154761133D01*
X36578230Y-154761132D01*
X36566210Y-154753101D01*
X36521406Y-154699488D01*
X36512699Y-154630163D01*
X36542854Y-154567136D01*
X36566212Y-154546896D01*
X36578226Y-154538867D01*
X36578231Y-154538867D01*
X36644552Y-154494552D01*
X36688867Y-154428231D01*
X36700500Y-154369748D01*
X36700500Y-153430252D01*
X36688867Y-153371769D01*
X36644552Y-153305448D01*
X36578231Y-153261133D01*
X36578229Y-153261132D01*
X36566211Y-153253102D01*
X36521406Y-153199490D01*
X36512699Y-153130165D01*
X36542853Y-153067137D01*
X36566211Y-153046898D01*
X36578229Y-153038867D01*
X36578231Y-153038867D01*
X36644552Y-152994552D01*
X36688867Y-152928231D01*
X36700500Y-152869748D01*
X36700500Y-151930252D01*
X36688867Y-151871769D01*
X36644552Y-151805448D01*
X36578231Y-151761133D01*
X36578229Y-151761132D01*
X36566211Y-151753102D01*
X36521406Y-151699490D01*
X36512699Y-151630165D01*
X36542853Y-151567137D01*
X36566211Y-151546898D01*
X36578229Y-151538867D01*
X36578231Y-151538867D01*
X36644552Y-151494552D01*
X36688867Y-151428231D01*
X36700500Y-151369748D01*
X36700500Y-150430252D01*
X36688867Y-150371769D01*
X36644552Y-150305448D01*
X36578231Y-150261133D01*
X36578229Y-150261132D01*
X36566211Y-150253102D01*
X36521406Y-150199490D01*
X36512699Y-150130165D01*
X36542853Y-150067137D01*
X36566211Y-150046898D01*
X36578229Y-150038867D01*
X36578231Y-150038867D01*
X36644552Y-149994552D01*
X36688867Y-149928231D01*
X36700500Y-149869748D01*
X36700500Y-148930252D01*
X36688867Y-148871769D01*
X36679138Y-148857209D01*
X36644552Y-148805447D01*
X36578230Y-148761132D01*
X36519749Y-148749500D01*
X36519748Y-148749500D01*
X34980252Y-148749500D01*
X34980251Y-148749500D01*
X34921769Y-148761132D01*
X34855447Y-148805447D01*
X34811132Y-148871769D01*
X34799500Y-148930251D01*
X34799500Y-149869748D01*
X34811132Y-149928230D01*
X34855447Y-149994552D01*
X34933788Y-150046898D01*
X34978593Y-150100511D01*
X34987300Y-150169836D01*
X34957145Y-150232863D01*
X34933788Y-150253102D01*
X34855447Y-150305447D01*
X34811132Y-150371769D01*
X34799500Y-150430251D01*
X34799500Y-151369748D01*
X34811132Y-151428230D01*
X34855447Y-151494552D01*
X34933788Y-151546898D01*
X34978593Y-151600511D01*
X34987300Y-151669836D01*
X34957145Y-151732863D01*
X34933788Y-151753102D01*
X34855447Y-151805447D01*
X34811132Y-151871769D01*
X34799500Y-151930251D01*
X34799500Y-152000500D01*
X34779815Y-152067539D01*
X34727011Y-152113294D01*
X34675500Y-152124500D01*
X32616666Y-152124500D01*
X32549627Y-152104815D01*
X32518290Y-152075986D01*
X32438282Y-151971717D01*
X32312840Y-151875463D01*
X32166762Y-151814956D01*
X32010000Y-151794317D01*
X31853237Y-151814956D01*
X31707159Y-151875463D01*
X31581717Y-151971717D01*
X31485463Y-152097159D01*
X31424956Y-152243237D01*
X31404317Y-152400000D01*
X31424956Y-152556762D01*
X31485463Y-152702840D01*
X31581717Y-152828282D01*
X31703176Y-152921480D01*
X31707159Y-152924536D01*
X31853238Y-152985044D01*
X32010000Y-153005682D01*
X32166762Y-152985044D01*
X32312841Y-152924536D01*
X32438282Y-152828282D01*
X32511808Y-152732461D01*
X32518290Y-152724014D01*
X32574718Y-152682811D01*
X32616666Y-152675500D01*
X34675500Y-152675500D01*
X34742539Y-152695185D01*
X34788294Y-152747989D01*
X34799500Y-152799500D01*
X34799500Y-152869748D01*
X34811132Y-152928230D01*
X34855447Y-152994552D01*
X34933788Y-153046898D01*
X34978593Y-153100511D01*
X34987300Y-153169836D01*
X34957145Y-153232863D01*
X34933788Y-153253102D01*
X34855447Y-153305447D01*
X34811132Y-153371769D01*
X34799500Y-153430251D01*
X34799500Y-154369748D01*
X34811132Y-154428230D01*
X34855447Y-154494552D01*
X34933788Y-154546898D01*
X34978593Y-154600511D01*
X34987300Y-154669836D01*
X34957145Y-154732863D01*
X34933788Y-154753102D01*
X34855447Y-154805447D01*
X34811132Y-154871769D01*
X34799500Y-154930251D01*
X34799500Y-155000500D01*
X34779815Y-155067539D01*
X34727011Y-155113294D01*
X34675500Y-155124500D01*
X34649344Y-155124500D01*
X34625153Y-155122117D01*
X34610000Y-155119102D01*
X34594847Y-155122117D01*
X34594843Y-155122117D01*
X34502505Y-155140484D01*
X34460533Y-155168528D01*
X34441967Y-155180934D01*
X34441959Y-155180939D01*
X34437232Y-155184098D01*
X34434388Y-155185999D01*
X34434378Y-155186006D01*
X34434376Y-155186007D01*
X34431149Y-155188162D01*
X34431146Y-155188165D01*
X34411375Y-155201376D01*
X34402792Y-155214222D01*
X34387372Y-155233010D01*
X33943010Y-155677372D01*
X33924222Y-155692791D01*
X33911376Y-155701374D01*
X33850484Y-155792505D01*
X33834500Y-155872867D01*
X33829103Y-155899999D01*
X33832117Y-155915151D01*
X33834500Y-155939343D01*
X33834500Y-162660656D01*
X33832116Y-162684847D01*
X33829103Y-162700000D01*
X33834500Y-162727132D01*
X33834500Y-162727133D01*
X33850485Y-162807495D01*
X33881517Y-162853937D01*
X33902945Y-162886007D01*
X33911376Y-162898624D01*
X33924221Y-162907206D01*
X33943011Y-162922627D01*
X39888181Y-168867797D01*
X39921666Y-168929120D01*
X39924500Y-168955478D01*
X39924500Y-175424517D01*
X39904815Y-175491556D01*
X39852011Y-175537311D01*
X39782853Y-175547255D01*
X39719297Y-175518230D01*
X39712819Y-175512198D01*
X38251819Y-174051198D01*
X38218334Y-173989875D01*
X38215500Y-173963517D01*
X38215500Y-171113732D01*
X38215500Y-171112209D01*
X38214510Y-171092062D01*
X38212127Y-171067872D01*
X38209168Y-171047928D01*
X38193527Y-170969296D01*
X38181835Y-170930749D01*
X38163321Y-170886050D01*
X38144328Y-170850517D01*
X38138910Y-170842409D01*
X38108391Y-170796734D01*
X38108389Y-170796731D01*
X38106699Y-170794202D01*
X38081143Y-170763063D01*
X38046936Y-170728856D01*
X38015797Y-170703300D01*
X38013265Y-170701608D01*
X38013264Y-170701607D01*
X37962013Y-170667362D01*
X37962010Y-170667360D01*
X37959479Y-170665669D01*
X37956796Y-170664235D01*
X37956788Y-170664230D01*
X37926645Y-170648118D01*
X37926643Y-170648117D01*
X37923949Y-170646677D01*
X37921130Y-170645509D01*
X37921123Y-170645506D01*
X37882084Y-170629336D01*
X37882081Y-170629335D01*
X37879259Y-170628166D01*
X37876335Y-170627279D01*
X37843613Y-170617353D01*
X37843603Y-170617350D01*
X37840707Y-170616472D01*
X37837737Y-170615881D01*
X37837732Y-170615880D01*
X37763544Y-170601124D01*
X37763537Y-170601122D01*
X37762060Y-170600829D01*
X37760508Y-170600598D01*
X37743610Y-170598092D01*
X37743574Y-170598087D01*
X37742107Y-170597870D01*
X37740596Y-170597721D01*
X37740578Y-170597719D01*
X37719433Y-170595637D01*
X37719413Y-170595635D01*
X37717925Y-170595489D01*
X37716429Y-170595415D01*
X37716422Y-170595415D01*
X37699306Y-170594574D01*
X37699285Y-170594573D01*
X37697789Y-170594500D01*
X37122211Y-170594500D01*
X37120715Y-170594573D01*
X37120693Y-170594574D01*
X37103577Y-170595415D01*
X37103567Y-170595415D01*
X37102075Y-170595489D01*
X37100589Y-170595635D01*
X37100566Y-170595637D01*
X37079430Y-170597718D01*
X37079407Y-170597720D01*
X37077892Y-170597870D01*
X37076378Y-170598094D01*
X37076374Y-170598095D01*
X37059457Y-170600603D01*
X37059427Y-170600608D01*
X37057938Y-170600829D01*
X37056438Y-170601127D01*
X37056417Y-170601131D01*
X36982287Y-170615876D01*
X36982274Y-170615879D01*
X36979289Y-170616473D01*
X36976374Y-170617357D01*
X36976363Y-170617360D01*
X36943658Y-170627281D01*
X36943643Y-170627286D01*
X36940740Y-170628167D01*
X36937946Y-170629324D01*
X36937930Y-170629330D01*
X36898854Y-170645515D01*
X36898833Y-170645524D01*
X36896054Y-170646676D01*
X36893380Y-170648105D01*
X36893372Y-170648109D01*
X36863219Y-170664225D01*
X36863203Y-170664234D01*
X36860523Y-170665667D01*
X36858000Y-170667352D01*
X36857983Y-170667363D01*
X36806733Y-170701608D01*
X36806726Y-170701613D01*
X36804200Y-170703301D01*
X36801852Y-170705228D01*
X36801848Y-170705231D01*
X36775410Y-170726928D01*
X36775394Y-170726941D01*
X36773060Y-170728858D01*
X36770914Y-170731003D01*
X36770904Y-170731013D01*
X36741013Y-170760904D01*
X36741003Y-170760914D01*
X36738858Y-170763060D01*
X36736941Y-170765394D01*
X36736928Y-170765410D01*
X36715233Y-170791846D01*
X36713301Y-170794200D01*
X36711613Y-170796726D01*
X36711608Y-170796733D01*
X36677363Y-170847983D01*
X36677352Y-170848000D01*
X36675667Y-170850523D01*
X36674237Y-170853199D01*
X36674225Y-170853219D01*
X36658109Y-170883372D01*
X36658105Y-170883380D01*
X36656676Y-170886054D01*
X36655524Y-170888833D01*
X36655515Y-170888854D01*
X36639330Y-170927930D01*
X36639327Y-170927939D01*
X36638167Y-170930740D01*
X36637286Y-170933643D01*
X36637281Y-170933658D01*
X36627354Y-170966382D01*
X36627349Y-170966398D01*
X36626473Y-170969289D01*
X36625884Y-170972249D01*
X36625882Y-170972258D01*
X36611122Y-171046462D01*
X36611116Y-171046492D01*
X36610829Y-171047939D01*
X36610607Y-171049432D01*
X36610605Y-171049447D01*
X36608096Y-171066368D01*
X36607870Y-171067891D01*
X36607722Y-171069393D01*
X36607721Y-171069402D01*
X36605640Y-171090532D01*
X36605639Y-171090551D01*
X36605489Y-171092071D01*
X36605415Y-171093576D01*
X36605413Y-171093605D01*
X36604574Y-171110689D01*
X36604574Y-171110696D01*
X36604500Y-171112209D01*
X36604500Y-171113732D01*
X36604500Y-171113735D01*
X36604500Y-176095993D01*
X36584815Y-176163032D01*
X36555824Y-176194493D01*
X35673778Y-176869000D01*
X35608567Y-176894087D01*
X35598454Y-176894500D01*
X31422211Y-176894500D01*
X31420715Y-176894573D01*
X31420693Y-176894574D01*
X31403577Y-176895415D01*
X31403567Y-176895415D01*
X31402075Y-176895489D01*
X31400589Y-176895635D01*
X31400566Y-176895637D01*
X31379430Y-176897718D01*
X31379407Y-176897720D01*
X31377892Y-176897870D01*
X31376378Y-176898094D01*
X31376374Y-176898095D01*
X31359457Y-176900603D01*
X31359427Y-176900608D01*
X31357938Y-176900829D01*
X31356438Y-176901127D01*
X31356417Y-176901131D01*
X31282287Y-176915876D01*
X31282274Y-176915879D01*
X31279289Y-176916473D01*
X31276374Y-176917357D01*
X31276363Y-176917360D01*
X31243658Y-176927281D01*
X31243643Y-176927286D01*
X31240740Y-176928167D01*
X31237946Y-176929324D01*
X31237930Y-176929330D01*
X31198854Y-176945515D01*
X31198833Y-176945524D01*
X31196054Y-176946676D01*
X31193380Y-176948105D01*
X31193372Y-176948109D01*
X31163219Y-176964225D01*
X31163203Y-176964234D01*
X31160523Y-176965667D01*
X31158000Y-176967352D01*
X31157983Y-176967363D01*
X31106733Y-177001608D01*
X31106726Y-177001613D01*
X31104200Y-177003301D01*
X31101852Y-177005228D01*
X31101848Y-177005231D01*
X31075410Y-177026928D01*
X31075394Y-177026941D01*
X31073060Y-177028858D01*
X31070914Y-177031003D01*
X31070904Y-177031013D01*
X31041013Y-177060904D01*
X31041003Y-177060914D01*
X31038858Y-177063060D01*
X31036941Y-177065394D01*
X31036928Y-177065410D01*
X31015231Y-177091848D01*
X31013301Y-177094200D01*
X31011613Y-177096726D01*
X31011608Y-177096733D01*
X30977363Y-177147983D01*
X30977352Y-177148000D01*
X30975667Y-177150523D01*
X30974234Y-177153203D01*
X30974225Y-177153219D01*
X30958109Y-177183372D01*
X30958105Y-177183380D01*
X30956676Y-177186054D01*
X30955524Y-177188833D01*
X30955515Y-177188854D01*
X30939330Y-177227930D01*
X30939324Y-177227946D01*
X30938167Y-177230740D01*
X30937286Y-177233643D01*
X30937281Y-177233658D01*
X30927354Y-177266382D01*
X30927349Y-177266398D01*
X30926473Y-177269289D01*
X30925884Y-177272249D01*
X30925882Y-177272258D01*
X30924040Y-177281519D01*
X30910829Y-177347939D01*
X30907870Y-177367892D01*
X30907722Y-177369387D01*
X30907718Y-177369426D01*
X30905636Y-177390572D01*
X30905633Y-177390604D01*
X30905489Y-177392073D01*
X30905416Y-177393544D01*
X30905415Y-177393568D01*
X30904574Y-177410692D01*
X30904573Y-177410714D01*
X30904500Y-177412210D01*
X30904500Y-177413735D01*
X30904500Y-177664521D01*
X30884815Y-177731560D01*
X30868181Y-177752202D01*
X30182783Y-178437599D01*
X30121460Y-178471084D01*
X30051768Y-178466100D01*
X29995835Y-178424228D01*
X29971418Y-178358764D01*
X29986270Y-178290491D01*
X29997941Y-178273395D01*
X29998683Y-178271917D01*
X29998685Y-178271915D01*
X30075849Y-178118268D01*
X30102738Y-178004815D01*
X30115500Y-177950970D01*
X30115500Y-177095759D01*
X30115500Y-177095758D01*
X30115500Y-177092161D01*
X30100547Y-176964227D01*
X30041741Y-176802661D01*
X29947261Y-176659011D01*
X29822200Y-176541022D01*
X29717500Y-176480573D01*
X29669284Y-176430006D01*
X29655500Y-176373186D01*
X29655500Y-176309343D01*
X29657883Y-176285151D01*
X29660897Y-176270000D01*
X29655500Y-176242867D01*
X29639515Y-176162505D01*
X29578624Y-176071376D01*
X29574155Y-176068390D01*
X29565776Y-176062791D01*
X29546986Y-176047370D01*
X28932627Y-175433011D01*
X28917205Y-175414219D01*
X28908623Y-175401375D01*
X28895779Y-175392793D01*
X28895778Y-175392792D01*
X28885622Y-175386006D01*
X28859465Y-175368528D01*
X28838480Y-175354506D01*
X28817493Y-175340483D01*
X28725156Y-175322117D01*
X28725153Y-175322117D01*
X28710000Y-175319102D01*
X28694847Y-175322117D01*
X28670656Y-175324500D01*
X24849344Y-175324500D01*
X24825153Y-175322117D01*
X24810000Y-175319102D01*
X24794847Y-175322117D01*
X24794843Y-175322117D01*
X24702505Y-175340484D01*
X24660533Y-175368528D01*
X24641967Y-175380934D01*
X24641959Y-175380939D01*
X24637232Y-175384098D01*
X24634388Y-175385999D01*
X24634378Y-175386006D01*
X24634376Y-175386007D01*
X24631149Y-175388162D01*
X24631146Y-175388165D01*
X24611375Y-175401376D01*
X24602792Y-175414222D01*
X24587372Y-175433010D01*
X23282203Y-176738181D01*
X23220880Y-176771666D01*
X23194522Y-176774500D01*
X23172010Y-176774500D01*
X23104971Y-176754815D01*
X23061525Y-176706795D01*
X23013049Y-176611656D01*
X22923343Y-176521950D01*
X22810302Y-176464353D01*
X22716521Y-176449500D01*
X22103485Y-176449500D01*
X22056588Y-176456927D01*
X22009696Y-176464354D01*
X22009694Y-176464354D01*
X22009693Y-176464355D01*
X21896657Y-176521949D01*
X21806950Y-176611656D01*
X21749353Y-176724697D01*
X21734500Y-176818478D01*
X21734500Y-177281514D01*
X21734501Y-177281518D01*
X21749354Y-177375304D01*
X21749354Y-177375305D01*
X21749355Y-177375306D01*
X21806949Y-177488342D01*
X21896656Y-177578049D01*
X21896658Y-177578050D01*
X22009696Y-177635646D01*
X22103481Y-177650500D01*
X22570522Y-177650499D01*
X22637561Y-177670183D01*
X22683316Y-177722987D01*
X22693260Y-177792146D01*
X22664235Y-177855702D01*
X22658204Y-177862179D01*
X22532201Y-177988182D01*
X22470881Y-178021666D01*
X22444522Y-178024500D01*
X20975478Y-178024500D01*
X20908439Y-178004815D01*
X20887797Y-177988181D01*
X20744951Y-177845335D01*
X20711466Y-177784012D01*
X20716450Y-177714320D01*
X20758322Y-177658387D01*
X20801394Y-177640185D01*
X20810301Y-177635646D01*
X20810304Y-177635646D01*
X20923342Y-177578050D01*
X21013050Y-177488342D01*
X21070646Y-177375304D01*
X21085500Y-177281519D01*
X21085499Y-176818482D01*
X21070646Y-176724696D01*
X21031718Y-176648295D01*
X21013050Y-176611657D01*
X20923343Y-176521950D01*
X20810302Y-176464353D01*
X20716521Y-176449500D01*
X20103485Y-176449500D01*
X20056588Y-176456927D01*
X20009696Y-176464354D01*
X20009694Y-176464354D01*
X20009693Y-176464355D01*
X19896657Y-176521949D01*
X19806950Y-176611656D01*
X19749353Y-176724697D01*
X19734500Y-176818478D01*
X19734500Y-177281514D01*
X19734501Y-177281518D01*
X19749354Y-177375304D01*
X19749354Y-177375305D01*
X19749355Y-177375306D01*
X19806949Y-177488342D01*
X19896656Y-177578049D01*
X19896658Y-177578050D01*
X20009696Y-177635646D01*
X20029898Y-177638845D01*
X20093030Y-177668772D01*
X20129963Y-177728083D01*
X20134500Y-177761318D01*
X20134500Y-177860656D01*
X20132116Y-177884847D01*
X20129103Y-177900000D01*
X20134500Y-177927132D01*
X20134500Y-177927133D01*
X20150485Y-178007495D01*
X20211376Y-178098624D01*
X20224221Y-178107206D01*
X20243011Y-178122627D01*
X20433203Y-178312819D01*
X20466688Y-178374142D01*
X20461704Y-178443834D01*
X20419832Y-178499767D01*
X20354368Y-178524184D01*
X20345522Y-178524500D01*
X19875478Y-178524500D01*
X19808439Y-178504815D01*
X19787797Y-178488181D01*
X18988185Y-177688569D01*
X18954700Y-177627246D01*
X18959684Y-177557554D01*
X18988186Y-177513206D01*
X18988186Y-177513205D01*
X19013050Y-177488342D01*
X19070646Y-177375304D01*
X19085500Y-177281519D01*
X19085499Y-176818482D01*
X19070646Y-176724696D01*
X19031718Y-176648295D01*
X19013050Y-176611657D01*
X18923343Y-176521950D01*
X18810302Y-176464353D01*
X18716521Y-176449500D01*
X18103485Y-176449500D01*
X18056588Y-176456927D01*
X18009696Y-176464354D01*
X18009694Y-176464354D01*
X18009693Y-176464355D01*
X17896657Y-176521949D01*
X17806950Y-176611656D01*
X17749353Y-176724697D01*
X17734500Y-176818478D01*
X17734500Y-177281514D01*
X17734501Y-177281518D01*
X17749354Y-177375304D01*
X17749354Y-177375305D01*
X17749355Y-177375306D01*
X17806949Y-177488342D01*
X17896656Y-177578049D01*
X17896658Y-177578050D01*
X18009696Y-177635646D01*
X18103481Y-177650500D01*
X18112937Y-177650499D01*
X18179975Y-177670180D01*
X18203733Y-177693517D01*
X18211375Y-177698623D01*
X18211376Y-177698624D01*
X18224221Y-177707206D01*
X18243011Y-177722627D01*
X19469314Y-178948930D01*
X19502799Y-179010253D01*
X19497815Y-179079945D01*
X19469315Y-179124292D01*
X19406949Y-179186657D01*
X19349353Y-179299697D01*
X19334500Y-179393478D01*
X19334500Y-180006514D01*
X19334501Y-180006518D01*
X19349354Y-180100304D01*
X19349354Y-180100305D01*
X19349355Y-180100306D01*
X19406949Y-180213342D01*
X19496657Y-180303050D01*
X19548040Y-180329230D01*
X19591794Y-180351524D01*
X19642590Y-180399498D01*
X19659500Y-180462009D01*
X19659500Y-180537990D01*
X19639815Y-180605029D01*
X19591795Y-180648475D01*
X19496656Y-180696950D01*
X19406950Y-180786656D01*
X19349353Y-180899697D01*
X19334500Y-180993478D01*
X19334500Y-181459521D01*
X19314815Y-181526560D01*
X19298181Y-181547202D01*
X18465510Y-182379872D01*
X18446722Y-182395291D01*
X18433876Y-182403874D01*
X18379769Y-182484851D01*
X18364348Y-182503641D01*
X18363360Y-182504628D01*
X18366059Y-182529724D01*
X18365646Y-182531899D01*
X18351603Y-182602499D01*
X18354617Y-182617651D01*
X18357000Y-182641843D01*
X18357000Y-182656414D01*
X18337315Y-182723453D01*
X18284511Y-182769208D01*
X18283435Y-182769694D01*
X18179767Y-182815849D01*
X18026629Y-182927110D01*
X17899966Y-183067783D01*
X17805320Y-183231715D01*
X17746826Y-183411742D01*
X17732700Y-183546151D01*
X17732000Y-183552808D01*
X17732000Y-184247192D01*
X12000500Y-184247192D01*
X12000500Y-179700000D01*
X16204317Y-179700000D01*
X16224956Y-179856762D01*
X16285463Y-180002840D01*
X16381717Y-180128282D01*
X16481157Y-180204584D01*
X16507159Y-180224536D01*
X16653238Y-180285044D01*
X16789360Y-180302964D01*
X16809999Y-180305682D01*
X16809999Y-180305681D01*
X16810000Y-180305682D01*
X16966762Y-180285044D01*
X17112841Y-180224536D01*
X17238282Y-180128282D01*
X17242279Y-180123073D01*
X17318290Y-180024014D01*
X17374718Y-179982811D01*
X17416666Y-179975500D01*
X17573682Y-179975500D01*
X17640721Y-179995185D01*
X17686476Y-180047989D01*
X17696154Y-180080098D01*
X17699354Y-180100304D01*
X17711568Y-180124275D01*
X17756949Y-180213342D01*
X17846656Y-180303049D01*
X17846658Y-180303050D01*
X17959696Y-180360646D01*
X18053481Y-180375500D01*
X18516518Y-180375499D01*
X18610304Y-180360646D01*
X18723342Y-180303050D01*
X18813050Y-180213342D01*
X18870646Y-180100304D01*
X18885500Y-180006519D01*
X18885499Y-179393482D01*
X18870646Y-179299696D01*
X18833742Y-179227268D01*
X18813050Y-179186657D01*
X18723343Y-179096950D01*
X18610302Y-179039353D01*
X18516521Y-179024500D01*
X18053485Y-179024500D01*
X18006588Y-179031927D01*
X17959696Y-179039354D01*
X17959694Y-179039354D01*
X17959693Y-179039355D01*
X17846657Y-179096949D01*
X17756950Y-179186656D01*
X17699353Y-179299697D01*
X17696154Y-179319898D01*
X17666225Y-179383033D01*
X17606913Y-179419964D01*
X17573681Y-179424500D01*
X17416666Y-179424500D01*
X17349627Y-179404815D01*
X17318290Y-179375986D01*
X17238282Y-179271717D01*
X17112840Y-179175463D01*
X16966762Y-179114956D01*
X16809999Y-179094317D01*
X16653237Y-179114956D01*
X16507159Y-179175463D01*
X16381717Y-179271717D01*
X16285463Y-179397159D01*
X16224956Y-179543237D01*
X16204317Y-179700000D01*
X12000500Y-179700000D01*
X12000500Y-171200000D01*
X13929103Y-171200000D01*
X13934500Y-171227132D01*
X13934500Y-171227133D01*
X13950485Y-171307495D01*
X14011376Y-171398624D01*
X14024221Y-171407206D01*
X14043011Y-171422627D01*
X17698181Y-175077797D01*
X17731666Y-175139120D01*
X17734500Y-175165478D01*
X17734500Y-175631514D01*
X17734501Y-175631518D01*
X17749354Y-175725304D01*
X17749354Y-175725305D01*
X17749355Y-175725306D01*
X17806949Y-175838342D01*
X17896656Y-175928049D01*
X17896658Y-175928050D01*
X18009696Y-175985646D01*
X18103481Y-176000500D01*
X18716518Y-176000499D01*
X18810304Y-175985646D01*
X18923342Y-175928050D01*
X19013050Y-175838342D01*
X19070646Y-175725304D01*
X19085500Y-175631519D01*
X19085499Y-175168482D01*
X19070646Y-175074696D01*
X19042965Y-175020370D01*
X19013050Y-174961657D01*
X18923343Y-174871950D01*
X18810302Y-174814353D01*
X18716521Y-174799500D01*
X18716519Y-174799500D01*
X18250478Y-174799500D01*
X18183439Y-174779815D01*
X18162797Y-174763181D01*
X14521819Y-171122203D01*
X14488334Y-171060880D01*
X14485500Y-171034522D01*
X14485500Y-170364478D01*
X14505185Y-170297439D01*
X14557989Y-170251684D01*
X14627147Y-170241740D01*
X14690703Y-170270765D01*
X14697181Y-170276797D01*
X19698181Y-175277797D01*
X19731666Y-175339120D01*
X19734500Y-175365478D01*
X19734500Y-175631514D01*
X19734501Y-175631518D01*
X19749354Y-175725304D01*
X19749354Y-175725305D01*
X19749355Y-175725306D01*
X19806949Y-175838342D01*
X19896656Y-175928049D01*
X19896658Y-175928050D01*
X20009696Y-175985646D01*
X20103481Y-176000500D01*
X20716518Y-176000499D01*
X20810304Y-175985646D01*
X20923342Y-175928050D01*
X21013050Y-175838342D01*
X21070646Y-175725304D01*
X21085500Y-175631519D01*
X21085499Y-175168482D01*
X21070646Y-175074696D01*
X21049367Y-175032934D01*
X21010063Y-174955794D01*
X20997167Y-174887125D01*
X21023444Y-174822385D01*
X21080550Y-174782128D01*
X21120548Y-174775500D01*
X21344522Y-174775500D01*
X21411561Y-174795185D01*
X21432203Y-174811819D01*
X21698181Y-175077797D01*
X21731666Y-175139120D01*
X21734500Y-175165478D01*
X21734500Y-175631514D01*
X21734501Y-175631518D01*
X21749354Y-175725304D01*
X21749354Y-175725305D01*
X21749355Y-175725306D01*
X21806949Y-175838342D01*
X21896656Y-175928049D01*
X21896658Y-175928050D01*
X22009696Y-175985646D01*
X22103481Y-176000500D01*
X22716518Y-176000499D01*
X22810304Y-175985646D01*
X22923342Y-175928050D01*
X23013050Y-175838342D01*
X23070646Y-175725304D01*
X23085500Y-175631519D01*
X23085499Y-175168482D01*
X23070646Y-175074696D01*
X23042965Y-175020370D01*
X23013050Y-174961657D01*
X22923343Y-174871950D01*
X22810302Y-174814353D01*
X22716521Y-174799500D01*
X22716519Y-174799500D01*
X22250478Y-174799500D01*
X22183439Y-174779815D01*
X22162797Y-174763181D01*
X21732627Y-174333011D01*
X21717205Y-174314219D01*
X21708623Y-174301375D01*
X21695779Y-174292793D01*
X21695778Y-174292792D01*
X21685622Y-174286006D01*
X21659465Y-174268528D01*
X21638480Y-174254506D01*
X21617493Y-174240483D01*
X21525156Y-174222117D01*
X21525153Y-174222117D01*
X21510000Y-174219102D01*
X21494847Y-174222117D01*
X21470656Y-174224500D01*
X20175478Y-174224500D01*
X20108439Y-174204815D01*
X20087797Y-174188181D01*
X15321819Y-169422202D01*
X15288334Y-169360879D01*
X15285500Y-169334521D01*
X15285500Y-167000000D01*
X15604317Y-167000000D01*
X15624956Y-167156762D01*
X15685463Y-167302840D01*
X15781717Y-167428281D01*
X15835986Y-167469923D01*
X15877189Y-167526350D01*
X15884500Y-167568299D01*
X15884500Y-168730372D01*
X15884028Y-168741180D01*
X15880735Y-168778807D01*
X15890512Y-168815296D01*
X15892853Y-168825852D01*
X15899599Y-168864107D01*
X15909829Y-168888803D01*
X15910446Y-168889684D01*
X15932112Y-168920627D01*
X15937915Y-168929736D01*
X15956806Y-168962455D01*
X15985742Y-168986735D01*
X15993718Y-168994044D01*
X17323181Y-170323507D01*
X17356666Y-170384830D01*
X17359500Y-170411188D01*
X17359500Y-170806514D01*
X17361333Y-170818085D01*
X17374354Y-170900304D01*
X17374354Y-170900305D01*
X17374355Y-170900306D01*
X17431949Y-171013342D01*
X17521656Y-171103049D01*
X17521658Y-171103050D01*
X17634696Y-171160646D01*
X17728481Y-171175500D01*
X18191518Y-171175499D01*
X18285304Y-171160646D01*
X18398342Y-171103050D01*
X18488050Y-171013342D01*
X18545646Y-170900304D01*
X18560500Y-170806519D01*
X18560499Y-170193482D01*
X18545646Y-170099696D01*
X18517965Y-170045370D01*
X18488050Y-169986657D01*
X18398343Y-169896950D01*
X18285302Y-169839353D01*
X18191521Y-169824500D01*
X18191519Y-169824500D01*
X17796188Y-169824500D01*
X17729149Y-169804815D01*
X17708507Y-169788181D01*
X17603078Y-169682752D01*
X17569593Y-169621429D01*
X17574577Y-169551737D01*
X17616449Y-169495804D01*
X17681913Y-169471387D01*
X17710157Y-169472598D01*
X17715567Y-169473454D01*
X17728481Y-169475500D01*
X18191518Y-169475499D01*
X18285304Y-169460646D01*
X18398342Y-169403050D01*
X18488050Y-169313342D01*
X18545646Y-169200304D01*
X18560500Y-169106519D01*
X18560500Y-169106514D01*
X19009500Y-169106514D01*
X19011333Y-169118085D01*
X19024354Y-169200304D01*
X19024354Y-169200305D01*
X19024355Y-169200306D01*
X19081949Y-169313342D01*
X19171656Y-169403049D01*
X19171658Y-169403050D01*
X19284696Y-169460646D01*
X19378481Y-169475500D01*
X19841518Y-169475499D01*
X19935304Y-169460646D01*
X20048342Y-169403050D01*
X20138050Y-169313342D01*
X20195646Y-169200304D01*
X20195646Y-169200303D01*
X20199263Y-169193205D01*
X20247238Y-169142409D01*
X20309748Y-169125500D01*
X25780373Y-169125500D01*
X25791180Y-169125971D01*
X25828807Y-169129264D01*
X25865324Y-169119478D01*
X25875830Y-169117149D01*
X25913045Y-169110588D01*
X25913047Y-169110586D01*
X25914112Y-169110399D01*
X25938799Y-169100173D01*
X25939682Y-169099554D01*
X25939684Y-169099554D01*
X25970625Y-169077887D01*
X25979722Y-169072091D01*
X26012455Y-169053194D01*
X26036748Y-169024241D01*
X26044036Y-169016288D01*
X27686290Y-167374034D01*
X27694258Y-167366734D01*
X27723192Y-167342457D01*
X27723192Y-167342456D01*
X27723194Y-167342455D01*
X27742091Y-167309722D01*
X27747887Y-167300625D01*
X27769554Y-167269684D01*
X27769554Y-167269682D01*
X27770173Y-167268799D01*
X27780399Y-167244112D01*
X27780586Y-167243047D01*
X27780588Y-167243045D01*
X27787149Y-167205830D01*
X27789478Y-167195324D01*
X27799264Y-167158807D01*
X27795972Y-167121176D01*
X27795500Y-167110369D01*
X27795500Y-166374500D01*
X27815185Y-166307461D01*
X27867989Y-166261706D01*
X27919500Y-166250500D01*
X28239749Y-166250500D01*
X28268989Y-166244683D01*
X28298231Y-166238867D01*
X28364552Y-166194552D01*
X28408867Y-166128231D01*
X28420500Y-166069748D01*
X28420500Y-164530252D01*
X28417457Y-164514956D01*
X28408867Y-164471769D01*
X28364552Y-164405447D01*
X28298230Y-164361132D01*
X28239749Y-164349500D01*
X28239748Y-164349500D01*
X27922922Y-164349500D01*
X27855883Y-164329815D01*
X27810128Y-164277011D01*
X27800356Y-164220273D01*
X27789485Y-164179703D01*
X27787144Y-164169140D01*
X27784012Y-164151375D01*
X27780588Y-164131955D01*
X27780587Y-164131954D01*
X27780400Y-164130891D01*
X27770171Y-164106198D01*
X27769554Y-164105317D01*
X27769554Y-164105316D01*
X27747892Y-164074379D01*
X27742080Y-164065256D01*
X27723194Y-164032544D01*
X27694255Y-164008262D01*
X27686280Y-164000954D01*
X27411819Y-163726493D01*
X27378334Y-163665170D01*
X27375500Y-163638812D01*
X27375500Y-163216509D01*
X27359719Y-163116875D01*
X27359719Y-163116874D01*
X27298528Y-162996780D01*
X27298527Y-162996778D01*
X27203221Y-162901472D01*
X27118205Y-162858154D01*
X27067409Y-162810179D01*
X27050500Y-162747669D01*
X27050500Y-162549116D01*
X27070185Y-162482077D01*
X27099014Y-162450740D01*
X27128282Y-162428282D01*
X27224536Y-162302841D01*
X27285044Y-162156762D01*
X27305682Y-162000000D01*
X27285044Y-161843238D01*
X27224536Y-161697159D01*
X27128282Y-161571717D01*
X27002840Y-161475463D01*
X26856762Y-161414956D01*
X26700000Y-161394317D01*
X26543237Y-161414956D01*
X26397159Y-161475463D01*
X26271717Y-161571717D01*
X26175463Y-161697159D01*
X26114956Y-161843237D01*
X26094317Y-162000000D01*
X26114956Y-162156762D01*
X26175463Y-162302840D01*
X26271717Y-162428282D01*
X26350985Y-162489106D01*
X26392188Y-162545534D01*
X26399499Y-162587481D01*
X26399500Y-162747668D01*
X26379816Y-162814708D01*
X26331795Y-162858154D01*
X26246778Y-162901472D01*
X26151472Y-162996778D01*
X26090280Y-163116875D01*
X26074499Y-163216509D01*
X26074499Y-163783490D01*
X26090280Y-163883124D01*
X26151472Y-164003221D01*
X26246778Y-164098527D01*
X26246780Y-164098528D01*
X26366874Y-164159719D01*
X26395267Y-164164216D01*
X26466510Y-164175500D01*
X26466512Y-164175500D01*
X26510816Y-164175500D01*
X26577855Y-164195185D01*
X26623610Y-164247989D01*
X26633554Y-164317147D01*
X26604529Y-164380703D01*
X26579707Y-164402602D01*
X26575447Y-164405447D01*
X26531132Y-164471769D01*
X26519500Y-164530251D01*
X26519500Y-166069748D01*
X26531132Y-166128230D01*
X26575447Y-166194552D01*
X26641769Y-166238867D01*
X26700251Y-166250500D01*
X26700252Y-166250500D01*
X27020500Y-166250500D01*
X27087539Y-166270185D01*
X27133294Y-166322989D01*
X27144500Y-166374500D01*
X27144500Y-166943811D01*
X27124815Y-167010850D01*
X27108181Y-167031492D01*
X25701493Y-168438181D01*
X25640170Y-168471666D01*
X25613812Y-168474500D01*
X20309747Y-168474500D01*
X20242708Y-168454815D01*
X20199262Y-168406794D01*
X20195646Y-168399697D01*
X20195646Y-168399696D01*
X20138895Y-168288316D01*
X20138050Y-168286657D01*
X20048343Y-168196950D01*
X19935302Y-168139353D01*
X19841521Y-168124500D01*
X19378485Y-168124500D01*
X19331589Y-168131927D01*
X19284696Y-168139354D01*
X19284694Y-168139354D01*
X19284693Y-168139355D01*
X19171657Y-168196949D01*
X19081950Y-168286656D01*
X19024353Y-168399697D01*
X19009500Y-168493478D01*
X19009500Y-169106514D01*
X18560500Y-169106514D01*
X18560499Y-168493482D01*
X18545646Y-168399696D01*
X18488895Y-168288316D01*
X18488050Y-168286657D01*
X18398343Y-168196950D01*
X18285302Y-168139353D01*
X18191521Y-168124500D01*
X18191519Y-168124500D01*
X17846188Y-168124500D01*
X17779149Y-168104815D01*
X17758507Y-168088181D01*
X17657506Y-167987180D01*
X17624021Y-167925857D01*
X17629005Y-167856165D01*
X17670877Y-167800232D01*
X17736341Y-167775815D01*
X17745160Y-167775499D01*
X18191518Y-167775499D01*
X18285304Y-167760646D01*
X18398342Y-167703050D01*
X18488050Y-167613342D01*
X18545646Y-167500304D01*
X18560500Y-167406519D01*
X18560499Y-166793482D01*
X18545646Y-166699696D01*
X18498667Y-166607494D01*
X18488050Y-166586657D01*
X18398343Y-166496950D01*
X18285302Y-166439353D01*
X18191521Y-166424500D01*
X17728485Y-166424500D01*
X17681589Y-166431927D01*
X17634696Y-166439354D01*
X17634694Y-166439354D01*
X17634693Y-166439355D01*
X17521657Y-166496949D01*
X17431950Y-166586656D01*
X17374353Y-166699697D01*
X17371154Y-166719898D01*
X17341225Y-166783033D01*
X17281913Y-166819964D01*
X17248681Y-166824500D01*
X16870136Y-166824500D01*
X16803097Y-166804815D01*
X16757342Y-166752011D01*
X16755594Y-166747998D01*
X16734536Y-166697159D01*
X16727647Y-166688181D01*
X16638282Y-166571717D01*
X16512840Y-166475463D01*
X16366762Y-166414956D01*
X16210000Y-166394317D01*
X16053237Y-166414956D01*
X15907159Y-166475463D01*
X15781717Y-166571717D01*
X15685463Y-166697159D01*
X15624956Y-166843237D01*
X15604317Y-167000000D01*
X15285500Y-167000000D01*
X15285500Y-166465478D01*
X15305185Y-166398439D01*
X15321819Y-166377797D01*
X16287797Y-165411819D01*
X16349120Y-165378334D01*
X16375478Y-165375500D01*
X19303334Y-165375500D01*
X19370373Y-165395185D01*
X19401710Y-165424014D01*
X19481717Y-165528282D01*
X19607158Y-165624536D01*
X19607159Y-165624536D01*
X19753238Y-165685044D01*
X19910000Y-165705682D01*
X20066762Y-165685044D01*
X20212841Y-165624536D01*
X20338282Y-165528282D01*
X20434536Y-165402841D01*
X20495044Y-165256762D01*
X20515682Y-165100000D01*
X20495044Y-164943238D01*
X20434536Y-164797159D01*
X20415290Y-164772077D01*
X20338282Y-164671717D01*
X20212840Y-164575463D01*
X20066762Y-164514956D01*
X19962723Y-164501259D01*
X19898827Y-164472992D01*
X19860356Y-164414668D01*
X19859525Y-164344803D01*
X19864344Y-164330876D01*
X19895044Y-164256762D01*
X19915682Y-164100000D01*
X19895044Y-163943238D01*
X19834536Y-163797159D01*
X19828443Y-163789218D01*
X19738282Y-163671717D01*
X19612841Y-163575464D01*
X19514177Y-163534596D01*
X19459774Y-163490755D01*
X19437709Y-163424461D01*
X19447068Y-163372585D01*
X19495044Y-163256762D01*
X19515682Y-163100000D01*
X19495044Y-162943238D01*
X19434536Y-162797159D01*
X19421683Y-162780408D01*
X19338282Y-162671717D01*
X19212840Y-162575463D01*
X19066762Y-162514956D01*
X18910000Y-162494317D01*
X18753237Y-162514956D01*
X18607159Y-162575463D01*
X18481717Y-162671717D01*
X18401710Y-162775986D01*
X18345282Y-162817189D01*
X18303334Y-162824500D01*
X15949344Y-162824500D01*
X15925153Y-162822117D01*
X15910000Y-162819102D01*
X15894847Y-162822117D01*
X15894845Y-162822117D01*
X15802505Y-162840485D01*
X15782371Y-162853938D01*
X15758375Y-162869971D01*
X15734378Y-162886006D01*
X15734376Y-162886007D01*
X15722914Y-162893665D01*
X15711375Y-162901376D01*
X15702792Y-162914222D01*
X15687372Y-162933010D01*
X14043010Y-164577372D01*
X14024222Y-164592792D01*
X14011376Y-164601375D01*
X13998165Y-164621145D01*
X13998158Y-164621156D01*
X13996007Y-164624376D01*
X13996006Y-164624378D01*
X13991334Y-164631369D01*
X13991332Y-164631372D01*
X13985779Y-164639684D01*
X13950484Y-164692505D01*
X13934500Y-164772867D01*
X13929103Y-164799999D01*
X13932117Y-164815151D01*
X13934500Y-164839343D01*
X13934500Y-171160656D01*
X13932116Y-171184847D01*
X13929103Y-171200000D01*
X12000500Y-171200000D01*
X12000500Y-153802250D01*
X15004479Y-153802250D01*
X15004499Y-157986263D01*
X15004500Y-157986303D01*
X15004500Y-157987789D01*
X15004573Y-157989285D01*
X15004574Y-157989306D01*
X15005415Y-158006422D01*
X15005489Y-158007925D01*
X15007870Y-158032107D01*
X15008087Y-158033574D01*
X15008092Y-158033610D01*
X15010598Y-158050508D01*
X15010829Y-158052060D01*
X15011122Y-158053537D01*
X15011124Y-158053544D01*
X15017556Y-158085884D01*
X15026472Y-158130707D01*
X15027350Y-158133603D01*
X15027353Y-158133613D01*
X15035557Y-158160657D01*
X15038166Y-158169259D01*
X15039335Y-158172081D01*
X15039336Y-158172084D01*
X15050898Y-158199999D01*
X15056677Y-158213949D01*
X15058117Y-158216643D01*
X15058118Y-158216645D01*
X15074230Y-158246788D01*
X15074235Y-158246796D01*
X15075669Y-158249479D01*
X15113300Y-158305797D01*
X15138856Y-158336936D01*
X15173063Y-158371143D01*
X15175408Y-158373067D01*
X15175413Y-158373072D01*
X15200071Y-158393308D01*
X15204204Y-158396700D01*
X15260520Y-158434329D01*
X15296049Y-158453320D01*
X15340747Y-158471834D01*
X15379296Y-158483527D01*
X15420953Y-158491813D01*
X15456405Y-158498865D01*
X15456410Y-158498865D01*
X15457929Y-158499168D01*
X15477874Y-158502127D01*
X15502065Y-158504510D01*
X15522211Y-158505500D01*
X16100485Y-158505500D01*
X16110000Y-158506123D01*
X16119515Y-158505500D01*
X16596265Y-158505500D01*
X16597789Y-158505500D01*
X16617935Y-158504510D01*
X16642126Y-158502127D01*
X16662071Y-158499168D01*
X16740703Y-158483527D01*
X16779250Y-158471835D01*
X16823949Y-158453321D01*
X16859480Y-158434330D01*
X16915792Y-158396704D01*
X16946933Y-158371146D01*
X16981146Y-158336933D01*
X17006704Y-158305792D01*
X17044330Y-158249480D01*
X17063321Y-158213949D01*
X17063657Y-158213136D01*
X17109866Y-158161233D01*
X17177163Y-158142449D01*
X17243933Y-158163031D01*
X17288975Y-158216444D01*
X17299500Y-158266438D01*
X17299500Y-158869748D01*
X17311132Y-158928230D01*
X17355447Y-158994550D01*
X17355448Y-158994552D01*
X17421769Y-159038867D01*
X17421770Y-159038867D01*
X17433788Y-159046897D01*
X17478593Y-159100509D01*
X17487300Y-159169834D01*
X17457146Y-159232861D01*
X17433789Y-159253100D01*
X17355448Y-159305446D01*
X17311132Y-159371769D01*
X17299500Y-159430251D01*
X17299500Y-160369748D01*
X17311132Y-160428230D01*
X17355447Y-160494552D01*
X17421769Y-160538867D01*
X17480251Y-160550500D01*
X17480252Y-160550500D01*
X19019749Y-160550500D01*
X19048989Y-160544683D01*
X19078231Y-160538867D01*
X19144552Y-160494552D01*
X19188867Y-160428231D01*
X19200500Y-160369748D01*
X19200500Y-160299499D01*
X19220185Y-160232461D01*
X19272989Y-160186706D01*
X19324500Y-160175500D01*
X20844522Y-160175500D01*
X20911561Y-160195185D01*
X20932203Y-160211819D01*
X21498181Y-160777797D01*
X21531666Y-160839120D01*
X21534500Y-160865478D01*
X21534500Y-162713369D01*
X21514815Y-162780408D01*
X21462011Y-162826163D01*
X21429898Y-162835842D01*
X21401875Y-162840280D01*
X21281778Y-162901472D01*
X21186472Y-162996778D01*
X21125280Y-163116875D01*
X21109500Y-163216509D01*
X21109500Y-163783490D01*
X21125280Y-163883124D01*
X21186472Y-164003221D01*
X21281778Y-164098527D01*
X21281780Y-164098528D01*
X21401874Y-164159719D01*
X21430267Y-164164216D01*
X21501510Y-164175500D01*
X21650816Y-164175500D01*
X21717855Y-164195185D01*
X21763610Y-164247989D01*
X21773554Y-164317147D01*
X21744529Y-164380703D01*
X21719707Y-164402602D01*
X21715447Y-164405447D01*
X21671132Y-164471769D01*
X21659500Y-164530251D01*
X21659500Y-166069748D01*
X21671132Y-166128230D01*
X21715447Y-166194552D01*
X21781769Y-166238867D01*
X21840251Y-166250500D01*
X21840252Y-166250500D01*
X22170522Y-166250500D01*
X22237561Y-166270185D01*
X22283316Y-166322989D01*
X22293260Y-166392147D01*
X22264235Y-166455703D01*
X22258203Y-166462181D01*
X22032203Y-166688181D01*
X21970880Y-166721666D01*
X21944522Y-166724500D01*
X20284272Y-166724500D01*
X20217233Y-166704815D01*
X20173787Y-166656795D01*
X20138049Y-166586656D01*
X20048343Y-166496950D01*
X19935302Y-166439353D01*
X19841521Y-166424500D01*
X19378485Y-166424500D01*
X19331589Y-166431927D01*
X19284696Y-166439354D01*
X19284694Y-166439354D01*
X19284693Y-166439355D01*
X19171657Y-166496949D01*
X19081950Y-166586656D01*
X19024353Y-166699697D01*
X19009500Y-166793478D01*
X19009500Y-167406514D01*
X19009501Y-167406518D01*
X19024354Y-167500304D01*
X19024354Y-167500305D01*
X19024355Y-167500306D01*
X19081949Y-167613342D01*
X19171656Y-167703049D01*
X19171658Y-167703050D01*
X19284696Y-167760646D01*
X19378481Y-167775500D01*
X19841518Y-167775499D01*
X19935304Y-167760646D01*
X20048342Y-167703050D01*
X20138050Y-167613342D01*
X20195646Y-167500304D01*
X20210500Y-167406519D01*
X20210500Y-167399500D01*
X20230185Y-167332461D01*
X20282989Y-167286706D01*
X20334500Y-167275500D01*
X22070656Y-167275500D01*
X22094847Y-167277883D01*
X22110000Y-167280897D01*
X22125153Y-167277883D01*
X22125153Y-167277882D01*
X22137132Y-167275500D01*
X22137133Y-167275500D01*
X22217495Y-167259515D01*
X22262785Y-167229253D01*
X22285622Y-167213994D01*
X22285622Y-167213993D01*
X22299012Y-167205047D01*
X22299028Y-167205035D01*
X22308624Y-167198624D01*
X22317210Y-167185774D01*
X22332624Y-167166991D01*
X22776990Y-166722624D01*
X22795775Y-166707208D01*
X22808624Y-166698624D01*
X22824744Y-166674500D01*
X22841471Y-166649465D01*
X22869515Y-166607495D01*
X22885500Y-166527133D01*
X22885500Y-166527132D01*
X22890897Y-166500000D01*
X22887883Y-166484847D01*
X22885500Y-166460656D01*
X22885500Y-166374500D01*
X22905185Y-166307461D01*
X22957989Y-166261706D01*
X23009500Y-166250500D01*
X23379749Y-166250500D01*
X23408989Y-166244683D01*
X23438231Y-166238867D01*
X23504552Y-166194552D01*
X23548867Y-166128231D01*
X23560500Y-166069748D01*
X23560500Y-164530252D01*
X23557457Y-164514956D01*
X23548867Y-164471769D01*
X23504552Y-164405447D01*
X23438230Y-164361132D01*
X23379749Y-164349500D01*
X23379748Y-164349500D01*
X22992563Y-164349500D01*
X22925524Y-164329815D01*
X22879769Y-164277011D01*
X22870946Y-164249691D01*
X22869517Y-164242507D01*
X22817209Y-164164223D01*
X22817208Y-164164223D01*
X22817203Y-164164216D01*
X22814198Y-164159719D01*
X22808624Y-164151376D01*
X22795776Y-164142791D01*
X22776986Y-164127370D01*
X22446819Y-163797203D01*
X22413334Y-163735880D01*
X22410500Y-163709522D01*
X22410500Y-163216509D01*
X22394719Y-163116875D01*
X22394719Y-163116874D01*
X22333528Y-162996780D01*
X22333527Y-162996778D01*
X22238221Y-162901472D01*
X22153205Y-162858154D01*
X22102409Y-162810179D01*
X22085500Y-162747669D01*
X22085500Y-160739343D01*
X22087883Y-160715151D01*
X22090897Y-160700000D01*
X22085500Y-160672867D01*
X22069515Y-160592505D01*
X22033675Y-160538867D01*
X22023994Y-160524378D01*
X22017211Y-160514226D01*
X22017203Y-160514216D01*
X22008623Y-160501375D01*
X21995776Y-160492791D01*
X21976986Y-160477370D01*
X21232627Y-159733011D01*
X21217205Y-159714219D01*
X21208623Y-159701375D01*
X21185623Y-159686007D01*
X21185622Y-159686006D01*
X21140764Y-159656033D01*
X21117495Y-159640485D01*
X21117494Y-159640484D01*
X21025154Y-159622117D01*
X21025153Y-159622117D01*
X21010000Y-159619102D01*
X20994847Y-159622117D01*
X20970656Y-159624500D01*
X19324500Y-159624500D01*
X19257461Y-159604815D01*
X19211706Y-159552011D01*
X19200500Y-159500500D01*
X19200500Y-159430251D01*
X19188867Y-159371769D01*
X19144552Y-159305448D01*
X19144549Y-159305446D01*
X19078231Y-159261133D01*
X19078229Y-159261132D01*
X19066211Y-159253102D01*
X19021406Y-159199490D01*
X19012699Y-159130165D01*
X19042853Y-159067137D01*
X19066211Y-159046898D01*
X19078229Y-159038867D01*
X19078231Y-159038867D01*
X19144552Y-158994552D01*
X19188867Y-158928231D01*
X19200500Y-158869748D01*
X19200500Y-157930252D01*
X19188867Y-157871769D01*
X19144552Y-157805448D01*
X19078231Y-157761133D01*
X19078229Y-157761132D01*
X19066211Y-157753102D01*
X19021406Y-157699490D01*
X19012699Y-157630165D01*
X19042853Y-157567137D01*
X19066211Y-157546898D01*
X19078229Y-157538867D01*
X19078231Y-157538867D01*
X19144552Y-157494552D01*
X19188867Y-157428231D01*
X19192750Y-157408705D01*
X19225134Y-157346798D01*
X19285850Y-157312224D01*
X19355619Y-157315963D01*
X19389849Y-157334521D01*
X19507159Y-157424536D01*
X19507160Y-157424536D01*
X19507161Y-157424537D01*
X19516082Y-157428232D01*
X19653238Y-157485044D01*
X19789361Y-157502964D01*
X19809999Y-157505682D01*
X19809999Y-157505681D01*
X19810000Y-157505682D01*
X19966762Y-157485044D01*
X20112841Y-157424536D01*
X20238282Y-157328282D01*
X20334536Y-157202841D01*
X20395044Y-157056762D01*
X20415682Y-156900000D01*
X20395044Y-156743238D01*
X20334536Y-156597159D01*
X20299893Y-156552011D01*
X20238282Y-156471717D01*
X20112840Y-156375463D01*
X19966762Y-156314956D01*
X19809999Y-156294317D01*
X19653237Y-156314956D01*
X19507159Y-156375463D01*
X19389853Y-156465475D01*
X19324684Y-156490669D01*
X19256239Y-156476630D01*
X19206249Y-156427816D01*
X19192750Y-156391290D01*
X19188867Y-156371769D01*
X19144552Y-156305448D01*
X19127895Y-156294318D01*
X19078231Y-156261133D01*
X19078229Y-156261132D01*
X19066211Y-156253102D01*
X19021406Y-156199490D01*
X19012699Y-156130165D01*
X19042853Y-156067137D01*
X19066211Y-156046898D01*
X19078229Y-156038867D01*
X19078231Y-156038867D01*
X19144552Y-155994552D01*
X19188867Y-155928231D01*
X19200500Y-155869748D01*
X19200500Y-155799499D01*
X19220185Y-155732461D01*
X19272989Y-155686706D01*
X19324500Y-155675500D01*
X20003334Y-155675500D01*
X20070373Y-155695185D01*
X20101710Y-155724014D01*
X20181717Y-155828282D01*
X20275183Y-155900000D01*
X20307159Y-155924536D01*
X20453238Y-155985044D01*
X20610000Y-156005682D01*
X20766762Y-155985044D01*
X20912841Y-155924536D01*
X21038282Y-155828282D01*
X21134536Y-155702841D01*
X21195044Y-155556762D01*
X21215682Y-155400000D01*
X21195044Y-155243238D01*
X21134536Y-155097159D01*
X21134536Y-155097158D01*
X21038282Y-154971717D01*
X20912840Y-154875463D01*
X20766762Y-154814956D01*
X20610000Y-154794317D01*
X20453237Y-154814956D01*
X20307159Y-154875463D01*
X20181717Y-154971717D01*
X20101710Y-155075986D01*
X20045282Y-155117189D01*
X20003334Y-155124500D01*
X19324500Y-155124500D01*
X19257461Y-155104815D01*
X19211706Y-155052011D01*
X19200500Y-155000500D01*
X19200500Y-154930251D01*
X19188867Y-154871769D01*
X19144552Y-154805448D01*
X19127895Y-154794318D01*
X19078231Y-154761133D01*
X19078230Y-154761132D01*
X19066210Y-154753101D01*
X19021406Y-154699488D01*
X19012699Y-154630163D01*
X19042854Y-154567136D01*
X19066212Y-154546896D01*
X19078226Y-154538867D01*
X19078231Y-154538867D01*
X19144552Y-154494552D01*
X19188867Y-154428231D01*
X19200500Y-154369748D01*
X19200500Y-153430252D01*
X19188867Y-153371769D01*
X19144552Y-153305448D01*
X19078231Y-153261133D01*
X19078229Y-153261132D01*
X19066211Y-153253102D01*
X19021406Y-153199490D01*
X19012699Y-153130165D01*
X19042853Y-153067137D01*
X19066211Y-153046898D01*
X19078229Y-153038867D01*
X19078231Y-153038867D01*
X19144552Y-152994552D01*
X19188867Y-152928231D01*
X19200500Y-152869748D01*
X19200500Y-152799499D01*
X19220185Y-152732461D01*
X19272989Y-152686706D01*
X19324500Y-152675500D01*
X20803334Y-152675500D01*
X20870373Y-152695185D01*
X20901710Y-152724014D01*
X20981717Y-152828282D01*
X21103176Y-152921480D01*
X21107159Y-152924536D01*
X21253238Y-152985044D01*
X21410000Y-153005682D01*
X21566762Y-152985044D01*
X21712841Y-152924536D01*
X21838282Y-152828282D01*
X21934536Y-152702841D01*
X21995044Y-152556762D01*
X22015682Y-152400000D01*
X21995044Y-152243238D01*
X21934536Y-152097159D01*
X21838282Y-151971717D01*
X21712840Y-151875463D01*
X21566762Y-151814956D01*
X21410000Y-151794317D01*
X21253237Y-151814956D01*
X21107159Y-151875463D01*
X20981717Y-151971717D01*
X20901710Y-152075986D01*
X20845282Y-152117189D01*
X20803334Y-152124500D01*
X19324500Y-152124500D01*
X19257461Y-152104815D01*
X19211706Y-152052011D01*
X19200500Y-152000500D01*
X19200500Y-151930251D01*
X19188867Y-151871769D01*
X19144552Y-151805448D01*
X19127895Y-151794318D01*
X19078231Y-151761133D01*
X19078229Y-151761132D01*
X19066211Y-151753102D01*
X19021406Y-151699490D01*
X19012699Y-151630165D01*
X19042853Y-151567137D01*
X19066211Y-151546898D01*
X19078229Y-151538867D01*
X19078231Y-151538867D01*
X19144552Y-151494552D01*
X19188867Y-151428231D01*
X19200500Y-151369748D01*
X19200500Y-151299499D01*
X19220185Y-151232461D01*
X19272989Y-151186706D01*
X19324500Y-151175500D01*
X21344522Y-151175500D01*
X21411561Y-151195185D01*
X21432203Y-151211819D01*
X23498180Y-153277796D01*
X23531665Y-153339119D01*
X23534499Y-153365477D01*
X23534499Y-158160657D01*
X23532117Y-158184843D01*
X23529102Y-158199999D01*
X23538084Y-158245163D01*
X23538088Y-158245174D01*
X23550484Y-158307495D01*
X23564375Y-158328283D01*
X23593014Y-158371145D01*
X23611374Y-158398622D01*
X23611375Y-158398622D01*
X23611376Y-158398624D01*
X23624222Y-158407207D01*
X23643011Y-158422627D01*
X26018906Y-160798522D01*
X26047746Y-160843791D01*
X26073758Y-160915258D01*
X26147545Y-161003194D01*
X26246955Y-161060588D01*
X26331525Y-161075500D01*
X28588812Y-161075500D01*
X28655851Y-161095185D01*
X28676493Y-161111819D01*
X30838180Y-163273507D01*
X30871665Y-163334830D01*
X30874499Y-163361188D01*
X30874499Y-163783490D01*
X30890280Y-163883124D01*
X30951472Y-164003221D01*
X31046778Y-164098527D01*
X31046780Y-164098528D01*
X31166874Y-164159719D01*
X31195267Y-164164216D01*
X31266510Y-164175500D01*
X31266512Y-164175500D01*
X31340816Y-164175500D01*
X31407855Y-164195185D01*
X31453610Y-164247989D01*
X31463554Y-164317147D01*
X31434529Y-164380703D01*
X31409707Y-164402602D01*
X31405447Y-164405447D01*
X31361132Y-164471769D01*
X31349500Y-164530251D01*
X31349500Y-166069748D01*
X31361132Y-166128230D01*
X31405447Y-166194552D01*
X31471769Y-166238867D01*
X31530251Y-166250500D01*
X31530252Y-166250500D01*
X31850500Y-166250500D01*
X31917539Y-166270185D01*
X31963294Y-166322989D01*
X31974500Y-166374500D01*
X31974500Y-167313812D01*
X31954815Y-167380851D01*
X31938181Y-167401493D01*
X29201493Y-170138181D01*
X29140170Y-170171666D01*
X29113812Y-170174500D01*
X20309747Y-170174500D01*
X20242708Y-170154815D01*
X20199262Y-170106794D01*
X20195646Y-170099697D01*
X20195646Y-170099696D01*
X20165465Y-170040464D01*
X20138050Y-169986657D01*
X20048343Y-169896950D01*
X19935302Y-169839353D01*
X19841521Y-169824500D01*
X19378485Y-169824500D01*
X19331589Y-169831927D01*
X19284696Y-169839354D01*
X19284694Y-169839354D01*
X19284693Y-169839355D01*
X19171657Y-169896949D01*
X19081950Y-169986656D01*
X19024353Y-170099697D01*
X19009500Y-170193478D01*
X19009500Y-170806514D01*
X19011333Y-170818085D01*
X19024354Y-170900304D01*
X19024354Y-170900305D01*
X19024355Y-170900306D01*
X19081949Y-171013342D01*
X19171656Y-171103049D01*
X19171658Y-171103050D01*
X19284696Y-171160646D01*
X19378481Y-171175500D01*
X19841518Y-171175499D01*
X19935304Y-171160646D01*
X20048342Y-171103050D01*
X20138050Y-171013342D01*
X20195646Y-170900304D01*
X20195646Y-170900303D01*
X20199263Y-170893205D01*
X20247238Y-170842409D01*
X20309748Y-170825500D01*
X29280373Y-170825500D01*
X29291180Y-170825971D01*
X29328807Y-170829264D01*
X29365324Y-170819478D01*
X29375830Y-170817149D01*
X29413045Y-170810588D01*
X29413047Y-170810586D01*
X29414112Y-170810399D01*
X29438799Y-170800173D01*
X29439682Y-170799554D01*
X29439684Y-170799554D01*
X29470625Y-170777887D01*
X29479722Y-170772091D01*
X29512455Y-170753194D01*
X29536748Y-170724241D01*
X29544036Y-170716288D01*
X32516290Y-167744034D01*
X32524258Y-167736734D01*
X32553192Y-167712457D01*
X32553192Y-167712456D01*
X32553194Y-167712455D01*
X32572091Y-167679722D01*
X32577887Y-167670625D01*
X32599554Y-167639684D01*
X32599554Y-167639682D01*
X32600173Y-167638799D01*
X32610399Y-167614112D01*
X32610586Y-167613047D01*
X32610588Y-167613045D01*
X32617149Y-167575830D01*
X32619478Y-167565324D01*
X32629264Y-167528807D01*
X32625969Y-167491153D01*
X32625500Y-167480391D01*
X32625500Y-166374500D01*
X32645185Y-166307460D01*
X32697989Y-166261706D01*
X32749500Y-166250500D01*
X33069749Y-166250500D01*
X33098989Y-166244683D01*
X33128231Y-166238867D01*
X33194552Y-166194552D01*
X33238867Y-166128231D01*
X33250500Y-166069748D01*
X33250500Y-164530252D01*
X33247457Y-164514956D01*
X33238867Y-164471769D01*
X33194552Y-164405447D01*
X33128230Y-164361132D01*
X33069749Y-164349500D01*
X33069748Y-164349500D01*
X32549500Y-164349500D01*
X32482461Y-164329815D01*
X32436706Y-164277011D01*
X32425500Y-164225500D01*
X32425500Y-164094626D01*
X32425972Y-164083818D01*
X32429264Y-164046192D01*
X32419487Y-164009706D01*
X32417145Y-163999143D01*
X32410400Y-163960891D01*
X32400171Y-163936198D01*
X32399554Y-163935317D01*
X32399554Y-163935316D01*
X32377892Y-163904379D01*
X32372080Y-163895256D01*
X32353194Y-163862544D01*
X32324255Y-163838262D01*
X32316280Y-163830954D01*
X32211819Y-163726493D01*
X32178334Y-163665170D01*
X32175500Y-163638812D01*
X32175500Y-163216509D01*
X32159719Y-163116875D01*
X32159719Y-163116874D01*
X32098528Y-162996780D01*
X32098527Y-162996778D01*
X32003221Y-162901472D01*
X31883124Y-162840280D01*
X31783490Y-162824500D01*
X31783488Y-162824500D01*
X31361189Y-162824500D01*
X31294150Y-162804815D01*
X31273508Y-162788181D01*
X29019043Y-160533717D01*
X29011734Y-160525741D01*
X29002072Y-160514226D01*
X28987455Y-160496806D01*
X28987454Y-160496805D01*
X28954736Y-160477915D01*
X28945627Y-160472112D01*
X28914684Y-160450446D01*
X28913803Y-160449829D01*
X28889107Y-160439599D01*
X28850852Y-160432853D01*
X28840296Y-160430512D01*
X28803807Y-160420735D01*
X28766180Y-160424028D01*
X28755372Y-160424500D01*
X26475478Y-160424500D01*
X26408439Y-160404815D01*
X26387797Y-160388181D01*
X24121818Y-158122202D01*
X24088333Y-158060879D01*
X24085499Y-158034521D01*
X24085499Y-155675500D01*
X24085499Y-153239332D01*
X24087880Y-153215166D01*
X24090897Y-153200000D01*
X24069515Y-153092505D01*
X24041448Y-153050500D01*
X24017212Y-153014227D01*
X24017205Y-153014219D01*
X24008623Y-153001375D01*
X23995776Y-152992791D01*
X23976986Y-152977370D01*
X21732627Y-150733011D01*
X21717205Y-150714219D01*
X21708623Y-150701375D01*
X21695779Y-150692793D01*
X21695778Y-150692792D01*
X21685622Y-150686006D01*
X21659465Y-150668528D01*
X21638480Y-150654506D01*
X21617493Y-150640483D01*
X21525156Y-150622117D01*
X21525153Y-150622117D01*
X21510000Y-150619102D01*
X21494847Y-150622117D01*
X21470656Y-150624500D01*
X19324500Y-150624500D01*
X19257461Y-150604815D01*
X19211706Y-150552011D01*
X19200500Y-150500500D01*
X19200500Y-150430251D01*
X19188867Y-150371769D01*
X19144552Y-150305448D01*
X19144551Y-150305447D01*
X19078231Y-150261133D01*
X19078229Y-150261132D01*
X19066211Y-150253102D01*
X19021406Y-150199490D01*
X19012699Y-150130165D01*
X19042853Y-150067137D01*
X19066211Y-150046898D01*
X19078229Y-150038867D01*
X19078231Y-150038867D01*
X19144552Y-149994552D01*
X19188867Y-149928231D01*
X19200500Y-149869748D01*
X19200500Y-149707859D01*
X19202883Y-149683667D01*
X19208870Y-149653568D01*
X19209168Y-149652071D01*
X19212127Y-149632126D01*
X19214510Y-149607935D01*
X19215500Y-149587789D01*
X19215500Y-149212210D01*
X19214510Y-149192064D01*
X19212127Y-149167873D01*
X19209168Y-149147928D01*
X19202883Y-149116331D01*
X19200500Y-149092140D01*
X19200500Y-148930251D01*
X19188867Y-148871769D01*
X19144552Y-148805447D01*
X19078230Y-148761132D01*
X19019749Y-148749500D01*
X19019748Y-148749500D01*
X18955428Y-148749500D01*
X18907977Y-148740061D01*
X18889729Y-148732502D01*
X18882077Y-148729333D01*
X18882069Y-148729330D01*
X18879259Y-148728166D01*
X18876335Y-148727279D01*
X18843613Y-148717353D01*
X18843603Y-148717350D01*
X18840707Y-148716472D01*
X18837737Y-148715881D01*
X18837732Y-148715880D01*
X18763544Y-148701124D01*
X18763537Y-148701122D01*
X18762060Y-148700829D01*
X18760508Y-148700598D01*
X18743610Y-148698092D01*
X18743574Y-148698087D01*
X18742107Y-148697870D01*
X18740596Y-148697721D01*
X18740578Y-148697719D01*
X18719433Y-148695637D01*
X18719413Y-148695635D01*
X18717925Y-148695489D01*
X18716429Y-148695415D01*
X18716422Y-148695415D01*
X18699306Y-148694574D01*
X18699285Y-148694573D01*
X18697789Y-148694500D01*
X15922211Y-148694500D01*
X15920715Y-148694573D01*
X15920693Y-148694574D01*
X15903577Y-148695415D01*
X15903567Y-148695415D01*
X15902075Y-148695489D01*
X15900589Y-148695635D01*
X15900566Y-148695637D01*
X15879430Y-148697718D01*
X15879407Y-148697720D01*
X15877892Y-148697870D01*
X15876378Y-148698094D01*
X15876374Y-148698095D01*
X15859457Y-148700603D01*
X15859427Y-148700608D01*
X15857938Y-148700829D01*
X15856438Y-148701127D01*
X15856417Y-148701131D01*
X15782287Y-148715876D01*
X15782274Y-148715879D01*
X15779289Y-148716473D01*
X15776374Y-148717357D01*
X15776363Y-148717360D01*
X15743658Y-148727281D01*
X15743643Y-148727286D01*
X15740740Y-148728167D01*
X15737946Y-148729324D01*
X15737930Y-148729330D01*
X15698854Y-148745515D01*
X15698833Y-148745524D01*
X15696054Y-148746676D01*
X15693380Y-148748105D01*
X15693372Y-148748109D01*
X15663219Y-148764225D01*
X15663203Y-148764234D01*
X15660523Y-148765667D01*
X15658000Y-148767352D01*
X15657983Y-148767363D01*
X15606733Y-148801608D01*
X15606726Y-148801613D01*
X15604200Y-148803301D01*
X15601852Y-148805228D01*
X15601848Y-148805231D01*
X15575410Y-148826928D01*
X15575394Y-148826941D01*
X15573060Y-148828858D01*
X15570914Y-148831003D01*
X15570904Y-148831013D01*
X15541013Y-148860904D01*
X15541003Y-148860914D01*
X15538858Y-148863060D01*
X15536941Y-148865394D01*
X15536928Y-148865410D01*
X15515231Y-148891848D01*
X15513301Y-148894200D01*
X15511613Y-148896726D01*
X15511608Y-148896733D01*
X15477363Y-148947983D01*
X15477352Y-148948000D01*
X15475667Y-148950523D01*
X15474234Y-148953203D01*
X15474225Y-148953219D01*
X15458109Y-148983372D01*
X15458105Y-148983380D01*
X15456676Y-148986054D01*
X15455524Y-148988833D01*
X15455515Y-148988854D01*
X15439330Y-149027930D01*
X15439324Y-149027946D01*
X15438167Y-149030740D01*
X15437286Y-149033643D01*
X15437281Y-149033658D01*
X15427354Y-149066382D01*
X15427349Y-149066398D01*
X15426473Y-149069289D01*
X15425884Y-149072249D01*
X15425882Y-149072258D01*
X15419499Y-149104351D01*
X15410829Y-149147939D01*
X15410612Y-149149396D01*
X15410610Y-149149413D01*
X15408094Y-149166379D01*
X15407870Y-149167892D01*
X15407724Y-149169375D01*
X15407718Y-149169426D01*
X15405636Y-149190572D01*
X15405633Y-149190604D01*
X15405489Y-149192073D01*
X15405416Y-149193544D01*
X15405415Y-149193568D01*
X15404574Y-149210692D01*
X15404574Y-149210697D01*
X15404500Y-149212210D01*
X15404499Y-149213694D01*
X15404499Y-149213735D01*
X15404499Y-153000235D01*
X15384814Y-153067274D01*
X15383673Y-153069018D01*
X15094458Y-153502842D01*
X15093252Y-153504764D01*
X15086553Y-153515699D01*
X15085411Y-153517677D01*
X15077602Y-153531532D01*
X15076538Y-153533542D01*
X15070655Y-153544948D01*
X15069661Y-153547005D01*
X15045856Y-153597484D01*
X15045842Y-153597515D01*
X15044869Y-153599578D01*
X15044054Y-153601694D01*
X15044045Y-153601716D01*
X15034840Y-153625627D01*
X15034831Y-153625652D01*
X15034023Y-153627752D01*
X15033366Y-153629921D01*
X15033365Y-153629925D01*
X15024156Y-153660342D01*
X15024150Y-153660361D01*
X15023498Y-153662518D01*
X15023004Y-153664721D01*
X15022999Y-153664741D01*
X15017400Y-153689725D01*
X15016898Y-153691966D01*
X15016563Y-153694228D01*
X15016562Y-153694234D01*
X15008053Y-153751709D01*
X15007783Y-153753961D01*
X15006392Y-153766716D01*
X15006204Y-153768990D01*
X15005055Y-153784876D01*
X15004951Y-153787153D01*
X15004500Y-153799965D01*
X15004479Y-153802250D01*
X12000500Y-153802250D01*
X12000500Y-149504426D01*
X12000816Y-149495581D01*
X12005492Y-149430203D01*
X12016720Y-149287538D01*
X12019165Y-149270955D01*
X12038636Y-149181451D01*
X12039181Y-149179066D01*
X12065984Y-149067424D01*
X12070365Y-149053074D01*
X12104251Y-148962224D01*
X12105778Y-148958341D01*
X12147676Y-148857190D01*
X12153387Y-148845255D01*
X12200826Y-148758376D01*
X12203871Y-148753118D01*
X12259989Y-148661542D01*
X12266418Y-148652068D01*
X12326264Y-148572123D01*
X12331168Y-148565992D01*
X12400440Y-148484885D01*
X12407000Y-148477789D01*
X12477789Y-148407000D01*
X12484885Y-148400440D01*
X12565992Y-148331168D01*
X12572123Y-148326264D01*
X12652068Y-148266418D01*
X12661542Y-148259989D01*
X12753118Y-148203871D01*
X12758376Y-148200826D01*
X12845255Y-148153387D01*
X12857190Y-148147676D01*
X12958341Y-148105778D01*
X12962224Y-148104251D01*
X13053083Y-148070362D01*
X13067420Y-148065985D01*
X13179060Y-148039182D01*
X13181454Y-148038635D01*
X13270949Y-148019167D01*
X13287546Y-148016719D01*
X13430203Y-148005492D01*
X13495607Y-148000814D01*
X13504424Y-148000500D01*
X40495574Y-148000500D01*
X40504417Y-148000815D01*
G37*
%TD.AperFunction*%
%TD*%
%TA.AperFunction,Conductor*%
%TO.N,+5VA*%
G36*
X33253039Y-179219685D02*
G01*
X33298794Y-179272489D01*
X33310000Y-179324000D01*
X33310000Y-181148638D01*
X33290315Y-181215677D01*
X33273681Y-181236319D01*
X32510000Y-181999999D01*
X32509999Y-182000000D01*
X32510000Y-186176000D01*
X32490315Y-186243039D01*
X32437511Y-186288794D01*
X32386000Y-186300000D01*
X30548161Y-186300000D01*
X30481122Y-186280315D01*
X30435367Y-186227511D01*
X30425423Y-186158353D01*
X30446576Y-186104891D01*
X31009999Y-185300001D01*
X31009998Y-185300001D01*
X31010000Y-185300000D01*
X31010000Y-179324000D01*
X31029685Y-179256961D01*
X31082489Y-179211206D01*
X31134000Y-179200000D01*
X33186000Y-179200000D01*
X33253039Y-179219685D01*
G37*
%TD.AperFunction*%
%TD*%
M02*
