%TF.GenerationSoftware,KiCad,Pcbnew,7.0.2-6a45011f42~172~ubuntu22.04.1*%
%TF.CreationDate,2023-05-17T08:32:57+02:00*%
%TF.ProjectId,PowerMeterLC,506f7765-724d-4657-9465-724c432e6b69,rev?*%
%TF.SameCoordinates,Original*%
%TF.FileFunction,Drillmap*%
%TF.FilePolarity,Positive*%
%FSLAX45Y45*%
G04 Gerber Fmt 4.5, Leading zero omitted, Abs format (unit mm)*
G04 Created by KiCad (PCBNEW 7.0.2-6a45011f42~172~ubuntu22.04.1) date 2023-05-17 08:32:57*
%MOMM*%
%LPD*%
G01*
G04 APERTURE LIST*
%ADD10C,0.100000*%
%ADD11C,0.200000*%
%ADD12C,0.060000*%
%ADD13C,0.120000*%
G04 APERTURE END LIST*
D10*
X4200000Y-14950000D02*
X4200000Y-19650000D01*
X4200000Y-14950000D02*
G75*
G03*
X4050000Y-14800000I-150000J0D01*
G01*
X1200000Y-19650000D02*
X1200000Y-14950000D01*
X1350000Y-14800000D02*
G75*
G03*
X1200000Y-14950000I0J-150000D01*
G01*
X1200000Y-19650000D02*
G75*
G03*
X1350000Y-19800000I150000J0D01*
G01*
X4050000Y-19800000D02*
G75*
G03*
X4200000Y-19650000I0J150000D01*
G01*
X1350000Y-14800000D02*
X4050000Y-14800000D01*
X4050000Y-19800000D02*
X1350000Y-19800000D01*
D11*
D12*
X2802000Y-19077500D02*
X2862000Y-19137500D01*
X2862000Y-19077500D02*
X2802000Y-19137500D01*
X3380000Y-19077500D02*
X3440000Y-19137500D01*
X3440000Y-19077500D02*
X3380000Y-19137500D01*
D13*
X2143250Y-18410000D02*
G75*
G03*
X2143250Y-18410000I-60000J0D01*
G01*
X2143250Y-19110000D02*
G75*
G03*
X2143250Y-19110000I-60000J0D01*
G01*
D11*
X1442619Y-20117524D02*
X1442619Y-19917524D01*
X1442619Y-19917524D02*
X1490238Y-19917524D01*
X1490238Y-19917524D02*
X1518809Y-19927048D01*
X1518809Y-19927048D02*
X1537857Y-19946095D01*
X1537857Y-19946095D02*
X1547381Y-19965143D01*
X1547381Y-19965143D02*
X1556905Y-20003238D01*
X1556905Y-20003238D02*
X1556905Y-20031810D01*
X1556905Y-20031810D02*
X1547381Y-20069905D01*
X1547381Y-20069905D02*
X1537857Y-20088952D01*
X1537857Y-20088952D02*
X1518809Y-20108000D01*
X1518809Y-20108000D02*
X1490238Y-20117524D01*
X1490238Y-20117524D02*
X1442619Y-20117524D01*
X1642619Y-20117524D02*
X1642619Y-19984190D01*
X1642619Y-20022286D02*
X1652143Y-20003238D01*
X1652143Y-20003238D02*
X1661667Y-19993714D01*
X1661667Y-19993714D02*
X1680714Y-19984190D01*
X1680714Y-19984190D02*
X1699762Y-19984190D01*
X1766428Y-20117524D02*
X1766428Y-19984190D01*
X1766428Y-19917524D02*
X1756905Y-19927048D01*
X1756905Y-19927048D02*
X1766428Y-19936571D01*
X1766428Y-19936571D02*
X1775952Y-19927048D01*
X1775952Y-19927048D02*
X1766428Y-19917524D01*
X1766428Y-19917524D02*
X1766428Y-19936571D01*
X1890238Y-20117524D02*
X1871190Y-20108000D01*
X1871190Y-20108000D02*
X1861667Y-20088952D01*
X1861667Y-20088952D02*
X1861667Y-19917524D01*
X1995000Y-20117524D02*
X1975952Y-20108000D01*
X1975952Y-20108000D02*
X1966428Y-20088952D01*
X1966428Y-20088952D02*
X1966428Y-19917524D01*
X2223571Y-20117524D02*
X2223571Y-19917524D01*
X2223571Y-19917524D02*
X2290238Y-20060381D01*
X2290238Y-20060381D02*
X2356905Y-19917524D01*
X2356905Y-19917524D02*
X2356905Y-20117524D01*
X2537857Y-20117524D02*
X2537857Y-20012762D01*
X2537857Y-20012762D02*
X2528333Y-19993714D01*
X2528333Y-19993714D02*
X2509286Y-19984190D01*
X2509286Y-19984190D02*
X2471190Y-19984190D01*
X2471190Y-19984190D02*
X2452143Y-19993714D01*
X2537857Y-20108000D02*
X2518810Y-20117524D01*
X2518810Y-20117524D02*
X2471190Y-20117524D01*
X2471190Y-20117524D02*
X2452143Y-20108000D01*
X2452143Y-20108000D02*
X2442619Y-20088952D01*
X2442619Y-20088952D02*
X2442619Y-20069905D01*
X2442619Y-20069905D02*
X2452143Y-20050857D01*
X2452143Y-20050857D02*
X2471190Y-20041333D01*
X2471190Y-20041333D02*
X2518810Y-20041333D01*
X2518810Y-20041333D02*
X2537857Y-20031810D01*
X2633095Y-19984190D02*
X2633095Y-20184190D01*
X2633095Y-19993714D02*
X2652143Y-19984190D01*
X2652143Y-19984190D02*
X2690238Y-19984190D01*
X2690238Y-19984190D02*
X2709286Y-19993714D01*
X2709286Y-19993714D02*
X2718810Y-20003238D01*
X2718810Y-20003238D02*
X2728333Y-20022286D01*
X2728333Y-20022286D02*
X2728333Y-20079429D01*
X2728333Y-20079429D02*
X2718810Y-20098476D01*
X2718810Y-20098476D02*
X2709286Y-20108000D01*
X2709286Y-20108000D02*
X2690238Y-20117524D01*
X2690238Y-20117524D02*
X2652143Y-20117524D01*
X2652143Y-20117524D02*
X2633095Y-20108000D01*
X2814048Y-20098476D02*
X2823571Y-20108000D01*
X2823571Y-20108000D02*
X2814048Y-20117524D01*
X2814048Y-20117524D02*
X2804524Y-20108000D01*
X2804524Y-20108000D02*
X2814048Y-20098476D01*
X2814048Y-20098476D02*
X2814048Y-20117524D01*
X2814048Y-19993714D02*
X2823571Y-20003238D01*
X2823571Y-20003238D02*
X2814048Y-20012762D01*
X2814048Y-20012762D02*
X2804524Y-20003238D01*
X2804524Y-20003238D02*
X2814048Y-19993714D01*
X2814048Y-19993714D02*
X2814048Y-20012762D01*
D12*
X1135000Y-20415000D02*
X1195000Y-20475000D01*
X1195000Y-20415000D02*
X1135000Y-20475000D01*
D11*
X1480714Y-20337524D02*
X1499762Y-20337524D01*
X1499762Y-20337524D02*
X1518809Y-20347048D01*
X1518809Y-20347048D02*
X1528333Y-20356571D01*
X1528333Y-20356571D02*
X1537857Y-20375619D01*
X1537857Y-20375619D02*
X1547381Y-20413714D01*
X1547381Y-20413714D02*
X1547381Y-20461333D01*
X1547381Y-20461333D02*
X1537857Y-20499429D01*
X1537857Y-20499429D02*
X1528333Y-20518476D01*
X1528333Y-20518476D02*
X1518809Y-20528000D01*
X1518809Y-20528000D02*
X1499762Y-20537524D01*
X1499762Y-20537524D02*
X1480714Y-20537524D01*
X1480714Y-20537524D02*
X1461667Y-20528000D01*
X1461667Y-20528000D02*
X1452143Y-20518476D01*
X1452143Y-20518476D02*
X1442619Y-20499429D01*
X1442619Y-20499429D02*
X1433095Y-20461333D01*
X1433095Y-20461333D02*
X1433095Y-20413714D01*
X1433095Y-20413714D02*
X1442619Y-20375619D01*
X1442619Y-20375619D02*
X1452143Y-20356571D01*
X1452143Y-20356571D02*
X1461667Y-20347048D01*
X1461667Y-20347048D02*
X1480714Y-20337524D01*
X1633095Y-20518476D02*
X1642619Y-20528000D01*
X1642619Y-20528000D02*
X1633095Y-20537524D01*
X1633095Y-20537524D02*
X1623571Y-20528000D01*
X1623571Y-20528000D02*
X1633095Y-20518476D01*
X1633095Y-20518476D02*
X1633095Y-20537524D01*
X1814048Y-20337524D02*
X1775952Y-20337524D01*
X1775952Y-20337524D02*
X1756905Y-20347048D01*
X1756905Y-20347048D02*
X1747381Y-20356571D01*
X1747381Y-20356571D02*
X1728333Y-20385143D01*
X1728333Y-20385143D02*
X1718809Y-20423238D01*
X1718809Y-20423238D02*
X1718809Y-20499429D01*
X1718809Y-20499429D02*
X1728333Y-20518476D01*
X1728333Y-20518476D02*
X1737857Y-20528000D01*
X1737857Y-20528000D02*
X1756905Y-20537524D01*
X1756905Y-20537524D02*
X1795000Y-20537524D01*
X1795000Y-20537524D02*
X1814048Y-20528000D01*
X1814048Y-20528000D02*
X1823571Y-20518476D01*
X1823571Y-20518476D02*
X1833095Y-20499429D01*
X1833095Y-20499429D02*
X1833095Y-20451810D01*
X1833095Y-20451810D02*
X1823571Y-20432762D01*
X1823571Y-20432762D02*
X1814048Y-20423238D01*
X1814048Y-20423238D02*
X1795000Y-20413714D01*
X1795000Y-20413714D02*
X1756905Y-20413714D01*
X1756905Y-20413714D02*
X1737857Y-20423238D01*
X1737857Y-20423238D02*
X1728333Y-20432762D01*
X1728333Y-20432762D02*
X1718809Y-20451810D01*
X1956905Y-20337524D02*
X1975952Y-20337524D01*
X1975952Y-20337524D02*
X1995000Y-20347048D01*
X1995000Y-20347048D02*
X2004524Y-20356571D01*
X2004524Y-20356571D02*
X2014048Y-20375619D01*
X2014048Y-20375619D02*
X2023571Y-20413714D01*
X2023571Y-20413714D02*
X2023571Y-20461333D01*
X2023571Y-20461333D02*
X2014048Y-20499429D01*
X2014048Y-20499429D02*
X2004524Y-20518476D01*
X2004524Y-20518476D02*
X1995000Y-20528000D01*
X1995000Y-20528000D02*
X1975952Y-20537524D01*
X1975952Y-20537524D02*
X1956905Y-20537524D01*
X1956905Y-20537524D02*
X1937857Y-20528000D01*
X1937857Y-20528000D02*
X1928333Y-20518476D01*
X1928333Y-20518476D02*
X1918809Y-20499429D01*
X1918809Y-20499429D02*
X1909286Y-20461333D01*
X1909286Y-20461333D02*
X1909286Y-20413714D01*
X1909286Y-20413714D02*
X1918809Y-20375619D01*
X1918809Y-20375619D02*
X1928333Y-20356571D01*
X1928333Y-20356571D02*
X1937857Y-20347048D01*
X1937857Y-20347048D02*
X1956905Y-20337524D01*
X2147381Y-20337524D02*
X2166429Y-20337524D01*
X2166429Y-20337524D02*
X2185476Y-20347048D01*
X2185476Y-20347048D02*
X2195000Y-20356571D01*
X2195000Y-20356571D02*
X2204524Y-20375619D01*
X2204524Y-20375619D02*
X2214048Y-20413714D01*
X2214048Y-20413714D02*
X2214048Y-20461333D01*
X2214048Y-20461333D02*
X2204524Y-20499429D01*
X2204524Y-20499429D02*
X2195000Y-20518476D01*
X2195000Y-20518476D02*
X2185476Y-20528000D01*
X2185476Y-20528000D02*
X2166429Y-20537524D01*
X2166429Y-20537524D02*
X2147381Y-20537524D01*
X2147381Y-20537524D02*
X2128333Y-20528000D01*
X2128333Y-20528000D02*
X2118810Y-20518476D01*
X2118810Y-20518476D02*
X2109286Y-20499429D01*
X2109286Y-20499429D02*
X2099762Y-20461333D01*
X2099762Y-20461333D02*
X2099762Y-20413714D01*
X2099762Y-20413714D02*
X2109286Y-20375619D01*
X2109286Y-20375619D02*
X2118810Y-20356571D01*
X2118810Y-20356571D02*
X2128333Y-20347048D01*
X2128333Y-20347048D02*
X2147381Y-20337524D01*
X2299762Y-20537524D02*
X2299762Y-20404190D01*
X2299762Y-20423238D02*
X2309286Y-20413714D01*
X2309286Y-20413714D02*
X2328333Y-20404190D01*
X2328333Y-20404190D02*
X2356905Y-20404190D01*
X2356905Y-20404190D02*
X2375952Y-20413714D01*
X2375952Y-20413714D02*
X2385476Y-20432762D01*
X2385476Y-20432762D02*
X2385476Y-20537524D01*
X2385476Y-20432762D02*
X2395000Y-20413714D01*
X2395000Y-20413714D02*
X2414048Y-20404190D01*
X2414048Y-20404190D02*
X2442619Y-20404190D01*
X2442619Y-20404190D02*
X2461667Y-20413714D01*
X2461667Y-20413714D02*
X2471191Y-20432762D01*
X2471191Y-20432762D02*
X2471191Y-20537524D01*
X2566429Y-20537524D02*
X2566429Y-20404190D01*
X2566429Y-20423238D02*
X2575952Y-20413714D01*
X2575952Y-20413714D02*
X2595000Y-20404190D01*
X2595000Y-20404190D02*
X2623572Y-20404190D01*
X2623572Y-20404190D02*
X2642619Y-20413714D01*
X2642619Y-20413714D02*
X2652143Y-20432762D01*
X2652143Y-20432762D02*
X2652143Y-20537524D01*
X2652143Y-20432762D02*
X2661667Y-20413714D01*
X2661667Y-20413714D02*
X2680714Y-20404190D01*
X2680714Y-20404190D02*
X2709286Y-20404190D01*
X2709286Y-20404190D02*
X2728333Y-20413714D01*
X2728333Y-20413714D02*
X2737857Y-20432762D01*
X2737857Y-20432762D02*
X2737857Y-20537524D01*
X3128333Y-20328000D02*
X2956905Y-20585143D01*
X3385476Y-20337524D02*
X3404524Y-20337524D01*
X3404524Y-20337524D02*
X3423572Y-20347048D01*
X3423572Y-20347048D02*
X3433095Y-20356571D01*
X3433095Y-20356571D02*
X3442619Y-20375619D01*
X3442619Y-20375619D02*
X3452143Y-20413714D01*
X3452143Y-20413714D02*
X3452143Y-20461333D01*
X3452143Y-20461333D02*
X3442619Y-20499429D01*
X3442619Y-20499429D02*
X3433095Y-20518476D01*
X3433095Y-20518476D02*
X3423572Y-20528000D01*
X3423572Y-20528000D02*
X3404524Y-20537524D01*
X3404524Y-20537524D02*
X3385476Y-20537524D01*
X3385476Y-20537524D02*
X3366429Y-20528000D01*
X3366429Y-20528000D02*
X3356905Y-20518476D01*
X3356905Y-20518476D02*
X3347381Y-20499429D01*
X3347381Y-20499429D02*
X3337857Y-20461333D01*
X3337857Y-20461333D02*
X3337857Y-20413714D01*
X3337857Y-20413714D02*
X3347381Y-20375619D01*
X3347381Y-20375619D02*
X3356905Y-20356571D01*
X3356905Y-20356571D02*
X3366429Y-20347048D01*
X3366429Y-20347048D02*
X3385476Y-20337524D01*
X3537857Y-20518476D02*
X3547381Y-20528000D01*
X3547381Y-20528000D02*
X3537857Y-20537524D01*
X3537857Y-20537524D02*
X3528333Y-20528000D01*
X3528333Y-20528000D02*
X3537857Y-20518476D01*
X3537857Y-20518476D02*
X3537857Y-20537524D01*
X3671191Y-20337524D02*
X3690238Y-20337524D01*
X3690238Y-20337524D02*
X3709286Y-20347048D01*
X3709286Y-20347048D02*
X3718810Y-20356571D01*
X3718810Y-20356571D02*
X3728333Y-20375619D01*
X3728333Y-20375619D02*
X3737857Y-20413714D01*
X3737857Y-20413714D02*
X3737857Y-20461333D01*
X3737857Y-20461333D02*
X3728333Y-20499429D01*
X3728333Y-20499429D02*
X3718810Y-20518476D01*
X3718810Y-20518476D02*
X3709286Y-20528000D01*
X3709286Y-20528000D02*
X3690238Y-20537524D01*
X3690238Y-20537524D02*
X3671191Y-20537524D01*
X3671191Y-20537524D02*
X3652143Y-20528000D01*
X3652143Y-20528000D02*
X3642619Y-20518476D01*
X3642619Y-20518476D02*
X3633095Y-20499429D01*
X3633095Y-20499429D02*
X3623572Y-20461333D01*
X3623572Y-20461333D02*
X3623572Y-20413714D01*
X3623572Y-20413714D02*
X3633095Y-20375619D01*
X3633095Y-20375619D02*
X3642619Y-20356571D01*
X3642619Y-20356571D02*
X3652143Y-20347048D01*
X3652143Y-20347048D02*
X3671191Y-20337524D01*
X3814048Y-20356571D02*
X3823572Y-20347048D01*
X3823572Y-20347048D02*
X3842619Y-20337524D01*
X3842619Y-20337524D02*
X3890238Y-20337524D01*
X3890238Y-20337524D02*
X3909286Y-20347048D01*
X3909286Y-20347048D02*
X3918810Y-20356571D01*
X3918810Y-20356571D02*
X3928333Y-20375619D01*
X3928333Y-20375619D02*
X3928333Y-20394667D01*
X3928333Y-20394667D02*
X3918810Y-20423238D01*
X3918810Y-20423238D02*
X3804524Y-20537524D01*
X3804524Y-20537524D02*
X3928333Y-20537524D01*
X3995000Y-20337524D02*
X4118810Y-20337524D01*
X4118810Y-20337524D02*
X4052143Y-20413714D01*
X4052143Y-20413714D02*
X4080714Y-20413714D01*
X4080714Y-20413714D02*
X4099762Y-20423238D01*
X4099762Y-20423238D02*
X4109286Y-20432762D01*
X4109286Y-20432762D02*
X4118810Y-20451810D01*
X4118810Y-20451810D02*
X4118810Y-20499429D01*
X4118810Y-20499429D02*
X4109286Y-20518476D01*
X4109286Y-20518476D02*
X4099762Y-20528000D01*
X4099762Y-20528000D02*
X4080714Y-20537524D01*
X4080714Y-20537524D02*
X4023572Y-20537524D01*
X4023572Y-20537524D02*
X4004524Y-20528000D01*
X4004524Y-20528000D02*
X3995000Y-20518476D01*
X4290238Y-20337524D02*
X4252143Y-20337524D01*
X4252143Y-20337524D02*
X4233095Y-20347048D01*
X4233095Y-20347048D02*
X4223572Y-20356571D01*
X4223572Y-20356571D02*
X4204524Y-20385143D01*
X4204524Y-20385143D02*
X4195000Y-20423238D01*
X4195000Y-20423238D02*
X4195000Y-20499429D01*
X4195000Y-20499429D02*
X4204524Y-20518476D01*
X4204524Y-20518476D02*
X4214048Y-20528000D01*
X4214048Y-20528000D02*
X4233095Y-20537524D01*
X4233095Y-20537524D02*
X4271191Y-20537524D01*
X4271191Y-20537524D02*
X4290238Y-20528000D01*
X4290238Y-20528000D02*
X4299762Y-20518476D01*
X4299762Y-20518476D02*
X4309286Y-20499429D01*
X4309286Y-20499429D02*
X4309286Y-20451810D01*
X4309286Y-20451810D02*
X4299762Y-20432762D01*
X4299762Y-20432762D02*
X4290238Y-20423238D01*
X4290238Y-20423238D02*
X4271191Y-20413714D01*
X4271191Y-20413714D02*
X4233095Y-20413714D01*
X4233095Y-20413714D02*
X4214048Y-20423238D01*
X4214048Y-20423238D02*
X4204524Y-20432762D01*
X4204524Y-20432762D02*
X4195000Y-20451810D01*
X4385476Y-20337524D02*
X4385476Y-20375619D01*
X4461667Y-20337524D02*
X4461667Y-20375619D01*
X4756905Y-20613714D02*
X4747381Y-20604190D01*
X4747381Y-20604190D02*
X4728334Y-20575619D01*
X4728334Y-20575619D02*
X4718810Y-20556571D01*
X4718810Y-20556571D02*
X4709286Y-20528000D01*
X4709286Y-20528000D02*
X4699762Y-20480381D01*
X4699762Y-20480381D02*
X4699762Y-20442286D01*
X4699762Y-20442286D02*
X4709286Y-20394667D01*
X4709286Y-20394667D02*
X4718810Y-20366095D01*
X4718810Y-20366095D02*
X4728334Y-20347048D01*
X4728334Y-20347048D02*
X4747381Y-20318476D01*
X4747381Y-20318476D02*
X4756905Y-20308952D01*
X4823572Y-20356571D02*
X4833096Y-20347048D01*
X4833096Y-20347048D02*
X4852143Y-20337524D01*
X4852143Y-20337524D02*
X4899762Y-20337524D01*
X4899762Y-20337524D02*
X4918810Y-20347048D01*
X4918810Y-20347048D02*
X4928334Y-20356571D01*
X4928334Y-20356571D02*
X4937857Y-20375619D01*
X4937857Y-20375619D02*
X4937857Y-20394667D01*
X4937857Y-20394667D02*
X4928334Y-20423238D01*
X4928334Y-20423238D02*
X4814048Y-20537524D01*
X4814048Y-20537524D02*
X4937857Y-20537524D01*
X5175953Y-20537524D02*
X5175953Y-20337524D01*
X5261667Y-20537524D02*
X5261667Y-20432762D01*
X5261667Y-20432762D02*
X5252143Y-20413714D01*
X5252143Y-20413714D02*
X5233096Y-20404190D01*
X5233096Y-20404190D02*
X5204524Y-20404190D01*
X5204524Y-20404190D02*
X5185477Y-20413714D01*
X5185477Y-20413714D02*
X5175953Y-20423238D01*
X5385477Y-20537524D02*
X5366429Y-20528000D01*
X5366429Y-20528000D02*
X5356905Y-20518476D01*
X5356905Y-20518476D02*
X5347381Y-20499429D01*
X5347381Y-20499429D02*
X5347381Y-20442286D01*
X5347381Y-20442286D02*
X5356905Y-20423238D01*
X5356905Y-20423238D02*
X5366429Y-20413714D01*
X5366429Y-20413714D02*
X5385477Y-20404190D01*
X5385477Y-20404190D02*
X5414048Y-20404190D01*
X5414048Y-20404190D02*
X5433096Y-20413714D01*
X5433096Y-20413714D02*
X5442619Y-20423238D01*
X5442619Y-20423238D02*
X5452143Y-20442286D01*
X5452143Y-20442286D02*
X5452143Y-20499429D01*
X5452143Y-20499429D02*
X5442619Y-20518476D01*
X5442619Y-20518476D02*
X5433096Y-20528000D01*
X5433096Y-20528000D02*
X5414048Y-20537524D01*
X5414048Y-20537524D02*
X5385477Y-20537524D01*
X5566429Y-20537524D02*
X5547381Y-20528000D01*
X5547381Y-20528000D02*
X5537858Y-20508952D01*
X5537858Y-20508952D02*
X5537858Y-20337524D01*
X5718810Y-20528000D02*
X5699762Y-20537524D01*
X5699762Y-20537524D02*
X5661667Y-20537524D01*
X5661667Y-20537524D02*
X5642619Y-20528000D01*
X5642619Y-20528000D02*
X5633096Y-20508952D01*
X5633096Y-20508952D02*
X5633096Y-20432762D01*
X5633096Y-20432762D02*
X5642619Y-20413714D01*
X5642619Y-20413714D02*
X5661667Y-20404190D01*
X5661667Y-20404190D02*
X5699762Y-20404190D01*
X5699762Y-20404190D02*
X5718810Y-20413714D01*
X5718810Y-20413714D02*
X5728334Y-20432762D01*
X5728334Y-20432762D02*
X5728334Y-20451810D01*
X5728334Y-20451810D02*
X5633096Y-20470857D01*
X5804524Y-20528000D02*
X5823572Y-20537524D01*
X5823572Y-20537524D02*
X5861667Y-20537524D01*
X5861667Y-20537524D02*
X5880715Y-20528000D01*
X5880715Y-20528000D02*
X5890238Y-20508952D01*
X5890238Y-20508952D02*
X5890238Y-20499429D01*
X5890238Y-20499429D02*
X5880715Y-20480381D01*
X5880715Y-20480381D02*
X5861667Y-20470857D01*
X5861667Y-20470857D02*
X5833096Y-20470857D01*
X5833096Y-20470857D02*
X5814048Y-20461333D01*
X5814048Y-20461333D02*
X5804524Y-20442286D01*
X5804524Y-20442286D02*
X5804524Y-20432762D01*
X5804524Y-20432762D02*
X5814048Y-20413714D01*
X5814048Y-20413714D02*
X5833096Y-20404190D01*
X5833096Y-20404190D02*
X5861667Y-20404190D01*
X5861667Y-20404190D02*
X5880715Y-20413714D01*
X5956905Y-20613714D02*
X5966429Y-20604190D01*
X5966429Y-20604190D02*
X5985477Y-20575619D01*
X5985477Y-20575619D02*
X5995000Y-20556571D01*
X5995000Y-20556571D02*
X6004524Y-20528000D01*
X6004524Y-20528000D02*
X6014048Y-20480381D01*
X6014048Y-20480381D02*
X6014048Y-20442286D01*
X6014048Y-20442286D02*
X6004524Y-20394667D01*
X6004524Y-20394667D02*
X5995000Y-20366095D01*
X5995000Y-20366095D02*
X5985477Y-20347048D01*
X5985477Y-20347048D02*
X5966429Y-20318476D01*
X5966429Y-20318476D02*
X5956905Y-20308952D01*
X6318810Y-20613714D02*
X6309286Y-20604190D01*
X6309286Y-20604190D02*
X6290238Y-20575619D01*
X6290238Y-20575619D02*
X6280715Y-20556571D01*
X6280715Y-20556571D02*
X6271191Y-20528000D01*
X6271191Y-20528000D02*
X6261667Y-20480381D01*
X6261667Y-20480381D02*
X6261667Y-20442286D01*
X6261667Y-20442286D02*
X6271191Y-20394667D01*
X6271191Y-20394667D02*
X6280715Y-20366095D01*
X6280715Y-20366095D02*
X6290238Y-20347048D01*
X6290238Y-20347048D02*
X6309286Y-20318476D01*
X6309286Y-20318476D02*
X6318810Y-20308952D01*
X6395000Y-20404190D02*
X6395000Y-20537524D01*
X6395000Y-20423238D02*
X6404524Y-20413714D01*
X6404524Y-20413714D02*
X6423572Y-20404190D01*
X6423572Y-20404190D02*
X6452143Y-20404190D01*
X6452143Y-20404190D02*
X6471191Y-20413714D01*
X6471191Y-20413714D02*
X6480715Y-20432762D01*
X6480715Y-20432762D02*
X6480715Y-20537524D01*
X6604524Y-20537524D02*
X6585477Y-20528000D01*
X6585477Y-20528000D02*
X6575953Y-20518476D01*
X6575953Y-20518476D02*
X6566429Y-20499429D01*
X6566429Y-20499429D02*
X6566429Y-20442286D01*
X6566429Y-20442286D02*
X6575953Y-20423238D01*
X6575953Y-20423238D02*
X6585477Y-20413714D01*
X6585477Y-20413714D02*
X6604524Y-20404190D01*
X6604524Y-20404190D02*
X6633096Y-20404190D01*
X6633096Y-20404190D02*
X6652143Y-20413714D01*
X6652143Y-20413714D02*
X6661667Y-20423238D01*
X6661667Y-20423238D02*
X6671191Y-20442286D01*
X6671191Y-20442286D02*
X6671191Y-20499429D01*
X6671191Y-20499429D02*
X6661667Y-20518476D01*
X6661667Y-20518476D02*
X6652143Y-20528000D01*
X6652143Y-20528000D02*
X6633096Y-20537524D01*
X6633096Y-20537524D02*
X6604524Y-20537524D01*
X6728334Y-20404190D02*
X6804524Y-20404190D01*
X6756905Y-20337524D02*
X6756905Y-20508952D01*
X6756905Y-20508952D02*
X6766429Y-20528000D01*
X6766429Y-20528000D02*
X6785477Y-20537524D01*
X6785477Y-20537524D02*
X6804524Y-20537524D01*
X7023572Y-20404190D02*
X7023572Y-20604190D01*
X7023572Y-20413714D02*
X7042619Y-20404190D01*
X7042619Y-20404190D02*
X7080715Y-20404190D01*
X7080715Y-20404190D02*
X7099762Y-20413714D01*
X7099762Y-20413714D02*
X7109286Y-20423238D01*
X7109286Y-20423238D02*
X7118810Y-20442286D01*
X7118810Y-20442286D02*
X7118810Y-20499429D01*
X7118810Y-20499429D02*
X7109286Y-20518476D01*
X7109286Y-20518476D02*
X7099762Y-20528000D01*
X7099762Y-20528000D02*
X7080715Y-20537524D01*
X7080715Y-20537524D02*
X7042619Y-20537524D01*
X7042619Y-20537524D02*
X7023572Y-20528000D01*
X7233096Y-20537524D02*
X7214048Y-20528000D01*
X7214048Y-20528000D02*
X7204524Y-20508952D01*
X7204524Y-20508952D02*
X7204524Y-20337524D01*
X7395000Y-20537524D02*
X7395000Y-20432762D01*
X7395000Y-20432762D02*
X7385477Y-20413714D01*
X7385477Y-20413714D02*
X7366429Y-20404190D01*
X7366429Y-20404190D02*
X7328334Y-20404190D01*
X7328334Y-20404190D02*
X7309286Y-20413714D01*
X7395000Y-20528000D02*
X7375953Y-20537524D01*
X7375953Y-20537524D02*
X7328334Y-20537524D01*
X7328334Y-20537524D02*
X7309286Y-20528000D01*
X7309286Y-20528000D02*
X7299762Y-20508952D01*
X7299762Y-20508952D02*
X7299762Y-20489905D01*
X7299762Y-20489905D02*
X7309286Y-20470857D01*
X7309286Y-20470857D02*
X7328334Y-20461333D01*
X7328334Y-20461333D02*
X7375953Y-20461333D01*
X7375953Y-20461333D02*
X7395000Y-20451810D01*
X7461667Y-20404190D02*
X7537858Y-20404190D01*
X7490239Y-20337524D02*
X7490239Y-20508952D01*
X7490239Y-20508952D02*
X7499762Y-20528000D01*
X7499762Y-20528000D02*
X7518810Y-20537524D01*
X7518810Y-20537524D02*
X7537858Y-20537524D01*
X7680715Y-20528000D02*
X7661667Y-20537524D01*
X7661667Y-20537524D02*
X7623572Y-20537524D01*
X7623572Y-20537524D02*
X7604524Y-20528000D01*
X7604524Y-20528000D02*
X7595000Y-20508952D01*
X7595000Y-20508952D02*
X7595000Y-20432762D01*
X7595000Y-20432762D02*
X7604524Y-20413714D01*
X7604524Y-20413714D02*
X7623572Y-20404190D01*
X7623572Y-20404190D02*
X7661667Y-20404190D01*
X7661667Y-20404190D02*
X7680715Y-20413714D01*
X7680715Y-20413714D02*
X7690239Y-20432762D01*
X7690239Y-20432762D02*
X7690239Y-20451810D01*
X7690239Y-20451810D02*
X7595000Y-20470857D01*
X7861667Y-20537524D02*
X7861667Y-20337524D01*
X7861667Y-20528000D02*
X7842620Y-20537524D01*
X7842620Y-20537524D02*
X7804524Y-20537524D01*
X7804524Y-20537524D02*
X7785477Y-20528000D01*
X7785477Y-20528000D02*
X7775953Y-20518476D01*
X7775953Y-20518476D02*
X7766429Y-20499429D01*
X7766429Y-20499429D02*
X7766429Y-20442286D01*
X7766429Y-20442286D02*
X7775953Y-20423238D01*
X7775953Y-20423238D02*
X7785477Y-20413714D01*
X7785477Y-20413714D02*
X7804524Y-20404190D01*
X7804524Y-20404190D02*
X7842620Y-20404190D01*
X7842620Y-20404190D02*
X7861667Y-20413714D01*
X7937858Y-20613714D02*
X7947381Y-20604190D01*
X7947381Y-20604190D02*
X7966429Y-20575619D01*
X7966429Y-20575619D02*
X7975953Y-20556571D01*
X7975953Y-20556571D02*
X7985477Y-20528000D01*
X7985477Y-20528000D02*
X7995000Y-20480381D01*
X7995000Y-20480381D02*
X7995000Y-20442286D01*
X7995000Y-20442286D02*
X7985477Y-20394667D01*
X7985477Y-20394667D02*
X7975953Y-20366095D01*
X7975953Y-20366095D02*
X7966429Y-20347048D01*
X7966429Y-20347048D02*
X7947381Y-20318476D01*
X7947381Y-20318476D02*
X7937858Y-20308952D01*
D13*
X1195000Y-20709000D02*
G75*
G03*
X1195000Y-20709000I-60000J0D01*
G01*
D11*
X1547381Y-20801524D02*
X1433095Y-20801524D01*
X1490238Y-20801524D02*
X1490238Y-20601524D01*
X1490238Y-20601524D02*
X1471190Y-20630095D01*
X1471190Y-20630095D02*
X1452143Y-20649143D01*
X1452143Y-20649143D02*
X1433095Y-20658667D01*
X1633095Y-20782476D02*
X1642619Y-20792000D01*
X1642619Y-20792000D02*
X1633095Y-20801524D01*
X1633095Y-20801524D02*
X1623571Y-20792000D01*
X1623571Y-20792000D02*
X1633095Y-20782476D01*
X1633095Y-20782476D02*
X1633095Y-20801524D01*
X1718809Y-20620571D02*
X1728333Y-20611048D01*
X1728333Y-20611048D02*
X1747381Y-20601524D01*
X1747381Y-20601524D02*
X1795000Y-20601524D01*
X1795000Y-20601524D02*
X1814048Y-20611048D01*
X1814048Y-20611048D02*
X1823571Y-20620571D01*
X1823571Y-20620571D02*
X1833095Y-20639619D01*
X1833095Y-20639619D02*
X1833095Y-20658667D01*
X1833095Y-20658667D02*
X1823571Y-20687238D01*
X1823571Y-20687238D02*
X1709286Y-20801524D01*
X1709286Y-20801524D02*
X1833095Y-20801524D01*
X1956905Y-20601524D02*
X1975952Y-20601524D01*
X1975952Y-20601524D02*
X1995000Y-20611048D01*
X1995000Y-20611048D02*
X2004524Y-20620571D01*
X2004524Y-20620571D02*
X2014048Y-20639619D01*
X2014048Y-20639619D02*
X2023571Y-20677714D01*
X2023571Y-20677714D02*
X2023571Y-20725333D01*
X2023571Y-20725333D02*
X2014048Y-20763429D01*
X2014048Y-20763429D02*
X2004524Y-20782476D01*
X2004524Y-20782476D02*
X1995000Y-20792000D01*
X1995000Y-20792000D02*
X1975952Y-20801524D01*
X1975952Y-20801524D02*
X1956905Y-20801524D01*
X1956905Y-20801524D02*
X1937857Y-20792000D01*
X1937857Y-20792000D02*
X1928333Y-20782476D01*
X1928333Y-20782476D02*
X1918809Y-20763429D01*
X1918809Y-20763429D02*
X1909286Y-20725333D01*
X1909286Y-20725333D02*
X1909286Y-20677714D01*
X1909286Y-20677714D02*
X1918809Y-20639619D01*
X1918809Y-20639619D02*
X1928333Y-20620571D01*
X1928333Y-20620571D02*
X1937857Y-20611048D01*
X1937857Y-20611048D02*
X1956905Y-20601524D01*
X2147381Y-20601524D02*
X2166429Y-20601524D01*
X2166429Y-20601524D02*
X2185476Y-20611048D01*
X2185476Y-20611048D02*
X2195000Y-20620571D01*
X2195000Y-20620571D02*
X2204524Y-20639619D01*
X2204524Y-20639619D02*
X2214048Y-20677714D01*
X2214048Y-20677714D02*
X2214048Y-20725333D01*
X2214048Y-20725333D02*
X2204524Y-20763429D01*
X2204524Y-20763429D02*
X2195000Y-20782476D01*
X2195000Y-20782476D02*
X2185476Y-20792000D01*
X2185476Y-20792000D02*
X2166429Y-20801524D01*
X2166429Y-20801524D02*
X2147381Y-20801524D01*
X2147381Y-20801524D02*
X2128333Y-20792000D01*
X2128333Y-20792000D02*
X2118810Y-20782476D01*
X2118810Y-20782476D02*
X2109286Y-20763429D01*
X2109286Y-20763429D02*
X2099762Y-20725333D01*
X2099762Y-20725333D02*
X2099762Y-20677714D01*
X2099762Y-20677714D02*
X2109286Y-20639619D01*
X2109286Y-20639619D02*
X2118810Y-20620571D01*
X2118810Y-20620571D02*
X2128333Y-20611048D01*
X2128333Y-20611048D02*
X2147381Y-20601524D01*
X2299762Y-20801524D02*
X2299762Y-20668190D01*
X2299762Y-20687238D02*
X2309286Y-20677714D01*
X2309286Y-20677714D02*
X2328333Y-20668190D01*
X2328333Y-20668190D02*
X2356905Y-20668190D01*
X2356905Y-20668190D02*
X2375952Y-20677714D01*
X2375952Y-20677714D02*
X2385476Y-20696762D01*
X2385476Y-20696762D02*
X2385476Y-20801524D01*
X2385476Y-20696762D02*
X2395000Y-20677714D01*
X2395000Y-20677714D02*
X2414048Y-20668190D01*
X2414048Y-20668190D02*
X2442619Y-20668190D01*
X2442619Y-20668190D02*
X2461667Y-20677714D01*
X2461667Y-20677714D02*
X2471191Y-20696762D01*
X2471191Y-20696762D02*
X2471191Y-20801524D01*
X2566429Y-20801524D02*
X2566429Y-20668190D01*
X2566429Y-20687238D02*
X2575952Y-20677714D01*
X2575952Y-20677714D02*
X2595000Y-20668190D01*
X2595000Y-20668190D02*
X2623572Y-20668190D01*
X2623572Y-20668190D02*
X2642619Y-20677714D01*
X2642619Y-20677714D02*
X2652143Y-20696762D01*
X2652143Y-20696762D02*
X2652143Y-20801524D01*
X2652143Y-20696762D02*
X2661667Y-20677714D01*
X2661667Y-20677714D02*
X2680714Y-20668190D01*
X2680714Y-20668190D02*
X2709286Y-20668190D01*
X2709286Y-20668190D02*
X2728333Y-20677714D01*
X2728333Y-20677714D02*
X2737857Y-20696762D01*
X2737857Y-20696762D02*
X2737857Y-20801524D01*
X3128333Y-20592000D02*
X2956905Y-20849143D01*
X3385476Y-20601524D02*
X3404524Y-20601524D01*
X3404524Y-20601524D02*
X3423572Y-20611048D01*
X3423572Y-20611048D02*
X3433095Y-20620571D01*
X3433095Y-20620571D02*
X3442619Y-20639619D01*
X3442619Y-20639619D02*
X3452143Y-20677714D01*
X3452143Y-20677714D02*
X3452143Y-20725333D01*
X3452143Y-20725333D02*
X3442619Y-20763429D01*
X3442619Y-20763429D02*
X3433095Y-20782476D01*
X3433095Y-20782476D02*
X3423572Y-20792000D01*
X3423572Y-20792000D02*
X3404524Y-20801524D01*
X3404524Y-20801524D02*
X3385476Y-20801524D01*
X3385476Y-20801524D02*
X3366429Y-20792000D01*
X3366429Y-20792000D02*
X3356905Y-20782476D01*
X3356905Y-20782476D02*
X3347381Y-20763429D01*
X3347381Y-20763429D02*
X3337857Y-20725333D01*
X3337857Y-20725333D02*
X3337857Y-20677714D01*
X3337857Y-20677714D02*
X3347381Y-20639619D01*
X3347381Y-20639619D02*
X3356905Y-20620571D01*
X3356905Y-20620571D02*
X3366429Y-20611048D01*
X3366429Y-20611048D02*
X3385476Y-20601524D01*
X3537857Y-20782476D02*
X3547381Y-20792000D01*
X3547381Y-20792000D02*
X3537857Y-20801524D01*
X3537857Y-20801524D02*
X3528333Y-20792000D01*
X3528333Y-20792000D02*
X3537857Y-20782476D01*
X3537857Y-20782476D02*
X3537857Y-20801524D01*
X3671191Y-20601524D02*
X3690238Y-20601524D01*
X3690238Y-20601524D02*
X3709286Y-20611048D01*
X3709286Y-20611048D02*
X3718810Y-20620571D01*
X3718810Y-20620571D02*
X3728333Y-20639619D01*
X3728333Y-20639619D02*
X3737857Y-20677714D01*
X3737857Y-20677714D02*
X3737857Y-20725333D01*
X3737857Y-20725333D02*
X3728333Y-20763429D01*
X3728333Y-20763429D02*
X3718810Y-20782476D01*
X3718810Y-20782476D02*
X3709286Y-20792000D01*
X3709286Y-20792000D02*
X3690238Y-20801524D01*
X3690238Y-20801524D02*
X3671191Y-20801524D01*
X3671191Y-20801524D02*
X3652143Y-20792000D01*
X3652143Y-20792000D02*
X3642619Y-20782476D01*
X3642619Y-20782476D02*
X3633095Y-20763429D01*
X3633095Y-20763429D02*
X3623572Y-20725333D01*
X3623572Y-20725333D02*
X3623572Y-20677714D01*
X3623572Y-20677714D02*
X3633095Y-20639619D01*
X3633095Y-20639619D02*
X3642619Y-20620571D01*
X3642619Y-20620571D02*
X3652143Y-20611048D01*
X3652143Y-20611048D02*
X3671191Y-20601524D01*
X3909286Y-20668190D02*
X3909286Y-20801524D01*
X3861667Y-20592000D02*
X3814048Y-20734857D01*
X3814048Y-20734857D02*
X3937857Y-20734857D01*
X3995000Y-20601524D02*
X4128333Y-20601524D01*
X4128333Y-20601524D02*
X4042619Y-20801524D01*
X4195000Y-20620571D02*
X4204524Y-20611048D01*
X4204524Y-20611048D02*
X4223572Y-20601524D01*
X4223572Y-20601524D02*
X4271191Y-20601524D01*
X4271191Y-20601524D02*
X4290238Y-20611048D01*
X4290238Y-20611048D02*
X4299762Y-20620571D01*
X4299762Y-20620571D02*
X4309286Y-20639619D01*
X4309286Y-20639619D02*
X4309286Y-20658667D01*
X4309286Y-20658667D02*
X4299762Y-20687238D01*
X4299762Y-20687238D02*
X4185476Y-20801524D01*
X4185476Y-20801524D02*
X4309286Y-20801524D01*
X4385476Y-20601524D02*
X4385476Y-20639619D01*
X4461667Y-20601524D02*
X4461667Y-20639619D01*
X4756905Y-20877714D02*
X4747381Y-20868190D01*
X4747381Y-20868190D02*
X4728334Y-20839619D01*
X4728334Y-20839619D02*
X4718810Y-20820571D01*
X4718810Y-20820571D02*
X4709286Y-20792000D01*
X4709286Y-20792000D02*
X4699762Y-20744381D01*
X4699762Y-20744381D02*
X4699762Y-20706286D01*
X4699762Y-20706286D02*
X4709286Y-20658667D01*
X4709286Y-20658667D02*
X4718810Y-20630095D01*
X4718810Y-20630095D02*
X4728334Y-20611048D01*
X4728334Y-20611048D02*
X4747381Y-20582476D01*
X4747381Y-20582476D02*
X4756905Y-20572952D01*
X4823572Y-20620571D02*
X4833096Y-20611048D01*
X4833096Y-20611048D02*
X4852143Y-20601524D01*
X4852143Y-20601524D02*
X4899762Y-20601524D01*
X4899762Y-20601524D02*
X4918810Y-20611048D01*
X4918810Y-20611048D02*
X4928334Y-20620571D01*
X4928334Y-20620571D02*
X4937857Y-20639619D01*
X4937857Y-20639619D02*
X4937857Y-20658667D01*
X4937857Y-20658667D02*
X4928334Y-20687238D01*
X4928334Y-20687238D02*
X4814048Y-20801524D01*
X4814048Y-20801524D02*
X4937857Y-20801524D01*
X5175953Y-20801524D02*
X5175953Y-20601524D01*
X5261667Y-20801524D02*
X5261667Y-20696762D01*
X5261667Y-20696762D02*
X5252143Y-20677714D01*
X5252143Y-20677714D02*
X5233096Y-20668190D01*
X5233096Y-20668190D02*
X5204524Y-20668190D01*
X5204524Y-20668190D02*
X5185477Y-20677714D01*
X5185477Y-20677714D02*
X5175953Y-20687238D01*
X5385477Y-20801524D02*
X5366429Y-20792000D01*
X5366429Y-20792000D02*
X5356905Y-20782476D01*
X5356905Y-20782476D02*
X5347381Y-20763429D01*
X5347381Y-20763429D02*
X5347381Y-20706286D01*
X5347381Y-20706286D02*
X5356905Y-20687238D01*
X5356905Y-20687238D02*
X5366429Y-20677714D01*
X5366429Y-20677714D02*
X5385477Y-20668190D01*
X5385477Y-20668190D02*
X5414048Y-20668190D01*
X5414048Y-20668190D02*
X5433096Y-20677714D01*
X5433096Y-20677714D02*
X5442619Y-20687238D01*
X5442619Y-20687238D02*
X5452143Y-20706286D01*
X5452143Y-20706286D02*
X5452143Y-20763429D01*
X5452143Y-20763429D02*
X5442619Y-20782476D01*
X5442619Y-20782476D02*
X5433096Y-20792000D01*
X5433096Y-20792000D02*
X5414048Y-20801524D01*
X5414048Y-20801524D02*
X5385477Y-20801524D01*
X5566429Y-20801524D02*
X5547381Y-20792000D01*
X5547381Y-20792000D02*
X5537858Y-20772952D01*
X5537858Y-20772952D02*
X5537858Y-20601524D01*
X5718810Y-20792000D02*
X5699762Y-20801524D01*
X5699762Y-20801524D02*
X5661667Y-20801524D01*
X5661667Y-20801524D02*
X5642619Y-20792000D01*
X5642619Y-20792000D02*
X5633096Y-20772952D01*
X5633096Y-20772952D02*
X5633096Y-20696762D01*
X5633096Y-20696762D02*
X5642619Y-20677714D01*
X5642619Y-20677714D02*
X5661667Y-20668190D01*
X5661667Y-20668190D02*
X5699762Y-20668190D01*
X5699762Y-20668190D02*
X5718810Y-20677714D01*
X5718810Y-20677714D02*
X5728334Y-20696762D01*
X5728334Y-20696762D02*
X5728334Y-20715810D01*
X5728334Y-20715810D02*
X5633096Y-20734857D01*
X5804524Y-20792000D02*
X5823572Y-20801524D01*
X5823572Y-20801524D02*
X5861667Y-20801524D01*
X5861667Y-20801524D02*
X5880715Y-20792000D01*
X5880715Y-20792000D02*
X5890238Y-20772952D01*
X5890238Y-20772952D02*
X5890238Y-20763429D01*
X5890238Y-20763429D02*
X5880715Y-20744381D01*
X5880715Y-20744381D02*
X5861667Y-20734857D01*
X5861667Y-20734857D02*
X5833096Y-20734857D01*
X5833096Y-20734857D02*
X5814048Y-20725333D01*
X5814048Y-20725333D02*
X5804524Y-20706286D01*
X5804524Y-20706286D02*
X5804524Y-20696762D01*
X5804524Y-20696762D02*
X5814048Y-20677714D01*
X5814048Y-20677714D02*
X5833096Y-20668190D01*
X5833096Y-20668190D02*
X5861667Y-20668190D01*
X5861667Y-20668190D02*
X5880715Y-20677714D01*
X5956905Y-20877714D02*
X5966429Y-20868190D01*
X5966429Y-20868190D02*
X5985477Y-20839619D01*
X5985477Y-20839619D02*
X5995000Y-20820571D01*
X5995000Y-20820571D02*
X6004524Y-20792000D01*
X6004524Y-20792000D02*
X6014048Y-20744381D01*
X6014048Y-20744381D02*
X6014048Y-20706286D01*
X6014048Y-20706286D02*
X6004524Y-20658667D01*
X6004524Y-20658667D02*
X5995000Y-20630095D01*
X5995000Y-20630095D02*
X5985477Y-20611048D01*
X5985477Y-20611048D02*
X5966429Y-20582476D01*
X5966429Y-20582476D02*
X5956905Y-20572952D01*
X6318810Y-20877714D02*
X6309286Y-20868190D01*
X6309286Y-20868190D02*
X6290238Y-20839619D01*
X6290238Y-20839619D02*
X6280715Y-20820571D01*
X6280715Y-20820571D02*
X6271191Y-20792000D01*
X6271191Y-20792000D02*
X6261667Y-20744381D01*
X6261667Y-20744381D02*
X6261667Y-20706286D01*
X6261667Y-20706286D02*
X6271191Y-20658667D01*
X6271191Y-20658667D02*
X6280715Y-20630095D01*
X6280715Y-20630095D02*
X6290238Y-20611048D01*
X6290238Y-20611048D02*
X6309286Y-20582476D01*
X6309286Y-20582476D02*
X6318810Y-20572952D01*
X6395000Y-20668190D02*
X6395000Y-20801524D01*
X6395000Y-20687238D02*
X6404524Y-20677714D01*
X6404524Y-20677714D02*
X6423572Y-20668190D01*
X6423572Y-20668190D02*
X6452143Y-20668190D01*
X6452143Y-20668190D02*
X6471191Y-20677714D01*
X6471191Y-20677714D02*
X6480715Y-20696762D01*
X6480715Y-20696762D02*
X6480715Y-20801524D01*
X6604524Y-20801524D02*
X6585477Y-20792000D01*
X6585477Y-20792000D02*
X6575953Y-20782476D01*
X6575953Y-20782476D02*
X6566429Y-20763429D01*
X6566429Y-20763429D02*
X6566429Y-20706286D01*
X6566429Y-20706286D02*
X6575953Y-20687238D01*
X6575953Y-20687238D02*
X6585477Y-20677714D01*
X6585477Y-20677714D02*
X6604524Y-20668190D01*
X6604524Y-20668190D02*
X6633096Y-20668190D01*
X6633096Y-20668190D02*
X6652143Y-20677714D01*
X6652143Y-20677714D02*
X6661667Y-20687238D01*
X6661667Y-20687238D02*
X6671191Y-20706286D01*
X6671191Y-20706286D02*
X6671191Y-20763429D01*
X6671191Y-20763429D02*
X6661667Y-20782476D01*
X6661667Y-20782476D02*
X6652143Y-20792000D01*
X6652143Y-20792000D02*
X6633096Y-20801524D01*
X6633096Y-20801524D02*
X6604524Y-20801524D01*
X6728334Y-20668190D02*
X6804524Y-20668190D01*
X6756905Y-20601524D02*
X6756905Y-20772952D01*
X6756905Y-20772952D02*
X6766429Y-20792000D01*
X6766429Y-20792000D02*
X6785477Y-20801524D01*
X6785477Y-20801524D02*
X6804524Y-20801524D01*
X7023572Y-20668190D02*
X7023572Y-20868190D01*
X7023572Y-20677714D02*
X7042619Y-20668190D01*
X7042619Y-20668190D02*
X7080715Y-20668190D01*
X7080715Y-20668190D02*
X7099762Y-20677714D01*
X7099762Y-20677714D02*
X7109286Y-20687238D01*
X7109286Y-20687238D02*
X7118810Y-20706286D01*
X7118810Y-20706286D02*
X7118810Y-20763429D01*
X7118810Y-20763429D02*
X7109286Y-20782476D01*
X7109286Y-20782476D02*
X7099762Y-20792000D01*
X7099762Y-20792000D02*
X7080715Y-20801524D01*
X7080715Y-20801524D02*
X7042619Y-20801524D01*
X7042619Y-20801524D02*
X7023572Y-20792000D01*
X7233096Y-20801524D02*
X7214048Y-20792000D01*
X7214048Y-20792000D02*
X7204524Y-20772952D01*
X7204524Y-20772952D02*
X7204524Y-20601524D01*
X7395000Y-20801524D02*
X7395000Y-20696762D01*
X7395000Y-20696762D02*
X7385477Y-20677714D01*
X7385477Y-20677714D02*
X7366429Y-20668190D01*
X7366429Y-20668190D02*
X7328334Y-20668190D01*
X7328334Y-20668190D02*
X7309286Y-20677714D01*
X7395000Y-20792000D02*
X7375953Y-20801524D01*
X7375953Y-20801524D02*
X7328334Y-20801524D01*
X7328334Y-20801524D02*
X7309286Y-20792000D01*
X7309286Y-20792000D02*
X7299762Y-20772952D01*
X7299762Y-20772952D02*
X7299762Y-20753905D01*
X7299762Y-20753905D02*
X7309286Y-20734857D01*
X7309286Y-20734857D02*
X7328334Y-20725333D01*
X7328334Y-20725333D02*
X7375953Y-20725333D01*
X7375953Y-20725333D02*
X7395000Y-20715810D01*
X7461667Y-20668190D02*
X7537858Y-20668190D01*
X7490239Y-20601524D02*
X7490239Y-20772952D01*
X7490239Y-20772952D02*
X7499762Y-20792000D01*
X7499762Y-20792000D02*
X7518810Y-20801524D01*
X7518810Y-20801524D02*
X7537858Y-20801524D01*
X7680715Y-20792000D02*
X7661667Y-20801524D01*
X7661667Y-20801524D02*
X7623572Y-20801524D01*
X7623572Y-20801524D02*
X7604524Y-20792000D01*
X7604524Y-20792000D02*
X7595000Y-20772952D01*
X7595000Y-20772952D02*
X7595000Y-20696762D01*
X7595000Y-20696762D02*
X7604524Y-20677714D01*
X7604524Y-20677714D02*
X7623572Y-20668190D01*
X7623572Y-20668190D02*
X7661667Y-20668190D01*
X7661667Y-20668190D02*
X7680715Y-20677714D01*
X7680715Y-20677714D02*
X7690239Y-20696762D01*
X7690239Y-20696762D02*
X7690239Y-20715810D01*
X7690239Y-20715810D02*
X7595000Y-20734857D01*
X7861667Y-20801524D02*
X7861667Y-20601524D01*
X7861667Y-20792000D02*
X7842620Y-20801524D01*
X7842620Y-20801524D02*
X7804524Y-20801524D01*
X7804524Y-20801524D02*
X7785477Y-20792000D01*
X7785477Y-20792000D02*
X7775953Y-20782476D01*
X7775953Y-20782476D02*
X7766429Y-20763429D01*
X7766429Y-20763429D02*
X7766429Y-20706286D01*
X7766429Y-20706286D02*
X7775953Y-20687238D01*
X7775953Y-20687238D02*
X7785477Y-20677714D01*
X7785477Y-20677714D02*
X7804524Y-20668190D01*
X7804524Y-20668190D02*
X7842620Y-20668190D01*
X7842620Y-20668190D02*
X7861667Y-20677714D01*
X7937858Y-20877714D02*
X7947381Y-20868190D01*
X7947381Y-20868190D02*
X7966429Y-20839619D01*
X7966429Y-20839619D02*
X7975953Y-20820571D01*
X7975953Y-20820571D02*
X7985477Y-20792000D01*
X7985477Y-20792000D02*
X7995000Y-20744381D01*
X7995000Y-20744381D02*
X7995000Y-20706286D01*
X7995000Y-20706286D02*
X7985477Y-20658667D01*
X7985477Y-20658667D02*
X7975953Y-20630095D01*
X7975953Y-20630095D02*
X7966429Y-20611048D01*
X7966429Y-20611048D02*
X7947381Y-20582476D01*
X7947381Y-20582476D02*
X7937858Y-20572952D01*
M02*
