%TF.GenerationSoftware,KiCad,Pcbnew,7.0.2-6a45011f42~172~ubuntu22.04.1*%
%TF.CreationDate,2023-05-14T19:46:31+02:00*%
%TF.ProjectId,PowerMeter,506f7765-724d-4657-9465-722e6b696361,rev?*%
%TF.SameCoordinates,Original*%
%TF.FileFunction,Copper,L2,Inr*%
%TF.FilePolarity,Positive*%
%FSLAX46Y46*%
G04 Gerber Fmt 4.6, Leading zero omitted, Abs format (unit mm)*
G04 Created by KiCad (PCBNEW 7.0.2-6a45011f42~172~ubuntu22.04.1) date 2023-05-14 19:46:31*
%MOMM*%
%LPD*%
G01*
G04 APERTURE LIST*
%TA.AperFunction,ComponentPad*%
%ADD10R,0.880000X0.880000*%
%TD*%
%TA.AperFunction,ComponentPad*%
%ADD11O,0.900000X2.000000*%
%TD*%
%TA.AperFunction,ComponentPad*%
%ADD12O,0.900000X1.700000*%
%TD*%
%TA.AperFunction,ViaPad*%
%ADD13C,0.800000*%
%TD*%
%TA.AperFunction,ViaPad*%
%ADD14C,0.700000*%
%TD*%
G04 APERTURE END LIST*
D10*
%TO.N,GND*%
%TO.C,AE1*%
X91670000Y-75740000D03*
%TD*%
D11*
%TO.N,unconnected-(J2-SHIELD-PadS1)*%
%TO.C,J2*%
X85900000Y-107595000D03*
D12*
X85900000Y-111765000D03*
D11*
X94540000Y-107595000D03*
D12*
X94540000Y-111765000D03*
%TD*%
D13*
%TO.N,+3V3*%
X76750000Y-96600000D03*
%TO.N,Net-(D2-RK)*%
X84350000Y-94450000D03*
D14*
%TO.N,/CHIP_EN*%
X85200000Y-83100000D03*
X73400000Y-86000000D03*
%TO.N,/CHIP_BOOT*%
X83600000Y-84100000D03*
X74200000Y-90800000D03*
X88800000Y-86600000D03*
D13*
%TO.N,GND*%
X99150000Y-97522724D03*
X99150000Y-109406813D03*
X78250000Y-90150000D03*
X79220000Y-89200000D03*
X99150000Y-83940908D03*
X70900000Y-82193181D03*
X93096427Y-114450000D03*
X95114284Y-114450000D03*
X99150000Y-82243181D03*
X70900000Y-87286362D03*
X74950000Y-92450000D03*
X70900000Y-88984089D03*
X74935714Y-114450000D03*
X79950000Y-100000000D03*
X74150000Y-93150000D03*
X99150000Y-112802267D03*
X99150000Y-100918178D03*
X97132141Y-114450000D03*
X99150000Y-102615905D03*
X70900000Y-109356813D03*
X70900000Y-77100000D03*
X99150000Y-104313632D03*
X70900000Y-112752267D03*
X70900000Y-104263632D03*
X99150000Y-89034089D03*
X91096429Y-77150000D03*
X95050000Y-105400000D03*
X93114286Y-77150000D03*
X99150000Y-87336362D03*
X99150000Y-85638635D03*
X70900000Y-94077270D03*
X87042856Y-114450000D03*
X77220000Y-89200000D03*
X99150000Y-92429543D03*
X86091967Y-83425500D03*
X77200000Y-88200000D03*
X95132143Y-77150000D03*
X99150000Y-90731816D03*
X99150000Y-114450000D03*
X99150000Y-99220451D03*
X70900000Y-83890908D03*
X99150000Y-107709086D03*
X78220000Y-89200000D03*
X74200000Y-94550000D03*
X99150000Y-94127270D03*
X70900000Y-95774997D03*
X70900000Y-78797727D03*
X79250000Y-90150000D03*
X85024999Y-114450000D03*
X99150000Y-95824997D03*
X70900000Y-80495454D03*
X70900000Y-92379543D03*
X79200000Y-88200000D03*
X91800000Y-91850000D03*
X70900000Y-90681816D03*
X78200000Y-88200000D03*
X70900000Y-97472724D03*
X91078570Y-114450000D03*
X77250000Y-90150000D03*
X70900000Y-85588635D03*
X76953571Y-114450000D03*
X99150000Y-106011359D03*
X85250000Y-105200000D03*
X70900000Y-114450000D03*
X87100000Y-86300000D03*
X83007142Y-114450000D03*
X70900000Y-99170451D03*
X97150000Y-77150000D03*
X99150000Y-77150000D03*
X99150000Y-80545454D03*
X70900000Y-105961359D03*
X80989285Y-114450000D03*
X99150000Y-78847727D03*
X78971428Y-114450000D03*
X72550000Y-77100000D03*
X70900000Y-111054540D03*
X89900000Y-92850000D03*
X72917857Y-114450000D03*
X99150000Y-111104540D03*
X70900000Y-100868178D03*
X89060713Y-114450000D03*
X70900000Y-102565905D03*
X70900000Y-107659086D03*
D14*
%TO.N,+5VA*%
X87800000Y-105700000D03*
X87300000Y-103000000D03*
D13*
X87400000Y-99100000D03*
D14*
X92600000Y-105600000D03*
%TO.N,/XTAL_P*%
X87800000Y-90200000D03*
X82600000Y-88000000D03*
D13*
%TO.N,+3V3*%
X91900000Y-95500000D03*
X91900000Y-94500000D03*
X84950000Y-95800000D03*
X89200000Y-78750000D03*
X89900000Y-95600000D03*
X73449500Y-88200000D03*
X84250000Y-78800000D03*
X90800000Y-95100000D03*
X85500000Y-84800000D03*
X91900000Y-96500000D03*
X74850000Y-77000000D03*
X90800000Y-96100000D03*
X96200000Y-90900000D03*
%TO.N,/BLE_MODE*%
X82352012Y-89998123D03*
X89050000Y-91300000D03*
D14*
%TO.N,Net-(D2-GK)*%
X80400000Y-93350000D03*
X76600000Y-100500000D03*
%TO.N,Net-(D2-BK)*%
X79775500Y-94919011D03*
X75000000Y-100550000D03*
%TO.N,Net-(D2-RK)*%
X78300000Y-100500000D03*
%TO.N,/USB_D-_ESP*%
X94608411Y-102991589D03*
X82200000Y-92000000D03*
%TO.N,/USB_D+_ESP*%
X95700000Y-103000000D03*
X82400000Y-91000000D03*
D13*
%TO.N,/CURRENT_SENSE*%
X73400000Y-84700000D03*
X73700000Y-102300000D03*
%TD*%
%TA.AperFunction,Conductor*%
%TO.N,GND*%
G36*
X91914299Y-70301959D02*
G01*
X91939948Y-70305927D01*
X92066366Y-70327303D01*
X92088143Y-70333066D01*
X92143228Y-70353163D01*
X92147993Y-70355016D01*
X92227920Y-70388049D01*
X92233713Y-70390444D01*
X92250757Y-70399081D01*
X92306176Y-70432770D01*
X92313413Y-70437524D01*
X92384147Y-70487630D01*
X92396292Y-70497439D01*
X92445510Y-70542610D01*
X92454037Y-70551245D01*
X92461338Y-70559402D01*
X92510926Y-70614806D01*
X92518586Y-70624260D01*
X92558019Y-70678129D01*
X92566443Y-70691307D01*
X92608418Y-70767117D01*
X92612361Y-70774868D01*
X92639717Y-70833657D01*
X92646421Y-70851554D01*
X92672145Y-70940593D01*
X92673487Y-70945633D01*
X92687364Y-71002541D01*
X92690694Y-71024871D01*
X92697971Y-71152709D01*
X92698061Y-71154817D01*
X92699240Y-71182318D01*
X92699160Y-71194392D01*
X92697873Y-71217359D01*
X92699515Y-71236840D01*
X92700764Y-75230091D01*
X92697317Y-75241843D01*
X92700588Y-75299334D01*
X92700788Y-75306318D01*
X92700789Y-75308380D01*
X92700599Y-75315300D01*
X92696206Y-75394581D01*
X92704155Y-75450580D01*
X92701992Y-75465433D01*
X92707972Y-75486133D01*
X92711612Y-75503121D01*
X92719556Y-75559087D01*
X92745082Y-75631861D01*
X92745922Y-75648097D01*
X92754103Y-75662872D01*
X92762629Y-75681887D01*
X92773680Y-75713391D01*
X92774553Y-75715881D01*
X92822226Y-75796559D01*
X92826647Y-75814014D01*
X92835844Y-75824289D01*
X92850202Y-75843904D01*
X92859081Y-75858930D01*
X92859130Y-75858985D01*
X92875215Y-75881618D01*
X92876385Y-75883732D01*
X92897205Y-75901525D01*
X92919610Y-75926558D01*
X92931766Y-75940139D01*
X92940218Y-75957887D01*
X92949127Y-75964198D01*
X92969847Y-75982686D01*
X92969895Y-75982740D01*
X92983848Y-75993224D01*
X93001756Y-76009660D01*
X93005703Y-76014070D01*
X93027816Y-76026260D01*
X93102735Y-76082552D01*
X93135208Y-76098159D01*
X93153170Y-76108735D01*
X93161076Y-76114335D01*
X93182983Y-76121121D01*
X93252494Y-76154529D01*
X93307237Y-76168604D01*
X93323712Y-76174098D01*
X93337382Y-76179748D01*
X93358616Y-76181815D01*
X93413417Y-76195906D01*
X93474420Y-76199283D01*
X93479613Y-76200500D01*
X93488951Y-76200500D01*
X93509618Y-76202234D01*
X93531331Y-76205904D01*
X93532918Y-76204924D01*
X93565746Y-76200500D01*
X99190436Y-76200500D01*
X99209388Y-76201956D01*
X99235068Y-76205929D01*
X99361459Y-76227301D01*
X99383249Y-76233068D01*
X99438325Y-76253162D01*
X99443154Y-76255041D01*
X99528816Y-76290445D01*
X99545860Y-76299083D01*
X99601273Y-76332768D01*
X99608527Y-76337533D01*
X99679244Y-76387627D01*
X99691404Y-76397449D01*
X99740596Y-76442597D01*
X99749147Y-76451255D01*
X99806024Y-76514802D01*
X99813686Y-76524258D01*
X99853126Y-76578138D01*
X99861550Y-76591316D01*
X99903520Y-76667118D01*
X99907451Y-76674845D01*
X99934817Y-76733653D01*
X99941520Y-76751550D01*
X99967244Y-76840590D01*
X99968586Y-76845630D01*
X99982467Y-76902554D01*
X99985796Y-76924880D01*
X99993053Y-77052293D01*
X99993171Y-77055032D01*
X99994343Y-77082388D01*
X99994263Y-77094459D01*
X99992977Y-77117416D01*
X99994613Y-77136853D01*
X99999498Y-114490429D01*
X99998041Y-114509400D01*
X99994074Y-114535046D01*
X99972702Y-114661436D01*
X99966929Y-114683251D01*
X99946839Y-114738315D01*
X99944948Y-114743178D01*
X99909553Y-114828816D01*
X99900914Y-114845862D01*
X99867235Y-114901266D01*
X99862461Y-114908533D01*
X99812375Y-114979239D01*
X99802546Y-114991407D01*
X99757401Y-115040596D01*
X99748743Y-115049147D01*
X99685196Y-115106024D01*
X99675740Y-115113686D01*
X99621860Y-115153126D01*
X99608682Y-115161550D01*
X99532880Y-115203520D01*
X99525130Y-115207463D01*
X99466345Y-115234817D01*
X99448448Y-115241520D01*
X99359408Y-115267244D01*
X99354368Y-115268586D01*
X99297444Y-115282467D01*
X99275118Y-115285796D01*
X99147706Y-115293053D01*
X99144883Y-115293174D01*
X99117612Y-115294342D01*
X99105530Y-115294262D01*
X99083341Y-115293016D01*
X99082863Y-115293239D01*
X99064463Y-115294615D01*
X70809571Y-115299497D01*
X70790593Y-115298039D01*
X70764904Y-115294065D01*
X70638563Y-115272702D01*
X70616747Y-115266929D01*
X70561683Y-115246839D01*
X70556820Y-115244948D01*
X70471182Y-115209553D01*
X70454136Y-115200914D01*
X70398732Y-115167235D01*
X70391465Y-115162461D01*
X70320759Y-115112375D01*
X70308591Y-115102546D01*
X70259402Y-115057401D01*
X70250851Y-115048743D01*
X70220327Y-115014639D01*
X70193968Y-114985189D01*
X70186321Y-114975752D01*
X70146869Y-114921855D01*
X70138448Y-114908682D01*
X70134342Y-114901266D01*
X70096467Y-114832858D01*
X70092558Y-114825177D01*
X70065176Y-114766331D01*
X70058478Y-114748448D01*
X70056955Y-114743178D01*
X70032754Y-114659408D01*
X70031412Y-114654368D01*
X70017529Y-114597436D01*
X70014202Y-114575123D01*
X70006947Y-114447743D01*
X70005661Y-114417713D01*
X70005757Y-114405386D01*
X70007033Y-114383470D01*
X70006770Y-114382904D01*
X70005385Y-114364450D01*
X70005104Y-112213206D01*
X84949500Y-112213206D01*
X84949816Y-112216317D01*
X84949817Y-112216329D01*
X84964155Y-112357323D01*
X84993551Y-112451012D01*
X85022026Y-112541768D01*
X85115841Y-112710791D01*
X85241760Y-112857468D01*
X85241763Y-112857470D01*
X85394624Y-112975795D01*
X85478050Y-113016717D01*
X85568184Y-113060930D01*
X85755326Y-113109385D01*
X85948390Y-113119176D01*
X85948390Y-113119175D01*
X85948391Y-113119176D01*
X86139474Y-113089903D01*
X86139474Y-113089902D01*
X86320753Y-113022764D01*
X86484807Y-112920509D01*
X86624919Y-112787323D01*
X86735353Y-112628658D01*
X86811587Y-112451012D01*
X86850500Y-112261656D01*
X86850500Y-112213206D01*
X93589500Y-112213206D01*
X93589816Y-112216317D01*
X93589817Y-112216329D01*
X93604155Y-112357323D01*
X93633551Y-112451012D01*
X93662026Y-112541768D01*
X93755841Y-112710791D01*
X93881760Y-112857468D01*
X93881763Y-112857470D01*
X94034624Y-112975795D01*
X94118050Y-113016717D01*
X94208184Y-113060930D01*
X94395326Y-113109385D01*
X94588390Y-113119176D01*
X94588390Y-113119175D01*
X94588391Y-113119176D01*
X94779474Y-113089903D01*
X94779474Y-113089902D01*
X94960753Y-113022764D01*
X95124807Y-112920509D01*
X95264919Y-112787323D01*
X95375353Y-112628658D01*
X95451587Y-112451012D01*
X95490500Y-112261656D01*
X95490500Y-111316794D01*
X95475845Y-111172679D01*
X95417974Y-110988232D01*
X95324159Y-110819209D01*
X95198240Y-110672532D01*
X95170073Y-110650729D01*
X95045375Y-110554204D01*
X94871816Y-110469070D01*
X94867846Y-110468042D01*
X94684674Y-110420615D01*
X94665089Y-110419621D01*
X94491608Y-110410823D01*
X94300525Y-110440096D01*
X94119247Y-110507235D01*
X93955196Y-110609488D01*
X93815079Y-110742678D01*
X93704647Y-110901341D01*
X93628412Y-111078988D01*
X93609159Y-111172679D01*
X93589500Y-111268344D01*
X93589500Y-112213206D01*
X86850500Y-112213206D01*
X86850500Y-111316794D01*
X86835845Y-111172679D01*
X86777974Y-110988232D01*
X86684159Y-110819209D01*
X86558240Y-110672532D01*
X86530073Y-110650729D01*
X86405375Y-110554204D01*
X86231816Y-110469070D01*
X86227846Y-110468042D01*
X86044674Y-110420615D01*
X86025089Y-110419621D01*
X85851608Y-110410823D01*
X85660525Y-110440096D01*
X85479247Y-110507235D01*
X85315196Y-110609488D01*
X85175079Y-110742678D01*
X85064647Y-110901341D01*
X84988412Y-111078988D01*
X84969159Y-111172679D01*
X84949500Y-111268344D01*
X84949500Y-112213206D01*
X70005104Y-112213206D01*
X70004952Y-111050937D01*
X78315630Y-111050937D01*
X78346443Y-111252071D01*
X78417113Y-111442886D01*
X78524745Y-111615568D01*
X78524748Y-111615571D01*
X78664941Y-111763053D01*
X78831951Y-111879295D01*
X79018942Y-111959540D01*
X79218259Y-112000500D01*
X79218261Y-112000500D01*
X79367600Y-112000500D01*
X79370742Y-112000500D01*
X79522438Y-111985074D01*
X79716588Y-111924159D01*
X79894502Y-111825409D01*
X80048895Y-111692866D01*
X80173448Y-111531958D01*
X80263060Y-111349271D01*
X80314063Y-111152285D01*
X80324369Y-110949064D01*
X80293556Y-110747929D01*
X80291611Y-110742678D01*
X80222886Y-110557113D01*
X80115254Y-110384431D01*
X80108803Y-110377644D01*
X79975059Y-110236947D01*
X79808049Y-110120705D01*
X79621058Y-110040460D01*
X79421741Y-109999500D01*
X79269258Y-109999500D01*
X79266147Y-109999816D01*
X79266134Y-109999817D01*
X79117559Y-110014926D01*
X78923412Y-110075841D01*
X78745500Y-110174589D01*
X78591104Y-110307135D01*
X78466551Y-110468042D01*
X78376940Y-110650727D01*
X78325937Y-110847716D01*
X78315630Y-111050937D01*
X70004952Y-111050937D01*
X70004578Y-108193206D01*
X84949500Y-108193206D01*
X84949816Y-108196317D01*
X84949817Y-108196329D01*
X84964155Y-108337323D01*
X84993551Y-108431012D01*
X85022026Y-108521768D01*
X85115841Y-108690791D01*
X85241760Y-108837468D01*
X85241763Y-108837470D01*
X85394624Y-108955795D01*
X85478050Y-108996717D01*
X85568184Y-109040930D01*
X85755326Y-109089385D01*
X85948390Y-109099176D01*
X85948390Y-109099175D01*
X85948391Y-109099176D01*
X86139474Y-109069903D01*
X86320753Y-109002764D01*
X86484807Y-108900509D01*
X86624919Y-108767323D01*
X86735353Y-108608658D01*
X86767419Y-108533934D01*
X86811944Y-108480093D01*
X86878513Y-108458869D01*
X86945988Y-108477004D01*
X86971992Y-108498199D01*
X86979319Y-108506044D01*
X87025186Y-108533936D01*
X87108618Y-108584672D01*
X87254335Y-108625500D01*
X87254337Y-108625500D01*
X87363421Y-108625500D01*
X87367658Y-108625500D01*
X87479920Y-108610070D01*
X87618720Y-108549780D01*
X87736108Y-108454278D01*
X87823377Y-108330647D01*
X87823455Y-108330429D01*
X87848100Y-108261083D01*
X87874054Y-108188056D01*
X87879193Y-108112922D01*
X92555618Y-108112922D01*
X92586407Y-108261083D01*
X92586407Y-108261084D01*
X92586408Y-108261085D01*
X92656029Y-108395447D01*
X92741453Y-108486913D01*
X92759321Y-108506045D01*
X92781171Y-108519332D01*
X92888618Y-108584672D01*
X93034335Y-108625500D01*
X93034337Y-108625500D01*
X93143421Y-108625500D01*
X93147658Y-108625500D01*
X93259920Y-108610070D01*
X93398720Y-108549780D01*
X93475994Y-108486912D01*
X93540420Y-108459875D01*
X93609237Y-108471960D01*
X93660595Y-108519332D01*
X93662658Y-108522907D01*
X93755841Y-108690791D01*
X93881760Y-108837468D01*
X93881763Y-108837470D01*
X94034624Y-108955795D01*
X94118050Y-108996717D01*
X94208184Y-109040930D01*
X94395326Y-109089385D01*
X94588390Y-109099176D01*
X94588390Y-109099175D01*
X94588391Y-109099176D01*
X94779474Y-109069903D01*
X94779473Y-109069903D01*
X94960753Y-109002764D01*
X95124807Y-108900509D01*
X95264919Y-108767323D01*
X95375353Y-108608658D01*
X95451587Y-108431012D01*
X95490500Y-108241656D01*
X95490500Y-106996794D01*
X95475845Y-106852679D01*
X95417974Y-106668232D01*
X95324159Y-106499209D01*
X95198240Y-106352532D01*
X95182838Y-106340610D01*
X95045375Y-106234204D01*
X94871816Y-106149070D01*
X94871816Y-106149069D01*
X94684674Y-106100615D01*
X94665089Y-106099621D01*
X94491608Y-106090823D01*
X94300525Y-106120096D01*
X94119247Y-106187235D01*
X93955196Y-106289488D01*
X93815079Y-106422678D01*
X93704647Y-106581341D01*
X93628412Y-106758988D01*
X93589500Y-106948344D01*
X93589500Y-107501759D01*
X93569815Y-107568798D01*
X93517011Y-107614553D01*
X93447853Y-107624497D01*
X93401072Y-107607707D01*
X93337088Y-107568798D01*
X93331382Y-107565328D01*
X93185665Y-107524500D01*
X93072342Y-107524500D01*
X93068158Y-107525075D01*
X93068144Y-107525076D01*
X92960079Y-107539930D01*
X92821280Y-107600219D01*
X92703892Y-107695721D01*
X92616621Y-107819354D01*
X92565946Y-107961942D01*
X92555618Y-108112922D01*
X87879193Y-108112922D01*
X87884381Y-108037079D01*
X87853592Y-107888915D01*
X87783971Y-107754553D01*
X87680680Y-107643956D01*
X87680679Y-107643955D01*
X87680678Y-107643954D01*
X87557088Y-107568798D01*
X87551382Y-107565328D01*
X87405665Y-107524500D01*
X87292342Y-107524500D01*
X87288158Y-107525075D01*
X87288144Y-107525076D01*
X87180079Y-107539930D01*
X87025648Y-107607010D01*
X87023903Y-107602993D01*
X86988309Y-107617925D01*
X86919494Y-107605828D01*
X86868144Y-107558448D01*
X86850500Y-107494696D01*
X86850500Y-106999935D01*
X86850500Y-106996794D01*
X86835845Y-106852679D01*
X86777974Y-106668232D01*
X86684159Y-106499209D01*
X86558240Y-106352532D01*
X86542838Y-106340610D01*
X86405375Y-106234204D01*
X86231816Y-106149070D01*
X86231816Y-106149069D01*
X86044674Y-106100615D01*
X86025089Y-106099621D01*
X85851608Y-106090823D01*
X85660525Y-106120096D01*
X85479247Y-106187235D01*
X85315196Y-106289488D01*
X85175079Y-106422678D01*
X85064647Y-106581341D01*
X84988412Y-106758988D01*
X84969159Y-106852679D01*
X84949500Y-106948344D01*
X84949500Y-108193206D01*
X70004578Y-108193206D01*
X70004252Y-105700000D01*
X86944815Y-105700000D01*
X86963503Y-105877804D01*
X87018749Y-106047835D01*
X87108140Y-106202665D01*
X87227771Y-106335527D01*
X87372403Y-106440610D01*
X87535735Y-106513330D01*
X87710607Y-106550500D01*
X87710609Y-106550500D01*
X87889393Y-106550500D01*
X88064264Y-106513330D01*
X88064265Y-106513329D01*
X88064267Y-106513329D01*
X88227593Y-106440612D01*
X88372230Y-106335526D01*
X88491859Y-106202665D01*
X88581250Y-106047835D01*
X88636497Y-105877803D01*
X88655185Y-105700000D01*
X88644674Y-105600000D01*
X91744815Y-105600000D01*
X91763503Y-105777804D01*
X91818749Y-105947835D01*
X91908140Y-106102665D01*
X92027771Y-106235527D01*
X92172403Y-106340610D01*
X92172406Y-106340611D01*
X92172407Y-106340612D01*
X92199180Y-106352532D01*
X92335735Y-106413330D01*
X92510607Y-106450500D01*
X92510609Y-106450500D01*
X92689393Y-106450500D01*
X92864264Y-106413330D01*
X92864265Y-106413329D01*
X92864267Y-106413329D01*
X93027593Y-106340612D01*
X93172230Y-106235526D01*
X93291859Y-106102665D01*
X93381250Y-105947835D01*
X93436497Y-105777803D01*
X93455185Y-105600000D01*
X93436497Y-105422197D01*
X93381250Y-105252165D01*
X93381250Y-105252164D01*
X93291859Y-105097334D01*
X93172228Y-104964472D01*
X93027596Y-104859389D01*
X92864264Y-104786669D01*
X92689393Y-104749500D01*
X92689391Y-104749500D01*
X92510609Y-104749500D01*
X92510607Y-104749500D01*
X92335735Y-104786669D01*
X92172408Y-104859387D01*
X92027768Y-104964474D01*
X91908140Y-105097334D01*
X91818749Y-105252164D01*
X91763503Y-105422195D01*
X91744815Y-105600000D01*
X88644674Y-105600000D01*
X88636497Y-105522197D01*
X88581250Y-105352165D01*
X88581250Y-105352164D01*
X88491859Y-105197334D01*
X88372228Y-105064472D01*
X88227596Y-104959389D01*
X88064264Y-104886669D01*
X87889393Y-104849500D01*
X87889391Y-104849500D01*
X87710609Y-104849500D01*
X87710607Y-104849500D01*
X87535735Y-104886669D01*
X87372408Y-104959387D01*
X87227768Y-105064474D01*
X87108140Y-105197334D01*
X87018749Y-105352164D01*
X86963503Y-105522195D01*
X86944815Y-105700000D01*
X70004252Y-105700000D01*
X70004037Y-104050937D01*
X78315630Y-104050937D01*
X78346443Y-104252071D01*
X78417113Y-104442886D01*
X78524745Y-104615568D01*
X78524748Y-104615571D01*
X78664941Y-104763053D01*
X78831951Y-104879295D01*
X79018942Y-104959540D01*
X79218259Y-105000500D01*
X79218261Y-105000500D01*
X79367600Y-105000500D01*
X79370742Y-105000500D01*
X79522438Y-104985074D01*
X79716588Y-104924159D01*
X79894502Y-104825409D01*
X80048895Y-104692866D01*
X80173448Y-104531958D01*
X80263060Y-104349271D01*
X80314063Y-104152285D01*
X80324369Y-103949064D01*
X80309269Y-103850500D01*
X80293556Y-103747928D01*
X80222886Y-103557113D01*
X80115254Y-103384431D01*
X80108803Y-103377644D01*
X79975059Y-103236947D01*
X79808049Y-103120705D01*
X79621058Y-103040460D01*
X79424174Y-103000000D01*
X86444815Y-103000000D01*
X86463503Y-103177804D01*
X86518749Y-103347835D01*
X86608140Y-103502665D01*
X86727771Y-103635527D01*
X86872403Y-103740610D01*
X86872406Y-103740611D01*
X86872407Y-103740612D01*
X86981291Y-103789090D01*
X87035735Y-103813330D01*
X87210607Y-103850500D01*
X87210609Y-103850500D01*
X87389393Y-103850500D01*
X87564264Y-103813330D01*
X87564265Y-103813329D01*
X87564267Y-103813329D01*
X87727593Y-103740612D01*
X87739173Y-103732199D01*
X87789235Y-103695826D01*
X87872230Y-103635526D01*
X87991859Y-103502665D01*
X88081250Y-103347835D01*
X88136497Y-103177803D01*
X88155185Y-103000000D01*
X88154301Y-102991589D01*
X93753226Y-102991589D01*
X93771914Y-103169393D01*
X93827160Y-103339424D01*
X93916551Y-103494254D01*
X94036182Y-103627116D01*
X94180814Y-103732199D01*
X94344146Y-103804919D01*
X94519018Y-103842089D01*
X94519020Y-103842089D01*
X94697804Y-103842089D01*
X94872675Y-103804919D01*
X94872676Y-103804918D01*
X94872678Y-103804918D01*
X95036004Y-103732201D01*
X95075530Y-103703482D01*
X95141336Y-103680002D01*
X95209390Y-103695826D01*
X95221304Y-103703483D01*
X95272406Y-103740612D01*
X95435735Y-103813330D01*
X95610607Y-103850500D01*
X95610609Y-103850500D01*
X95789393Y-103850500D01*
X95964264Y-103813330D01*
X95964265Y-103813329D01*
X95964267Y-103813329D01*
X96127593Y-103740612D01*
X96139173Y-103732199D01*
X96189235Y-103695826D01*
X96272230Y-103635526D01*
X96391859Y-103502665D01*
X96481250Y-103347835D01*
X96536497Y-103177803D01*
X96555185Y-103000000D01*
X96536497Y-102822197D01*
X96507840Y-102734001D01*
X96481250Y-102652164D01*
X96391859Y-102497334D01*
X96272228Y-102364472D01*
X96127596Y-102259389D01*
X95964264Y-102186669D01*
X95789393Y-102149500D01*
X95789391Y-102149500D01*
X95610609Y-102149500D01*
X95610607Y-102149500D01*
X95435735Y-102186669D01*
X95272407Y-102259388D01*
X95232876Y-102288108D01*
X95167069Y-102311586D01*
X95099015Y-102295759D01*
X95087107Y-102288105D01*
X95036007Y-102250978D01*
X94872675Y-102178258D01*
X94697804Y-102141089D01*
X94697802Y-102141089D01*
X94519020Y-102141089D01*
X94519018Y-102141089D01*
X94344146Y-102178258D01*
X94180819Y-102250976D01*
X94036179Y-102356063D01*
X93916551Y-102488923D01*
X93827160Y-102643753D01*
X93771914Y-102813784D01*
X93753226Y-102991589D01*
X88154301Y-102991589D01*
X88136497Y-102822197D01*
X88107840Y-102734001D01*
X88081250Y-102652164D01*
X87991859Y-102497334D01*
X87872228Y-102364472D01*
X87727596Y-102259389D01*
X87564264Y-102186669D01*
X87389393Y-102149500D01*
X87389391Y-102149500D01*
X87210609Y-102149500D01*
X87210607Y-102149500D01*
X87035735Y-102186669D01*
X86872408Y-102259387D01*
X86727768Y-102364474D01*
X86608140Y-102497334D01*
X86518749Y-102652164D01*
X86463503Y-102822195D01*
X86444815Y-103000000D01*
X79424174Y-103000000D01*
X79421741Y-102999500D01*
X79269258Y-102999500D01*
X79266147Y-102999816D01*
X79266134Y-102999817D01*
X79117559Y-103014926D01*
X78923412Y-103075841D01*
X78745500Y-103174589D01*
X78591104Y-103307135D01*
X78466551Y-103468042D01*
X78376940Y-103650727D01*
X78325937Y-103847716D01*
X78315630Y-104050937D01*
X70004037Y-104050937D01*
X70003808Y-102300000D01*
X72794540Y-102300000D01*
X72814326Y-102488257D01*
X72872820Y-102668284D01*
X72967466Y-102832216D01*
X73094129Y-102972889D01*
X73247269Y-103084151D01*
X73420197Y-103161144D01*
X73605352Y-103200500D01*
X73605354Y-103200500D01*
X73794648Y-103200500D01*
X73940999Y-103169392D01*
X73979803Y-103161144D01*
X74152730Y-103084151D01*
X74212866Y-103040460D01*
X74305870Y-102972889D01*
X74432533Y-102832216D01*
X74527179Y-102668284D01*
X74535150Y-102643753D01*
X74585674Y-102488256D01*
X74605460Y-102300000D01*
X74585674Y-102111744D01*
X74527179Y-101931716D01*
X74527179Y-101931715D01*
X74432533Y-101767783D01*
X74305870Y-101627110D01*
X74152730Y-101515848D01*
X73979802Y-101438855D01*
X73794648Y-101399500D01*
X73794646Y-101399500D01*
X73605354Y-101399500D01*
X73605352Y-101399500D01*
X73420197Y-101438855D01*
X73247269Y-101515848D01*
X73094129Y-101627110D01*
X72967466Y-101767783D01*
X72872820Y-101931715D01*
X72814326Y-102111742D01*
X72794540Y-102300000D01*
X70003808Y-102300000D01*
X70003579Y-100550000D01*
X74144815Y-100550000D01*
X74163503Y-100727804D01*
X74218749Y-100897835D01*
X74308140Y-101052665D01*
X74427771Y-101185527D01*
X74572403Y-101290610D01*
X74735735Y-101363330D01*
X74910607Y-101400500D01*
X74910609Y-101400500D01*
X75089393Y-101400500D01*
X75264264Y-101363330D01*
X75264265Y-101363329D01*
X75264267Y-101363329D01*
X75427593Y-101290612D01*
X75572230Y-101185526D01*
X75691859Y-101052665D01*
X75708611Y-101023648D01*
X75759177Y-100975433D01*
X75827783Y-100962208D01*
X75892649Y-100988175D01*
X75908148Y-101002674D01*
X76027771Y-101135527D01*
X76172403Y-101240610D01*
X76335735Y-101313330D01*
X76510607Y-101350500D01*
X76510609Y-101350500D01*
X76689393Y-101350500D01*
X76864264Y-101313330D01*
X76864265Y-101313329D01*
X76864267Y-101313329D01*
X77027593Y-101240612D01*
X77172230Y-101135526D01*
X77291859Y-101002665D01*
X77342612Y-100914757D01*
X77393180Y-100866542D01*
X77461787Y-100853318D01*
X77526652Y-100879286D01*
X77557387Y-100914757D01*
X77608140Y-101002665D01*
X77727771Y-101135527D01*
X77872403Y-101240610D01*
X78035735Y-101313330D01*
X78210607Y-101350500D01*
X78210609Y-101350500D01*
X78389393Y-101350500D01*
X78564264Y-101313330D01*
X78564265Y-101313329D01*
X78564267Y-101313329D01*
X78727593Y-101240612D01*
X78872230Y-101135526D01*
X78991859Y-101002665D01*
X79081250Y-100847835D01*
X79136497Y-100677803D01*
X79155185Y-100500000D01*
X79136497Y-100322197D01*
X79081250Y-100152165D01*
X79081250Y-100152164D01*
X78991859Y-99997334D01*
X78872228Y-99864472D01*
X78727596Y-99759389D01*
X78564264Y-99686669D01*
X78389393Y-99649500D01*
X78389391Y-99649500D01*
X78210609Y-99649500D01*
X78210607Y-99649500D01*
X78035735Y-99686669D01*
X77872408Y-99759387D01*
X77727768Y-99864474D01*
X77608140Y-99997335D01*
X77557387Y-100085242D01*
X77506820Y-100133458D01*
X77438213Y-100146680D01*
X77373348Y-100120712D01*
X77342613Y-100085242D01*
X77291859Y-99997335D01*
X77217250Y-99914474D01*
X77172230Y-99864474D01*
X77172229Y-99864473D01*
X77172228Y-99864472D01*
X77027596Y-99759389D01*
X76864264Y-99686669D01*
X76689393Y-99649500D01*
X76689391Y-99649500D01*
X76510609Y-99649500D01*
X76510607Y-99649500D01*
X76335735Y-99686669D01*
X76172408Y-99759387D01*
X76027768Y-99864474D01*
X75908141Y-99997333D01*
X75891387Y-100026353D01*
X75840819Y-100074568D01*
X75772212Y-100087790D01*
X75707347Y-100061822D01*
X75691851Y-100047325D01*
X75572228Y-99914472D01*
X75427596Y-99809389D01*
X75264264Y-99736669D01*
X75089393Y-99699500D01*
X75089391Y-99699500D01*
X74910609Y-99699500D01*
X74910607Y-99699500D01*
X74735735Y-99736669D01*
X74572408Y-99809387D01*
X74427768Y-99914474D01*
X74308140Y-100047334D01*
X74218749Y-100202164D01*
X74163503Y-100372195D01*
X74144815Y-100550000D01*
X70003579Y-100550000D01*
X70003389Y-99100000D01*
X86494540Y-99100000D01*
X86514326Y-99288257D01*
X86572820Y-99468284D01*
X86667466Y-99632216D01*
X86794129Y-99772889D01*
X86947269Y-99884151D01*
X87120197Y-99961144D01*
X87305352Y-100000500D01*
X87305354Y-100000500D01*
X87494648Y-100000500D01*
X87618084Y-99974262D01*
X87679803Y-99961144D01*
X87852730Y-99884151D01*
X87879816Y-99864472D01*
X88005870Y-99772889D01*
X88018026Y-99759389D01*
X88132533Y-99632216D01*
X88227179Y-99468284D01*
X88285674Y-99288256D01*
X88305460Y-99100000D01*
X88285674Y-98911744D01*
X88227179Y-98731716D01*
X88227179Y-98731715D01*
X88132533Y-98567783D01*
X88005870Y-98427110D01*
X87852730Y-98315848D01*
X87679802Y-98238855D01*
X87494648Y-98199500D01*
X87494646Y-98199500D01*
X87305354Y-98199500D01*
X87305352Y-98199500D01*
X87120197Y-98238855D01*
X86947269Y-98315848D01*
X86794129Y-98427110D01*
X86667466Y-98567783D01*
X86572820Y-98731715D01*
X86514326Y-98911742D01*
X86494540Y-99100000D01*
X70003389Y-99100000D01*
X70003062Y-96600000D01*
X75844540Y-96600000D01*
X75864326Y-96788257D01*
X75922820Y-96968284D01*
X76017466Y-97132216D01*
X76144129Y-97272889D01*
X76297269Y-97384151D01*
X76470197Y-97461144D01*
X76655352Y-97500500D01*
X76655354Y-97500500D01*
X76844648Y-97500500D01*
X76968083Y-97474262D01*
X77029803Y-97461144D01*
X77202730Y-97384151D01*
X77355871Y-97272888D01*
X77482533Y-97132216D01*
X77577179Y-96968284D01*
X77635674Y-96788256D01*
X77655460Y-96600000D01*
X77635674Y-96411744D01*
X77577179Y-96231716D01*
X77577179Y-96231715D01*
X77482533Y-96067783D01*
X77355870Y-95927110D01*
X77202730Y-95815848D01*
X77029802Y-95738855D01*
X76844648Y-95699500D01*
X76844646Y-95699500D01*
X76655354Y-95699500D01*
X76655352Y-95699500D01*
X76470197Y-95738855D01*
X76297269Y-95815848D01*
X76144129Y-95927110D01*
X76017466Y-96067783D01*
X75922820Y-96231715D01*
X75864326Y-96411742D01*
X75844540Y-96600000D01*
X70003062Y-96600000D01*
X70002842Y-94919011D01*
X78920315Y-94919011D01*
X78939003Y-95096815D01*
X78994249Y-95266846D01*
X79083640Y-95421676D01*
X79203271Y-95554538D01*
X79347903Y-95659621D01*
X79347906Y-95659622D01*
X79347907Y-95659623D01*
X79437473Y-95699500D01*
X79511235Y-95732341D01*
X79686107Y-95769511D01*
X79686109Y-95769511D01*
X79864893Y-95769511D01*
X80039764Y-95732341D01*
X80039765Y-95732340D01*
X80039767Y-95732340D01*
X80203093Y-95659623D01*
X80347730Y-95554537D01*
X80467359Y-95421676D01*
X80556750Y-95266846D01*
X80611997Y-95096814D01*
X80630685Y-94919011D01*
X80611997Y-94741208D01*
X80556750Y-94571176D01*
X80556750Y-94571175D01*
X80486790Y-94450000D01*
X83444540Y-94450000D01*
X83464326Y-94638257D01*
X83522820Y-94818284D01*
X83617466Y-94982216D01*
X83744129Y-95122889D01*
X83897269Y-95234151D01*
X84048398Y-95301439D01*
X84101635Y-95346689D01*
X84121956Y-95413538D01*
X84115893Y-95453036D01*
X84064326Y-95611742D01*
X84044540Y-95800000D01*
X84064326Y-95988257D01*
X84122820Y-96168284D01*
X84217466Y-96332216D01*
X84344129Y-96472889D01*
X84497269Y-96584151D01*
X84670197Y-96661144D01*
X84855352Y-96700500D01*
X84855354Y-96700500D01*
X85044648Y-96700500D01*
X85168084Y-96674262D01*
X85229803Y-96661144D01*
X85402730Y-96584151D01*
X85517866Y-96500500D01*
X85555870Y-96472889D01*
X85682533Y-96332216D01*
X85777179Y-96168284D01*
X85789061Y-96131714D01*
X85835674Y-95988256D01*
X85855460Y-95800000D01*
X85835674Y-95611744D01*
X85831858Y-95600000D01*
X88994540Y-95600000D01*
X89003816Y-95688256D01*
X89014326Y-95788257D01*
X89072820Y-95968284D01*
X89167466Y-96132216D01*
X89294129Y-96272889D01*
X89447269Y-96384151D01*
X89620197Y-96461144D01*
X89805352Y-96500500D01*
X89805354Y-96500500D01*
X89919829Y-96500500D01*
X89986868Y-96520185D01*
X90027216Y-96562500D01*
X90067466Y-96632216D01*
X90194129Y-96772889D01*
X90347269Y-96884151D01*
X90520197Y-96961144D01*
X90705352Y-97000500D01*
X90705354Y-97000500D01*
X90894646Y-97000500D01*
X91033215Y-96971046D01*
X91102879Y-96976362D01*
X91158613Y-97018498D01*
X91166381Y-97030336D01*
X91167466Y-97032215D01*
X91294129Y-97172889D01*
X91447269Y-97284151D01*
X91620197Y-97361144D01*
X91805352Y-97400500D01*
X91805354Y-97400500D01*
X91994648Y-97400500D01*
X92118084Y-97374262D01*
X92179803Y-97361144D01*
X92352730Y-97284151D01*
X92505871Y-97172888D01*
X92632533Y-97032216D01*
X92727179Y-96868284D01*
X92785674Y-96688256D01*
X92805460Y-96500000D01*
X92785674Y-96311744D01*
X92727179Y-96131716D01*
X92727178Y-96131714D01*
X92686928Y-96061999D01*
X92670455Y-95994099D01*
X92686926Y-95938002D01*
X92727179Y-95868284D01*
X92785674Y-95688256D01*
X92805460Y-95500000D01*
X92785674Y-95311744D01*
X92727179Y-95131716D01*
X92686927Y-95061999D01*
X92670455Y-94994100D01*
X92686928Y-94938000D01*
X92699795Y-94915714D01*
X92727179Y-94868284D01*
X92785674Y-94688256D01*
X92805460Y-94500000D01*
X92785674Y-94311744D01*
X92749528Y-94200500D01*
X92727179Y-94131715D01*
X92632533Y-93967783D01*
X92505870Y-93827110D01*
X92352730Y-93715848D01*
X92179802Y-93638855D01*
X91994648Y-93599500D01*
X91994646Y-93599500D01*
X91805354Y-93599500D01*
X91805352Y-93599500D01*
X91620197Y-93638855D01*
X91447269Y-93715848D01*
X91294129Y-93827110D01*
X91167466Y-93967783D01*
X91066305Y-94143002D01*
X91063552Y-94141412D01*
X91035767Y-94182041D01*
X90971406Y-94209235D01*
X90931501Y-94207333D01*
X90894646Y-94199500D01*
X90705354Y-94199500D01*
X90705352Y-94199500D01*
X90520197Y-94238855D01*
X90347269Y-94315848D01*
X90194129Y-94427110D01*
X90067466Y-94567783D01*
X90027216Y-94637500D01*
X89976649Y-94685716D01*
X89919829Y-94699500D01*
X89805352Y-94699500D01*
X89620197Y-94738855D01*
X89447269Y-94815848D01*
X89294129Y-94927110D01*
X89167466Y-95067783D01*
X89072820Y-95231715D01*
X89014326Y-95411742D01*
X89014325Y-95411744D01*
X89014326Y-95411744D01*
X88994540Y-95600000D01*
X85831858Y-95600000D01*
X85799366Y-95499999D01*
X85777179Y-95431715D01*
X85682533Y-95267783D01*
X85555870Y-95127110D01*
X85402730Y-95015848D01*
X85251601Y-94948560D01*
X85198364Y-94903310D01*
X85178043Y-94836461D01*
X85184105Y-94796966D01*
X85235674Y-94638256D01*
X85255460Y-94450000D01*
X85235674Y-94261744D01*
X85184966Y-94105682D01*
X85177179Y-94081715D01*
X85082533Y-93917783D01*
X84955870Y-93777110D01*
X84802730Y-93665848D01*
X84629802Y-93588855D01*
X84444648Y-93549500D01*
X84444646Y-93549500D01*
X84255354Y-93549500D01*
X84255352Y-93549500D01*
X84070197Y-93588855D01*
X83897269Y-93665848D01*
X83744129Y-93777110D01*
X83617466Y-93917783D01*
X83522820Y-94081715D01*
X83464326Y-94261742D01*
X83444540Y-94450000D01*
X80486790Y-94450000D01*
X80467359Y-94416345D01*
X80451482Y-94398712D01*
X80421252Y-94335720D01*
X80429877Y-94266385D01*
X80474619Y-94212720D01*
X80517845Y-94194451D01*
X80664267Y-94163329D01*
X80827593Y-94090612D01*
X80849687Y-94074560D01*
X80948695Y-94002625D01*
X80972230Y-93985526D01*
X81091859Y-93852665D01*
X81181250Y-93697835D01*
X81236497Y-93527803D01*
X81255185Y-93350000D01*
X81236497Y-93172197D01*
X81181250Y-93002165D01*
X81181250Y-93002164D01*
X81091859Y-92847334D01*
X80972228Y-92714472D01*
X80827596Y-92609389D01*
X80664264Y-92536669D01*
X80489393Y-92499500D01*
X80489391Y-92499500D01*
X80310609Y-92499500D01*
X80310607Y-92499500D01*
X80135735Y-92536669D01*
X79972408Y-92609387D01*
X79827768Y-92714474D01*
X79708140Y-92847334D01*
X79618749Y-93002164D01*
X79563503Y-93172195D01*
X79544815Y-93350000D01*
X79563503Y-93527804D01*
X79618749Y-93697835D01*
X79708140Y-93852665D01*
X79724017Y-93870298D01*
X79754247Y-93933290D01*
X79745621Y-94002625D01*
X79700880Y-94056291D01*
X79657648Y-94074560D01*
X79511235Y-94105680D01*
X79347908Y-94178398D01*
X79203268Y-94283485D01*
X79083640Y-94416345D01*
X78994249Y-94571175D01*
X78939003Y-94741206D01*
X78920315Y-94919011D01*
X70002842Y-94919011D01*
X70002461Y-92000000D01*
X81344815Y-92000000D01*
X81363503Y-92177804D01*
X81418749Y-92347835D01*
X81508140Y-92502665D01*
X81627771Y-92635527D01*
X81772403Y-92740610D01*
X81935735Y-92813330D01*
X82110607Y-92850500D01*
X82110609Y-92850500D01*
X82289393Y-92850500D01*
X82464264Y-92813330D01*
X82464265Y-92813329D01*
X82464267Y-92813329D01*
X82627593Y-92740612D01*
X82772230Y-92635526D01*
X82891859Y-92502665D01*
X82981250Y-92347835D01*
X83036497Y-92177803D01*
X83055185Y-92000000D01*
X83036497Y-91822197D01*
X82997007Y-91700662D01*
X82995013Y-91630823D01*
X83022789Y-91579374D01*
X83091859Y-91502665D01*
X83181250Y-91347835D01*
X83236497Y-91177803D01*
X83255185Y-91000000D01*
X83236497Y-90822197D01*
X83207840Y-90734001D01*
X83181250Y-90652164D01*
X83133524Y-90569501D01*
X83117051Y-90501601D01*
X83133523Y-90445504D01*
X83179191Y-90366407D01*
X83233261Y-90199999D01*
X86944815Y-90199999D01*
X86963503Y-90377804D01*
X87018749Y-90547835D01*
X87108140Y-90702665D01*
X87227771Y-90835527D01*
X87372403Y-90940610D01*
X87372406Y-90940611D01*
X87372407Y-90940612D01*
X87455940Y-90977803D01*
X87535735Y-91013330D01*
X87710607Y-91050500D01*
X87710609Y-91050500D01*
X87889391Y-91050500D01*
X88010252Y-91024810D01*
X88079917Y-91030126D01*
X88135651Y-91072262D01*
X88159757Y-91137842D01*
X88159353Y-91159061D01*
X88144540Y-91299999D01*
X88164326Y-91488257D01*
X88222820Y-91668284D01*
X88317466Y-91832216D01*
X88444129Y-91972889D01*
X88597269Y-92084151D01*
X88770197Y-92161144D01*
X88955352Y-92200500D01*
X88955354Y-92200500D01*
X89144648Y-92200500D01*
X89268084Y-92174262D01*
X89329803Y-92161144D01*
X89502730Y-92084151D01*
X89502730Y-92084150D01*
X89655870Y-91972889D01*
X89782533Y-91832216D01*
X89877179Y-91668284D01*
X89930992Y-91502665D01*
X89935674Y-91488256D01*
X89955460Y-91300000D01*
X89935674Y-91111744D01*
X89892154Y-90977803D01*
X89877179Y-90931715D01*
X89858868Y-90900000D01*
X95294540Y-90900000D01*
X95314326Y-91088257D01*
X95372820Y-91268284D01*
X95467466Y-91432216D01*
X95594129Y-91572889D01*
X95747269Y-91684151D01*
X95920197Y-91761144D01*
X96105352Y-91800500D01*
X96105354Y-91800500D01*
X96294648Y-91800500D01*
X96418083Y-91774262D01*
X96479803Y-91761144D01*
X96652730Y-91684151D01*
X96805871Y-91572888D01*
X96932533Y-91432216D01*
X97027179Y-91268284D01*
X97085674Y-91088256D01*
X97105460Y-90900000D01*
X97085674Y-90711744D01*
X97048235Y-90596520D01*
X97027179Y-90531715D01*
X96932533Y-90367783D01*
X96805870Y-90227110D01*
X96652730Y-90115848D01*
X96479802Y-90038855D01*
X96294648Y-89999500D01*
X96294646Y-89999500D01*
X96105354Y-89999500D01*
X96105352Y-89999500D01*
X95920197Y-90038855D01*
X95747269Y-90115848D01*
X95594129Y-90227110D01*
X95467466Y-90367783D01*
X95372820Y-90531715D01*
X95314326Y-90711742D01*
X95294540Y-90900000D01*
X89858868Y-90900000D01*
X89782533Y-90767783D01*
X89655870Y-90627110D01*
X89502730Y-90515848D01*
X89329802Y-90438855D01*
X89144648Y-90399500D01*
X89144646Y-90399500D01*
X88955354Y-90399500D01*
X88955351Y-90399500D01*
X88793818Y-90433834D01*
X88724151Y-90428518D01*
X88668418Y-90386381D01*
X88644313Y-90320801D01*
X88644716Y-90299598D01*
X88655185Y-90200000D01*
X88636497Y-90022197D01*
X88581250Y-89852165D01*
X88581250Y-89852164D01*
X88491859Y-89697334D01*
X88372228Y-89564472D01*
X88227596Y-89459389D01*
X88064264Y-89386669D01*
X87889393Y-89349500D01*
X87889391Y-89349500D01*
X87710609Y-89349500D01*
X87710607Y-89349500D01*
X87535735Y-89386669D01*
X87372408Y-89459387D01*
X87227768Y-89564474D01*
X87108140Y-89697334D01*
X87018749Y-89852164D01*
X86963503Y-90022195D01*
X86944815Y-90199999D01*
X83233261Y-90199999D01*
X83237686Y-90186379D01*
X83257472Y-89998123D01*
X83237686Y-89809867D01*
X83179191Y-89629839D01*
X83179191Y-89629838D01*
X83084545Y-89465906D01*
X82957882Y-89325233D01*
X82804742Y-89213971D01*
X82631814Y-89136978D01*
X82446660Y-89097623D01*
X82446658Y-89097623D01*
X82257366Y-89097623D01*
X82257364Y-89097623D01*
X82072209Y-89136978D01*
X81899281Y-89213971D01*
X81746141Y-89325233D01*
X81619478Y-89465906D01*
X81524832Y-89629838D01*
X81466338Y-89809865D01*
X81446552Y-89998122D01*
X81466338Y-90186380D01*
X81524832Y-90366407D01*
X81618486Y-90528620D01*
X81634959Y-90596520D01*
X81622305Y-90639616D01*
X81622777Y-90639770D01*
X81563503Y-90822195D01*
X81544815Y-91000000D01*
X81563503Y-91177804D01*
X81602991Y-91299335D01*
X81604986Y-91369176D01*
X81577210Y-91420625D01*
X81508140Y-91497334D01*
X81418749Y-91652164D01*
X81363503Y-91822195D01*
X81344815Y-92000000D01*
X70002461Y-92000000D01*
X70002304Y-90800000D01*
X73344815Y-90800000D01*
X73363503Y-90977804D01*
X73418749Y-91147835D01*
X73508140Y-91302665D01*
X73627771Y-91435527D01*
X73772403Y-91540610D01*
X73935735Y-91613330D01*
X74110607Y-91650500D01*
X74110609Y-91650500D01*
X74289393Y-91650500D01*
X74464264Y-91613330D01*
X74464265Y-91613329D01*
X74464267Y-91613329D01*
X74627593Y-91540612D01*
X74772230Y-91435526D01*
X74891859Y-91302665D01*
X74981250Y-91147835D01*
X75036497Y-90977803D01*
X75055185Y-90800000D01*
X75036497Y-90622197D01*
X74981250Y-90452165D01*
X74981250Y-90452164D01*
X74891859Y-90297334D01*
X74772228Y-90164472D01*
X74627596Y-90059389D01*
X74464264Y-89986669D01*
X74289393Y-89949500D01*
X74289391Y-89949500D01*
X74110609Y-89949500D01*
X74110607Y-89949500D01*
X73935735Y-89986669D01*
X73772408Y-90059387D01*
X73627768Y-90164474D01*
X73508140Y-90297334D01*
X73418749Y-90452164D01*
X73363503Y-90622195D01*
X73344815Y-90800000D01*
X70002304Y-90800000D01*
X70001964Y-88199999D01*
X72544040Y-88199999D01*
X72563826Y-88388257D01*
X72622320Y-88568284D01*
X72716966Y-88732216D01*
X72843629Y-88872889D01*
X72996769Y-88984151D01*
X73169697Y-89061144D01*
X73354852Y-89100500D01*
X73354854Y-89100500D01*
X73544148Y-89100500D01*
X73667584Y-89074262D01*
X73729303Y-89061144D01*
X73902230Y-88984151D01*
X74055371Y-88872888D01*
X74182033Y-88732216D01*
X74276679Y-88568284D01*
X74335174Y-88388256D01*
X74354960Y-88200000D01*
X74335174Y-88011744D01*
X74331358Y-88000000D01*
X81744815Y-88000000D01*
X81763503Y-88177804D01*
X81818749Y-88347835D01*
X81908140Y-88502665D01*
X82027771Y-88635527D01*
X82172403Y-88740610D01*
X82335735Y-88813330D01*
X82510607Y-88850500D01*
X82510609Y-88850500D01*
X82689393Y-88850500D01*
X82864264Y-88813330D01*
X82864265Y-88813329D01*
X82864267Y-88813329D01*
X83027593Y-88740612D01*
X83172230Y-88635526D01*
X83291859Y-88502665D01*
X83381250Y-88347835D01*
X83436497Y-88177803D01*
X83455185Y-88000000D01*
X83436497Y-87822197D01*
X83381250Y-87652165D01*
X83381250Y-87652164D01*
X83291859Y-87497334D01*
X83172228Y-87364472D01*
X83027596Y-87259389D01*
X82864264Y-87186669D01*
X82689393Y-87149500D01*
X82689391Y-87149500D01*
X82510609Y-87149500D01*
X82510607Y-87149500D01*
X82335735Y-87186669D01*
X82172408Y-87259387D01*
X82027768Y-87364474D01*
X81908140Y-87497334D01*
X81818749Y-87652164D01*
X81763503Y-87822195D01*
X81744815Y-88000000D01*
X74331358Y-88000000D01*
X74276679Y-87831716D01*
X74276679Y-87831715D01*
X74182033Y-87667783D01*
X74055370Y-87527110D01*
X73902230Y-87415848D01*
X73729302Y-87338855D01*
X73544148Y-87299500D01*
X73544146Y-87299500D01*
X73354854Y-87299500D01*
X73354852Y-87299500D01*
X73169697Y-87338855D01*
X72996769Y-87415848D01*
X72843629Y-87527110D01*
X72716966Y-87667783D01*
X72622320Y-87831715D01*
X72563826Y-88011742D01*
X72544040Y-88199999D01*
X70001964Y-88199999D01*
X70001506Y-84699999D01*
X72494540Y-84699999D01*
X72514326Y-84888257D01*
X72572820Y-85068284D01*
X72667464Y-85232213D01*
X72667467Y-85232216D01*
X72732452Y-85304389D01*
X72762682Y-85367380D01*
X72754057Y-85436715D01*
X72732453Y-85470332D01*
X72708140Y-85497334D01*
X72618749Y-85652164D01*
X72563503Y-85822195D01*
X72544815Y-86000000D01*
X72563503Y-86177804D01*
X72618749Y-86347835D01*
X72708140Y-86502665D01*
X72827771Y-86635527D01*
X72972403Y-86740610D01*
X73135735Y-86813330D01*
X73310607Y-86850500D01*
X73310609Y-86850500D01*
X73489393Y-86850500D01*
X73664264Y-86813330D01*
X73664265Y-86813329D01*
X73664267Y-86813329D01*
X73827593Y-86740612D01*
X73972230Y-86635526D01*
X74004219Y-86599999D01*
X87944815Y-86599999D01*
X87963503Y-86777804D01*
X88018749Y-86947835D01*
X88108140Y-87102665D01*
X88227771Y-87235527D01*
X88372403Y-87340610D01*
X88535735Y-87413330D01*
X88710607Y-87450500D01*
X88710609Y-87450500D01*
X88889393Y-87450500D01*
X89064264Y-87413330D01*
X89064265Y-87413329D01*
X89064267Y-87413329D01*
X89227593Y-87340612D01*
X89230012Y-87338855D01*
X89284178Y-87299500D01*
X89372230Y-87235526D01*
X89491859Y-87102665D01*
X89581250Y-86947835D01*
X89636497Y-86777803D01*
X89655185Y-86600000D01*
X89636497Y-86422197D01*
X89581250Y-86252165D01*
X89581250Y-86252164D01*
X89491859Y-86097334D01*
X89372228Y-85964472D01*
X89227596Y-85859389D01*
X89064264Y-85786669D01*
X88889393Y-85749500D01*
X88889391Y-85749500D01*
X88710609Y-85749500D01*
X88710607Y-85749500D01*
X88535735Y-85786669D01*
X88372408Y-85859387D01*
X88227768Y-85964474D01*
X88108140Y-86097334D01*
X88018749Y-86252164D01*
X87963503Y-86422195D01*
X87944815Y-86599999D01*
X74004219Y-86599999D01*
X74091859Y-86502665D01*
X74181250Y-86347835D01*
X74236497Y-86177803D01*
X74255185Y-86000000D01*
X74236497Y-85822197D01*
X74196955Y-85700500D01*
X74181250Y-85652164D01*
X74091859Y-85497335D01*
X74067548Y-85470335D01*
X74037318Y-85407344D01*
X74045942Y-85338009D01*
X74067548Y-85304389D01*
X74132533Y-85232216D01*
X74227179Y-85068284D01*
X74285674Y-84888256D01*
X74305460Y-84700000D01*
X74285674Y-84511744D01*
X74227179Y-84331716D01*
X74227179Y-84331715D01*
X74132533Y-84167783D01*
X74071501Y-84100000D01*
X82744815Y-84100000D01*
X82763503Y-84277804D01*
X82818749Y-84447835D01*
X82908140Y-84602665D01*
X83027771Y-84735527D01*
X83172403Y-84840610D01*
X83335735Y-84913330D01*
X83510607Y-84950500D01*
X83510609Y-84950500D01*
X83689393Y-84950500D01*
X83864264Y-84913330D01*
X83864265Y-84913329D01*
X83864267Y-84913329D01*
X84027593Y-84840612D01*
X84172230Y-84735526D01*
X84291859Y-84602665D01*
X84381250Y-84447835D01*
X84436497Y-84277803D01*
X84455185Y-84100000D01*
X84436497Y-83922197D01*
X84413876Y-83852579D01*
X84411882Y-83782741D01*
X84447962Y-83722908D01*
X84510663Y-83692080D01*
X84580077Y-83700044D01*
X84623956Y-83731290D01*
X84627770Y-83735526D01*
X84671833Y-83767540D01*
X84772403Y-83840610D01*
X84772406Y-83840611D01*
X84772407Y-83840612D01*
X84896174Y-83895716D01*
X84949411Y-83940966D01*
X84969733Y-84007815D01*
X84950688Y-84075039D01*
X84918626Y-84109313D01*
X84894129Y-84127111D01*
X84767466Y-84267783D01*
X84672820Y-84431715D01*
X84614326Y-84611742D01*
X84594540Y-84800000D01*
X84614326Y-84988257D01*
X84672820Y-85168284D01*
X84767466Y-85332216D01*
X84894129Y-85472889D01*
X85047269Y-85584151D01*
X85220197Y-85661144D01*
X85405352Y-85700500D01*
X85405354Y-85700500D01*
X85594648Y-85700500D01*
X85718083Y-85674262D01*
X85779803Y-85661144D01*
X85952730Y-85584151D01*
X85952730Y-85584150D01*
X86105870Y-85472889D01*
X86232533Y-85332216D01*
X86327179Y-85168284D01*
X86359671Y-85068284D01*
X86385674Y-84988256D01*
X86405460Y-84800000D01*
X86385674Y-84611744D01*
X86353181Y-84511742D01*
X86327179Y-84431715D01*
X86232533Y-84267783D01*
X86105870Y-84127110D01*
X85952734Y-84015850D01*
X85855570Y-83972590D01*
X85797786Y-83946863D01*
X85744551Y-83901613D01*
X85724230Y-83834764D01*
X85743275Y-83767540D01*
X85763866Y-83745530D01*
X85763510Y-83745210D01*
X85891859Y-83602665D01*
X85981250Y-83447835D01*
X86009988Y-83359388D01*
X86036497Y-83277803D01*
X86055185Y-83100000D01*
X86036497Y-82922197D01*
X85981250Y-82752165D01*
X85981250Y-82752164D01*
X85891859Y-82597334D01*
X85772228Y-82464472D01*
X85627596Y-82359389D01*
X85464264Y-82286669D01*
X85289393Y-82249500D01*
X85289391Y-82249500D01*
X85110609Y-82249500D01*
X85110607Y-82249500D01*
X84935735Y-82286669D01*
X84772408Y-82359387D01*
X84627768Y-82464474D01*
X84508140Y-82597334D01*
X84418749Y-82752164D01*
X84363503Y-82922195D01*
X84344815Y-83099999D01*
X84363503Y-83277804D01*
X84386122Y-83347417D01*
X84388117Y-83417259D01*
X84352036Y-83477091D01*
X84289335Y-83507919D01*
X84219921Y-83499954D01*
X84176042Y-83468708D01*
X84172228Y-83464472D01*
X84027596Y-83359389D01*
X83864264Y-83286669D01*
X83689393Y-83249500D01*
X83689391Y-83249500D01*
X83510609Y-83249500D01*
X83510607Y-83249500D01*
X83335735Y-83286669D01*
X83172408Y-83359387D01*
X83027768Y-83464474D01*
X82908140Y-83597334D01*
X82818749Y-83752164D01*
X82763503Y-83922195D01*
X82744815Y-84100000D01*
X74071501Y-84100000D01*
X74005870Y-84027110D01*
X73852730Y-83915848D01*
X73679802Y-83838855D01*
X73494648Y-83799500D01*
X73494646Y-83799500D01*
X73305354Y-83799500D01*
X73305352Y-83799500D01*
X73120197Y-83838855D01*
X72947269Y-83915848D01*
X72794129Y-84027110D01*
X72667466Y-84167783D01*
X72572820Y-84331715D01*
X72514326Y-84511742D01*
X72494540Y-84699999D01*
X70001506Y-84699999D01*
X70000735Y-78799999D01*
X83344540Y-78799999D01*
X83364326Y-78988257D01*
X83422820Y-79168284D01*
X83517466Y-79332216D01*
X83644129Y-79472889D01*
X83797269Y-79584151D01*
X83970197Y-79661144D01*
X84155352Y-79700500D01*
X84155354Y-79700500D01*
X84344648Y-79700500D01*
X84468084Y-79674262D01*
X84529803Y-79661144D01*
X84702730Y-79584151D01*
X84855870Y-79472889D01*
X84982533Y-79332216D01*
X85077179Y-79168284D01*
X85093425Y-79118284D01*
X85135674Y-78988256D01*
X85155460Y-78800000D01*
X85150205Y-78750000D01*
X88294540Y-78750000D01*
X88314326Y-78938257D01*
X88372820Y-79118284D01*
X88467466Y-79282216D01*
X88594129Y-79422889D01*
X88747269Y-79534151D01*
X88920197Y-79611144D01*
X89105352Y-79650500D01*
X89105354Y-79650500D01*
X89294648Y-79650500D01*
X89418083Y-79624262D01*
X89479803Y-79611144D01*
X89652730Y-79534151D01*
X89805871Y-79422888D01*
X89932533Y-79282216D01*
X90027179Y-79118284D01*
X90085674Y-78938256D01*
X90105460Y-78750000D01*
X90085674Y-78561744D01*
X90027179Y-78381716D01*
X90027179Y-78381715D01*
X89932533Y-78217783D01*
X89805870Y-78077110D01*
X89652730Y-77965848D01*
X89479802Y-77888855D01*
X89294648Y-77849500D01*
X89294646Y-77849500D01*
X89105354Y-77849500D01*
X89105352Y-77849500D01*
X88920197Y-77888855D01*
X88747269Y-77965848D01*
X88594129Y-78077110D01*
X88467466Y-78217783D01*
X88372820Y-78381715D01*
X88314326Y-78561742D01*
X88294540Y-78750000D01*
X85150205Y-78750000D01*
X85135674Y-78611744D01*
X85077179Y-78431716D01*
X85077179Y-78431715D01*
X84982533Y-78267783D01*
X84855870Y-78127110D01*
X84702730Y-78015848D01*
X84529802Y-77938855D01*
X84344648Y-77899500D01*
X84344646Y-77899500D01*
X84155354Y-77899500D01*
X84155352Y-77899500D01*
X83970197Y-77938855D01*
X83797269Y-78015848D01*
X83644129Y-78127110D01*
X83517466Y-78267783D01*
X83422820Y-78431715D01*
X83364326Y-78611742D01*
X83344540Y-78799999D01*
X70000735Y-78799999D01*
X70000501Y-77009567D01*
X70001959Y-76990599D01*
X70005927Y-76964948D01*
X70027302Y-76838535D01*
X70033066Y-76816755D01*
X70053174Y-76761641D01*
X70055027Y-76756876D01*
X70090450Y-76671171D01*
X70099077Y-76654149D01*
X70132784Y-76598699D01*
X70137514Y-76591498D01*
X70187639Y-76520738D01*
X70197436Y-76508610D01*
X70242619Y-76459379D01*
X70251233Y-76450872D01*
X70314829Y-76393951D01*
X70324227Y-76386336D01*
X70378158Y-76346859D01*
X70391298Y-76338459D01*
X70467164Y-76296454D01*
X70474799Y-76292569D01*
X70533676Y-76265172D01*
X70551539Y-76258481D01*
X70640607Y-76232749D01*
X70645602Y-76231419D01*
X70702566Y-76217529D01*
X70724873Y-76214203D01*
X70852264Y-76206947D01*
X70882309Y-76205660D01*
X70894584Y-76205753D01*
X70916572Y-76207025D01*
X70936754Y-76205304D01*
X74080179Y-76199633D01*
X74147253Y-76219197D01*
X74193103Y-76271918D01*
X74203171Y-76341059D01*
X74174261Y-76404667D01*
X74172552Y-76406605D01*
X74117466Y-76467783D01*
X74022820Y-76631715D01*
X73964326Y-76811742D01*
X73944540Y-76999999D01*
X73964326Y-77188257D01*
X74022820Y-77368284D01*
X74117466Y-77532216D01*
X74244129Y-77672889D01*
X74397269Y-77784151D01*
X74570197Y-77861144D01*
X74755352Y-77900500D01*
X74755354Y-77900500D01*
X74944648Y-77900500D01*
X75068083Y-77874262D01*
X75129803Y-77861144D01*
X75302730Y-77784151D01*
X75455871Y-77672888D01*
X75582533Y-77532216D01*
X75677179Y-77368284D01*
X75735674Y-77188256D01*
X75755460Y-77000000D01*
X75735674Y-76811744D01*
X75677179Y-76631716D01*
X75677179Y-76631715D01*
X75582533Y-76467783D01*
X75524951Y-76403832D01*
X75494721Y-76340841D01*
X75503346Y-76271505D01*
X75548088Y-76217840D01*
X75614740Y-76196882D01*
X75616781Y-76196860D01*
X76229772Y-76195754D01*
X76241277Y-76199110D01*
X76299155Y-76195817D01*
X76305971Y-76195617D01*
X76308309Y-76195613D01*
X76315368Y-76195802D01*
X76394580Y-76200192D01*
X76394580Y-76200191D01*
X76394582Y-76200192D01*
X76450530Y-76192251D01*
X76465391Y-76194415D01*
X76486108Y-76188430D01*
X76503087Y-76184790D01*
X76559089Y-76176842D01*
X76631837Y-76151324D01*
X76648074Y-76150483D01*
X76662847Y-76142305D01*
X76681866Y-76133777D01*
X76715882Y-76121846D01*
X76796542Y-76074182D01*
X76813999Y-76069760D01*
X76824278Y-76060560D01*
X76843885Y-76046207D01*
X76858932Y-76037316D01*
X76858997Y-76037257D01*
X76881633Y-76021171D01*
X76883742Y-76020003D01*
X76901533Y-75999186D01*
X76940129Y-75964640D01*
X76957875Y-75956188D01*
X76964186Y-75947281D01*
X76982671Y-75926564D01*
X76982741Y-75926502D01*
X76993238Y-75912530D01*
X77009671Y-75894626D01*
X77014083Y-75890676D01*
X77026276Y-75868561D01*
X77044803Y-75843904D01*
X77082552Y-75793663D01*
X77098164Y-75761177D01*
X77108739Y-75743222D01*
X77114338Y-75735318D01*
X77121132Y-75713391D01*
X77154529Y-75643904D01*
X77168609Y-75589143D01*
X77174105Y-75572656D01*
X77179756Y-75558982D01*
X77181827Y-75537732D01*
X77195094Y-75486133D01*
X77195905Y-75482980D01*
X77199255Y-75422458D01*
X77200500Y-75417238D01*
X77200500Y-75407448D01*
X77202235Y-75386779D01*
X77205902Y-75365082D01*
X77204924Y-75363498D01*
X77200500Y-75330673D01*
X77200500Y-71109563D01*
X77201957Y-71090608D01*
X77205932Y-71064910D01*
X77227302Y-70938535D01*
X77233066Y-70916755D01*
X77253174Y-70861641D01*
X77255027Y-70856876D01*
X77290450Y-70771171D01*
X77299077Y-70754149D01*
X77332784Y-70698699D01*
X77337514Y-70691498D01*
X77387639Y-70620738D01*
X77397436Y-70608610D01*
X77442619Y-70559379D01*
X77451233Y-70550872D01*
X77514829Y-70493951D01*
X77524227Y-70486336D01*
X77578158Y-70446859D01*
X77591298Y-70438459D01*
X77667164Y-70396454D01*
X77674799Y-70392569D01*
X77733676Y-70365172D01*
X77751539Y-70358481D01*
X77840607Y-70332749D01*
X77845602Y-70331419D01*
X77902566Y-70317529D01*
X77924873Y-70314203D01*
X78052264Y-70306947D01*
X78082288Y-70305661D01*
X78094603Y-70305756D01*
X78116884Y-70307050D01*
X78136810Y-70305375D01*
X91895312Y-70300503D01*
X91914299Y-70301959D01*
G37*
%TD.AperFunction*%
%TD*%
M02*
