M48
; DRILL file {KiCad 7.0.2-6a45011f42~172~ubuntu22.04.1} date Sun 14 May 2023 19:46:33
; FORMAT={-:-/ absolute / metric / decimal}
; #@! TF.CreationDate,2023-05-14T19:46:33+02:00
; #@! TF.GenerationSoftware,Kicad,Pcbnew,7.0.2-6a45011f42~172~ubuntu22.04.1
; #@! TF.FileFunction,Plated,1,4,PTH
FMAT,2
METRIC
; #@! TA.AperFunction,Plated,PTH,ViaDrill
T1C0.400
; #@! TA.AperFunction,Plated,PTH,ComponentDrill
T2C0.400
; #@! TA.AperFunction,Plated,PTH,ComponentDrill
T3C0.600
%
G90
G05
T1
X70.9Y-77.1
X70.9Y-78.798
X70.9Y-80.495
X70.9Y-82.193
X70.9Y-83.891
X70.9Y-85.589
X70.9Y-87.286
X70.9Y-88.984
X70.9Y-90.682
X70.9Y-92.38
X70.9Y-94.077
X70.9Y-95.775
X70.9Y-97.473
X70.9Y-99.17
X70.9Y-100.868
X70.9Y-102.566
X70.9Y-104.264
X70.9Y-105.961
X70.9Y-107.659
X70.9Y-109.357
X70.9Y-111.055
X70.9Y-112.752
X70.9Y-114.45
X72.55Y-77.1
X72.918Y-114.45
X73.4Y-84.7
X73.4Y-86.0
X73.45Y-88.2
X73.7Y-102.3
X74.15Y-93.15
X74.2Y-90.8
X74.2Y-94.55
X74.85Y-77.0
X74.936Y-114.45
X74.95Y-92.45
X75.0Y-100.55
X76.6Y-100.5
X76.75Y-96.6
X76.954Y-114.45
X77.2Y-88.2
X77.22Y-89.2
X77.25Y-90.15
X78.2Y-88.2
X78.22Y-89.2
X78.25Y-90.15
X78.3Y-100.5
X78.971Y-114.45
X79.2Y-88.2
X79.22Y-89.2
X79.25Y-90.15
X79.775Y-94.919
X79.95Y-100.0
X80.4Y-93.35
X80.989Y-114.45
X82.2Y-92.0
X82.352Y-89.998
X82.4Y-91.0
X82.6Y-88.0
X83.007Y-114.45
X83.6Y-84.1
X84.25Y-78.8
X84.35Y-94.45
X84.95Y-95.8
X85.025Y-114.45
X85.2Y-83.1
X85.25Y-105.2
X85.5Y-84.8
X86.092Y-83.425
X87.043Y-114.45
X87.1Y-86.3
X87.3Y-103.0
X87.4Y-99.1
X87.8Y-90.2
X87.8Y-105.7
X88.8Y-86.6
X89.05Y-91.3
X89.061Y-114.45
X89.2Y-78.75
X89.9Y-92.85
X89.9Y-95.6
X90.8Y-95.1
X90.8Y-96.1
X91.079Y-114.45
X91.096Y-77.15
X91.8Y-91.85
X91.9Y-94.5
X91.9Y-95.5
X91.9Y-96.5
X92.6Y-105.6
X93.096Y-114.45
X93.114Y-77.15
X94.608Y-102.992
X95.05Y-105.4
X95.114Y-114.45
X95.132Y-77.15
X95.7Y-103.0
X96.2Y-90.9
X97.132Y-114.45
X97.15Y-77.15
X99.15Y-77.15
X99.15Y-78.848
X99.15Y-80.545
X99.15Y-82.243
X99.15Y-83.941
X99.15Y-85.639
X99.15Y-87.336
X99.15Y-89.034
X99.15Y-90.732
X99.15Y-92.43
X99.15Y-94.127
X99.15Y-95.825
X99.15Y-97.523
X99.15Y-99.22
X99.15Y-100.918
X99.15Y-102.616
X99.15Y-104.314
X99.15Y-106.011
X99.15Y-107.709
X99.15Y-109.407
X99.15Y-111.105
X99.15Y-112.802
X99.15Y-114.45
T2
X91.67Y-75.74
T3
X85.9Y-108.145G85X85.9Y-107.045
G05
X85.9Y-112.165G85X85.9Y-111.365
G05
X94.54Y-108.145G85X94.54Y-107.045
G05
X94.54Y-112.165G85X94.54Y-111.365
G05
T0
M30
