%TF.GenerationSoftware,KiCad,Pcbnew,7.0.2-6a45011f42~172~ubuntu22.04.1*%
%TF.CreationDate,2023-05-14T19:46:31+02:00*%
%TF.ProjectId,PowerMeter,506f7765-724d-4657-9465-722e6b696361,rev?*%
%TF.SameCoordinates,Original*%
%TF.FileFunction,Legend,Top*%
%TF.FilePolarity,Positive*%
%FSLAX46Y46*%
G04 Gerber Fmt 4.6, Leading zero omitted, Abs format (unit mm)*
G04 Created by KiCad (PCBNEW 7.0.2-6a45011f42~172~ubuntu22.04.1) date 2023-05-14 19:46:31*
%MOMM*%
%LPD*%
G01*
G04 APERTURE LIST*
G04 Aperture macros list*
%AMRoundRect*
0 Rectangle with rounded corners*
0 $1 Rounding radius*
0 $2 $3 $4 $5 $6 $7 $8 $9 X,Y pos of 4 corners*
0 Add a 4 corners polygon primitive as box body*
4,1,4,$2,$3,$4,$5,$6,$7,$8,$9,$2,$3,0*
0 Add four circle primitives for the rounded corners*
1,1,$1+$1,$2,$3*
1,1,$1+$1,$4,$5*
1,1,$1+$1,$6,$7*
1,1,$1+$1,$8,$9*
0 Add four rect primitives between the rounded corners*
20,1,$1+$1,$2,$3,$4,$5,0*
20,1,$1+$1,$4,$5,$6,$7,0*
20,1,$1+$1,$6,$7,$8,$9,0*
20,1,$1+$1,$8,$9,$2,$3,0*%
G04 Aperture macros list end*
%ADD10C,0.150000*%
%ADD11C,0.120000*%
%ADD12R,1.500000X1.000000*%
%ADD13RoundRect,0.225000X0.250000X-0.225000X0.250000X0.225000X-0.250000X0.225000X-0.250000X-0.225000X0*%
%ADD14RoundRect,0.200000X-0.275000X0.200000X-0.275000X-0.200000X0.275000X-0.200000X0.275000X0.200000X0*%
%ADD15RoundRect,0.200000X-0.200000X-0.800000X0.200000X-0.800000X0.200000X0.800000X-0.200000X0.800000X0*%
%ADD16RoundRect,0.200000X-0.200000X-0.275000X0.200000X-0.275000X0.200000X0.275000X-0.200000X0.275000X0*%
%ADD17RoundRect,0.225000X0.225000X0.250000X-0.225000X0.250000X-0.225000X-0.250000X0.225000X-0.250000X0*%
%ADD18RoundRect,0.200000X0.200000X0.275000X-0.200000X0.275000X-0.200000X-0.275000X0.200000X-0.275000X0*%
%ADD19R,2.000000X1.500000*%
%ADD20R,2.000000X3.800000*%
%ADD21RoundRect,0.225000X-0.250000X0.225000X-0.250000X-0.225000X0.250000X-0.225000X0.250000X0.225000X0*%
%ADD22RoundRect,0.225000X-0.225000X-0.250000X0.225000X-0.250000X0.225000X0.250000X-0.225000X0.250000X0*%
%ADD23RoundRect,0.218750X0.256250X-0.218750X0.256250X0.218750X-0.256250X0.218750X-0.256250X-0.218750X0*%
%ADD24RoundRect,0.135000X0.135000X0.185000X-0.135000X0.185000X-0.135000X-0.185000X0.135000X-0.185000X0*%
%ADD25RoundRect,0.140000X-0.140000X-0.170000X0.140000X-0.170000X0.140000X0.170000X-0.140000X0.170000X0*%
%ADD26R,0.300000X0.550000*%
%ADD27R,0.400000X0.550000*%
%ADD28RoundRect,0.140000X0.140000X0.170000X-0.140000X0.170000X-0.140000X-0.170000X0.140000X-0.170000X0*%
%ADD29C,0.600000*%
%ADD30R,0.600000X1.160000*%
%ADD31R,0.300000X1.160000*%
%ADD32O,0.900000X2.000000*%
%ADD33O,0.900000X1.700000*%
%ADD34R,1.200000X1.400000*%
%ADD35C,1.500000*%
%ADD36R,2.500000X1.200000*%
%ADD37RoundRect,0.062500X-0.062500X0.375000X-0.062500X-0.375000X0.062500X-0.375000X0.062500X0.375000X0*%
%ADD38RoundRect,0.062500X-0.375000X0.062500X-0.375000X-0.062500X0.375000X-0.062500X0.375000X0.062500X0*%
%ADD39R,3.450000X3.450000*%
%ADD40RoundRect,0.218750X-0.256250X0.218750X-0.256250X-0.218750X0.256250X-0.218750X0.256250X0.218750X0*%
G04 APERTURE END LIST*
D10*
X95888095Y-81353809D02*
X96221428Y-81353809D01*
X96364285Y-81877619D02*
X95888095Y-81877619D01*
X95888095Y-81877619D02*
X95888095Y-80877619D01*
X95888095Y-80877619D02*
X96364285Y-80877619D01*
X96792857Y-81877619D02*
X96792857Y-80877619D01*
X96792857Y-80877619D02*
X97364285Y-81877619D01*
X97364285Y-81877619D02*
X97364285Y-80877619D01*
X96221428Y-84853809D02*
X96364285Y-84901428D01*
X96364285Y-84901428D02*
X96411904Y-84949047D01*
X96411904Y-84949047D02*
X96459523Y-85044285D01*
X96459523Y-85044285D02*
X96459523Y-85187142D01*
X96459523Y-85187142D02*
X96411904Y-85282380D01*
X96411904Y-85282380D02*
X96364285Y-85330000D01*
X96364285Y-85330000D02*
X96269047Y-85377619D01*
X96269047Y-85377619D02*
X95888095Y-85377619D01*
X95888095Y-85377619D02*
X95888095Y-84377619D01*
X95888095Y-84377619D02*
X96221428Y-84377619D01*
X96221428Y-84377619D02*
X96316666Y-84425238D01*
X96316666Y-84425238D02*
X96364285Y-84472857D01*
X96364285Y-84472857D02*
X96411904Y-84568095D01*
X96411904Y-84568095D02*
X96411904Y-84663333D01*
X96411904Y-84663333D02*
X96364285Y-84758571D01*
X96364285Y-84758571D02*
X96316666Y-84806190D01*
X96316666Y-84806190D02*
X96221428Y-84853809D01*
X96221428Y-84853809D02*
X95888095Y-84853809D01*
X96745238Y-84377619D02*
X97316666Y-84377619D01*
X97030952Y-85377619D02*
X97030952Y-84377619D01*
X96459523Y-88927619D02*
X96126190Y-88451428D01*
X95888095Y-88927619D02*
X95888095Y-87927619D01*
X95888095Y-87927619D02*
X96269047Y-87927619D01*
X96269047Y-87927619D02*
X96364285Y-87975238D01*
X96364285Y-87975238D02*
X96411904Y-88022857D01*
X96411904Y-88022857D02*
X96459523Y-88118095D01*
X96459523Y-88118095D02*
X96459523Y-88260952D01*
X96459523Y-88260952D02*
X96411904Y-88356190D01*
X96411904Y-88356190D02*
X96364285Y-88403809D01*
X96364285Y-88403809D02*
X96269047Y-88451428D01*
X96269047Y-88451428D02*
X95888095Y-88451428D01*
X96840476Y-88880000D02*
X96983333Y-88927619D01*
X96983333Y-88927619D02*
X97221428Y-88927619D01*
X97221428Y-88927619D02*
X97316666Y-88880000D01*
X97316666Y-88880000D02*
X97364285Y-88832380D01*
X97364285Y-88832380D02*
X97411904Y-88737142D01*
X97411904Y-88737142D02*
X97411904Y-88641904D01*
X97411904Y-88641904D02*
X97364285Y-88546666D01*
X97364285Y-88546666D02*
X97316666Y-88499047D01*
X97316666Y-88499047D02*
X97221428Y-88451428D01*
X97221428Y-88451428D02*
X97030952Y-88403809D01*
X97030952Y-88403809D02*
X96935714Y-88356190D01*
X96935714Y-88356190D02*
X96888095Y-88308571D01*
X96888095Y-88308571D02*
X96840476Y-88213333D01*
X96840476Y-88213333D02*
X96840476Y-88118095D01*
X96840476Y-88118095D02*
X96888095Y-88022857D01*
X96888095Y-88022857D02*
X96935714Y-87975238D01*
X96935714Y-87975238D02*
X97030952Y-87927619D01*
X97030952Y-87927619D02*
X97269047Y-87927619D01*
X97269047Y-87927619D02*
X97411904Y-87975238D01*
X97697619Y-87927619D02*
X98269047Y-87927619D01*
X97983333Y-88927619D02*
X97983333Y-87927619D01*
%TO.C,D2*%
X77620000Y-94200000D02*
X77620000Y-93200000D01*
X83120000Y-93200000D02*
X77620000Y-93200000D01*
X83120000Y-96200000D02*
X77720000Y-96200000D01*
D11*
%TO.C,C6*%
X84850000Y-80950580D02*
X84850000Y-80669420D01*
X85870000Y-80950580D02*
X85870000Y-80669420D01*
%TO.C,R2*%
X84282500Y-80572742D02*
X84282500Y-81047258D01*
X83237500Y-80572742D02*
X83237500Y-81047258D01*
%TO.C,SW2*%
X90650000Y-83330000D02*
X94790000Y-83330000D01*
X90650000Y-83630000D02*
X90650000Y-83330000D01*
X90650000Y-86470000D02*
X90650000Y-86170000D01*
X94790000Y-83330000D02*
X94790000Y-83630000D01*
X94790000Y-86170000D02*
X94790000Y-86470000D01*
X94790000Y-86470000D02*
X90650000Y-86470000D01*
%TO.C,R4*%
X92882742Y-103977500D02*
X93357258Y-103977500D01*
X92882742Y-105022500D02*
X93357258Y-105022500D01*
%TO.C,SW1*%
X90650000Y-79830000D02*
X94790000Y-79830000D01*
X90650000Y-80130000D02*
X90650000Y-79830000D01*
X90650000Y-82970000D02*
X90650000Y-82670000D01*
X94790000Y-79830000D02*
X94790000Y-80130000D01*
X94790000Y-82670000D02*
X94790000Y-82970000D01*
X94790000Y-82970000D02*
X90650000Y-82970000D01*
%TO.C,C12*%
X88050000Y-84050580D02*
X88050000Y-83769420D01*
X89070000Y-84050580D02*
X89070000Y-83769420D01*
%TO.C,C8*%
X77585580Y-80210000D02*
X77304420Y-80210000D01*
X77585580Y-79190000D02*
X77304420Y-79190000D01*
%TO.C,R10*%
X80832258Y-99422500D02*
X80357742Y-99422500D01*
X80832258Y-98377500D02*
X80357742Y-98377500D01*
%TO.C,U2*%
X86920000Y-92190000D02*
X92930000Y-92190000D01*
X89170000Y-99010000D02*
X92930000Y-99010000D01*
X92930000Y-92190000D02*
X92930000Y-93450000D01*
X92930000Y-99010000D02*
X92930000Y-97750000D01*
%TO.C,C15*%
X84590000Y-96434420D02*
X84590000Y-96715580D01*
X83570000Y-96434420D02*
X83570000Y-96715580D01*
%TO.C,C18*%
X90919420Y-90400000D02*
X91200580Y-90400000D01*
X90919420Y-91420000D02*
X91200580Y-91420000D01*
%TO.C,C13*%
X75885580Y-96010000D02*
X75604420Y-96010000D01*
X75885580Y-94990000D02*
X75604420Y-94990000D01*
%TO.C,L1*%
X77610000Y-82275279D02*
X77610000Y-81949721D01*
X78630000Y-82275279D02*
X78630000Y-81949721D01*
%TO.C,C9*%
X77560580Y-78610000D02*
X77279420Y-78610000D01*
X77560580Y-77590000D02*
X77279420Y-77590000D01*
%TO.C,R1*%
X82773641Y-89280000D02*
X82466359Y-89280000D01*
X82773641Y-88520000D02*
X82466359Y-88520000D01*
%TO.C,R11*%
X80357742Y-96777500D02*
X80832258Y-96777500D01*
X80357742Y-97822500D02*
X80832258Y-97822500D01*
%TO.C,C14*%
X87979420Y-99590000D02*
X88260580Y-99590000D01*
X87979420Y-100610000D02*
X88260580Y-100610000D01*
%TO.C,R3*%
X89082500Y-80572742D02*
X89082500Y-81047258D01*
X88037500Y-80572742D02*
X88037500Y-81047258D01*
%TO.C,C10*%
X75885580Y-94410000D02*
X75604420Y-94410000D01*
X75885580Y-93390000D02*
X75604420Y-93390000D01*
%TO.C,C4*%
X85332164Y-86040000D02*
X85547836Y-86040000D01*
X85332164Y-86760000D02*
X85547836Y-86760000D01*
%TO.C,C17*%
X87979420Y-101190000D02*
X88260580Y-101190000D01*
X87979420Y-102210000D02*
X88260580Y-102210000D01*
%TO.C,C2*%
X80579420Y-84002500D02*
X80860580Y-84002500D01*
X80579420Y-85022500D02*
X80860580Y-85022500D01*
%TO.C,C19*%
X83504420Y-98390000D02*
X83785580Y-98390000D01*
X83504420Y-99410000D02*
X83785580Y-99410000D01*
%TO.C,R5*%
X87757258Y-105122500D02*
X87282742Y-105122500D01*
X87757258Y-104077500D02*
X87282742Y-104077500D01*
%TO.C,R9*%
X75542500Y-98262742D02*
X75542500Y-98737258D01*
X74497500Y-98262742D02*
X74497500Y-98737258D01*
%TO.C,R6*%
X94397258Y-91432500D02*
X93922742Y-91432500D01*
X94397258Y-90387500D02*
X93922742Y-90387500D01*
%TO.C,C16*%
X86330000Y-96434420D02*
X86330000Y-96715580D01*
X85310000Y-96434420D02*
X85310000Y-96715580D01*
%TO.C,U3*%
X90053884Y-102040000D02*
X90053884Y-103340000D01*
X92853884Y-102040000D02*
X92853884Y-103040000D01*
%TO.C,C7*%
X77660580Y-85022500D02*
X77379420Y-85022500D01*
X77660580Y-84002500D02*
X77379420Y-84002500D01*
%TO.C,C3*%
X85547836Y-92160000D02*
X85332164Y-92160000D01*
X85547836Y-91440000D02*
X85332164Y-91440000D01*
%TO.C,J2*%
X85750000Y-108855000D02*
X85750000Y-110655000D01*
X85750000Y-114365000D02*
X85750000Y-112905000D01*
X94690000Y-108855000D02*
X94690000Y-110655000D01*
X94690000Y-114365000D02*
X85750000Y-114365000D01*
X94690000Y-114365000D02*
X94690000Y-112905000D01*
%TO.C,SW3*%
X90650000Y-86830000D02*
X94790000Y-86830000D01*
X90650000Y-87130000D02*
X90650000Y-86830000D01*
X90650000Y-89970000D02*
X90650000Y-89670000D01*
X94790000Y-86830000D02*
X94790000Y-87130000D01*
X94790000Y-89670000D02*
X94790000Y-89970000D01*
X94790000Y-89970000D02*
X90650000Y-89970000D01*
%TO.C,C5*%
X86450000Y-80950580D02*
X86450000Y-80669420D01*
X87470000Y-80950580D02*
X87470000Y-80669420D01*
%TO.C,C11*%
X86450000Y-84050580D02*
X86450000Y-83769420D01*
X87470000Y-84050580D02*
X87470000Y-83769420D01*
%TO.C,R7*%
X78742500Y-98262742D02*
X78742500Y-98737258D01*
X77697500Y-98262742D02*
X77697500Y-98737258D01*
%TO.C,Y2*%
X83870000Y-91100000D02*
X87170000Y-91100000D01*
X87170000Y-91100000D02*
X87170000Y-87100000D01*
%TO.C,J3*%
X76820000Y-114600000D02*
X81820000Y-114600000D01*
X76220000Y-112600000D02*
X76820000Y-112600000D01*
X76220000Y-112600000D02*
X76220000Y-110225000D01*
X76820000Y-112600000D02*
X76820000Y-114600000D01*
X81820000Y-112600000D02*
X81820000Y-114600000D01*
X81820000Y-112600000D02*
X82420000Y-112600000D01*
X76220000Y-108575000D02*
X76220000Y-107225000D01*
X76220000Y-105575000D02*
X76220000Y-103175000D01*
X76220000Y-103175000D02*
X74820000Y-103175000D01*
X82420000Y-102075000D02*
X82420000Y-112600000D01*
X76220000Y-101625000D02*
X74820000Y-101625000D01*
X76220000Y-101625000D02*
X76220000Y-100500000D01*
X82420000Y-100500000D02*
X76220000Y-100500000D01*
%TO.C,C1*%
X80579420Y-79202500D02*
X80860580Y-79202500D01*
X80579420Y-80222500D02*
X80860580Y-80222500D01*
%TO.C,U1*%
X75610000Y-86590000D02*
X76085000Y-86590000D01*
X80830000Y-87065000D02*
X80830000Y-86590000D01*
X75610000Y-87065000D02*
X75610000Y-86590000D01*
X80830000Y-91335000D02*
X80830000Y-91810000D01*
X75610000Y-91335000D02*
X75610000Y-91810000D01*
X80830000Y-91810000D02*
X80355000Y-91810000D01*
X75610000Y-91810000D02*
X76085000Y-91810000D01*
%TO.C,R8*%
X77142500Y-98262742D02*
X77142500Y-98737258D01*
X76097500Y-98262742D02*
X76097500Y-98737258D01*
%TO.C,L2*%
X80530000Y-81949721D02*
X80530000Y-82275279D01*
X79510000Y-81949721D02*
X79510000Y-82275279D01*
%TD*%
%LPC*%
D12*
%TO.C,D2*%
X78670000Y-94000000D03*
X78670000Y-95400000D03*
X82170000Y-95400000D03*
X82170000Y-94000000D03*
%TD*%
D13*
%TO.C,C6*%
X85360000Y-81585000D03*
X85360000Y-80035000D03*
%TD*%
D14*
%TO.C,R2*%
X83760000Y-79985000D03*
X83760000Y-81635000D03*
%TD*%
D15*
%TO.C,SW2*%
X90620000Y-84900000D03*
X94820000Y-84900000D03*
%TD*%
D16*
%TO.C,R4*%
X92295000Y-104500000D03*
X93945000Y-104500000D03*
%TD*%
D15*
%TO.C,SW1*%
X90620000Y-81400000D03*
X94820000Y-81400000D03*
%TD*%
D13*
%TO.C,C12*%
X88560000Y-84685000D03*
X88560000Y-83135000D03*
%TD*%
D17*
%TO.C,C8*%
X78220000Y-79700000D03*
X76670000Y-79700000D03*
%TD*%
D18*
%TO.C,R10*%
X81420000Y-98900000D03*
X79770000Y-98900000D03*
%TD*%
D19*
%TO.C,U2*%
X87870000Y-93300000D03*
X87870000Y-95600000D03*
D20*
X94170000Y-95600000D03*
D19*
X87870000Y-97900000D03*
%TD*%
D21*
%TO.C,C15*%
X84080000Y-95800000D03*
X84080000Y-97350000D03*
%TD*%
D22*
%TO.C,C18*%
X90285000Y-90910000D03*
X91835000Y-90910000D03*
%TD*%
D17*
%TO.C,C13*%
X76520000Y-95500000D03*
X74970000Y-95500000D03*
%TD*%
D23*
%TO.C,L1*%
X78120000Y-82900000D03*
X78120000Y-81325000D03*
%TD*%
D17*
%TO.C,C9*%
X78195000Y-78100000D03*
X76645000Y-78100000D03*
%TD*%
D24*
%TO.C,R1*%
X83130000Y-88900000D03*
X82110000Y-88900000D03*
%TD*%
D16*
%TO.C,R11*%
X79770000Y-97300000D03*
X81420000Y-97300000D03*
%TD*%
D22*
%TO.C,C14*%
X87345000Y-100100000D03*
X88895000Y-100100000D03*
%TD*%
D14*
%TO.C,R3*%
X88560000Y-79985000D03*
X88560000Y-81635000D03*
%TD*%
D17*
%TO.C,C10*%
X76520000Y-93900000D03*
X74970000Y-93900000D03*
%TD*%
D25*
%TO.C,C4*%
X84960000Y-86400000D03*
X85920000Y-86400000D03*
%TD*%
D22*
%TO.C,C17*%
X87345000Y-101700000D03*
X88895000Y-101700000D03*
%TD*%
%TO.C,C2*%
X79945000Y-84512500D03*
X81495000Y-84512500D03*
%TD*%
%TO.C,C19*%
X82870000Y-98900000D03*
X84420000Y-98900000D03*
%TD*%
D18*
%TO.C,R5*%
X88345000Y-104600000D03*
X86695000Y-104600000D03*
%TD*%
D14*
%TO.C,R9*%
X75020000Y-97675000D03*
X75020000Y-99325000D03*
%TD*%
D18*
%TO.C,R6*%
X94985000Y-90910000D03*
X93335000Y-90910000D03*
%TD*%
D21*
%TO.C,C16*%
X85820000Y-95800000D03*
X85820000Y-97350000D03*
%TD*%
D26*
%TO.C,U3*%
X90453884Y-102925000D03*
X90953884Y-102925000D03*
D27*
X91453884Y-102925000D03*
D26*
X91953884Y-102925000D03*
X92453884Y-102925000D03*
X92453884Y-102155000D03*
X91953884Y-102155000D03*
D27*
X91453884Y-102155000D03*
D26*
X90953884Y-102155000D03*
X90453884Y-102155000D03*
%TD*%
D17*
%TO.C,C7*%
X78295000Y-84512500D03*
X76745000Y-84512500D03*
%TD*%
D28*
%TO.C,C3*%
X85920000Y-91800000D03*
X84960000Y-91800000D03*
%TD*%
D29*
%TO.C,J2*%
X87330000Y-108075000D03*
X93110000Y-108075000D03*
D30*
X87020000Y-107015000D03*
X87820000Y-107015000D03*
D31*
X88970000Y-107015000D03*
X89970000Y-107015000D03*
X90470000Y-107015000D03*
X91470000Y-107015000D03*
D30*
X92620000Y-107015000D03*
X93420000Y-107015000D03*
X93420000Y-107015000D03*
X92620000Y-107015000D03*
D31*
X91970000Y-107015000D03*
X90970000Y-107015000D03*
X89470000Y-107015000D03*
X88470000Y-107015000D03*
D30*
X87820000Y-107015000D03*
X87020000Y-107015000D03*
D32*
X85900000Y-107595000D03*
D33*
X85900000Y-111765000D03*
D32*
X94540000Y-107595000D03*
D33*
X94540000Y-111765000D03*
%TD*%
D15*
%TO.C,SW3*%
X90620000Y-88400000D03*
X94820000Y-88400000D03*
%TD*%
D13*
%TO.C,C5*%
X86960000Y-81585000D03*
X86960000Y-80035000D03*
%TD*%
%TO.C,C11*%
X86960000Y-84685000D03*
X86960000Y-83135000D03*
%TD*%
D14*
%TO.C,R7*%
X78220000Y-97675000D03*
X78220000Y-99325000D03*
%TD*%
D34*
%TO.C,Y2*%
X86370000Y-90200000D03*
X86370000Y-88000000D03*
X84670000Y-88000000D03*
X84670000Y-90200000D03*
%TD*%
D35*
%TO.C,J3*%
X79320000Y-111000000D03*
X79320000Y-104000000D03*
D36*
X76070000Y-106400000D03*
X76070000Y-109400000D03*
X82570000Y-101300000D03*
X76070000Y-102400000D03*
%TD*%
D22*
%TO.C,C1*%
X79945000Y-79712500D03*
X81495000Y-79712500D03*
%TD*%
D37*
%TO.C,U1*%
X79970000Y-86762500D03*
X79470000Y-86762500D03*
X78970000Y-86762500D03*
X78470000Y-86762500D03*
X77970000Y-86762500D03*
X77470000Y-86762500D03*
X76970000Y-86762500D03*
X76470000Y-86762500D03*
D38*
X75782500Y-87450000D03*
X75782500Y-87950000D03*
X75782500Y-88450000D03*
X75782500Y-88950000D03*
X75782500Y-89450000D03*
X75782500Y-89950000D03*
X75782500Y-90450000D03*
X75782500Y-90950000D03*
D37*
X76470000Y-91637500D03*
X76970000Y-91637500D03*
X77470000Y-91637500D03*
X77970000Y-91637500D03*
X78470000Y-91637500D03*
X78970000Y-91637500D03*
X79470000Y-91637500D03*
X79970000Y-91637500D03*
D38*
X80657500Y-90950000D03*
X80657500Y-90450000D03*
X80657500Y-89950000D03*
X80657500Y-89450000D03*
X80657500Y-88950000D03*
X80657500Y-88450000D03*
X80657500Y-87950000D03*
X80657500Y-87450000D03*
D39*
X78220000Y-89200000D03*
%TD*%
D14*
%TO.C,R8*%
X76620000Y-97675000D03*
X76620000Y-99325000D03*
%TD*%
D40*
%TO.C,L2*%
X80020000Y-81325000D03*
X80020000Y-82900000D03*
%TD*%
%LPD*%
M02*
