%TF.GenerationSoftware,KiCad,Pcbnew,7.0.2-6a45011f42~172~ubuntu22.04.1*%
%TF.CreationDate,2023-05-14T19:46:34+02:00*%
%TF.ProjectId,PowerMeter,506f7765-724d-4657-9465-722e6b696361,rev?*%
%TF.SameCoordinates,Original*%
%TF.FileFunction,Drillmap*%
%TF.FilePolarity,Positive*%
%FSLAX45Y45*%
G04 Gerber Fmt 4.5, Leading zero omitted, Abs format (unit mm)*
G04 Created by KiCad (PCBNEW 7.0.2-6a45011f42~172~ubuntu22.04.1) date 2023-05-14 19:46:34*
%MOMM*%
%LPD*%
G01*
G04 APERTURE LIST*
%ADD10C,0.100000*%
%ADD11C,0.200000*%
%ADD12C,0.040000*%
%ADD13C,0.060000*%
G04 APERTURE END LIST*
D10*
X9538777Y-7513223D02*
X9538777Y-7513223D01*
X9270000Y-7118834D02*
G75*
G03*
X9190489Y-7030000I-84170J4665D01*
G01*
X7080000Y-11530000D02*
X9911166Y-11529511D01*
X9349640Y-7620000D02*
X9920000Y-7620000D01*
X7088834Y-7620490D02*
G75*
G03*
X7000000Y-7700000I-4664J-84170D01*
G01*
X7000000Y-7700000D02*
X7000489Y-11441165D01*
X9270130Y-7531166D02*
G75*
G03*
X9349640Y-7620000I84170J-4664D01*
G01*
X7720000Y-7110000D02*
X7720000Y-7540000D01*
X9270000Y-7118834D02*
X9270129Y-7531165D01*
X9999510Y-7708834D02*
G75*
G03*
X9920000Y-7620000I-84170J4664D01*
G01*
X7808834Y-7030490D02*
G75*
G03*
X7720000Y-7110000I-4664J-84170D01*
G01*
X7631166Y-7619510D02*
G75*
G03*
X7720000Y-7540000I4664J84170D01*
G01*
X7808834Y-7030489D02*
X9190489Y-7030000D01*
X9911166Y-11529510D02*
G75*
G03*
X10000000Y-11450000I4664J84170D01*
G01*
X7000490Y-11441166D02*
G75*
G03*
X7080000Y-11530000I84170J-4664D01*
G01*
X7631165Y-7619511D02*
X7088834Y-7620489D01*
X9999511Y-7708834D02*
X10000000Y-11450000D01*
D11*
D12*
X7070000Y-7690000D02*
X7110000Y-7730000D01*
X7110000Y-7690000D02*
X7070000Y-7730000D01*
X7070000Y-7859773D02*
X7110000Y-7899773D01*
X7110000Y-7859773D02*
X7070000Y-7899773D01*
X7070000Y-8029545D02*
X7110000Y-8069545D01*
X7110000Y-8029545D02*
X7070000Y-8069545D01*
X7070000Y-8199318D02*
X7110000Y-8239318D01*
X7110000Y-8199318D02*
X7070000Y-8239318D01*
X7070000Y-8369091D02*
X7110000Y-8409091D01*
X7110000Y-8369091D02*
X7070000Y-8409091D01*
X7070000Y-8538864D02*
X7110000Y-8578864D01*
X7110000Y-8538864D02*
X7070000Y-8578864D01*
X7070000Y-8708636D02*
X7110000Y-8748636D01*
X7110000Y-8708636D02*
X7070000Y-8748636D01*
X7070000Y-8878409D02*
X7110000Y-8918409D01*
X7110000Y-8878409D02*
X7070000Y-8918409D01*
X7070000Y-9048182D02*
X7110000Y-9088182D01*
X7110000Y-9048182D02*
X7070000Y-9088182D01*
X7070000Y-9217954D02*
X7110000Y-9257954D01*
X7110000Y-9217954D02*
X7070000Y-9257954D01*
X7070000Y-9387727D02*
X7110000Y-9427727D01*
X7110000Y-9387727D02*
X7070000Y-9427727D01*
X7070000Y-9557500D02*
X7110000Y-9597500D01*
X7110000Y-9557500D02*
X7070000Y-9597500D01*
X7070000Y-9727272D02*
X7110000Y-9767272D01*
X7110000Y-9727272D02*
X7070000Y-9767272D01*
X7070000Y-9897045D02*
X7110000Y-9937045D01*
X7110000Y-9897045D02*
X7070000Y-9937045D01*
X7070000Y-10066818D02*
X7110000Y-10106818D01*
X7110000Y-10066818D02*
X7070000Y-10106818D01*
X7070000Y-10236591D02*
X7110000Y-10276591D01*
X7110000Y-10236591D02*
X7070000Y-10276591D01*
X7070000Y-10406363D02*
X7110000Y-10446363D01*
X7110000Y-10406363D02*
X7070000Y-10446363D01*
X7070000Y-10576136D02*
X7110000Y-10616136D01*
X7110000Y-10576136D02*
X7070000Y-10616136D01*
X7070000Y-10745909D02*
X7110000Y-10785909D01*
X7110000Y-10745909D02*
X7070000Y-10785909D01*
X7070000Y-10915681D02*
X7110000Y-10955681D01*
X7110000Y-10915681D02*
X7070000Y-10955681D01*
X7070000Y-11085454D02*
X7110000Y-11125454D01*
X7110000Y-11085454D02*
X7070000Y-11125454D01*
X7070000Y-11255227D02*
X7110000Y-11295227D01*
X7110000Y-11255227D02*
X7070000Y-11295227D01*
X7070000Y-11425000D02*
X7110000Y-11465000D01*
X7110000Y-11425000D02*
X7070000Y-11465000D01*
X7235000Y-7690000D02*
X7275000Y-7730000D01*
X7275000Y-7690000D02*
X7235000Y-7730000D01*
X7271786Y-11425000D02*
X7311786Y-11465000D01*
X7311786Y-11425000D02*
X7271786Y-11465000D01*
X7320000Y-8450000D02*
X7360000Y-8490000D01*
X7360000Y-8450000D02*
X7320000Y-8490000D01*
X7320000Y-8580000D02*
X7360000Y-8620000D01*
X7360000Y-8580000D02*
X7320000Y-8620000D01*
X7324950Y-8800000D02*
X7364950Y-8840000D01*
X7364950Y-8800000D02*
X7324950Y-8840000D01*
X7350000Y-10210000D02*
X7390000Y-10250000D01*
X7390000Y-10210000D02*
X7350000Y-10250000D01*
X7395000Y-9295000D02*
X7435000Y-9335000D01*
X7435000Y-9295000D02*
X7395000Y-9335000D01*
X7400000Y-9060000D02*
X7440000Y-9100000D01*
X7440000Y-9060000D02*
X7400000Y-9100000D01*
X7400000Y-9435000D02*
X7440000Y-9475000D01*
X7440000Y-9435000D02*
X7400000Y-9475000D01*
X7465000Y-7680000D02*
X7505000Y-7720000D01*
X7505000Y-7680000D02*
X7465000Y-7720000D01*
X7473571Y-11425000D02*
X7513571Y-11465000D01*
X7513571Y-11425000D02*
X7473571Y-11465000D01*
X7475000Y-9225000D02*
X7515000Y-9265000D01*
X7515000Y-9225000D02*
X7475000Y-9265000D01*
X7480000Y-10035000D02*
X7520000Y-10075000D01*
X7520000Y-10035000D02*
X7480000Y-10075000D01*
X7640000Y-10030000D02*
X7680000Y-10070000D01*
X7680000Y-10030000D02*
X7640000Y-10070000D01*
X7655000Y-9640000D02*
X7695000Y-9680000D01*
X7695000Y-9640000D02*
X7655000Y-9680000D01*
X7675357Y-11425000D02*
X7715357Y-11465000D01*
X7715357Y-11425000D02*
X7675357Y-11465000D01*
X7700000Y-8800000D02*
X7740000Y-8840000D01*
X7740000Y-8800000D02*
X7700000Y-8840000D01*
X7702000Y-8900000D02*
X7742000Y-8940000D01*
X7742000Y-8900000D02*
X7702000Y-8940000D01*
X7705000Y-8995000D02*
X7745000Y-9035000D01*
X7745000Y-8995000D02*
X7705000Y-9035000D01*
X7800000Y-8800000D02*
X7840000Y-8840000D01*
X7840000Y-8800000D02*
X7800000Y-8840000D01*
X7802000Y-8900000D02*
X7842000Y-8940000D01*
X7842000Y-8900000D02*
X7802000Y-8940000D01*
X7805000Y-8995000D02*
X7845000Y-9035000D01*
X7845000Y-8995000D02*
X7805000Y-9035000D01*
X7810000Y-10030000D02*
X7850000Y-10070000D01*
X7850000Y-10030000D02*
X7810000Y-10070000D01*
X7877143Y-11425000D02*
X7917143Y-11465000D01*
X7917143Y-11425000D02*
X7877143Y-11465000D01*
X7900000Y-8800000D02*
X7940000Y-8840000D01*
X7940000Y-8800000D02*
X7900000Y-8840000D01*
X7902000Y-8900000D02*
X7942000Y-8940000D01*
X7942000Y-8900000D02*
X7902000Y-8940000D01*
X7905000Y-8995000D02*
X7945000Y-9035000D01*
X7945000Y-8995000D02*
X7905000Y-9035000D01*
X7957550Y-9471901D02*
X7997550Y-9511901D01*
X7997550Y-9471901D02*
X7957550Y-9511901D01*
X7975000Y-9980000D02*
X8015000Y-10020000D01*
X8015000Y-9980000D02*
X7975000Y-10020000D01*
X8020000Y-9315000D02*
X8060000Y-9355000D01*
X8060000Y-9315000D02*
X8020000Y-9355000D01*
X8078928Y-11425000D02*
X8118928Y-11465000D01*
X8118928Y-11425000D02*
X8078928Y-11465000D01*
X8200000Y-9180000D02*
X8240000Y-9220000D01*
X8240000Y-9180000D02*
X8200000Y-9220000D01*
X8215201Y-8979812D02*
X8255201Y-9019812D01*
X8255201Y-8979812D02*
X8215201Y-9019812D01*
X8220000Y-9080000D02*
X8260000Y-9120000D01*
X8260000Y-9080000D02*
X8220000Y-9120000D01*
X8240000Y-8780000D02*
X8280000Y-8820000D01*
X8280000Y-8780000D02*
X8240000Y-8820000D01*
X8280714Y-11425000D02*
X8320714Y-11465000D01*
X8320714Y-11425000D02*
X8280714Y-11465000D01*
X8340000Y-8390000D02*
X8380000Y-8430000D01*
X8380000Y-8390000D02*
X8340000Y-8430000D01*
X8405000Y-7860000D02*
X8445000Y-7900000D01*
X8445000Y-7860000D02*
X8405000Y-7900000D01*
X8415000Y-9425000D02*
X8455000Y-9465000D01*
X8455000Y-9425000D02*
X8415000Y-9465000D01*
X8475000Y-9560000D02*
X8515000Y-9600000D01*
X8515000Y-9560000D02*
X8475000Y-9600000D01*
X8482500Y-11425000D02*
X8522500Y-11465000D01*
X8522500Y-11425000D02*
X8482500Y-11465000D01*
X8500000Y-8290000D02*
X8540000Y-8330000D01*
X8540000Y-8290000D02*
X8500000Y-8330000D01*
X8505000Y-10500000D02*
X8545000Y-10540000D01*
X8545000Y-10500000D02*
X8505000Y-10540000D01*
X8530000Y-8460000D02*
X8570000Y-8500000D01*
X8570000Y-8460000D02*
X8530000Y-8500000D01*
X8589197Y-8322550D02*
X8629197Y-8362550D01*
X8629197Y-8322550D02*
X8589197Y-8362550D01*
X8684286Y-11425000D02*
X8724286Y-11465000D01*
X8724286Y-11425000D02*
X8684286Y-11465000D01*
X8690000Y-8610000D02*
X8730000Y-8650000D01*
X8730000Y-8610000D02*
X8690000Y-8650000D01*
X8710000Y-10280000D02*
X8750000Y-10320000D01*
X8750000Y-10280000D02*
X8710000Y-10320000D01*
X8720000Y-9890000D02*
X8760000Y-9930000D01*
X8760000Y-9890000D02*
X8720000Y-9930000D01*
X8760000Y-9000000D02*
X8800000Y-9040000D01*
X8800000Y-9000000D02*
X8760000Y-9040000D01*
X8760000Y-10550000D02*
X8800000Y-10590000D01*
X8800000Y-10550000D02*
X8760000Y-10590000D01*
X8860000Y-8640000D02*
X8900000Y-8680000D01*
X8900000Y-8640000D02*
X8860000Y-8680000D01*
X8885000Y-9110000D02*
X8925000Y-9150000D01*
X8925000Y-9110000D02*
X8885000Y-9150000D01*
X8886071Y-11425000D02*
X8926071Y-11465000D01*
X8926071Y-11425000D02*
X8886071Y-11465000D01*
X8900000Y-7855000D02*
X8940000Y-7895000D01*
X8940000Y-7855000D02*
X8900000Y-7895000D01*
X8970000Y-9265000D02*
X9010000Y-9305000D01*
X9010000Y-9265000D02*
X8970000Y-9305000D01*
X8970000Y-9540000D02*
X9010000Y-9580000D01*
X9010000Y-9540000D02*
X8970000Y-9580000D01*
X9060000Y-9490000D02*
X9100000Y-9530000D01*
X9100000Y-9490000D02*
X9060000Y-9530000D01*
X9060000Y-9590000D02*
X9100000Y-9630000D01*
X9100000Y-9590000D02*
X9060000Y-9630000D01*
X9087857Y-11425000D02*
X9127857Y-11465000D01*
X9127857Y-11425000D02*
X9087857Y-11465000D01*
X9089643Y-7695000D02*
X9129643Y-7735000D01*
X9129643Y-7695000D02*
X9089643Y-7735000D01*
X9160000Y-9165000D02*
X9200000Y-9205000D01*
X9200000Y-9165000D02*
X9160000Y-9205000D01*
X9170000Y-9430000D02*
X9210000Y-9470000D01*
X9210000Y-9430000D02*
X9170000Y-9470000D01*
X9170000Y-9530000D02*
X9210000Y-9570000D01*
X9210000Y-9530000D02*
X9170000Y-9570000D01*
X9170000Y-9630000D02*
X9210000Y-9670000D01*
X9210000Y-9630000D02*
X9170000Y-9670000D01*
X9240000Y-10540000D02*
X9280000Y-10580000D01*
X9280000Y-10540000D02*
X9240000Y-10580000D01*
X9289643Y-11425000D02*
X9329643Y-11465000D01*
X9329643Y-11425000D02*
X9289643Y-11465000D01*
X9291429Y-7695000D02*
X9331429Y-7735000D01*
X9331429Y-7695000D02*
X9291429Y-7735000D01*
X9440841Y-10279159D02*
X9480841Y-10319159D01*
X9480841Y-10279159D02*
X9440841Y-10319159D01*
X9485000Y-10520000D02*
X9525000Y-10560000D01*
X9525000Y-10520000D02*
X9485000Y-10560000D01*
X9491428Y-11425000D02*
X9531428Y-11465000D01*
X9531428Y-11425000D02*
X9491428Y-11465000D01*
X9493214Y-7695000D02*
X9533214Y-7735000D01*
X9533214Y-7695000D02*
X9493214Y-7735000D01*
X9550000Y-10280000D02*
X9590000Y-10320000D01*
X9590000Y-10280000D02*
X9550000Y-10320000D01*
X9600000Y-9070000D02*
X9640000Y-9110000D01*
X9640000Y-9070000D02*
X9600000Y-9110000D01*
X9693214Y-11425000D02*
X9733214Y-11465000D01*
X9733214Y-11425000D02*
X9693214Y-11465000D01*
X9695000Y-7695000D02*
X9735000Y-7735000D01*
X9735000Y-7695000D02*
X9695000Y-7735000D01*
X9895000Y-7695000D02*
X9935000Y-7735000D01*
X9935000Y-7695000D02*
X9895000Y-7735000D01*
X9895000Y-7864773D02*
X9935000Y-7904773D01*
X9935000Y-7864773D02*
X9895000Y-7904773D01*
X9895000Y-8034545D02*
X9935000Y-8074545D01*
X9935000Y-8034545D02*
X9895000Y-8074545D01*
X9895000Y-8204318D02*
X9935000Y-8244318D01*
X9935000Y-8204318D02*
X9895000Y-8244318D01*
X9895000Y-8374091D02*
X9935000Y-8414091D01*
X9935000Y-8374091D02*
X9895000Y-8414091D01*
X9895000Y-8543864D02*
X9935000Y-8583864D01*
X9935000Y-8543864D02*
X9895000Y-8583864D01*
X9895000Y-8713636D02*
X9935000Y-8753636D01*
X9935000Y-8713636D02*
X9895000Y-8753636D01*
X9895000Y-8883409D02*
X9935000Y-8923409D01*
X9935000Y-8883409D02*
X9895000Y-8923409D01*
X9895000Y-9053182D02*
X9935000Y-9093182D01*
X9935000Y-9053182D02*
X9895000Y-9093182D01*
X9895000Y-9222954D02*
X9935000Y-9262954D01*
X9935000Y-9222954D02*
X9895000Y-9262954D01*
X9895000Y-9392727D02*
X9935000Y-9432727D01*
X9935000Y-9392727D02*
X9895000Y-9432727D01*
X9895000Y-9562500D02*
X9935000Y-9602500D01*
X9935000Y-9562500D02*
X9895000Y-9602500D01*
X9895000Y-9732272D02*
X9935000Y-9772272D01*
X9935000Y-9732272D02*
X9895000Y-9772272D01*
X9895000Y-9902045D02*
X9935000Y-9942045D01*
X9935000Y-9902045D02*
X9895000Y-9942045D01*
X9895000Y-10071818D02*
X9935000Y-10111818D01*
X9935000Y-10071818D02*
X9895000Y-10111818D01*
X9895000Y-10241591D02*
X9935000Y-10281591D01*
X9935000Y-10241591D02*
X9895000Y-10281591D01*
X9895000Y-10411363D02*
X9935000Y-10451363D01*
X9935000Y-10411363D02*
X9895000Y-10451363D01*
X9895000Y-10581136D02*
X9935000Y-10621136D01*
X9935000Y-10581136D02*
X9895000Y-10621136D01*
X9895000Y-10750909D02*
X9935000Y-10790909D01*
X9935000Y-10750909D02*
X9895000Y-10790909D01*
X9895000Y-10920681D02*
X9935000Y-10960681D01*
X9935000Y-10920681D02*
X9895000Y-10960681D01*
X9895000Y-11090454D02*
X9935000Y-11130454D01*
X9935000Y-11090454D02*
X9895000Y-11130454D01*
X9895000Y-11260227D02*
X9935000Y-11300227D01*
X9935000Y-11260227D02*
X9895000Y-11300227D01*
X9895000Y-11425000D02*
X9935000Y-11465000D01*
X9935000Y-11425000D02*
X9895000Y-11465000D01*
X9187000Y-7574000D02*
G75*
G03*
X9187000Y-7574000I-20000J0D01*
G01*
D13*
X8590000Y-10729500D02*
X8590000Y-10789500D01*
X8560000Y-10759500D02*
X8620000Y-10759500D01*
D11*
X8620000Y-10814500D02*
X8620000Y-10704500D01*
X8620000Y-10704500D02*
G75*
G03*
X8560000Y-10704500I-30000J0D01*
G01*
X8560000Y-10704500D02*
X8560000Y-10814500D01*
X8560000Y-10814500D02*
G75*
G03*
X8620000Y-10814500I30000J0D01*
G01*
D13*
X8590000Y-11146500D02*
X8590000Y-11206500D01*
X8560000Y-11176500D02*
X8620000Y-11176500D01*
D11*
X8620000Y-11216500D02*
X8620000Y-11136500D01*
X8620000Y-11136500D02*
G75*
G03*
X8560000Y-11136500I-30000J0D01*
G01*
X8560000Y-11136500D02*
X8560000Y-11216500D01*
X8560000Y-11216500D02*
G75*
G03*
X8620000Y-11216500I30000J0D01*
G01*
D13*
X9454000Y-10729500D02*
X9454000Y-10789500D01*
X9424000Y-10759500D02*
X9484000Y-10759500D01*
D11*
X9484000Y-10814500D02*
X9484000Y-10704500D01*
X9484000Y-10704500D02*
G75*
G03*
X9424000Y-10704500I-30000J0D01*
G01*
X9424000Y-10704500D02*
X9424000Y-10814500D01*
X9424000Y-10814500D02*
G75*
G03*
X9484000Y-10814500I30000J0D01*
G01*
D13*
X9454000Y-11146500D02*
X9454000Y-11206500D01*
X9424000Y-11176500D02*
X9484000Y-11176500D01*
D11*
X9484000Y-11216500D02*
X9484000Y-11136500D01*
X9484000Y-11136500D02*
G75*
G03*
X9424000Y-11136500I-30000J0D01*
G01*
X9424000Y-11136500D02*
X9424000Y-11216500D01*
X9424000Y-11216500D02*
G75*
G03*
X9484000Y-11216500I30000J0D01*
G01*
X7242619Y-11847524D02*
X7242619Y-11647524D01*
X7242619Y-11647524D02*
X7290238Y-11647524D01*
X7290238Y-11647524D02*
X7318809Y-11657048D01*
X7318809Y-11657048D02*
X7337857Y-11676095D01*
X7337857Y-11676095D02*
X7347381Y-11695143D01*
X7347381Y-11695143D02*
X7356905Y-11733238D01*
X7356905Y-11733238D02*
X7356905Y-11761809D01*
X7356905Y-11761809D02*
X7347381Y-11799905D01*
X7347381Y-11799905D02*
X7337857Y-11818952D01*
X7337857Y-11818952D02*
X7318809Y-11838000D01*
X7318809Y-11838000D02*
X7290238Y-11847524D01*
X7290238Y-11847524D02*
X7242619Y-11847524D01*
X7442619Y-11847524D02*
X7442619Y-11714190D01*
X7442619Y-11752286D02*
X7452143Y-11733238D01*
X7452143Y-11733238D02*
X7461667Y-11723714D01*
X7461667Y-11723714D02*
X7480714Y-11714190D01*
X7480714Y-11714190D02*
X7499762Y-11714190D01*
X7566428Y-11847524D02*
X7566428Y-11714190D01*
X7566428Y-11647524D02*
X7556905Y-11657048D01*
X7556905Y-11657048D02*
X7566428Y-11666571D01*
X7566428Y-11666571D02*
X7575952Y-11657048D01*
X7575952Y-11657048D02*
X7566428Y-11647524D01*
X7566428Y-11647524D02*
X7566428Y-11666571D01*
X7690238Y-11847524D02*
X7671190Y-11838000D01*
X7671190Y-11838000D02*
X7661667Y-11818952D01*
X7661667Y-11818952D02*
X7661667Y-11647524D01*
X7795000Y-11847524D02*
X7775952Y-11838000D01*
X7775952Y-11838000D02*
X7766428Y-11818952D01*
X7766428Y-11818952D02*
X7766428Y-11647524D01*
X8023571Y-11847524D02*
X8023571Y-11647524D01*
X8023571Y-11647524D02*
X8090238Y-11790381D01*
X8090238Y-11790381D02*
X8156905Y-11647524D01*
X8156905Y-11647524D02*
X8156905Y-11847524D01*
X8337857Y-11847524D02*
X8337857Y-11742762D01*
X8337857Y-11742762D02*
X8328333Y-11723714D01*
X8328333Y-11723714D02*
X8309286Y-11714190D01*
X8309286Y-11714190D02*
X8271190Y-11714190D01*
X8271190Y-11714190D02*
X8252143Y-11723714D01*
X8337857Y-11838000D02*
X8318809Y-11847524D01*
X8318809Y-11847524D02*
X8271190Y-11847524D01*
X8271190Y-11847524D02*
X8252143Y-11838000D01*
X8252143Y-11838000D02*
X8242619Y-11818952D01*
X8242619Y-11818952D02*
X8242619Y-11799905D01*
X8242619Y-11799905D02*
X8252143Y-11780857D01*
X8252143Y-11780857D02*
X8271190Y-11771333D01*
X8271190Y-11771333D02*
X8318809Y-11771333D01*
X8318809Y-11771333D02*
X8337857Y-11761809D01*
X8433095Y-11714190D02*
X8433095Y-11914190D01*
X8433095Y-11723714D02*
X8452143Y-11714190D01*
X8452143Y-11714190D02*
X8490238Y-11714190D01*
X8490238Y-11714190D02*
X8509286Y-11723714D01*
X8509286Y-11723714D02*
X8518810Y-11733238D01*
X8518810Y-11733238D02*
X8528333Y-11752286D01*
X8528333Y-11752286D02*
X8528333Y-11809428D01*
X8528333Y-11809428D02*
X8518810Y-11828476D01*
X8518810Y-11828476D02*
X8509286Y-11838000D01*
X8509286Y-11838000D02*
X8490238Y-11847524D01*
X8490238Y-11847524D02*
X8452143Y-11847524D01*
X8452143Y-11847524D02*
X8433095Y-11838000D01*
X8614048Y-11828476D02*
X8623571Y-11838000D01*
X8623571Y-11838000D02*
X8614048Y-11847524D01*
X8614048Y-11847524D02*
X8604524Y-11838000D01*
X8604524Y-11838000D02*
X8614048Y-11828476D01*
X8614048Y-11828476D02*
X8614048Y-11847524D01*
X8614048Y-11723714D02*
X8623571Y-11733238D01*
X8623571Y-11733238D02*
X8614048Y-11742762D01*
X8614048Y-11742762D02*
X8604524Y-11733238D01*
X8604524Y-11733238D02*
X8614048Y-11723714D01*
X8614048Y-11723714D02*
X8614048Y-11742762D01*
D12*
X6955000Y-12155000D02*
X6995000Y-12195000D01*
X6995000Y-12155000D02*
X6955000Y-12195000D01*
D11*
X7280714Y-12067524D02*
X7299762Y-12067524D01*
X7299762Y-12067524D02*
X7318809Y-12077048D01*
X7318809Y-12077048D02*
X7328333Y-12086571D01*
X7328333Y-12086571D02*
X7337857Y-12105619D01*
X7337857Y-12105619D02*
X7347381Y-12143714D01*
X7347381Y-12143714D02*
X7347381Y-12191333D01*
X7347381Y-12191333D02*
X7337857Y-12229428D01*
X7337857Y-12229428D02*
X7328333Y-12248476D01*
X7328333Y-12248476D02*
X7318809Y-12258000D01*
X7318809Y-12258000D02*
X7299762Y-12267524D01*
X7299762Y-12267524D02*
X7280714Y-12267524D01*
X7280714Y-12267524D02*
X7261667Y-12258000D01*
X7261667Y-12258000D02*
X7252143Y-12248476D01*
X7252143Y-12248476D02*
X7242619Y-12229428D01*
X7242619Y-12229428D02*
X7233095Y-12191333D01*
X7233095Y-12191333D02*
X7233095Y-12143714D01*
X7233095Y-12143714D02*
X7242619Y-12105619D01*
X7242619Y-12105619D02*
X7252143Y-12086571D01*
X7252143Y-12086571D02*
X7261667Y-12077048D01*
X7261667Y-12077048D02*
X7280714Y-12067524D01*
X7433095Y-12248476D02*
X7442619Y-12258000D01*
X7442619Y-12258000D02*
X7433095Y-12267524D01*
X7433095Y-12267524D02*
X7423571Y-12258000D01*
X7423571Y-12258000D02*
X7433095Y-12248476D01*
X7433095Y-12248476D02*
X7433095Y-12267524D01*
X7614048Y-12134190D02*
X7614048Y-12267524D01*
X7566428Y-12058000D02*
X7518809Y-12200857D01*
X7518809Y-12200857D02*
X7642619Y-12200857D01*
X7756905Y-12067524D02*
X7775952Y-12067524D01*
X7775952Y-12067524D02*
X7795000Y-12077048D01*
X7795000Y-12077048D02*
X7804524Y-12086571D01*
X7804524Y-12086571D02*
X7814048Y-12105619D01*
X7814048Y-12105619D02*
X7823571Y-12143714D01*
X7823571Y-12143714D02*
X7823571Y-12191333D01*
X7823571Y-12191333D02*
X7814048Y-12229428D01*
X7814048Y-12229428D02*
X7804524Y-12248476D01*
X7804524Y-12248476D02*
X7795000Y-12258000D01*
X7795000Y-12258000D02*
X7775952Y-12267524D01*
X7775952Y-12267524D02*
X7756905Y-12267524D01*
X7756905Y-12267524D02*
X7737857Y-12258000D01*
X7737857Y-12258000D02*
X7728333Y-12248476D01*
X7728333Y-12248476D02*
X7718809Y-12229428D01*
X7718809Y-12229428D02*
X7709286Y-12191333D01*
X7709286Y-12191333D02*
X7709286Y-12143714D01*
X7709286Y-12143714D02*
X7718809Y-12105619D01*
X7718809Y-12105619D02*
X7728333Y-12086571D01*
X7728333Y-12086571D02*
X7737857Y-12077048D01*
X7737857Y-12077048D02*
X7756905Y-12067524D01*
X7947381Y-12067524D02*
X7966429Y-12067524D01*
X7966429Y-12067524D02*
X7985476Y-12077048D01*
X7985476Y-12077048D02*
X7995000Y-12086571D01*
X7995000Y-12086571D02*
X8004524Y-12105619D01*
X8004524Y-12105619D02*
X8014048Y-12143714D01*
X8014048Y-12143714D02*
X8014048Y-12191333D01*
X8014048Y-12191333D02*
X8004524Y-12229428D01*
X8004524Y-12229428D02*
X7995000Y-12248476D01*
X7995000Y-12248476D02*
X7985476Y-12258000D01*
X7985476Y-12258000D02*
X7966429Y-12267524D01*
X7966429Y-12267524D02*
X7947381Y-12267524D01*
X7947381Y-12267524D02*
X7928333Y-12258000D01*
X7928333Y-12258000D02*
X7918809Y-12248476D01*
X7918809Y-12248476D02*
X7909286Y-12229428D01*
X7909286Y-12229428D02*
X7899762Y-12191333D01*
X7899762Y-12191333D02*
X7899762Y-12143714D01*
X7899762Y-12143714D02*
X7909286Y-12105619D01*
X7909286Y-12105619D02*
X7918809Y-12086571D01*
X7918809Y-12086571D02*
X7928333Y-12077048D01*
X7928333Y-12077048D02*
X7947381Y-12067524D01*
X8099762Y-12267524D02*
X8099762Y-12134190D01*
X8099762Y-12153238D02*
X8109286Y-12143714D01*
X8109286Y-12143714D02*
X8128333Y-12134190D01*
X8128333Y-12134190D02*
X8156905Y-12134190D01*
X8156905Y-12134190D02*
X8175952Y-12143714D01*
X8175952Y-12143714D02*
X8185476Y-12162762D01*
X8185476Y-12162762D02*
X8185476Y-12267524D01*
X8185476Y-12162762D02*
X8195000Y-12143714D01*
X8195000Y-12143714D02*
X8214048Y-12134190D01*
X8214048Y-12134190D02*
X8242619Y-12134190D01*
X8242619Y-12134190D02*
X8261667Y-12143714D01*
X8261667Y-12143714D02*
X8271190Y-12162762D01*
X8271190Y-12162762D02*
X8271190Y-12267524D01*
X8366429Y-12267524D02*
X8366429Y-12134190D01*
X8366429Y-12153238D02*
X8375952Y-12143714D01*
X8375952Y-12143714D02*
X8395000Y-12134190D01*
X8395000Y-12134190D02*
X8423572Y-12134190D01*
X8423572Y-12134190D02*
X8442619Y-12143714D01*
X8442619Y-12143714D02*
X8452143Y-12162762D01*
X8452143Y-12162762D02*
X8452143Y-12267524D01*
X8452143Y-12162762D02*
X8461667Y-12143714D01*
X8461667Y-12143714D02*
X8480714Y-12134190D01*
X8480714Y-12134190D02*
X8509286Y-12134190D01*
X8509286Y-12134190D02*
X8528333Y-12143714D01*
X8528333Y-12143714D02*
X8537857Y-12162762D01*
X8537857Y-12162762D02*
X8537857Y-12267524D01*
X8928333Y-12058000D02*
X8756905Y-12315143D01*
X9185476Y-12067524D02*
X9204524Y-12067524D01*
X9204524Y-12067524D02*
X9223572Y-12077048D01*
X9223572Y-12077048D02*
X9233095Y-12086571D01*
X9233095Y-12086571D02*
X9242619Y-12105619D01*
X9242619Y-12105619D02*
X9252143Y-12143714D01*
X9252143Y-12143714D02*
X9252143Y-12191333D01*
X9252143Y-12191333D02*
X9242619Y-12229428D01*
X9242619Y-12229428D02*
X9233095Y-12248476D01*
X9233095Y-12248476D02*
X9223572Y-12258000D01*
X9223572Y-12258000D02*
X9204524Y-12267524D01*
X9204524Y-12267524D02*
X9185476Y-12267524D01*
X9185476Y-12267524D02*
X9166429Y-12258000D01*
X9166429Y-12258000D02*
X9156905Y-12248476D01*
X9156905Y-12248476D02*
X9147381Y-12229428D01*
X9147381Y-12229428D02*
X9137857Y-12191333D01*
X9137857Y-12191333D02*
X9137857Y-12143714D01*
X9137857Y-12143714D02*
X9147381Y-12105619D01*
X9147381Y-12105619D02*
X9156905Y-12086571D01*
X9156905Y-12086571D02*
X9166429Y-12077048D01*
X9166429Y-12077048D02*
X9185476Y-12067524D01*
X9337857Y-12248476D02*
X9347381Y-12258000D01*
X9347381Y-12258000D02*
X9337857Y-12267524D01*
X9337857Y-12267524D02*
X9328334Y-12258000D01*
X9328334Y-12258000D02*
X9337857Y-12248476D01*
X9337857Y-12248476D02*
X9337857Y-12267524D01*
X9471191Y-12067524D02*
X9490238Y-12067524D01*
X9490238Y-12067524D02*
X9509286Y-12077048D01*
X9509286Y-12077048D02*
X9518810Y-12086571D01*
X9518810Y-12086571D02*
X9528334Y-12105619D01*
X9528334Y-12105619D02*
X9537857Y-12143714D01*
X9537857Y-12143714D02*
X9537857Y-12191333D01*
X9537857Y-12191333D02*
X9528334Y-12229428D01*
X9528334Y-12229428D02*
X9518810Y-12248476D01*
X9518810Y-12248476D02*
X9509286Y-12258000D01*
X9509286Y-12258000D02*
X9490238Y-12267524D01*
X9490238Y-12267524D02*
X9471191Y-12267524D01*
X9471191Y-12267524D02*
X9452143Y-12258000D01*
X9452143Y-12258000D02*
X9442619Y-12248476D01*
X9442619Y-12248476D02*
X9433095Y-12229428D01*
X9433095Y-12229428D02*
X9423572Y-12191333D01*
X9423572Y-12191333D02*
X9423572Y-12143714D01*
X9423572Y-12143714D02*
X9433095Y-12105619D01*
X9433095Y-12105619D02*
X9442619Y-12086571D01*
X9442619Y-12086571D02*
X9452143Y-12077048D01*
X9452143Y-12077048D02*
X9471191Y-12067524D01*
X9728334Y-12267524D02*
X9614048Y-12267524D01*
X9671191Y-12267524D02*
X9671191Y-12067524D01*
X9671191Y-12067524D02*
X9652143Y-12096095D01*
X9652143Y-12096095D02*
X9633095Y-12115143D01*
X9633095Y-12115143D02*
X9614048Y-12124667D01*
X9909286Y-12067524D02*
X9814048Y-12067524D01*
X9814048Y-12067524D02*
X9804524Y-12162762D01*
X9804524Y-12162762D02*
X9814048Y-12153238D01*
X9814048Y-12153238D02*
X9833095Y-12143714D01*
X9833095Y-12143714D02*
X9880715Y-12143714D01*
X9880715Y-12143714D02*
X9899762Y-12153238D01*
X9899762Y-12153238D02*
X9909286Y-12162762D01*
X9909286Y-12162762D02*
X9918810Y-12181809D01*
X9918810Y-12181809D02*
X9918810Y-12229428D01*
X9918810Y-12229428D02*
X9909286Y-12248476D01*
X9909286Y-12248476D02*
X9899762Y-12258000D01*
X9899762Y-12258000D02*
X9880715Y-12267524D01*
X9880715Y-12267524D02*
X9833095Y-12267524D01*
X9833095Y-12267524D02*
X9814048Y-12258000D01*
X9814048Y-12258000D02*
X9804524Y-12248476D01*
X9985476Y-12067524D02*
X10118810Y-12067524D01*
X10118810Y-12067524D02*
X10033095Y-12267524D01*
X10185476Y-12067524D02*
X10185476Y-12105619D01*
X10261667Y-12067524D02*
X10261667Y-12105619D01*
X10556905Y-12343714D02*
X10547381Y-12334190D01*
X10547381Y-12334190D02*
X10528334Y-12305619D01*
X10528334Y-12305619D02*
X10518810Y-12286571D01*
X10518810Y-12286571D02*
X10509286Y-12258000D01*
X10509286Y-12258000D02*
X10499762Y-12210381D01*
X10499762Y-12210381D02*
X10499762Y-12172286D01*
X10499762Y-12172286D02*
X10509286Y-12124667D01*
X10509286Y-12124667D02*
X10518810Y-12096095D01*
X10518810Y-12096095D02*
X10528334Y-12077048D01*
X10528334Y-12077048D02*
X10547381Y-12048476D01*
X10547381Y-12048476D02*
X10556905Y-12038952D01*
X10737857Y-12267524D02*
X10623572Y-12267524D01*
X10680715Y-12267524D02*
X10680715Y-12067524D01*
X10680715Y-12067524D02*
X10661667Y-12096095D01*
X10661667Y-12096095D02*
X10642619Y-12115143D01*
X10642619Y-12115143D02*
X10623572Y-12124667D01*
X10814048Y-12086571D02*
X10823572Y-12077048D01*
X10823572Y-12077048D02*
X10842619Y-12067524D01*
X10842619Y-12067524D02*
X10890238Y-12067524D01*
X10890238Y-12067524D02*
X10909286Y-12077048D01*
X10909286Y-12077048D02*
X10918810Y-12086571D01*
X10918810Y-12086571D02*
X10928334Y-12105619D01*
X10928334Y-12105619D02*
X10928334Y-12124667D01*
X10928334Y-12124667D02*
X10918810Y-12153238D01*
X10918810Y-12153238D02*
X10804524Y-12267524D01*
X10804524Y-12267524D02*
X10928334Y-12267524D01*
X11004524Y-12086571D02*
X11014048Y-12077048D01*
X11014048Y-12077048D02*
X11033096Y-12067524D01*
X11033096Y-12067524D02*
X11080715Y-12067524D01*
X11080715Y-12067524D02*
X11099762Y-12077048D01*
X11099762Y-12077048D02*
X11109286Y-12086571D01*
X11109286Y-12086571D02*
X11118810Y-12105619D01*
X11118810Y-12105619D02*
X11118810Y-12124667D01*
X11118810Y-12124667D02*
X11109286Y-12153238D01*
X11109286Y-12153238D02*
X10995000Y-12267524D01*
X10995000Y-12267524D02*
X11118810Y-12267524D01*
X11356905Y-12267524D02*
X11356905Y-12067524D01*
X11442619Y-12267524D02*
X11442619Y-12162762D01*
X11442619Y-12162762D02*
X11433096Y-12143714D01*
X11433096Y-12143714D02*
X11414048Y-12134190D01*
X11414048Y-12134190D02*
X11385476Y-12134190D01*
X11385476Y-12134190D02*
X11366429Y-12143714D01*
X11366429Y-12143714D02*
X11356905Y-12153238D01*
X11566429Y-12267524D02*
X11547381Y-12258000D01*
X11547381Y-12258000D02*
X11537857Y-12248476D01*
X11537857Y-12248476D02*
X11528334Y-12229428D01*
X11528334Y-12229428D02*
X11528334Y-12172286D01*
X11528334Y-12172286D02*
X11537857Y-12153238D01*
X11537857Y-12153238D02*
X11547381Y-12143714D01*
X11547381Y-12143714D02*
X11566429Y-12134190D01*
X11566429Y-12134190D02*
X11595000Y-12134190D01*
X11595000Y-12134190D02*
X11614048Y-12143714D01*
X11614048Y-12143714D02*
X11623572Y-12153238D01*
X11623572Y-12153238D02*
X11633096Y-12172286D01*
X11633096Y-12172286D02*
X11633096Y-12229428D01*
X11633096Y-12229428D02*
X11623572Y-12248476D01*
X11623572Y-12248476D02*
X11614048Y-12258000D01*
X11614048Y-12258000D02*
X11595000Y-12267524D01*
X11595000Y-12267524D02*
X11566429Y-12267524D01*
X11747381Y-12267524D02*
X11728334Y-12258000D01*
X11728334Y-12258000D02*
X11718810Y-12238952D01*
X11718810Y-12238952D02*
X11718810Y-12067524D01*
X11899762Y-12258000D02*
X11880715Y-12267524D01*
X11880715Y-12267524D02*
X11842619Y-12267524D01*
X11842619Y-12267524D02*
X11823572Y-12258000D01*
X11823572Y-12258000D02*
X11814048Y-12238952D01*
X11814048Y-12238952D02*
X11814048Y-12162762D01*
X11814048Y-12162762D02*
X11823572Y-12143714D01*
X11823572Y-12143714D02*
X11842619Y-12134190D01*
X11842619Y-12134190D02*
X11880715Y-12134190D01*
X11880715Y-12134190D02*
X11899762Y-12143714D01*
X11899762Y-12143714D02*
X11909286Y-12162762D01*
X11909286Y-12162762D02*
X11909286Y-12181809D01*
X11909286Y-12181809D02*
X11814048Y-12200857D01*
X11985477Y-12258000D02*
X12004524Y-12267524D01*
X12004524Y-12267524D02*
X12042619Y-12267524D01*
X12042619Y-12267524D02*
X12061667Y-12258000D01*
X12061667Y-12258000D02*
X12071191Y-12238952D01*
X12071191Y-12238952D02*
X12071191Y-12229428D01*
X12071191Y-12229428D02*
X12061667Y-12210381D01*
X12061667Y-12210381D02*
X12042619Y-12200857D01*
X12042619Y-12200857D02*
X12014048Y-12200857D01*
X12014048Y-12200857D02*
X11995000Y-12191333D01*
X11995000Y-12191333D02*
X11985477Y-12172286D01*
X11985477Y-12172286D02*
X11985477Y-12162762D01*
X11985477Y-12162762D02*
X11995000Y-12143714D01*
X11995000Y-12143714D02*
X12014048Y-12134190D01*
X12014048Y-12134190D02*
X12042619Y-12134190D01*
X12042619Y-12134190D02*
X12061667Y-12143714D01*
X12137858Y-12343714D02*
X12147381Y-12334190D01*
X12147381Y-12334190D02*
X12166429Y-12305619D01*
X12166429Y-12305619D02*
X12175953Y-12286571D01*
X12175953Y-12286571D02*
X12185477Y-12258000D01*
X12185477Y-12258000D02*
X12195000Y-12210381D01*
X12195000Y-12210381D02*
X12195000Y-12172286D01*
X12195000Y-12172286D02*
X12185477Y-12124667D01*
X12185477Y-12124667D02*
X12175953Y-12096095D01*
X12175953Y-12096095D02*
X12166429Y-12077048D01*
X12166429Y-12077048D02*
X12147381Y-12048476D01*
X12147381Y-12048476D02*
X12137858Y-12038952D01*
D12*
X6995000Y-12439000D02*
G75*
G03*
X6995000Y-12439000I-20000J0D01*
G01*
D11*
X7280714Y-12331524D02*
X7299762Y-12331524D01*
X7299762Y-12331524D02*
X7318809Y-12341048D01*
X7318809Y-12341048D02*
X7328333Y-12350571D01*
X7328333Y-12350571D02*
X7337857Y-12369619D01*
X7337857Y-12369619D02*
X7347381Y-12407714D01*
X7347381Y-12407714D02*
X7347381Y-12455333D01*
X7347381Y-12455333D02*
X7337857Y-12493428D01*
X7337857Y-12493428D02*
X7328333Y-12512476D01*
X7328333Y-12512476D02*
X7318809Y-12522000D01*
X7318809Y-12522000D02*
X7299762Y-12531524D01*
X7299762Y-12531524D02*
X7280714Y-12531524D01*
X7280714Y-12531524D02*
X7261667Y-12522000D01*
X7261667Y-12522000D02*
X7252143Y-12512476D01*
X7252143Y-12512476D02*
X7242619Y-12493428D01*
X7242619Y-12493428D02*
X7233095Y-12455333D01*
X7233095Y-12455333D02*
X7233095Y-12407714D01*
X7233095Y-12407714D02*
X7242619Y-12369619D01*
X7242619Y-12369619D02*
X7252143Y-12350571D01*
X7252143Y-12350571D02*
X7261667Y-12341048D01*
X7261667Y-12341048D02*
X7280714Y-12331524D01*
X7433095Y-12512476D02*
X7442619Y-12522000D01*
X7442619Y-12522000D02*
X7433095Y-12531524D01*
X7433095Y-12531524D02*
X7423571Y-12522000D01*
X7423571Y-12522000D02*
X7433095Y-12512476D01*
X7433095Y-12512476D02*
X7433095Y-12531524D01*
X7614048Y-12398190D02*
X7614048Y-12531524D01*
X7566428Y-12322000D02*
X7518809Y-12464857D01*
X7518809Y-12464857D02*
X7642619Y-12464857D01*
X7756905Y-12331524D02*
X7775952Y-12331524D01*
X7775952Y-12331524D02*
X7795000Y-12341048D01*
X7795000Y-12341048D02*
X7804524Y-12350571D01*
X7804524Y-12350571D02*
X7814048Y-12369619D01*
X7814048Y-12369619D02*
X7823571Y-12407714D01*
X7823571Y-12407714D02*
X7823571Y-12455333D01*
X7823571Y-12455333D02*
X7814048Y-12493428D01*
X7814048Y-12493428D02*
X7804524Y-12512476D01*
X7804524Y-12512476D02*
X7795000Y-12522000D01*
X7795000Y-12522000D02*
X7775952Y-12531524D01*
X7775952Y-12531524D02*
X7756905Y-12531524D01*
X7756905Y-12531524D02*
X7737857Y-12522000D01*
X7737857Y-12522000D02*
X7728333Y-12512476D01*
X7728333Y-12512476D02*
X7718809Y-12493428D01*
X7718809Y-12493428D02*
X7709286Y-12455333D01*
X7709286Y-12455333D02*
X7709286Y-12407714D01*
X7709286Y-12407714D02*
X7718809Y-12369619D01*
X7718809Y-12369619D02*
X7728333Y-12350571D01*
X7728333Y-12350571D02*
X7737857Y-12341048D01*
X7737857Y-12341048D02*
X7756905Y-12331524D01*
X7947381Y-12331524D02*
X7966429Y-12331524D01*
X7966429Y-12331524D02*
X7985476Y-12341048D01*
X7985476Y-12341048D02*
X7995000Y-12350571D01*
X7995000Y-12350571D02*
X8004524Y-12369619D01*
X8004524Y-12369619D02*
X8014048Y-12407714D01*
X8014048Y-12407714D02*
X8014048Y-12455333D01*
X8014048Y-12455333D02*
X8004524Y-12493428D01*
X8004524Y-12493428D02*
X7995000Y-12512476D01*
X7995000Y-12512476D02*
X7985476Y-12522000D01*
X7985476Y-12522000D02*
X7966429Y-12531524D01*
X7966429Y-12531524D02*
X7947381Y-12531524D01*
X7947381Y-12531524D02*
X7928333Y-12522000D01*
X7928333Y-12522000D02*
X7918809Y-12512476D01*
X7918809Y-12512476D02*
X7909286Y-12493428D01*
X7909286Y-12493428D02*
X7899762Y-12455333D01*
X7899762Y-12455333D02*
X7899762Y-12407714D01*
X7899762Y-12407714D02*
X7909286Y-12369619D01*
X7909286Y-12369619D02*
X7918809Y-12350571D01*
X7918809Y-12350571D02*
X7928333Y-12341048D01*
X7928333Y-12341048D02*
X7947381Y-12331524D01*
X8099762Y-12531524D02*
X8099762Y-12398190D01*
X8099762Y-12417238D02*
X8109286Y-12407714D01*
X8109286Y-12407714D02*
X8128333Y-12398190D01*
X8128333Y-12398190D02*
X8156905Y-12398190D01*
X8156905Y-12398190D02*
X8175952Y-12407714D01*
X8175952Y-12407714D02*
X8185476Y-12426762D01*
X8185476Y-12426762D02*
X8185476Y-12531524D01*
X8185476Y-12426762D02*
X8195000Y-12407714D01*
X8195000Y-12407714D02*
X8214048Y-12398190D01*
X8214048Y-12398190D02*
X8242619Y-12398190D01*
X8242619Y-12398190D02*
X8261667Y-12407714D01*
X8261667Y-12407714D02*
X8271190Y-12426762D01*
X8271190Y-12426762D02*
X8271190Y-12531524D01*
X8366429Y-12531524D02*
X8366429Y-12398190D01*
X8366429Y-12417238D02*
X8375952Y-12407714D01*
X8375952Y-12407714D02*
X8395000Y-12398190D01*
X8395000Y-12398190D02*
X8423572Y-12398190D01*
X8423572Y-12398190D02*
X8442619Y-12407714D01*
X8442619Y-12407714D02*
X8452143Y-12426762D01*
X8452143Y-12426762D02*
X8452143Y-12531524D01*
X8452143Y-12426762D02*
X8461667Y-12407714D01*
X8461667Y-12407714D02*
X8480714Y-12398190D01*
X8480714Y-12398190D02*
X8509286Y-12398190D01*
X8509286Y-12398190D02*
X8528333Y-12407714D01*
X8528333Y-12407714D02*
X8537857Y-12426762D01*
X8537857Y-12426762D02*
X8537857Y-12531524D01*
X8928333Y-12322000D02*
X8756905Y-12579143D01*
X9185476Y-12331524D02*
X9204524Y-12331524D01*
X9204524Y-12331524D02*
X9223572Y-12341048D01*
X9223572Y-12341048D02*
X9233095Y-12350571D01*
X9233095Y-12350571D02*
X9242619Y-12369619D01*
X9242619Y-12369619D02*
X9252143Y-12407714D01*
X9252143Y-12407714D02*
X9252143Y-12455333D01*
X9252143Y-12455333D02*
X9242619Y-12493428D01*
X9242619Y-12493428D02*
X9233095Y-12512476D01*
X9233095Y-12512476D02*
X9223572Y-12522000D01*
X9223572Y-12522000D02*
X9204524Y-12531524D01*
X9204524Y-12531524D02*
X9185476Y-12531524D01*
X9185476Y-12531524D02*
X9166429Y-12522000D01*
X9166429Y-12522000D02*
X9156905Y-12512476D01*
X9156905Y-12512476D02*
X9147381Y-12493428D01*
X9147381Y-12493428D02*
X9137857Y-12455333D01*
X9137857Y-12455333D02*
X9137857Y-12407714D01*
X9137857Y-12407714D02*
X9147381Y-12369619D01*
X9147381Y-12369619D02*
X9156905Y-12350571D01*
X9156905Y-12350571D02*
X9166429Y-12341048D01*
X9166429Y-12341048D02*
X9185476Y-12331524D01*
X9337857Y-12512476D02*
X9347381Y-12522000D01*
X9347381Y-12522000D02*
X9337857Y-12531524D01*
X9337857Y-12531524D02*
X9328334Y-12522000D01*
X9328334Y-12522000D02*
X9337857Y-12512476D01*
X9337857Y-12512476D02*
X9337857Y-12531524D01*
X9471191Y-12331524D02*
X9490238Y-12331524D01*
X9490238Y-12331524D02*
X9509286Y-12341048D01*
X9509286Y-12341048D02*
X9518810Y-12350571D01*
X9518810Y-12350571D02*
X9528334Y-12369619D01*
X9528334Y-12369619D02*
X9537857Y-12407714D01*
X9537857Y-12407714D02*
X9537857Y-12455333D01*
X9537857Y-12455333D02*
X9528334Y-12493428D01*
X9528334Y-12493428D02*
X9518810Y-12512476D01*
X9518810Y-12512476D02*
X9509286Y-12522000D01*
X9509286Y-12522000D02*
X9490238Y-12531524D01*
X9490238Y-12531524D02*
X9471191Y-12531524D01*
X9471191Y-12531524D02*
X9452143Y-12522000D01*
X9452143Y-12522000D02*
X9442619Y-12512476D01*
X9442619Y-12512476D02*
X9433095Y-12493428D01*
X9433095Y-12493428D02*
X9423572Y-12455333D01*
X9423572Y-12455333D02*
X9423572Y-12407714D01*
X9423572Y-12407714D02*
X9433095Y-12369619D01*
X9433095Y-12369619D02*
X9442619Y-12350571D01*
X9442619Y-12350571D02*
X9452143Y-12341048D01*
X9452143Y-12341048D02*
X9471191Y-12331524D01*
X9728334Y-12531524D02*
X9614048Y-12531524D01*
X9671191Y-12531524D02*
X9671191Y-12331524D01*
X9671191Y-12331524D02*
X9652143Y-12360095D01*
X9652143Y-12360095D02*
X9633095Y-12379143D01*
X9633095Y-12379143D02*
X9614048Y-12388667D01*
X9909286Y-12331524D02*
X9814048Y-12331524D01*
X9814048Y-12331524D02*
X9804524Y-12426762D01*
X9804524Y-12426762D02*
X9814048Y-12417238D01*
X9814048Y-12417238D02*
X9833095Y-12407714D01*
X9833095Y-12407714D02*
X9880715Y-12407714D01*
X9880715Y-12407714D02*
X9899762Y-12417238D01*
X9899762Y-12417238D02*
X9909286Y-12426762D01*
X9909286Y-12426762D02*
X9918810Y-12445809D01*
X9918810Y-12445809D02*
X9918810Y-12493428D01*
X9918810Y-12493428D02*
X9909286Y-12512476D01*
X9909286Y-12512476D02*
X9899762Y-12522000D01*
X9899762Y-12522000D02*
X9880715Y-12531524D01*
X9880715Y-12531524D02*
X9833095Y-12531524D01*
X9833095Y-12531524D02*
X9814048Y-12522000D01*
X9814048Y-12522000D02*
X9804524Y-12512476D01*
X9985476Y-12331524D02*
X10118810Y-12331524D01*
X10118810Y-12331524D02*
X10033095Y-12531524D01*
X10185476Y-12331524D02*
X10185476Y-12369619D01*
X10261667Y-12331524D02*
X10261667Y-12369619D01*
X10556905Y-12607714D02*
X10547381Y-12598190D01*
X10547381Y-12598190D02*
X10528334Y-12569619D01*
X10528334Y-12569619D02*
X10518810Y-12550571D01*
X10518810Y-12550571D02*
X10509286Y-12522000D01*
X10509286Y-12522000D02*
X10499762Y-12474381D01*
X10499762Y-12474381D02*
X10499762Y-12436286D01*
X10499762Y-12436286D02*
X10509286Y-12388667D01*
X10509286Y-12388667D02*
X10518810Y-12360095D01*
X10518810Y-12360095D02*
X10528334Y-12341048D01*
X10528334Y-12341048D02*
X10547381Y-12312476D01*
X10547381Y-12312476D02*
X10556905Y-12302952D01*
X10737857Y-12531524D02*
X10623572Y-12531524D01*
X10680715Y-12531524D02*
X10680715Y-12331524D01*
X10680715Y-12331524D02*
X10661667Y-12360095D01*
X10661667Y-12360095D02*
X10642619Y-12379143D01*
X10642619Y-12379143D02*
X10623572Y-12388667D01*
X10975953Y-12531524D02*
X10975953Y-12331524D01*
X11061667Y-12531524D02*
X11061667Y-12426762D01*
X11061667Y-12426762D02*
X11052143Y-12407714D01*
X11052143Y-12407714D02*
X11033096Y-12398190D01*
X11033096Y-12398190D02*
X11004524Y-12398190D01*
X11004524Y-12398190D02*
X10985477Y-12407714D01*
X10985477Y-12407714D02*
X10975953Y-12417238D01*
X11185476Y-12531524D02*
X11166429Y-12522000D01*
X11166429Y-12522000D02*
X11156905Y-12512476D01*
X11156905Y-12512476D02*
X11147381Y-12493428D01*
X11147381Y-12493428D02*
X11147381Y-12436286D01*
X11147381Y-12436286D02*
X11156905Y-12417238D01*
X11156905Y-12417238D02*
X11166429Y-12407714D01*
X11166429Y-12407714D02*
X11185476Y-12398190D01*
X11185476Y-12398190D02*
X11214048Y-12398190D01*
X11214048Y-12398190D02*
X11233096Y-12407714D01*
X11233096Y-12407714D02*
X11242619Y-12417238D01*
X11242619Y-12417238D02*
X11252143Y-12436286D01*
X11252143Y-12436286D02*
X11252143Y-12493428D01*
X11252143Y-12493428D02*
X11242619Y-12512476D01*
X11242619Y-12512476D02*
X11233096Y-12522000D01*
X11233096Y-12522000D02*
X11214048Y-12531524D01*
X11214048Y-12531524D02*
X11185476Y-12531524D01*
X11366429Y-12531524D02*
X11347381Y-12522000D01*
X11347381Y-12522000D02*
X11337857Y-12502952D01*
X11337857Y-12502952D02*
X11337857Y-12331524D01*
X11518810Y-12522000D02*
X11499762Y-12531524D01*
X11499762Y-12531524D02*
X11461667Y-12531524D01*
X11461667Y-12531524D02*
X11442619Y-12522000D01*
X11442619Y-12522000D02*
X11433096Y-12502952D01*
X11433096Y-12502952D02*
X11433096Y-12426762D01*
X11433096Y-12426762D02*
X11442619Y-12407714D01*
X11442619Y-12407714D02*
X11461667Y-12398190D01*
X11461667Y-12398190D02*
X11499762Y-12398190D01*
X11499762Y-12398190D02*
X11518810Y-12407714D01*
X11518810Y-12407714D02*
X11528334Y-12426762D01*
X11528334Y-12426762D02*
X11528334Y-12445809D01*
X11528334Y-12445809D02*
X11433096Y-12464857D01*
X11595000Y-12607714D02*
X11604524Y-12598190D01*
X11604524Y-12598190D02*
X11623572Y-12569619D01*
X11623572Y-12569619D02*
X11633096Y-12550571D01*
X11633096Y-12550571D02*
X11642619Y-12522000D01*
X11642619Y-12522000D02*
X11652143Y-12474381D01*
X11652143Y-12474381D02*
X11652143Y-12436286D01*
X11652143Y-12436286D02*
X11642619Y-12388667D01*
X11642619Y-12388667D02*
X11633096Y-12360095D01*
X11633096Y-12360095D02*
X11623572Y-12341048D01*
X11623572Y-12341048D02*
X11604524Y-12312476D01*
X11604524Y-12312476D02*
X11595000Y-12302952D01*
D13*
X6965000Y-12673000D02*
X6965000Y-12733000D01*
X6935000Y-12703000D02*
X6995000Y-12703000D01*
D11*
X7280714Y-12595524D02*
X7299762Y-12595524D01*
X7299762Y-12595524D02*
X7318809Y-12605048D01*
X7318809Y-12605048D02*
X7328333Y-12614571D01*
X7328333Y-12614571D02*
X7337857Y-12633619D01*
X7337857Y-12633619D02*
X7347381Y-12671714D01*
X7347381Y-12671714D02*
X7347381Y-12719333D01*
X7347381Y-12719333D02*
X7337857Y-12757428D01*
X7337857Y-12757428D02*
X7328333Y-12776476D01*
X7328333Y-12776476D02*
X7318809Y-12786000D01*
X7318809Y-12786000D02*
X7299762Y-12795524D01*
X7299762Y-12795524D02*
X7280714Y-12795524D01*
X7280714Y-12795524D02*
X7261667Y-12786000D01*
X7261667Y-12786000D02*
X7252143Y-12776476D01*
X7252143Y-12776476D02*
X7242619Y-12757428D01*
X7242619Y-12757428D02*
X7233095Y-12719333D01*
X7233095Y-12719333D02*
X7233095Y-12671714D01*
X7233095Y-12671714D02*
X7242619Y-12633619D01*
X7242619Y-12633619D02*
X7252143Y-12614571D01*
X7252143Y-12614571D02*
X7261667Y-12605048D01*
X7261667Y-12605048D02*
X7280714Y-12595524D01*
X7433095Y-12776476D02*
X7442619Y-12786000D01*
X7442619Y-12786000D02*
X7433095Y-12795524D01*
X7433095Y-12795524D02*
X7423571Y-12786000D01*
X7423571Y-12786000D02*
X7433095Y-12776476D01*
X7433095Y-12776476D02*
X7433095Y-12795524D01*
X7614048Y-12595524D02*
X7575952Y-12595524D01*
X7575952Y-12595524D02*
X7556905Y-12605048D01*
X7556905Y-12605048D02*
X7547381Y-12614571D01*
X7547381Y-12614571D02*
X7528333Y-12643143D01*
X7528333Y-12643143D02*
X7518809Y-12681238D01*
X7518809Y-12681238D02*
X7518809Y-12757428D01*
X7518809Y-12757428D02*
X7528333Y-12776476D01*
X7528333Y-12776476D02*
X7537857Y-12786000D01*
X7537857Y-12786000D02*
X7556905Y-12795524D01*
X7556905Y-12795524D02*
X7595000Y-12795524D01*
X7595000Y-12795524D02*
X7614048Y-12786000D01*
X7614048Y-12786000D02*
X7623571Y-12776476D01*
X7623571Y-12776476D02*
X7633095Y-12757428D01*
X7633095Y-12757428D02*
X7633095Y-12709809D01*
X7633095Y-12709809D02*
X7623571Y-12690762D01*
X7623571Y-12690762D02*
X7614048Y-12681238D01*
X7614048Y-12681238D02*
X7595000Y-12671714D01*
X7595000Y-12671714D02*
X7556905Y-12671714D01*
X7556905Y-12671714D02*
X7537857Y-12681238D01*
X7537857Y-12681238D02*
X7528333Y-12690762D01*
X7528333Y-12690762D02*
X7518809Y-12709809D01*
X7756905Y-12595524D02*
X7775952Y-12595524D01*
X7775952Y-12595524D02*
X7795000Y-12605048D01*
X7795000Y-12605048D02*
X7804524Y-12614571D01*
X7804524Y-12614571D02*
X7814048Y-12633619D01*
X7814048Y-12633619D02*
X7823571Y-12671714D01*
X7823571Y-12671714D02*
X7823571Y-12719333D01*
X7823571Y-12719333D02*
X7814048Y-12757428D01*
X7814048Y-12757428D02*
X7804524Y-12776476D01*
X7804524Y-12776476D02*
X7795000Y-12786000D01*
X7795000Y-12786000D02*
X7775952Y-12795524D01*
X7775952Y-12795524D02*
X7756905Y-12795524D01*
X7756905Y-12795524D02*
X7737857Y-12786000D01*
X7737857Y-12786000D02*
X7728333Y-12776476D01*
X7728333Y-12776476D02*
X7718809Y-12757428D01*
X7718809Y-12757428D02*
X7709286Y-12719333D01*
X7709286Y-12719333D02*
X7709286Y-12671714D01*
X7709286Y-12671714D02*
X7718809Y-12633619D01*
X7718809Y-12633619D02*
X7728333Y-12614571D01*
X7728333Y-12614571D02*
X7737857Y-12605048D01*
X7737857Y-12605048D02*
X7756905Y-12595524D01*
X7947381Y-12595524D02*
X7966429Y-12595524D01*
X7966429Y-12595524D02*
X7985476Y-12605048D01*
X7985476Y-12605048D02*
X7995000Y-12614571D01*
X7995000Y-12614571D02*
X8004524Y-12633619D01*
X8004524Y-12633619D02*
X8014048Y-12671714D01*
X8014048Y-12671714D02*
X8014048Y-12719333D01*
X8014048Y-12719333D02*
X8004524Y-12757428D01*
X8004524Y-12757428D02*
X7995000Y-12776476D01*
X7995000Y-12776476D02*
X7985476Y-12786000D01*
X7985476Y-12786000D02*
X7966429Y-12795524D01*
X7966429Y-12795524D02*
X7947381Y-12795524D01*
X7947381Y-12795524D02*
X7928333Y-12786000D01*
X7928333Y-12786000D02*
X7918809Y-12776476D01*
X7918809Y-12776476D02*
X7909286Y-12757428D01*
X7909286Y-12757428D02*
X7899762Y-12719333D01*
X7899762Y-12719333D02*
X7899762Y-12671714D01*
X7899762Y-12671714D02*
X7909286Y-12633619D01*
X7909286Y-12633619D02*
X7918809Y-12614571D01*
X7918809Y-12614571D02*
X7928333Y-12605048D01*
X7928333Y-12605048D02*
X7947381Y-12595524D01*
X8099762Y-12795524D02*
X8099762Y-12662190D01*
X8099762Y-12681238D02*
X8109286Y-12671714D01*
X8109286Y-12671714D02*
X8128333Y-12662190D01*
X8128333Y-12662190D02*
X8156905Y-12662190D01*
X8156905Y-12662190D02*
X8175952Y-12671714D01*
X8175952Y-12671714D02*
X8185476Y-12690762D01*
X8185476Y-12690762D02*
X8185476Y-12795524D01*
X8185476Y-12690762D02*
X8195000Y-12671714D01*
X8195000Y-12671714D02*
X8214048Y-12662190D01*
X8214048Y-12662190D02*
X8242619Y-12662190D01*
X8242619Y-12662190D02*
X8261667Y-12671714D01*
X8261667Y-12671714D02*
X8271190Y-12690762D01*
X8271190Y-12690762D02*
X8271190Y-12795524D01*
X8366429Y-12795524D02*
X8366429Y-12662190D01*
X8366429Y-12681238D02*
X8375952Y-12671714D01*
X8375952Y-12671714D02*
X8395000Y-12662190D01*
X8395000Y-12662190D02*
X8423572Y-12662190D01*
X8423572Y-12662190D02*
X8442619Y-12671714D01*
X8442619Y-12671714D02*
X8452143Y-12690762D01*
X8452143Y-12690762D02*
X8452143Y-12795524D01*
X8452143Y-12690762D02*
X8461667Y-12671714D01*
X8461667Y-12671714D02*
X8480714Y-12662190D01*
X8480714Y-12662190D02*
X8509286Y-12662190D01*
X8509286Y-12662190D02*
X8528333Y-12671714D01*
X8528333Y-12671714D02*
X8537857Y-12690762D01*
X8537857Y-12690762D02*
X8537857Y-12795524D01*
X8928333Y-12586000D02*
X8756905Y-12843143D01*
X9185476Y-12595524D02*
X9204524Y-12595524D01*
X9204524Y-12595524D02*
X9223572Y-12605048D01*
X9223572Y-12605048D02*
X9233095Y-12614571D01*
X9233095Y-12614571D02*
X9242619Y-12633619D01*
X9242619Y-12633619D02*
X9252143Y-12671714D01*
X9252143Y-12671714D02*
X9252143Y-12719333D01*
X9252143Y-12719333D02*
X9242619Y-12757428D01*
X9242619Y-12757428D02*
X9233095Y-12776476D01*
X9233095Y-12776476D02*
X9223572Y-12786000D01*
X9223572Y-12786000D02*
X9204524Y-12795524D01*
X9204524Y-12795524D02*
X9185476Y-12795524D01*
X9185476Y-12795524D02*
X9166429Y-12786000D01*
X9166429Y-12786000D02*
X9156905Y-12776476D01*
X9156905Y-12776476D02*
X9147381Y-12757428D01*
X9147381Y-12757428D02*
X9137857Y-12719333D01*
X9137857Y-12719333D02*
X9137857Y-12671714D01*
X9137857Y-12671714D02*
X9147381Y-12633619D01*
X9147381Y-12633619D02*
X9156905Y-12614571D01*
X9156905Y-12614571D02*
X9166429Y-12605048D01*
X9166429Y-12605048D02*
X9185476Y-12595524D01*
X9337857Y-12776476D02*
X9347381Y-12786000D01*
X9347381Y-12786000D02*
X9337857Y-12795524D01*
X9337857Y-12795524D02*
X9328334Y-12786000D01*
X9328334Y-12786000D02*
X9337857Y-12776476D01*
X9337857Y-12776476D02*
X9337857Y-12795524D01*
X9471191Y-12595524D02*
X9490238Y-12595524D01*
X9490238Y-12595524D02*
X9509286Y-12605048D01*
X9509286Y-12605048D02*
X9518810Y-12614571D01*
X9518810Y-12614571D02*
X9528334Y-12633619D01*
X9528334Y-12633619D02*
X9537857Y-12671714D01*
X9537857Y-12671714D02*
X9537857Y-12719333D01*
X9537857Y-12719333D02*
X9528334Y-12757428D01*
X9528334Y-12757428D02*
X9518810Y-12776476D01*
X9518810Y-12776476D02*
X9509286Y-12786000D01*
X9509286Y-12786000D02*
X9490238Y-12795524D01*
X9490238Y-12795524D02*
X9471191Y-12795524D01*
X9471191Y-12795524D02*
X9452143Y-12786000D01*
X9452143Y-12786000D02*
X9442619Y-12776476D01*
X9442619Y-12776476D02*
X9433095Y-12757428D01*
X9433095Y-12757428D02*
X9423572Y-12719333D01*
X9423572Y-12719333D02*
X9423572Y-12671714D01*
X9423572Y-12671714D02*
X9433095Y-12633619D01*
X9433095Y-12633619D02*
X9442619Y-12614571D01*
X9442619Y-12614571D02*
X9452143Y-12605048D01*
X9452143Y-12605048D02*
X9471191Y-12595524D01*
X9614048Y-12614571D02*
X9623572Y-12605048D01*
X9623572Y-12605048D02*
X9642619Y-12595524D01*
X9642619Y-12595524D02*
X9690238Y-12595524D01*
X9690238Y-12595524D02*
X9709286Y-12605048D01*
X9709286Y-12605048D02*
X9718810Y-12614571D01*
X9718810Y-12614571D02*
X9728334Y-12633619D01*
X9728334Y-12633619D02*
X9728334Y-12652667D01*
X9728334Y-12652667D02*
X9718810Y-12681238D01*
X9718810Y-12681238D02*
X9604524Y-12795524D01*
X9604524Y-12795524D02*
X9728334Y-12795524D01*
X9795000Y-12595524D02*
X9918810Y-12595524D01*
X9918810Y-12595524D02*
X9852143Y-12671714D01*
X9852143Y-12671714D02*
X9880715Y-12671714D01*
X9880715Y-12671714D02*
X9899762Y-12681238D01*
X9899762Y-12681238D02*
X9909286Y-12690762D01*
X9909286Y-12690762D02*
X9918810Y-12709809D01*
X9918810Y-12709809D02*
X9918810Y-12757428D01*
X9918810Y-12757428D02*
X9909286Y-12776476D01*
X9909286Y-12776476D02*
X9899762Y-12786000D01*
X9899762Y-12786000D02*
X9880715Y-12795524D01*
X9880715Y-12795524D02*
X9823572Y-12795524D01*
X9823572Y-12795524D02*
X9804524Y-12786000D01*
X9804524Y-12786000D02*
X9795000Y-12776476D01*
X10090238Y-12595524D02*
X10052143Y-12595524D01*
X10052143Y-12595524D02*
X10033095Y-12605048D01*
X10033095Y-12605048D02*
X10023572Y-12614571D01*
X10023572Y-12614571D02*
X10004524Y-12643143D01*
X10004524Y-12643143D02*
X9995000Y-12681238D01*
X9995000Y-12681238D02*
X9995000Y-12757428D01*
X9995000Y-12757428D02*
X10004524Y-12776476D01*
X10004524Y-12776476D02*
X10014048Y-12786000D01*
X10014048Y-12786000D02*
X10033095Y-12795524D01*
X10033095Y-12795524D02*
X10071191Y-12795524D01*
X10071191Y-12795524D02*
X10090238Y-12786000D01*
X10090238Y-12786000D02*
X10099762Y-12776476D01*
X10099762Y-12776476D02*
X10109286Y-12757428D01*
X10109286Y-12757428D02*
X10109286Y-12709809D01*
X10109286Y-12709809D02*
X10099762Y-12690762D01*
X10099762Y-12690762D02*
X10090238Y-12681238D01*
X10090238Y-12681238D02*
X10071191Y-12671714D01*
X10071191Y-12671714D02*
X10033095Y-12671714D01*
X10033095Y-12671714D02*
X10014048Y-12681238D01*
X10014048Y-12681238D02*
X10004524Y-12690762D01*
X10004524Y-12690762D02*
X9995000Y-12709809D01*
X10185476Y-12595524D02*
X10185476Y-12633619D01*
X10261667Y-12595524D02*
X10261667Y-12633619D01*
X10556905Y-12871714D02*
X10547381Y-12862190D01*
X10547381Y-12862190D02*
X10528334Y-12833619D01*
X10528334Y-12833619D02*
X10518810Y-12814571D01*
X10518810Y-12814571D02*
X10509286Y-12786000D01*
X10509286Y-12786000D02*
X10499762Y-12738381D01*
X10499762Y-12738381D02*
X10499762Y-12700286D01*
X10499762Y-12700286D02*
X10509286Y-12652667D01*
X10509286Y-12652667D02*
X10518810Y-12624095D01*
X10518810Y-12624095D02*
X10528334Y-12605048D01*
X10528334Y-12605048D02*
X10547381Y-12576476D01*
X10547381Y-12576476D02*
X10556905Y-12566952D01*
X10671191Y-12595524D02*
X10690238Y-12595524D01*
X10690238Y-12595524D02*
X10709286Y-12605048D01*
X10709286Y-12605048D02*
X10718810Y-12614571D01*
X10718810Y-12614571D02*
X10728334Y-12633619D01*
X10728334Y-12633619D02*
X10737857Y-12671714D01*
X10737857Y-12671714D02*
X10737857Y-12719333D01*
X10737857Y-12719333D02*
X10728334Y-12757428D01*
X10728334Y-12757428D02*
X10718810Y-12776476D01*
X10718810Y-12776476D02*
X10709286Y-12786000D01*
X10709286Y-12786000D02*
X10690238Y-12795524D01*
X10690238Y-12795524D02*
X10671191Y-12795524D01*
X10671191Y-12795524D02*
X10652143Y-12786000D01*
X10652143Y-12786000D02*
X10642619Y-12776476D01*
X10642619Y-12776476D02*
X10633096Y-12757428D01*
X10633096Y-12757428D02*
X10623572Y-12719333D01*
X10623572Y-12719333D02*
X10623572Y-12671714D01*
X10623572Y-12671714D02*
X10633096Y-12633619D01*
X10633096Y-12633619D02*
X10642619Y-12614571D01*
X10642619Y-12614571D02*
X10652143Y-12605048D01*
X10652143Y-12605048D02*
X10671191Y-12595524D01*
X10975953Y-12795524D02*
X10975953Y-12595524D01*
X11061667Y-12795524D02*
X11061667Y-12690762D01*
X11061667Y-12690762D02*
X11052143Y-12671714D01*
X11052143Y-12671714D02*
X11033096Y-12662190D01*
X11033096Y-12662190D02*
X11004524Y-12662190D01*
X11004524Y-12662190D02*
X10985477Y-12671714D01*
X10985477Y-12671714D02*
X10975953Y-12681238D01*
X11185476Y-12795524D02*
X11166429Y-12786000D01*
X11166429Y-12786000D02*
X11156905Y-12776476D01*
X11156905Y-12776476D02*
X11147381Y-12757428D01*
X11147381Y-12757428D02*
X11147381Y-12700286D01*
X11147381Y-12700286D02*
X11156905Y-12681238D01*
X11156905Y-12681238D02*
X11166429Y-12671714D01*
X11166429Y-12671714D02*
X11185476Y-12662190D01*
X11185476Y-12662190D02*
X11214048Y-12662190D01*
X11214048Y-12662190D02*
X11233096Y-12671714D01*
X11233096Y-12671714D02*
X11242619Y-12681238D01*
X11242619Y-12681238D02*
X11252143Y-12700286D01*
X11252143Y-12700286D02*
X11252143Y-12757428D01*
X11252143Y-12757428D02*
X11242619Y-12776476D01*
X11242619Y-12776476D02*
X11233096Y-12786000D01*
X11233096Y-12786000D02*
X11214048Y-12795524D01*
X11214048Y-12795524D02*
X11185476Y-12795524D01*
X11366429Y-12795524D02*
X11347381Y-12786000D01*
X11347381Y-12786000D02*
X11337857Y-12766952D01*
X11337857Y-12766952D02*
X11337857Y-12595524D01*
X11518810Y-12786000D02*
X11499762Y-12795524D01*
X11499762Y-12795524D02*
X11461667Y-12795524D01*
X11461667Y-12795524D02*
X11442619Y-12786000D01*
X11442619Y-12786000D02*
X11433096Y-12766952D01*
X11433096Y-12766952D02*
X11433096Y-12690762D01*
X11433096Y-12690762D02*
X11442619Y-12671714D01*
X11442619Y-12671714D02*
X11461667Y-12662190D01*
X11461667Y-12662190D02*
X11499762Y-12662190D01*
X11499762Y-12662190D02*
X11518810Y-12671714D01*
X11518810Y-12671714D02*
X11528334Y-12690762D01*
X11528334Y-12690762D02*
X11528334Y-12709809D01*
X11528334Y-12709809D02*
X11433096Y-12728857D01*
X11604524Y-12786000D02*
X11623572Y-12795524D01*
X11623572Y-12795524D02*
X11661667Y-12795524D01*
X11661667Y-12795524D02*
X11680715Y-12786000D01*
X11680715Y-12786000D02*
X11690238Y-12766952D01*
X11690238Y-12766952D02*
X11690238Y-12757428D01*
X11690238Y-12757428D02*
X11680715Y-12738381D01*
X11680715Y-12738381D02*
X11661667Y-12728857D01*
X11661667Y-12728857D02*
X11633096Y-12728857D01*
X11633096Y-12728857D02*
X11614048Y-12719333D01*
X11614048Y-12719333D02*
X11604524Y-12700286D01*
X11604524Y-12700286D02*
X11604524Y-12690762D01*
X11604524Y-12690762D02*
X11614048Y-12671714D01*
X11614048Y-12671714D02*
X11633096Y-12662190D01*
X11633096Y-12662190D02*
X11661667Y-12662190D01*
X11661667Y-12662190D02*
X11680715Y-12671714D01*
X11928334Y-12719333D02*
X12080715Y-12719333D01*
X12004524Y-12795524D02*
X12004524Y-12643143D01*
X12414048Y-12662190D02*
X12414048Y-12795524D01*
X12366429Y-12586000D02*
X12318810Y-12728857D01*
X12318810Y-12728857D02*
X12442619Y-12728857D01*
X12661667Y-12786000D02*
X12680715Y-12795524D01*
X12680715Y-12795524D02*
X12718810Y-12795524D01*
X12718810Y-12795524D02*
X12737858Y-12786000D01*
X12737858Y-12786000D02*
X12747381Y-12766952D01*
X12747381Y-12766952D02*
X12747381Y-12757428D01*
X12747381Y-12757428D02*
X12737858Y-12738381D01*
X12737858Y-12738381D02*
X12718810Y-12728857D01*
X12718810Y-12728857D02*
X12690239Y-12728857D01*
X12690239Y-12728857D02*
X12671191Y-12719333D01*
X12671191Y-12719333D02*
X12661667Y-12700286D01*
X12661667Y-12700286D02*
X12661667Y-12690762D01*
X12661667Y-12690762D02*
X12671191Y-12671714D01*
X12671191Y-12671714D02*
X12690239Y-12662190D01*
X12690239Y-12662190D02*
X12718810Y-12662190D01*
X12718810Y-12662190D02*
X12737858Y-12671714D01*
X12861667Y-12795524D02*
X12842620Y-12786000D01*
X12842620Y-12786000D02*
X12833096Y-12766952D01*
X12833096Y-12766952D02*
X12833096Y-12595524D01*
X12966429Y-12795524D02*
X12947381Y-12786000D01*
X12947381Y-12786000D02*
X12937858Y-12776476D01*
X12937858Y-12776476D02*
X12928334Y-12757428D01*
X12928334Y-12757428D02*
X12928334Y-12700286D01*
X12928334Y-12700286D02*
X12937858Y-12681238D01*
X12937858Y-12681238D02*
X12947381Y-12671714D01*
X12947381Y-12671714D02*
X12966429Y-12662190D01*
X12966429Y-12662190D02*
X12995001Y-12662190D01*
X12995001Y-12662190D02*
X13014048Y-12671714D01*
X13014048Y-12671714D02*
X13023572Y-12681238D01*
X13023572Y-12681238D02*
X13033096Y-12700286D01*
X13033096Y-12700286D02*
X13033096Y-12757428D01*
X13033096Y-12757428D02*
X13023572Y-12776476D01*
X13023572Y-12776476D02*
X13014048Y-12786000D01*
X13014048Y-12786000D02*
X12995001Y-12795524D01*
X12995001Y-12795524D02*
X12966429Y-12795524D01*
X13090239Y-12662190D02*
X13166429Y-12662190D01*
X13118810Y-12595524D02*
X13118810Y-12766952D01*
X13118810Y-12766952D02*
X13128334Y-12786000D01*
X13128334Y-12786000D02*
X13147381Y-12795524D01*
X13147381Y-12795524D02*
X13166429Y-12795524D01*
X13223572Y-12786000D02*
X13242620Y-12795524D01*
X13242620Y-12795524D02*
X13280715Y-12795524D01*
X13280715Y-12795524D02*
X13299762Y-12786000D01*
X13299762Y-12786000D02*
X13309286Y-12766952D01*
X13309286Y-12766952D02*
X13309286Y-12757428D01*
X13309286Y-12757428D02*
X13299762Y-12738381D01*
X13299762Y-12738381D02*
X13280715Y-12728857D01*
X13280715Y-12728857D02*
X13252143Y-12728857D01*
X13252143Y-12728857D02*
X13233096Y-12719333D01*
X13233096Y-12719333D02*
X13223572Y-12700286D01*
X13223572Y-12700286D02*
X13223572Y-12690762D01*
X13223572Y-12690762D02*
X13233096Y-12671714D01*
X13233096Y-12671714D02*
X13252143Y-12662190D01*
X13252143Y-12662190D02*
X13280715Y-12662190D01*
X13280715Y-12662190D02*
X13299762Y-12671714D01*
X13375953Y-12871714D02*
X13385477Y-12862190D01*
X13385477Y-12862190D02*
X13404524Y-12833619D01*
X13404524Y-12833619D02*
X13414048Y-12814571D01*
X13414048Y-12814571D02*
X13423572Y-12786000D01*
X13423572Y-12786000D02*
X13433096Y-12738381D01*
X13433096Y-12738381D02*
X13433096Y-12700286D01*
X13433096Y-12700286D02*
X13423572Y-12652667D01*
X13423572Y-12652667D02*
X13414048Y-12624095D01*
X13414048Y-12624095D02*
X13404524Y-12605048D01*
X13404524Y-12605048D02*
X13385477Y-12576476D01*
X13385477Y-12576476D02*
X13375953Y-12566952D01*
M02*
