%TF.GenerationSoftware,KiCad,Pcbnew,7.0.2-6a45011f42~172~ubuntu22.04.1*%
%TF.CreationDate,2023-05-14T19:46:30+02:00*%
%TF.ProjectId,PowerMeter,506f7765-724d-4657-9465-722e6b696361,rev?*%
%TF.SameCoordinates,Original*%
%TF.FileFunction,Copper,L1,Top*%
%TF.FilePolarity,Positive*%
%FSLAX46Y46*%
G04 Gerber Fmt 4.6, Leading zero omitted, Abs format (unit mm)*
G04 Created by KiCad (PCBNEW 7.0.2-6a45011f42~172~ubuntu22.04.1) date 2023-05-14 19:46:30*
%MOMM*%
%LPD*%
G01*
G04 APERTURE LIST*
G04 Aperture macros list*
%AMRoundRect*
0 Rectangle with rounded corners*
0 $1 Rounding radius*
0 $2 $3 $4 $5 $6 $7 $8 $9 X,Y pos of 4 corners*
0 Add a 4 corners polygon primitive as box body*
4,1,4,$2,$3,$4,$5,$6,$7,$8,$9,$2,$3,0*
0 Add four circle primitives for the rounded corners*
1,1,$1+$1,$2,$3*
1,1,$1+$1,$4,$5*
1,1,$1+$1,$6,$7*
1,1,$1+$1,$8,$9*
0 Add four rect primitives between the rounded corners*
20,1,$1+$1,$2,$3,$4,$5,0*
20,1,$1+$1,$4,$5,$6,$7,0*
20,1,$1+$1,$6,$7,$8,$9,0*
20,1,$1+$1,$8,$9,$2,$3,0*%
G04 Aperture macros list end*
%TA.AperFunction,EtchedComponent*%
%ADD10C,0.001000*%
%TD*%
%TA.AperFunction,SMDPad,CuDef*%
%ADD11R,1.500000X1.000000*%
%TD*%
%TA.AperFunction,SMDPad,CuDef*%
%ADD12RoundRect,0.225000X0.250000X-0.225000X0.250000X0.225000X-0.250000X0.225000X-0.250000X-0.225000X0*%
%TD*%
%TA.AperFunction,SMDPad,CuDef*%
%ADD13RoundRect,0.200000X-0.275000X0.200000X-0.275000X-0.200000X0.275000X-0.200000X0.275000X0.200000X0*%
%TD*%
%TA.AperFunction,SMDPad,CuDef*%
%ADD14RoundRect,0.200000X-0.200000X-0.800000X0.200000X-0.800000X0.200000X0.800000X-0.200000X0.800000X0*%
%TD*%
%TA.AperFunction,SMDPad,CuDef*%
%ADD15RoundRect,0.200000X-0.200000X-0.275000X0.200000X-0.275000X0.200000X0.275000X-0.200000X0.275000X0*%
%TD*%
%TA.AperFunction,SMDPad,CuDef*%
%ADD16RoundRect,0.225000X0.225000X0.250000X-0.225000X0.250000X-0.225000X-0.250000X0.225000X-0.250000X0*%
%TD*%
%TA.AperFunction,SMDPad,CuDef*%
%ADD17RoundRect,0.200000X0.200000X0.275000X-0.200000X0.275000X-0.200000X-0.275000X0.200000X-0.275000X0*%
%TD*%
%TA.AperFunction,SMDPad,CuDef*%
%ADD18R,2.000000X1.500000*%
%TD*%
%TA.AperFunction,SMDPad,CuDef*%
%ADD19R,2.000000X3.800000*%
%TD*%
%TA.AperFunction,SMDPad,CuDef*%
%ADD20RoundRect,0.225000X-0.250000X0.225000X-0.250000X-0.225000X0.250000X-0.225000X0.250000X0.225000X0*%
%TD*%
%TA.AperFunction,SMDPad,CuDef*%
%ADD21RoundRect,0.225000X-0.225000X-0.250000X0.225000X-0.250000X0.225000X0.250000X-0.225000X0.250000X0*%
%TD*%
%TA.AperFunction,SMDPad,CuDef*%
%ADD22R,0.500000X0.750000*%
%TD*%
%TA.AperFunction,ComponentPad*%
%ADD23R,0.880000X0.880000*%
%TD*%
%TA.AperFunction,SMDPad,CuDef*%
%ADD24RoundRect,0.218750X0.256250X-0.218750X0.256250X0.218750X-0.256250X0.218750X-0.256250X-0.218750X0*%
%TD*%
%TA.AperFunction,SMDPad,CuDef*%
%ADD25RoundRect,0.135000X0.135000X0.185000X-0.135000X0.185000X-0.135000X-0.185000X0.135000X-0.185000X0*%
%TD*%
%TA.AperFunction,SMDPad,CuDef*%
%ADD26RoundRect,0.140000X-0.140000X-0.170000X0.140000X-0.170000X0.140000X0.170000X-0.140000X0.170000X0*%
%TD*%
%TA.AperFunction,SMDPad,CuDef*%
%ADD27R,0.300000X0.550000*%
%TD*%
%TA.AperFunction,SMDPad,CuDef*%
%ADD28R,0.400000X0.550000*%
%TD*%
%TA.AperFunction,SMDPad,CuDef*%
%ADD29RoundRect,0.140000X0.140000X0.170000X-0.140000X0.170000X-0.140000X-0.170000X0.140000X-0.170000X0*%
%TD*%
%TA.AperFunction,SMDPad,CuDef*%
%ADD30R,0.600000X1.160000*%
%TD*%
%TA.AperFunction,SMDPad,CuDef*%
%ADD31R,0.300000X1.160000*%
%TD*%
%TA.AperFunction,ComponentPad*%
%ADD32O,0.900000X2.000000*%
%TD*%
%TA.AperFunction,ComponentPad*%
%ADD33O,0.900000X1.700000*%
%TD*%
%TA.AperFunction,SMDPad,CuDef*%
%ADD34R,1.200000X1.400000*%
%TD*%
%TA.AperFunction,SMDPad,CuDef*%
%ADD35R,2.500000X1.200000*%
%TD*%
%TA.AperFunction,SMDPad,CuDef*%
%ADD36RoundRect,0.062500X-0.062500X0.375000X-0.062500X-0.375000X0.062500X-0.375000X0.062500X0.375000X0*%
%TD*%
%TA.AperFunction,SMDPad,CuDef*%
%ADD37RoundRect,0.062500X-0.375000X0.062500X-0.375000X-0.062500X0.375000X-0.062500X0.375000X0.062500X0*%
%TD*%
%TA.AperFunction,SMDPad,CuDef*%
%ADD38R,3.450000X3.450000*%
%TD*%
%TA.AperFunction,SMDPad,CuDef*%
%ADD39RoundRect,0.218750X-0.256250X0.218750X-0.256250X-0.218750X0.256250X-0.218750X0.256250X0.218750X0*%
%TD*%
%TA.AperFunction,ViaPad*%
%ADD40C,0.800000*%
%TD*%
%TA.AperFunction,ViaPad*%
%ADD41C,0.700000*%
%TD*%
%TA.AperFunction,Conductor*%
%ADD42C,0.150000*%
%TD*%
%TA.AperFunction,Conductor*%
%ADD43C,0.300000*%
%TD*%
%TA.AperFunction,Conductor*%
%ADD44C,0.250000*%
%TD*%
%TA.AperFunction,Conductor*%
%ADD45C,0.200000*%
%TD*%
%TA.AperFunction,Conductor*%
%ADD46C,0.500000*%
%TD*%
G04 APERTURE END LIST*
%TO.C,AE1*%
D10*
X80420000Y-73300000D02*
X82420000Y-73300000D01*
X82420000Y-70670000D01*
X85120000Y-70670000D01*
X85120000Y-73310000D01*
X87120000Y-73310000D01*
X87120000Y-70670000D01*
X92120000Y-70670000D01*
X92120000Y-75390000D01*
X91240000Y-75390000D01*
X91220000Y-71170000D01*
X89820000Y-71170000D01*
X89820000Y-75360000D01*
X89320000Y-75360000D01*
X89320000Y-71170000D01*
X87620000Y-71170000D01*
X87620000Y-73810000D01*
X84620000Y-73810000D01*
X84620000Y-71170000D01*
X82920000Y-71170000D01*
X82920000Y-73810000D01*
X79920000Y-73810000D01*
X79920000Y-71170000D01*
X78220000Y-71170000D01*
X78220000Y-75110000D01*
X77720000Y-75110000D01*
X77720000Y-70670000D01*
X80420000Y-70670000D01*
X80420000Y-73300000D01*
%TA.AperFunction,EtchedComponent*%
G36*
X80420000Y-73300000D02*
G01*
X82420000Y-73300000D01*
X82420000Y-70670000D01*
X85120000Y-70670000D01*
X85120000Y-73310000D01*
X87120000Y-73310000D01*
X87120000Y-70670000D01*
X92120000Y-70670000D01*
X92120000Y-75390000D01*
X91240000Y-75390000D01*
X91220000Y-71170000D01*
X89820000Y-71170000D01*
X89820000Y-75360000D01*
X89320000Y-75360000D01*
X89320000Y-71170000D01*
X87620000Y-71170000D01*
X87620000Y-73810000D01*
X84620000Y-73810000D01*
X84620000Y-71170000D01*
X82920000Y-71170000D01*
X82920000Y-73810000D01*
X79920000Y-73810000D01*
X79920000Y-71170000D01*
X78220000Y-71170000D01*
X78220000Y-75110000D01*
X77720000Y-75110000D01*
X77720000Y-70670000D01*
X80420000Y-70670000D01*
X80420000Y-73300000D01*
G37*
%TD.AperFunction*%
%TD*%
D11*
%TO.P,D2,1,GK*%
%TO.N,Net-(D2-GK)*%
X78670000Y-94000000D03*
%TO.P,D2,3,A*%
%TO.N,+3V3*%
X78670000Y-95400000D03*
%TO.P,D2,4,RK*%
%TO.N,Net-(D2-RK)*%
X82170000Y-95400000D03*
%TO.P,D2,2,BK*%
%TO.N,Net-(D2-BK)*%
X82170000Y-94000000D03*
%TD*%
D12*
%TO.P,C6,1*%
%TO.N,/CHIP_BOOT*%
X85360000Y-81585000D03*
%TO.P,C6,2*%
%TO.N,GND*%
X85360000Y-80035000D03*
%TD*%
D13*
%TO.P,R2,1*%
%TO.N,+3V3*%
X83760000Y-79985000D03*
%TO.P,R2,2*%
%TO.N,/CHIP_BOOT*%
X83760000Y-81635000D03*
%TD*%
D14*
%TO.P,SW2,1,1*%
%TO.N,/CHIP_BOOT*%
X90620000Y-84900000D03*
%TO.P,SW2,2,2*%
%TO.N,GND*%
X94820000Y-84900000D03*
%TD*%
D15*
%TO.P,R4,1*%
%TO.N,Net-(J2-CC2)*%
X92295000Y-104500000D03*
%TO.P,R4,2*%
%TO.N,GND*%
X93945000Y-104500000D03*
%TD*%
D14*
%TO.P,SW1,1,1*%
%TO.N,/CHIP_EN*%
X90620000Y-81400000D03*
%TO.P,SW1,2,2*%
%TO.N,GND*%
X94820000Y-81400000D03*
%TD*%
D12*
%TO.P,C12,1*%
%TO.N,+3V3*%
X88560000Y-84685000D03*
%TO.P,C12,2*%
%TO.N,GND*%
X88560000Y-83135000D03*
%TD*%
D16*
%TO.P,C8,1*%
%TO.N,+3V3*%
X78220000Y-79700000D03*
%TO.P,C8,2*%
%TO.N,GND*%
X76670000Y-79700000D03*
%TD*%
D17*
%TO.P,R10,1*%
%TO.N,Net-(C19-Pad1)*%
X81420000Y-98900000D03*
%TO.P,R10,2*%
%TO.N,GND*%
X79770000Y-98900000D03*
%TD*%
D18*
%TO.P,U2,1,GND*%
%TO.N,GND*%
X87870000Y-93300000D03*
%TO.P,U2,2,VO*%
%TO.N,+3V3*%
X87870000Y-95600000D03*
D19*
X94170000Y-95600000D03*
D18*
%TO.P,U2,3,VI*%
%TO.N,+5VA*%
X87870000Y-97900000D03*
%TD*%
D20*
%TO.P,C15,1*%
%TO.N,+3V3*%
X84080000Y-95800000D03*
%TO.P,C15,2*%
%TO.N,GND*%
X84080000Y-97350000D03*
%TD*%
D21*
%TO.P,C18,1*%
%TO.N,/BLE_MODE*%
X90285000Y-90910000D03*
%TO.P,C18,2*%
%TO.N,GND*%
X91835000Y-90910000D03*
%TD*%
D16*
%TO.P,C13,1*%
%TO.N,+3V3*%
X76520000Y-95500000D03*
%TO.P,C13,2*%
%TO.N,GND*%
X74970000Y-95500000D03*
%TD*%
D22*
%TO.P,AE1,1*%
%TO.N,Net-(AE1-Pad1)*%
X89570000Y-75700000D03*
D23*
%TO.P,AE1,2*%
%TO.N,GND*%
X91670000Y-75740000D03*
%TD*%
D24*
%TO.P,L1,1,1*%
%TO.N,+3.3VP*%
X78120000Y-82900000D03*
%TO.P,L1,2,2*%
%TO.N,+3V3*%
X78120000Y-81325000D03*
%TD*%
D16*
%TO.P,C9,1*%
%TO.N,+3V3*%
X78195000Y-78100000D03*
%TO.P,C9,2*%
%TO.N,GND*%
X76645000Y-78100000D03*
%TD*%
D25*
%TO.P,R1,1*%
%TO.N,Net-(C4-Pad1)*%
X83130000Y-88900000D03*
%TO.P,R1,2*%
%TO.N,/XTAL_N*%
X82110000Y-88900000D03*
%TD*%
D15*
%TO.P,R11,1*%
%TO.N,+3V3*%
X79770000Y-97300000D03*
%TO.P,R11,2*%
%TO.N,Net-(C19-Pad1)*%
X81420000Y-97300000D03*
%TD*%
D21*
%TO.P,C14,1*%
%TO.N,+5VA*%
X87345000Y-100100000D03*
%TO.P,C14,2*%
%TO.N,GND*%
X88895000Y-100100000D03*
%TD*%
D13*
%TO.P,R3,1*%
%TO.N,+3V3*%
X88560000Y-79985000D03*
%TO.P,R3,2*%
%TO.N,/CHIP_EN*%
X88560000Y-81635000D03*
%TD*%
D16*
%TO.P,C10,1*%
%TO.N,+3V3*%
X76520000Y-93900000D03*
%TO.P,C10,2*%
%TO.N,GND*%
X74970000Y-93900000D03*
%TD*%
D26*
%TO.P,C4,1*%
%TO.N,Net-(C4-Pad1)*%
X84960000Y-86400000D03*
%TO.P,C4,2*%
%TO.N,GND*%
X85920000Y-86400000D03*
%TD*%
D21*
%TO.P,C17,1*%
%TO.N,+5VA*%
X87345000Y-101700000D03*
%TO.P,C17,2*%
%TO.N,GND*%
X88895000Y-101700000D03*
%TD*%
%TO.P,C2,1*%
%TO.N,/LNA_IN*%
X79945000Y-84512500D03*
%TO.P,C2,2*%
%TO.N,GND*%
X81495000Y-84512500D03*
%TD*%
%TO.P,C19,1*%
%TO.N,Net-(C19-Pad1)*%
X82870000Y-98900000D03*
%TO.P,C19,2*%
%TO.N,GND*%
X84420000Y-98900000D03*
%TD*%
D17*
%TO.P,R5,1*%
%TO.N,Net-(J2-CC1)*%
X88345000Y-104600000D03*
%TO.P,R5,2*%
%TO.N,GND*%
X86695000Y-104600000D03*
%TD*%
D13*
%TO.P,R9,1*%
%TO.N,/LED_B*%
X75020000Y-97675000D03*
%TO.P,R9,2*%
%TO.N,Net-(D2-BK)*%
X75020000Y-99325000D03*
%TD*%
D17*
%TO.P,R6,1*%
%TO.N,+3V3*%
X94985000Y-90910000D03*
%TO.P,R6,2*%
%TO.N,/BLE_MODE*%
X93335000Y-90910000D03*
%TD*%
D20*
%TO.P,C16,1*%
%TO.N,+3V3*%
X85820000Y-95800000D03*
%TO.P,C16,2*%
%TO.N,GND*%
X85820000Y-97350000D03*
%TD*%
D27*
%TO.P,U3,1,D1+*%
%TO.N,/USB_D+*%
X90453884Y-102925000D03*
%TO.P,U3,2,D1-*%
%TO.N,/USB_D-*%
X90953884Y-102925000D03*
D28*
%TO.P,U3,3,GND*%
%TO.N,GND*%
X91453884Y-102925000D03*
D27*
%TO.P,U3,4,D2+*%
%TO.N,/USB_D+_ESP*%
X91953884Y-102925000D03*
%TO.P,U3,5,D2-*%
%TO.N,/USB_D-_ESP*%
X92453884Y-102925000D03*
%TO.P,U3,6,NC*%
%TO.N,unconnected-(U3-NC-Pad6)*%
X92453884Y-102155000D03*
%TO.P,U3,7,NC*%
%TO.N,unconnected-(U3-NC-Pad7)*%
X91953884Y-102155000D03*
D28*
%TO.P,U3,8,GND*%
%TO.N,GND*%
X91453884Y-102155000D03*
D27*
%TO.P,U3,9,NC*%
%TO.N,unconnected-(U3-NC-Pad9)*%
X90953884Y-102155000D03*
%TO.P,U3,10,NC*%
%TO.N,unconnected-(U3-NC-Pad10)*%
X90453884Y-102155000D03*
%TD*%
D16*
%TO.P,C7,1*%
%TO.N,+3.3VP*%
X78295000Y-84512500D03*
%TO.P,C7,2*%
%TO.N,GND*%
X76745000Y-84512500D03*
%TD*%
D29*
%TO.P,C3,1*%
%TO.N,/XTAL_P*%
X85920000Y-91800000D03*
%TO.P,C3,2*%
%TO.N,GND*%
X84960000Y-91800000D03*
%TD*%
D30*
%TO.P,J2,A1,GND*%
%TO.N,GND*%
X87020000Y-107015000D03*
%TO.P,J2,A4,VBUS*%
%TO.N,+5VA*%
X87820000Y-107015000D03*
D31*
%TO.P,J2,A5,CC1*%
%TO.N,Net-(J2-CC1)*%
X88970000Y-107015000D03*
%TO.P,J2,A6,D+*%
%TO.N,/USB_D-*%
X89970000Y-107015000D03*
%TO.P,J2,A7,D-*%
%TO.N,/USB_D+*%
X90470000Y-107015000D03*
%TO.P,J2,A8,SBU1*%
%TO.N,unconnected-(J2-SBU1-PadA8)*%
X91470000Y-107015000D03*
D30*
%TO.P,J2,A9,VBUS*%
%TO.N,+5VA*%
X92620000Y-107015000D03*
%TO.P,J2,A12,GND*%
%TO.N,GND*%
X93420000Y-107015000D03*
%TO.P,J2,B1,GND*%
X93420000Y-107015000D03*
%TO.P,J2,B4,VBUS*%
%TO.N,+5VA*%
X92620000Y-107015000D03*
D31*
%TO.P,J2,B5,CC2*%
%TO.N,Net-(J2-CC2)*%
X91970000Y-107015000D03*
%TO.P,J2,B6,D+*%
%TO.N,/USB_D-*%
X90970000Y-107015000D03*
%TO.P,J2,B7,D-*%
%TO.N,/USB_D+*%
X89470000Y-107015000D03*
%TO.P,J2,B8,SBU2*%
%TO.N,unconnected-(J2-SBU2-PadB8)*%
X88470000Y-107015000D03*
D30*
%TO.P,J2,B9,VBUS*%
%TO.N,+5VA*%
X87820000Y-107015000D03*
%TO.P,J2,B12,GND*%
%TO.N,GND*%
X87020000Y-107015000D03*
D32*
%TO.P,J2,S1,SHIELD*%
%TO.N,unconnected-(J2-SHIELD-PadS1)*%
X85900000Y-107595000D03*
D33*
X85900000Y-111765000D03*
D32*
X94540000Y-107595000D03*
D33*
X94540000Y-111765000D03*
%TD*%
D14*
%TO.P,SW3,1,1*%
%TO.N,/BLE_MODE*%
X90620000Y-88400000D03*
%TO.P,SW3,2,2*%
%TO.N,GND*%
X94820000Y-88400000D03*
%TD*%
D12*
%TO.P,C5,1*%
%TO.N,/CHIP_EN*%
X86960000Y-81585000D03*
%TO.P,C5,2*%
%TO.N,GND*%
X86960000Y-80035000D03*
%TD*%
%TO.P,C11,1*%
%TO.N,+3V3*%
X86960000Y-84685000D03*
%TO.P,C11,2*%
%TO.N,GND*%
X86960000Y-83135000D03*
%TD*%
D13*
%TO.P,R7,1*%
%TO.N,/LED_R*%
X78220000Y-97675000D03*
%TO.P,R7,2*%
%TO.N,Net-(D2-RK)*%
X78220000Y-99325000D03*
%TD*%
D34*
%TO.P,Y2,1,1*%
%TO.N,/XTAL_P*%
X86370000Y-90200000D03*
%TO.P,Y2,2,2*%
%TO.N,GND*%
X86370000Y-88000000D03*
%TO.P,Y2,3,3*%
%TO.N,Net-(C4-Pad1)*%
X84670000Y-88000000D03*
%TO.P,Y2,4,4*%
%TO.N,GND*%
X84670000Y-90200000D03*
%TD*%
D35*
%TO.P,J3,R1*%
%TO.N,unconnected-(J3-PadR1)*%
X76070000Y-106400000D03*
%TO.P,J3,R2*%
%TO.N,unconnected-(J3-PadR2)*%
X76070000Y-109400000D03*
%TO.P,J3,S*%
%TO.N,Net-(C19-Pad1)*%
X82570000Y-101300000D03*
%TO.P,J3,T*%
%TO.N,/CURRENT_SENSE*%
X76070000Y-102400000D03*
%TD*%
D21*
%TO.P,C1,1*%
%TO.N,Net-(AE1-Pad1)*%
X79945000Y-79712500D03*
%TO.P,C1,2*%
%TO.N,GND*%
X81495000Y-79712500D03*
%TD*%
D36*
%TO.P,U1,1,LNA_IN*%
%TO.N,/LNA_IN*%
X79970000Y-86762500D03*
%TO.P,U1,2,VDD3P3*%
%TO.N,+3.3VP*%
X79470000Y-86762500D03*
%TO.P,U1,3,VDD3P3*%
X78970000Y-86762500D03*
%TO.P,U1,4,XTAL_32K_P/ADC1_CH0*%
%TO.N,/CURRENT_SENSE*%
X78470000Y-86762500D03*
%TO.P,U1,5,XTAL_32K_N/ADC1_CH1*%
%TO.N,unconnected-(U1-XTAL_32K_N{slash}ADC1_CH1-Pad5)*%
X77970000Y-86762500D03*
%TO.P,U1,6,GPIO2/ADC1_CH2*%
%TO.N,unconnected-(U1-GPIO2{slash}ADC1_CH2-Pad6)*%
X77470000Y-86762500D03*
%TO.P,U1,7,CHIP_EN*%
%TO.N,/CHIP_EN*%
X76970000Y-86762500D03*
%TO.P,U1,8,GPIO3/ADC1_CH3*%
%TO.N,unconnected-(U1-GPIO3{slash}ADC1_CH3-Pad8)*%
X76470000Y-86762500D03*
D37*
%TO.P,U1,9,MTMS/GPIO4/ADC1_CH4*%
%TO.N,/LED_R*%
X75782500Y-87450000D03*
%TO.P,U1,10,MTDI/GPIO5/ADC2_CH0*%
%TO.N,unconnected-(U1-MTDI{slash}GPIO5{slash}ADC2_CH0-Pad10)*%
X75782500Y-87950000D03*
%TO.P,U1,11,VDD3P3_RTC*%
%TO.N,+3V3*%
X75782500Y-88450000D03*
%TO.P,U1,12,MTCK/GPIO6*%
%TO.N,/LED_B*%
X75782500Y-88950000D03*
%TO.P,U1,13,MTDO/GPIO7*%
%TO.N,/LED_G*%
X75782500Y-89450000D03*
%TO.P,U1,14,GPIO8*%
%TO.N,unconnected-(U1-GPIO8-Pad14)*%
X75782500Y-89950000D03*
%TO.P,U1,15,GPIO9/BOOT*%
%TO.N,/CHIP_BOOT*%
X75782500Y-90450000D03*
%TO.P,U1,16,GPIO10*%
%TO.N,unconnected-(U1-GPIO10-Pad16)*%
X75782500Y-90950000D03*
D36*
%TO.P,U1,17,VDD3P3_CPU*%
%TO.N,+3V3*%
X76470000Y-91637500D03*
%TO.P,U1,18,VDD_SPI/GPIO11*%
%TO.N,unconnected-(U1-VDD_SPI{slash}GPIO11-Pad18)*%
X76970000Y-91637500D03*
%TO.P,U1,19,SPIHD/GPIO12*%
%TO.N,unconnected-(U1-SPIHD{slash}GPIO12-Pad19)*%
X77470000Y-91637500D03*
%TO.P,U1,20,SPIWP/GPIO13*%
%TO.N,unconnected-(U1-SPIWP{slash}GPIO13-Pad20)*%
X77970000Y-91637500D03*
%TO.P,U1,21,SPICS0/GPIO14*%
%TO.N,unconnected-(U1-SPICS0{slash}GPIO14-Pad21)*%
X78470000Y-91637500D03*
%TO.P,U1,22,SPICLK/GPIO15*%
%TO.N,unconnected-(U1-SPICLK{slash}GPIO15-Pad22)*%
X78970000Y-91637500D03*
%TO.P,U1,23,SPID/GPIO16*%
%TO.N,unconnected-(U1-SPID{slash}GPIO16-Pad23)*%
X79470000Y-91637500D03*
%TO.P,U1,24,SPIQ/GPIO17*%
%TO.N,unconnected-(U1-SPIQ{slash}GPIO17-Pad24)*%
X79970000Y-91637500D03*
D37*
%TO.P,U1,25,GPIO18/USB_D-*%
%TO.N,/USB_D-_ESP*%
X80657500Y-90950000D03*
%TO.P,U1,26,GPIO19/USB_D+*%
%TO.N,/USB_D+_ESP*%
X80657500Y-90450000D03*
%TO.P,U1,27,U0RXD/GPIO20*%
%TO.N,/BLE_MODE*%
X80657500Y-89950000D03*
%TO.P,U1,28,U0TXD/GPIO21*%
%TO.N,unconnected-(U1-U0TXD{slash}GPIO21-Pad28)*%
X80657500Y-89450000D03*
%TO.P,U1,29,XTAL_N*%
%TO.N,/XTAL_N*%
X80657500Y-88950000D03*
%TO.P,U1,30,XTAL_P*%
%TO.N,/XTAL_P*%
X80657500Y-88450000D03*
%TO.P,U1,31,VDDA*%
%TO.N,+3V3*%
X80657500Y-87950000D03*
%TO.P,U1,32,VDDA*%
X80657500Y-87450000D03*
D38*
%TO.P,U1,33,GND*%
%TO.N,GND*%
X78220000Y-89200000D03*
%TD*%
D13*
%TO.P,R8,1*%
%TO.N,/LED_G*%
X76620000Y-97675000D03*
%TO.P,R8,2*%
%TO.N,Net-(D2-GK)*%
X76620000Y-99325000D03*
%TD*%
D39*
%TO.P,L2,1,1*%
%TO.N,Net-(AE1-Pad1)*%
X80020000Y-81325000D03*
%TO.P,L2,2,2*%
%TO.N,/LNA_IN*%
X80020000Y-82900000D03*
%TD*%
D40*
%TO.N,+3V3*%
X76750000Y-96600000D03*
%TO.N,Net-(D2-RK)*%
X84350000Y-94450000D03*
D41*
%TO.N,/CHIP_EN*%
X85200000Y-83100000D03*
X73400000Y-86000000D03*
%TO.N,/CHIP_BOOT*%
X83600000Y-84100000D03*
X74200000Y-90800000D03*
X88800000Y-86600000D03*
D40*
%TO.N,GND*%
X99150000Y-97522724D03*
X99150000Y-109406813D03*
X78250000Y-90150000D03*
X79220000Y-89200000D03*
X99150000Y-83940908D03*
X70900000Y-82193181D03*
X93096427Y-114450000D03*
X95114284Y-114450000D03*
X99150000Y-82243181D03*
X70900000Y-87286362D03*
X74950000Y-92450000D03*
X70900000Y-88984089D03*
X74935714Y-114450000D03*
X79950000Y-100000000D03*
X74150000Y-93150000D03*
X99150000Y-112802267D03*
X99150000Y-100918178D03*
X97132141Y-114450000D03*
X99150000Y-102615905D03*
X70900000Y-109356813D03*
X70900000Y-77100000D03*
X99150000Y-104313632D03*
X70900000Y-112752267D03*
X70900000Y-104263632D03*
X99150000Y-89034089D03*
X91096429Y-77150000D03*
X95050000Y-105400000D03*
X93114286Y-77150000D03*
X99150000Y-87336362D03*
X99150000Y-85638635D03*
X70900000Y-94077270D03*
X87042856Y-114450000D03*
X77220000Y-89200000D03*
X99150000Y-92429543D03*
X86091967Y-83425500D03*
X77200000Y-88200000D03*
X95132143Y-77150000D03*
X99150000Y-90731816D03*
X99150000Y-114450000D03*
X99150000Y-99220451D03*
X70900000Y-83890908D03*
X99150000Y-107709086D03*
X78220000Y-89200000D03*
X74200000Y-94550000D03*
X99150000Y-94127270D03*
X70900000Y-95774997D03*
X70900000Y-78797727D03*
X79250000Y-90150000D03*
X85024999Y-114450000D03*
X99150000Y-95824997D03*
X70900000Y-80495454D03*
X70900000Y-92379543D03*
X79200000Y-88200000D03*
X91800000Y-91850000D03*
X70900000Y-90681816D03*
X78200000Y-88200000D03*
X70900000Y-97472724D03*
X91078570Y-114450000D03*
X77250000Y-90150000D03*
X70900000Y-85588635D03*
X76953571Y-114450000D03*
X99150000Y-106011359D03*
X85250000Y-105200000D03*
X70900000Y-114450000D03*
X87100000Y-86300000D03*
X83007142Y-114450000D03*
X70900000Y-99170451D03*
X97150000Y-77150000D03*
X99150000Y-77150000D03*
X99150000Y-80545454D03*
X70900000Y-105961359D03*
X80989285Y-114450000D03*
X99150000Y-78847727D03*
X78971428Y-114450000D03*
X72550000Y-77100000D03*
X70900000Y-111054540D03*
X89900000Y-92850000D03*
X72917857Y-114450000D03*
X99150000Y-111104540D03*
X70900000Y-100868178D03*
X89060713Y-114450000D03*
X70900000Y-102565905D03*
X70900000Y-107659086D03*
D41*
%TO.N,+5VA*%
X87800000Y-105700000D03*
X87300000Y-103000000D03*
D40*
X87400000Y-99100000D03*
D41*
X92600000Y-105600000D03*
%TO.N,/XTAL_P*%
X87800000Y-90200000D03*
X82600000Y-88000000D03*
D40*
%TO.N,+3V3*%
X91900000Y-95500000D03*
X91900000Y-94500000D03*
X84950000Y-95800000D03*
X89200000Y-78750000D03*
X89900000Y-95600000D03*
X73449500Y-88200000D03*
X84250000Y-78800000D03*
X90800000Y-95100000D03*
X85500000Y-84800000D03*
X91900000Y-96500000D03*
X74850000Y-77000000D03*
X90800000Y-96100000D03*
X96200000Y-90900000D03*
%TO.N,/BLE_MODE*%
X82352012Y-89998123D03*
X89050000Y-91300000D03*
D41*
%TO.N,Net-(D2-GK)*%
X80400000Y-93350000D03*
X76600000Y-100500000D03*
%TO.N,Net-(D2-BK)*%
X79775500Y-94919011D03*
X75000000Y-100550000D03*
%TO.N,Net-(D2-RK)*%
X78300000Y-100500000D03*
%TO.N,/USB_D-_ESP*%
X94608411Y-102991589D03*
X82200000Y-92000000D03*
%TO.N,/USB_D+_ESP*%
X95700000Y-103000000D03*
X82400000Y-91000000D03*
D40*
%TO.N,/CURRENT_SENSE*%
X73400000Y-84700000D03*
X73700000Y-102300000D03*
%TD*%
D42*
%TO.N,+3V3*%
X76520000Y-96370000D02*
X76750000Y-96600000D01*
X76520000Y-95500000D02*
X76520000Y-96370000D01*
D43*
X79020000Y-96550000D02*
X79335000Y-96865000D01*
X79335000Y-96865000D02*
X79770000Y-97300000D01*
X78670000Y-95400000D02*
X78670000Y-96200000D01*
X78670000Y-96200000D02*
X79335000Y-96865000D01*
D42*
%TO.N,Net-(D2-BK)*%
X79775500Y-94919011D02*
X80694511Y-94000000D01*
X80694511Y-94000000D02*
X82170000Y-94000000D01*
%TO.N,Net-(D2-GK)*%
X80400000Y-93350000D02*
X79750000Y-94000000D01*
X79750000Y-94000000D02*
X78670000Y-94000000D01*
%TO.N,Net-(D2-RK)*%
X84350000Y-94450000D02*
X83370000Y-94450000D01*
X83370000Y-94450000D02*
X82420000Y-95400000D01*
X82420000Y-95400000D02*
X82170000Y-95400000D01*
D44*
%TO.N,+3.3VP*%
X79470000Y-86450000D02*
X78970000Y-85950000D01*
X78970000Y-85950000D02*
X78295000Y-85275000D01*
X78295000Y-85275000D02*
X78295000Y-84512500D01*
X78970000Y-86762500D02*
X78970000Y-85950000D01*
X78295000Y-84512500D02*
X78295000Y-83075000D01*
X79470000Y-86762500D02*
X79470000Y-86450000D01*
X78295000Y-83075000D02*
X78120000Y-82900000D01*
D42*
%TO.N,/CHIP_EN*%
X76622297Y-86000000D02*
X76970000Y-86347703D01*
D43*
X90385000Y-81635000D02*
X90620000Y-81400000D01*
D42*
X76970000Y-86347703D02*
X76970000Y-86762500D01*
D43*
X88560000Y-81635000D02*
X87010000Y-81635000D01*
X87010000Y-81635000D02*
X86960000Y-81585000D01*
D42*
X85200000Y-83100000D02*
X85890000Y-82410000D01*
X73400000Y-86000000D02*
X76622297Y-86000000D01*
D43*
X88560000Y-81635000D02*
X90385000Y-81635000D01*
D42*
X86135000Y-82410000D02*
X86960000Y-81585000D01*
X85890000Y-82410000D02*
X86135000Y-82410000D01*
D43*
%TO.N,/CHIP_BOOT*%
X90620000Y-84900000D02*
X90500000Y-84900000D01*
D42*
X74200000Y-90800000D02*
X74550000Y-90450000D01*
X74550000Y-90450000D02*
X75782500Y-90450000D01*
X90500000Y-84900000D02*
X88800000Y-86600000D01*
D43*
X83760000Y-81635000D02*
X85310000Y-81635000D01*
X83600000Y-84100000D02*
X83600000Y-81795000D01*
X83600000Y-81795000D02*
X83760000Y-81635000D01*
X85310000Y-81635000D02*
X85360000Y-81585000D01*
%TO.N,Net-(AE1-Pad1)*%
X79920000Y-78100000D02*
X79920000Y-79687500D01*
X89570000Y-75700000D02*
X89570000Y-76150000D01*
D44*
X80020000Y-81325000D02*
X80020000Y-79787500D01*
X80020000Y-79787500D02*
X79945000Y-79712500D01*
D43*
X88720000Y-77000000D02*
X81020000Y-77000000D01*
D44*
X79945000Y-79712500D02*
X80120000Y-79537500D01*
X79945000Y-79712500D02*
X80020000Y-79637500D01*
D43*
X79920000Y-79687500D02*
G75*
G03*
X79945000Y-79712500I25000J0D01*
G01*
X88720000Y-77000000D02*
G75*
G03*
X89570000Y-76150000I0J850000D01*
G01*
X81020000Y-77000000D02*
G75*
G03*
X79920000Y-78100000I0J-1100000D01*
G01*
D45*
%TO.N,/USB_D-*%
X90970000Y-106715000D02*
X90953884Y-106698884D01*
D42*
X90750000Y-108500000D02*
X90200000Y-108500000D01*
X90970000Y-107015000D02*
X90970000Y-108280000D01*
D45*
X90953884Y-106698884D02*
X90953884Y-102925000D01*
D42*
X90200000Y-108500000D02*
X89970000Y-108270000D01*
X89970000Y-108270000D02*
X89970000Y-107015000D01*
X90970000Y-108280000D02*
X90750000Y-108500000D01*
%TO.N,/USB_D+*%
X90470000Y-105030000D02*
X90470000Y-104750000D01*
D45*
X90470000Y-104750000D02*
X90470000Y-102941116D01*
D42*
X89470000Y-107015000D02*
X89470000Y-106030000D01*
D45*
X90470000Y-102941116D02*
X90453884Y-102925000D01*
X90470000Y-106715000D02*
X90470000Y-104750000D01*
D42*
X89470000Y-106030000D02*
X90470000Y-105030000D01*
D43*
%TO.N,GND*%
X87020000Y-105970000D02*
X86650000Y-105600000D01*
X86650000Y-105600000D02*
X85650000Y-105600000D01*
D42*
X86382467Y-83135000D02*
X86091967Y-83425500D01*
D43*
X85850000Y-98550000D02*
X85820000Y-98520000D01*
D44*
X85920000Y-86400000D02*
X85920000Y-87550000D01*
X84960000Y-91800000D02*
X84960000Y-90490000D01*
D43*
X93420000Y-107015000D02*
X93420000Y-106130000D01*
X93420000Y-106130000D02*
X94000000Y-105550000D01*
D42*
X86960000Y-83135000D02*
X86382467Y-83135000D01*
D43*
X91835000Y-91815000D02*
X91800000Y-91850000D01*
D44*
X85920000Y-87550000D02*
X86370000Y-88000000D01*
D43*
X91835000Y-90910000D02*
X91835000Y-91815000D01*
D42*
X91453884Y-102925000D02*
X91453884Y-102155000D01*
D43*
X86695000Y-105555000D02*
X86695000Y-104600000D01*
D42*
X91453884Y-102155000D02*
X91453884Y-101146116D01*
D43*
X85650000Y-105600000D02*
X85250000Y-105200000D01*
X87020000Y-107015000D02*
X87020000Y-105970000D01*
X79770000Y-99820000D02*
X79950000Y-100000000D01*
X93945000Y-105495000D02*
X93945000Y-104500000D01*
X89450000Y-93300000D02*
X89900000Y-92850000D01*
X94900000Y-105550000D02*
X95050000Y-105400000D01*
X79770000Y-98900000D02*
X79770000Y-99820000D01*
X94000000Y-105550000D02*
X94900000Y-105550000D01*
X94000000Y-105550000D02*
X93945000Y-105495000D01*
D44*
X84960000Y-90490000D02*
X84670000Y-90200000D01*
D43*
X87870000Y-93300000D02*
X89450000Y-93300000D01*
D44*
X87000000Y-86400000D02*
X87100000Y-86300000D01*
D42*
X91453884Y-101146116D02*
X91500000Y-101100000D01*
D43*
X86650000Y-105600000D02*
X86695000Y-105555000D01*
X84420000Y-98900000D02*
X85500000Y-98900000D01*
D44*
X85920000Y-86400000D02*
X87000000Y-86400000D01*
D43*
X85820000Y-98520000D02*
X85820000Y-97350000D01*
X85500000Y-98900000D02*
X85850000Y-98550000D01*
D44*
%TO.N,/LNA_IN*%
X79945000Y-84512500D02*
X79945000Y-82975000D01*
X79970000Y-86762500D02*
X79970000Y-84537500D01*
X79970000Y-84537500D02*
X79945000Y-84512500D01*
X79945000Y-82975000D02*
X80020000Y-82900000D01*
D43*
%TO.N,+5VA*%
X92620000Y-105620000D02*
X92600000Y-105600000D01*
D46*
X87820000Y-107015000D02*
X87820000Y-105720000D01*
X92620000Y-107015000D02*
X92620000Y-105620000D01*
D43*
X87820000Y-105720000D02*
X87800000Y-105700000D01*
D44*
%TO.N,Net-(J2-CC1)*%
X88970000Y-105225000D02*
X88970000Y-106715000D01*
X88345000Y-104600000D02*
X88970000Y-105225000D01*
D43*
%TO.N,Net-(J2-CC2)*%
X91900000Y-105889950D02*
X91900000Y-104895000D01*
X91900000Y-104895000D02*
X92295000Y-104500000D01*
X91970000Y-107015000D02*
X91970000Y-105959950D01*
X91970000Y-105959950D02*
X91900000Y-105889950D01*
D45*
%TO.N,/XTAL_P*%
X85920000Y-90650000D02*
X86370000Y-90200000D01*
X81450000Y-88450000D02*
X80657500Y-88450000D01*
X86370000Y-90200000D02*
X87800000Y-90200000D01*
X85920000Y-91800000D02*
X85920000Y-90650000D01*
X82600000Y-88000000D02*
X81900000Y-88000000D01*
X81900000Y-88000000D02*
X81450000Y-88450000D01*
D44*
%TO.N,Net-(C4-Pad1)*%
X84960000Y-87710000D02*
X84670000Y-88000000D01*
X84960000Y-86400000D02*
X84960000Y-87710000D01*
X83130000Y-88900000D02*
X83770000Y-88900000D01*
X83770000Y-88900000D02*
X84670000Y-88000000D01*
D42*
%TO.N,/XTAL_N*%
X80657500Y-88950000D02*
X82060000Y-88950000D01*
X82060000Y-88950000D02*
X82110000Y-88900000D01*
%TO.N,+3V3*%
X76500000Y-95750000D02*
X76850000Y-95500000D01*
D43*
X78195000Y-78100000D02*
X77095000Y-77000000D01*
X85720000Y-95900000D02*
X86020000Y-95600000D01*
D42*
X83760000Y-79290000D02*
X84250000Y-78800000D01*
D43*
X84080000Y-95800000D02*
X83980000Y-95700000D01*
X85720000Y-95900000D02*
X85820000Y-95800000D01*
D42*
X88560000Y-79390000D02*
X89200000Y-78750000D01*
D43*
X76850000Y-95500000D02*
X77900000Y-96550000D01*
X84950000Y-95800000D02*
X85050000Y-95900000D01*
X77095000Y-77000000D02*
X74850000Y-77000000D01*
X76470000Y-93850000D02*
X76520000Y-93900000D01*
D44*
X78220000Y-78125000D02*
X78195000Y-78100000D01*
X78120000Y-79800000D02*
X78220000Y-79700000D01*
D42*
X75782500Y-88450000D02*
X73699500Y-88450000D01*
D43*
X78220000Y-79700000D02*
X78220000Y-78125000D01*
D42*
X83760000Y-79985000D02*
X83760000Y-79290000D01*
D43*
X76520000Y-95500000D02*
X76520000Y-93900000D01*
X77900000Y-96550000D02*
X79020000Y-96550000D01*
D42*
X94985000Y-90910000D02*
X96190000Y-90910000D01*
X88560000Y-79985000D02*
X88560000Y-79390000D01*
X73699500Y-88450000D02*
X73449500Y-88200000D01*
X76520000Y-95500000D02*
X76500000Y-95750000D01*
X96190000Y-90910000D02*
X96200000Y-90900000D01*
D43*
X85050000Y-95900000D02*
X85720000Y-95900000D01*
X76470000Y-91637500D02*
X76470000Y-93850000D01*
D44*
X78120000Y-81325000D02*
X78120000Y-79800000D01*
D43*
%TO.N,/BLE_MODE*%
X90620000Y-88400000D02*
X92400000Y-88400000D01*
X90620000Y-90575000D02*
X90285000Y-90910000D01*
D42*
X89050000Y-91300000D02*
X89350000Y-91300000D01*
X82303889Y-89950000D02*
X82352012Y-89998123D01*
X89740000Y-90910000D02*
X90285000Y-90910000D01*
X89350000Y-91300000D02*
X89740000Y-90910000D01*
D43*
X93300000Y-90875000D02*
X93335000Y-90910000D01*
X92400000Y-88400000D02*
X93300000Y-89300000D01*
D42*
X80657500Y-89950000D02*
X82303889Y-89950000D01*
D43*
X90620000Y-88400000D02*
X90620000Y-90575000D01*
X93300000Y-89300000D02*
X93300000Y-90875000D01*
D42*
%TO.N,Net-(D2-GK)*%
X76620000Y-99325000D02*
X76620000Y-100480000D01*
X76620000Y-100480000D02*
X76600000Y-100500000D01*
%TO.N,Net-(D2-BK)*%
X75000000Y-100400000D02*
X75000000Y-100550000D01*
%TO.N,+3V3*%
X79294511Y-95400000D02*
X78670000Y-95400000D01*
%TO.N,Net-(D2-BK)*%
X75000000Y-100550000D02*
X75000000Y-99345000D01*
X75000000Y-99345000D02*
X75020000Y-99325000D01*
X75020000Y-100380000D02*
X75000000Y-100400000D01*
%TO.N,Net-(D2-RK)*%
X78300000Y-100500000D02*
X78300000Y-99405000D01*
X78300000Y-99405000D02*
X78220000Y-99325000D01*
X78300000Y-100500000D02*
X78220000Y-100420000D01*
%TO.N,/LED_R*%
X72150000Y-88450000D02*
X73150000Y-87450000D01*
X73150000Y-87450000D02*
X75782500Y-87450000D01*
X78220000Y-98330000D02*
X78050000Y-98500000D01*
X72150000Y-97700000D02*
X72150000Y-88450000D01*
X78220000Y-97675000D02*
X78220000Y-98330000D01*
X78050000Y-98500000D02*
X72950000Y-98500000D01*
X72950000Y-98500000D02*
X72150000Y-97700000D01*
%TO.N,/LED_G*%
X73000000Y-89700000D02*
X73250000Y-89450000D01*
X75900000Y-97000000D02*
X73300000Y-97000000D01*
X73250000Y-89450000D02*
X75782500Y-89450000D01*
X76575000Y-97675000D02*
X75900000Y-97000000D01*
X76620000Y-97675000D02*
X76575000Y-97675000D01*
X73000000Y-96700000D02*
X73000000Y-89700000D01*
X73300000Y-97000000D02*
X73000000Y-96700000D01*
%TO.N,/LED_B*%
X73075000Y-97675000D02*
X72500000Y-97100000D01*
X75020000Y-97675000D02*
X73075000Y-97675000D01*
X72500000Y-97100000D02*
X72500000Y-89400000D01*
X72500000Y-89400000D02*
X72950000Y-88950000D01*
X72950000Y-88950000D02*
X75782500Y-88950000D01*
%TO.N,/USB_D-_ESP*%
X82200000Y-92000000D02*
X81150000Y-90950000D01*
X94608411Y-102991589D02*
X94541822Y-102925000D01*
X94541822Y-102925000D02*
X92453884Y-102925000D01*
X81150000Y-90950000D02*
X80657500Y-90950000D01*
%TO.N,/USB_D+_ESP*%
X81850000Y-90450000D02*
X80657500Y-90450000D01*
X92170473Y-103616589D02*
X91953884Y-103400000D01*
X82400000Y-91000000D02*
X81850000Y-90450000D01*
X95700000Y-103000000D02*
X95083411Y-103616589D01*
X91953884Y-103400000D02*
X91953884Y-102925000D01*
X95083411Y-103616589D02*
X92170473Y-103616589D01*
D43*
%TO.N,Net-(C19-Pad1)*%
X81420000Y-98900000D02*
X81420000Y-97300000D01*
X81420000Y-98900000D02*
X82870000Y-98900000D01*
X82870000Y-101000000D02*
X82570000Y-101300000D01*
X82870000Y-98900000D02*
X82870000Y-101000000D01*
D42*
%TO.N,/CURRENT_SENSE*%
X78470000Y-86347703D02*
X77772297Y-85650000D01*
X73800000Y-102400000D02*
X76070000Y-102400000D01*
X75200000Y-85650000D02*
X74250000Y-84700000D01*
X77772297Y-85650000D02*
X75200000Y-85650000D01*
X74250000Y-84700000D02*
X73400000Y-84700000D01*
X78470000Y-86762500D02*
X78470000Y-86347703D01*
X73700000Y-102300000D02*
X73800000Y-102400000D01*
%TD*%
%TA.AperFunction,Conductor*%
%TO.N,+3V3*%
G36*
X79229112Y-96542913D02*
G01*
X79852241Y-96821228D01*
X79858398Y-96827731D01*
X79858966Y-96834085D01*
X79771885Y-97294476D01*
X79766980Y-97301969D01*
X79764843Y-97303121D01*
X79380017Y-97461560D01*
X79371063Y-97461541D01*
X79365118Y-97456013D01*
X79013445Y-96759319D01*
X79012776Y-96750389D01*
X79015615Y-96745776D01*
X79216069Y-96545322D01*
X79224341Y-96541896D01*
X79229112Y-96542913D01*
G37*
%TD.AperFunction*%
%TD*%
%TA.AperFunction,Conductor*%
%TO.N,Net-(C19-Pad1)*%
G36*
X81780623Y-98504597D02*
G01*
X81785042Y-98507065D01*
X82214005Y-98746652D01*
X82219557Y-98753677D01*
X82220000Y-98756866D01*
X82220000Y-99043133D01*
X82216573Y-99051406D01*
X82214005Y-99053348D01*
X81780623Y-99295402D01*
X81771729Y-99296444D01*
X81766150Y-99292934D01*
X81554480Y-99053348D01*
X81425843Y-98907746D01*
X81422934Y-98899278D01*
X81425844Y-98892253D01*
X81545456Y-98756866D01*
X81766152Y-98507063D01*
X81774196Y-98503134D01*
X81780623Y-98504597D01*
G37*
%TD.AperFunction*%
%TD*%
%TA.AperFunction,Conductor*%
%TO.N,+3V3*%
G36*
X96051423Y-90541264D02*
G01*
X96051642Y-90541758D01*
X96176991Y-90842414D01*
X96199123Y-90895497D01*
X96199144Y-90904451D01*
X96199123Y-90904501D01*
X96051522Y-91258529D01*
X96045175Y-91264847D01*
X96036221Y-91264826D01*
X96036000Y-91264731D01*
X95408966Y-90988078D01*
X95402780Y-90981604D01*
X95401989Y-90977374D01*
X95401989Y-90842414D01*
X95405416Y-90834141D01*
X95408691Y-90831834D01*
X96035847Y-90535679D01*
X96044791Y-90535246D01*
X96051423Y-90541264D01*
G37*
%TD.AperFunction*%
%TD*%
%TA.AperFunction,Conductor*%
%TO.N,+3V3*%
G36*
X78370914Y-78778427D02*
G01*
X78373187Y-78781634D01*
X78648788Y-79355393D01*
X78649282Y-79364334D01*
X78645431Y-79369690D01*
X78227189Y-79695401D01*
X78218556Y-79697781D01*
X78212811Y-79695401D01*
X77794568Y-79369690D01*
X77790146Y-79361903D01*
X77791211Y-79355393D01*
X78066813Y-78781634D01*
X78073484Y-78775660D01*
X78077359Y-78775000D01*
X78362641Y-78775000D01*
X78370914Y-78778427D01*
G37*
%TD.AperFunction*%
%TD*%
%TA.AperFunction,Conductor*%
%TO.N,/CHIP_BOOT*%
G36*
X74750416Y-90379080D02*
G01*
X74754920Y-90386820D01*
X74755025Y-90388387D01*
X74755025Y-90521916D01*
X74753505Y-90527683D01*
X74528451Y-90924947D01*
X74521391Y-90930456D01*
X74513805Y-90929994D01*
X74206256Y-90802996D01*
X74199918Y-90796671D01*
X74199022Y-90792149D01*
X74199970Y-90460193D01*
X74203421Y-90451932D01*
X74210100Y-90448635D01*
X74741759Y-90376792D01*
X74750416Y-90379080D01*
G37*
%TD.AperFunction*%
%TD*%
%TA.AperFunction,Conductor*%
%TO.N,+3V3*%
G36*
X95345995Y-90516246D02*
G01*
X95432957Y-90579387D01*
X95780175Y-90831496D01*
X95784855Y-90839129D01*
X95785000Y-90840963D01*
X95785000Y-90979036D01*
X95781573Y-90987309D01*
X95780174Y-90988504D01*
X95345995Y-91303753D01*
X95337287Y-91305840D01*
X95330353Y-91302032D01*
X94990844Y-90917747D01*
X94987934Y-90909278D01*
X94990844Y-90902253D01*
X95330355Y-90517965D01*
X95338399Y-90514036D01*
X95345995Y-90516246D01*
G37*
%TD.AperFunction*%
%TD*%
%TA.AperFunction,Conductor*%
%TO.N,/BLE_MODE*%
G36*
X82197259Y-89632894D02*
G01*
X82203325Y-89639092D01*
X82305023Y-89883020D01*
X82351135Y-89993620D01*
X82351156Y-90002574D01*
X82351135Y-90002624D01*
X82205355Y-90352285D01*
X82199008Y-90358603D01*
X82190079Y-90358592D01*
X82155640Y-90344327D01*
X82154574Y-90343822D01*
X82152401Y-90342653D01*
X82150822Y-90341631D01*
X82090870Y-90295629D01*
X82080318Y-90289989D01*
X82077560Y-90287944D01*
X82064806Y-90275190D01*
X82063351Y-90273417D01*
X82048623Y-90251375D01*
X82026581Y-90236647D01*
X82026580Y-90236646D01*
X81968574Y-90197888D01*
X81957495Y-90190485D01*
X81876002Y-90174275D01*
X81876001Y-90174275D01*
X81849998Y-90169102D01*
X81839235Y-90171243D01*
X81831413Y-90170073D01*
X81567744Y-90028311D01*
X81562080Y-90021375D01*
X81561584Y-90018006D01*
X81561584Y-89883020D01*
X81565011Y-89874747D01*
X81569063Y-89872108D01*
X82188308Y-89632681D01*
X82197259Y-89632894D01*
G37*
%TD.AperFunction*%
%TD*%
%TA.AperFunction,Conductor*%
%TO.N,Net-(D2-BK)*%
G36*
X75075630Y-99853427D02*
G01*
X75078071Y-99856999D01*
X75318570Y-100405150D01*
X75318756Y-100414103D01*
X75312557Y-100420565D01*
X75312362Y-100420649D01*
X75004506Y-100549119D01*
X74995551Y-100549142D01*
X74995494Y-100549119D01*
X74687637Y-100420649D01*
X74681322Y-100414300D01*
X74681345Y-100405345D01*
X74681429Y-100405150D01*
X74921929Y-99856999D01*
X74928391Y-99850800D01*
X74932643Y-99850000D01*
X75067357Y-99850000D01*
X75075630Y-99853427D01*
G37*
%TD.AperFunction*%
%TD*%
%TA.AperFunction,Conductor*%
%TO.N,/XTAL_P*%
G36*
X82464340Y-87681004D02*
G01*
X82470479Y-87687230D01*
X82599119Y-87995494D01*
X82599142Y-88004449D01*
X82599119Y-88004506D01*
X82470479Y-88312769D01*
X82464130Y-88319084D01*
X82455387Y-88319146D01*
X81907406Y-88102922D01*
X81900968Y-88096698D01*
X81900000Y-88092039D01*
X81900000Y-87907960D01*
X81903427Y-87899687D01*
X81907403Y-87897078D01*
X82455388Y-87680853D01*
X82464340Y-87681004D01*
G37*
%TD.AperFunction*%
%TD*%
%TA.AperFunction,Conductor*%
%TO.N,/XTAL_N*%
G36*
X81864961Y-88659385D02*
G01*
X82103707Y-88892868D01*
X82107226Y-88901103D01*
X82104929Y-88908196D01*
X81901323Y-89183111D01*
X81893645Y-89187720D01*
X81886603Y-89186569D01*
X81576382Y-89028256D01*
X81570570Y-89021443D01*
X81570000Y-89017835D01*
X81570000Y-88880738D01*
X81573427Y-88872465D01*
X81574537Y-88871487D01*
X81849620Y-88658498D01*
X81858258Y-88656144D01*
X81864961Y-88659385D01*
G37*
%TD.AperFunction*%
%TD*%
%TA.AperFunction,Conductor*%
%TO.N,/CHIP_BOOT*%
G36*
X85029413Y-81160522D02*
G01*
X85157523Y-81324521D01*
X85355381Y-81577808D01*
X85357774Y-81586438D01*
X85355392Y-81592200D01*
X85029279Y-82010959D01*
X85021492Y-82015381D01*
X85015746Y-82014650D01*
X84442398Y-81787925D01*
X84435964Y-81781696D01*
X84435000Y-81777045D01*
X84435000Y-81491826D01*
X84438427Y-81483553D01*
X84440939Y-81481643D01*
X85014441Y-81157539D01*
X85023327Y-81156453D01*
X85029413Y-81160522D01*
G37*
%TD.AperFunction*%
%TD*%
%TA.AperFunction,Conductor*%
%TO.N,+5VA*%
G36*
X87739731Y-105448557D02*
G01*
X87855394Y-105518478D01*
X88012892Y-105567555D01*
X88071038Y-105606292D01*
X88099012Y-105670317D01*
X88100000Y-105685940D01*
X88100000Y-105912417D01*
X88080315Y-105979456D01*
X88050311Y-106011684D01*
X87962452Y-106077454D01*
X87919265Y-106135145D01*
X87863331Y-106177016D01*
X87793639Y-106181999D01*
X87732316Y-106148513D01*
X87720737Y-106135150D01*
X87697493Y-106104100D01*
X87673077Y-106038638D01*
X87672822Y-106033686D01*
X87670561Y-105961736D01*
X87670500Y-105957841D01*
X87670500Y-105932976D01*
X87670500Y-105929075D01*
X87669948Y-105924709D01*
X87669030Y-105913055D01*
X87669010Y-105912417D01*
X87667597Y-105867431D01*
X87661675Y-105847048D01*
X87657732Y-105828011D01*
X87655071Y-105806942D01*
X87638263Y-105764491D01*
X87634480Y-105753442D01*
X87621744Y-105709602D01*
X87610937Y-105691329D01*
X87602382Y-105673866D01*
X87594568Y-105654129D01*
X87592558Y-105651362D01*
X87575265Y-105627559D01*
X87551786Y-105561753D01*
X87567612Y-105493699D01*
X87617719Y-105445005D01*
X87686197Y-105431130D01*
X87739731Y-105448557D01*
G37*
%TD.AperFunction*%
%TD*%
%TA.AperFunction,Conductor*%
%TO.N,GND*%
G36*
X90350000Y-76200000D02*
G01*
X92700000Y-76200000D01*
X92700000Y-75624651D01*
X92743046Y-75652317D01*
X92766342Y-75692472D01*
X92774553Y-75715882D01*
X92822226Y-75796559D01*
X92826647Y-75814014D01*
X92835844Y-75824289D01*
X92850202Y-75843904D01*
X92859081Y-75858930D01*
X92859130Y-75858985D01*
X92875215Y-75881618D01*
X92876385Y-75883732D01*
X92897205Y-75901525D01*
X92919610Y-75926558D01*
X92931766Y-75940139D01*
X92940218Y-75957887D01*
X92949127Y-75964198D01*
X92969847Y-75982686D01*
X92969895Y-75982740D01*
X92983848Y-75993224D01*
X93001756Y-76009660D01*
X93005703Y-76014070D01*
X93027816Y-76026260D01*
X93102735Y-76082552D01*
X93135208Y-76098159D01*
X93153170Y-76108735D01*
X93161076Y-76114335D01*
X93182983Y-76121121D01*
X93252494Y-76154529D01*
X93307237Y-76168604D01*
X93323712Y-76174098D01*
X93337382Y-76179748D01*
X93358616Y-76181815D01*
X93413417Y-76195906D01*
X93474420Y-76199283D01*
X93479613Y-76200500D01*
X93488951Y-76200500D01*
X93509618Y-76202234D01*
X93531331Y-76205904D01*
X93532918Y-76204924D01*
X93565746Y-76200500D01*
X99190436Y-76200500D01*
X99209388Y-76201956D01*
X99235068Y-76205929D01*
X99361459Y-76227301D01*
X99383249Y-76233068D01*
X99438325Y-76253162D01*
X99443154Y-76255041D01*
X99528816Y-76290445D01*
X99545860Y-76299083D01*
X99601273Y-76332768D01*
X99608527Y-76337533D01*
X99679244Y-76387627D01*
X99691404Y-76397449D01*
X99740596Y-76442597D01*
X99749146Y-76451254D01*
X99805165Y-76513843D01*
X99806024Y-76514802D01*
X99813681Y-76524252D01*
X99819945Y-76532809D01*
X99853126Y-76578138D01*
X99861550Y-76591316D01*
X99903520Y-76667118D01*
X99907451Y-76674845D01*
X99934817Y-76733653D01*
X99941520Y-76751550D01*
X99967244Y-76840590D01*
X99968586Y-76845630D01*
X99982467Y-76902554D01*
X99985796Y-76924880D01*
X99993053Y-77052293D01*
X99993171Y-77055032D01*
X99994343Y-77082388D01*
X99994263Y-77094459D01*
X99992977Y-77117416D01*
X99994613Y-77136853D01*
X99999498Y-114490429D01*
X99998041Y-114509400D01*
X99994074Y-114535046D01*
X99972702Y-114661436D01*
X99966929Y-114683251D01*
X99946839Y-114738315D01*
X99944948Y-114743178D01*
X99909553Y-114828816D01*
X99900914Y-114845862D01*
X99867235Y-114901266D01*
X99862461Y-114908533D01*
X99812375Y-114979239D01*
X99802546Y-114991407D01*
X99757401Y-115040596D01*
X99748743Y-115049147D01*
X99685196Y-115106024D01*
X99675740Y-115113686D01*
X99621860Y-115153126D01*
X99608682Y-115161550D01*
X99532880Y-115203520D01*
X99525130Y-115207463D01*
X99466345Y-115234817D01*
X99448448Y-115241520D01*
X99359408Y-115267244D01*
X99354368Y-115268586D01*
X99297444Y-115282467D01*
X99275118Y-115285796D01*
X99147706Y-115293053D01*
X99144883Y-115293174D01*
X99117612Y-115294342D01*
X99105530Y-115294262D01*
X99083341Y-115293016D01*
X99082863Y-115293239D01*
X99064463Y-115294615D01*
X70809571Y-115299497D01*
X70790593Y-115298039D01*
X70764904Y-115294065D01*
X70638563Y-115272702D01*
X70616747Y-115266929D01*
X70561683Y-115246839D01*
X70556820Y-115244948D01*
X70471182Y-115209553D01*
X70454136Y-115200914D01*
X70398732Y-115167235D01*
X70391465Y-115162461D01*
X70320759Y-115112375D01*
X70308591Y-115102546D01*
X70259402Y-115057401D01*
X70250851Y-115048743D01*
X70220327Y-115014639D01*
X70193968Y-114985189D01*
X70186321Y-114975752D01*
X70146869Y-114921855D01*
X70138448Y-114908682D01*
X70134342Y-114901266D01*
X70096467Y-114832858D01*
X70092558Y-114825177D01*
X70065176Y-114766331D01*
X70058478Y-114748448D01*
X70056955Y-114743178D01*
X70032754Y-114659408D01*
X70031412Y-114654368D01*
X70017529Y-114597436D01*
X70014202Y-114575123D01*
X70006947Y-114447743D01*
X70005661Y-114417713D01*
X70005757Y-114405386D01*
X70007033Y-114383470D01*
X70006770Y-114382904D01*
X70005385Y-114364450D01*
X70005104Y-112213206D01*
X84949500Y-112213206D01*
X84949816Y-112216317D01*
X84949817Y-112216329D01*
X84964155Y-112357323D01*
X84993551Y-112451012D01*
X85022026Y-112541768D01*
X85115841Y-112710791D01*
X85241760Y-112857468D01*
X85241763Y-112857470D01*
X85394624Y-112975795D01*
X85478050Y-113016717D01*
X85568184Y-113060930D01*
X85755326Y-113109385D01*
X85948390Y-113119176D01*
X85948390Y-113119175D01*
X85948391Y-113119176D01*
X86139474Y-113089903D01*
X86139474Y-113089902D01*
X86320753Y-113022764D01*
X86484807Y-112920509D01*
X86624919Y-112787323D01*
X86735353Y-112628658D01*
X86811587Y-112451012D01*
X86850500Y-112261656D01*
X86850500Y-112213206D01*
X93589500Y-112213206D01*
X93589816Y-112216317D01*
X93589817Y-112216329D01*
X93604155Y-112357323D01*
X93633551Y-112451012D01*
X93662026Y-112541768D01*
X93755841Y-112710791D01*
X93881760Y-112857468D01*
X93881763Y-112857470D01*
X94034624Y-112975795D01*
X94118050Y-113016717D01*
X94208184Y-113060930D01*
X94395326Y-113109385D01*
X94588390Y-113119176D01*
X94588390Y-113119175D01*
X94588391Y-113119176D01*
X94779474Y-113089903D01*
X94779474Y-113089902D01*
X94960753Y-113022764D01*
X95124807Y-112920509D01*
X95264919Y-112787323D01*
X95375353Y-112628658D01*
X95451587Y-112451012D01*
X95490500Y-112261656D01*
X95490500Y-111316794D01*
X95475845Y-111172679D01*
X95417974Y-110988232D01*
X95324159Y-110819209D01*
X95198240Y-110672532D01*
X95170073Y-110650729D01*
X95045375Y-110554204D01*
X94871816Y-110469070D01*
X94867846Y-110468042D01*
X94684674Y-110420615D01*
X94665089Y-110419621D01*
X94491608Y-110410823D01*
X94300525Y-110440096D01*
X94119247Y-110507235D01*
X93955196Y-110609488D01*
X93815079Y-110742678D01*
X93704647Y-110901341D01*
X93628412Y-111078988D01*
X93609159Y-111172679D01*
X93589500Y-111268344D01*
X93589500Y-112213206D01*
X86850500Y-112213206D01*
X86850500Y-111316794D01*
X86835845Y-111172679D01*
X86777974Y-110988232D01*
X86684159Y-110819209D01*
X86558240Y-110672532D01*
X86530073Y-110650729D01*
X86405375Y-110554204D01*
X86231816Y-110469070D01*
X86227846Y-110468042D01*
X86044674Y-110420615D01*
X86025089Y-110419621D01*
X85851608Y-110410823D01*
X85660525Y-110440096D01*
X85479247Y-110507235D01*
X85315196Y-110609488D01*
X85175079Y-110742678D01*
X85064647Y-110901341D01*
X84988412Y-111078988D01*
X84969159Y-111172679D01*
X84949500Y-111268344D01*
X84949500Y-112213206D01*
X70005104Y-112213206D01*
X70004952Y-111050937D01*
X78315630Y-111050937D01*
X78346443Y-111252071D01*
X78417113Y-111442886D01*
X78524745Y-111615568D01*
X78524748Y-111615571D01*
X78664941Y-111763053D01*
X78831951Y-111879295D01*
X79018942Y-111959540D01*
X79218259Y-112000500D01*
X79218261Y-112000500D01*
X79367600Y-112000500D01*
X79370742Y-112000500D01*
X79522438Y-111985074D01*
X79716588Y-111924159D01*
X79894502Y-111825409D01*
X80048895Y-111692866D01*
X80173448Y-111531958D01*
X80263060Y-111349271D01*
X80314063Y-111152285D01*
X80324369Y-110949064D01*
X80293556Y-110747929D01*
X80291611Y-110742678D01*
X80222886Y-110557113D01*
X80115254Y-110384431D01*
X80108803Y-110377644D01*
X79975059Y-110236947D01*
X79808049Y-110120705D01*
X79621058Y-110040460D01*
X79421741Y-109999500D01*
X79269258Y-109999500D01*
X79266147Y-109999816D01*
X79266134Y-109999817D01*
X79117559Y-110014926D01*
X78923412Y-110075841D01*
X78745500Y-110174589D01*
X78591104Y-110307135D01*
X78466551Y-110468042D01*
X78376940Y-110650727D01*
X78325937Y-110847716D01*
X78315630Y-111050937D01*
X70004952Y-111050937D01*
X70004820Y-110044578D01*
X74319500Y-110044578D01*
X74319501Y-110047872D01*
X74319853Y-110051152D01*
X74319854Y-110051159D01*
X74325909Y-110107483D01*
X74376204Y-110242331D01*
X74462454Y-110357546D01*
X74577669Y-110443796D01*
X74712517Y-110494091D01*
X74772127Y-110500500D01*
X77367872Y-110500499D01*
X77427483Y-110494091D01*
X77562331Y-110443796D01*
X77677546Y-110357546D01*
X77763796Y-110242331D01*
X77814091Y-110107483D01*
X77820500Y-110047873D01*
X77820499Y-108752128D01*
X77814091Y-108692517D01*
X77763796Y-108557669D01*
X77677546Y-108442454D01*
X77562331Y-108356204D01*
X77427483Y-108305909D01*
X77367873Y-108299500D01*
X77364550Y-108299500D01*
X74775439Y-108299500D01*
X74775420Y-108299500D01*
X74772128Y-108299501D01*
X74768848Y-108299853D01*
X74768840Y-108299854D01*
X74712515Y-108305909D01*
X74577669Y-108356204D01*
X74462454Y-108442454D01*
X74376204Y-108557668D01*
X74325910Y-108692515D01*
X74325909Y-108692517D01*
X74319500Y-108752127D01*
X74319500Y-108755448D01*
X74319500Y-108755449D01*
X74319500Y-110044560D01*
X74319500Y-110044578D01*
X70004820Y-110044578D01*
X70004428Y-107044578D01*
X74319500Y-107044578D01*
X74319501Y-107047872D01*
X74325909Y-107107483D01*
X74376204Y-107242331D01*
X74462454Y-107357546D01*
X74577669Y-107443796D01*
X74712517Y-107494091D01*
X74772127Y-107500500D01*
X77367872Y-107500499D01*
X77427483Y-107494091D01*
X77562331Y-107443796D01*
X77677546Y-107357546D01*
X77763796Y-107242331D01*
X77814091Y-107107483D01*
X77820500Y-107047873D01*
X77820499Y-105752128D01*
X77814091Y-105692517D01*
X77763796Y-105557669D01*
X77677546Y-105442454D01*
X77562331Y-105356204D01*
X77427483Y-105305909D01*
X77367873Y-105299500D01*
X77364550Y-105299500D01*
X74775439Y-105299500D01*
X74775420Y-105299500D01*
X74772128Y-105299501D01*
X74768848Y-105299853D01*
X74768840Y-105299854D01*
X74712515Y-105305909D01*
X74577669Y-105356204D01*
X74462454Y-105442454D01*
X74376204Y-105557668D01*
X74325910Y-105692515D01*
X74325909Y-105692517D01*
X74319500Y-105752127D01*
X74319500Y-105755448D01*
X74319500Y-105755449D01*
X74319500Y-107044560D01*
X74319500Y-107044578D01*
X70004428Y-107044578D01*
X70004037Y-104050937D01*
X78315630Y-104050937D01*
X78346443Y-104252071D01*
X78417113Y-104442886D01*
X78524745Y-104615568D01*
X78524748Y-104615571D01*
X78664941Y-104763053D01*
X78831951Y-104879295D01*
X79018942Y-104959540D01*
X79218259Y-105000500D01*
X79218261Y-105000500D01*
X79367600Y-105000500D01*
X79370742Y-105000500D01*
X79522438Y-104985074D01*
X79716588Y-104924159D01*
X79850197Y-104850000D01*
X85795001Y-104850000D01*
X85795001Y-104928753D01*
X85795256Y-104934389D01*
X85801408Y-105002104D01*
X85851981Y-105164397D01*
X85939925Y-105309875D01*
X86060124Y-105430074D01*
X86205603Y-105518019D01*
X86367893Y-105568590D01*
X86435620Y-105574745D01*
X86441238Y-105574999D01*
X86444999Y-105574998D01*
X86445000Y-105574998D01*
X86445000Y-104850000D01*
X85795001Y-104850000D01*
X79850197Y-104850000D01*
X79894502Y-104825409D01*
X80048895Y-104692866D01*
X80173448Y-104531958D01*
X80263060Y-104349271D01*
X80314063Y-104152285D01*
X80324369Y-103949064D01*
X80315292Y-103889815D01*
X80293556Y-103747928D01*
X80222886Y-103557113D01*
X80115254Y-103384431D01*
X80104769Y-103373401D01*
X79975059Y-103236947D01*
X79808049Y-103120705D01*
X79621058Y-103040460D01*
X79421741Y-102999500D01*
X79269258Y-102999500D01*
X79266147Y-102999816D01*
X79266134Y-102999817D01*
X79117559Y-103014926D01*
X78923412Y-103075841D01*
X78745500Y-103174589D01*
X78591104Y-103307135D01*
X78466551Y-103468042D01*
X78376940Y-103650727D01*
X78347522Y-103764347D01*
X78339322Y-103796021D01*
X78325937Y-103847716D01*
X78315630Y-104050937D01*
X70004037Y-104050937D01*
X70000885Y-79950000D01*
X75720001Y-79950000D01*
X75720001Y-79995165D01*
X75720321Y-80001447D01*
X75730143Y-80097605D01*
X75783453Y-80258486D01*
X75872426Y-80402732D01*
X75992267Y-80522573D01*
X76136513Y-80611546D01*
X76297393Y-80664856D01*
X76393536Y-80674678D01*
X76399851Y-80674999D01*
X76420000Y-80674999D01*
X76420000Y-79950000D01*
X75720001Y-79950000D01*
X70000885Y-79950000D01*
X70000676Y-78350000D01*
X75695001Y-78350000D01*
X75695001Y-78395165D01*
X75695321Y-78401447D01*
X75705143Y-78497605D01*
X75758453Y-78658484D01*
X75847428Y-78802733D01*
X75869513Y-78824818D01*
X75902998Y-78886141D01*
X75898014Y-78955833D01*
X75879518Y-78984613D01*
X75880035Y-78984932D01*
X75783453Y-79141513D01*
X75730143Y-79302393D01*
X75720319Y-79398554D01*
X75720000Y-79404832D01*
X75720000Y-79450000D01*
X76419999Y-79450000D01*
X76420000Y-79105589D01*
X76397834Y-79064996D01*
X76395000Y-79038638D01*
X76395000Y-78350000D01*
X75695001Y-78350000D01*
X70000676Y-78350000D01*
X70000501Y-77009567D01*
X70001959Y-76990599D01*
X70005927Y-76964948D01*
X70027302Y-76838535D01*
X70033066Y-76816755D01*
X70053174Y-76761641D01*
X70055027Y-76756876D01*
X70090450Y-76671171D01*
X70099077Y-76654149D01*
X70132784Y-76598699D01*
X70137514Y-76591498D01*
X70187639Y-76520738D01*
X70197436Y-76508610D01*
X70242619Y-76459379D01*
X70251233Y-76450872D01*
X70314829Y-76393951D01*
X70324227Y-76386336D01*
X70378158Y-76346859D01*
X70391298Y-76338459D01*
X70467164Y-76296454D01*
X70474799Y-76292569D01*
X70533676Y-76265172D01*
X70551539Y-76258481D01*
X70640607Y-76232749D01*
X70645602Y-76231419D01*
X70702566Y-76217529D01*
X70724873Y-76214203D01*
X70852264Y-76206947D01*
X70882309Y-76205660D01*
X70894584Y-76205753D01*
X70916572Y-76207025D01*
X70936754Y-76205304D01*
X74080179Y-76199633D01*
X74147253Y-76219197D01*
X74193103Y-76271918D01*
X74203171Y-76341059D01*
X74174261Y-76404667D01*
X74172552Y-76406605D01*
X74117466Y-76467783D01*
X74022820Y-76631715D01*
X73964326Y-76811742D01*
X73944540Y-76999999D01*
X73964326Y-77188257D01*
X74022820Y-77368284D01*
X74117466Y-77532216D01*
X74244129Y-77672889D01*
X74397269Y-77784151D01*
X74570197Y-77861144D01*
X74755352Y-77900500D01*
X74755354Y-77900500D01*
X74944648Y-77900500D01*
X75089620Y-77869685D01*
X75129803Y-77861144D01*
X75146723Y-77853610D01*
X75174425Y-77844993D01*
X75175879Y-77844722D01*
X75531154Y-77724149D01*
X75600959Y-77721245D01*
X75661256Y-77756544D01*
X75692898Y-77818838D01*
X75695000Y-77841572D01*
X75695000Y-77850000D01*
X76771000Y-77850000D01*
X76838039Y-77869685D01*
X76883794Y-77922489D01*
X76895000Y-77974000D01*
X76895000Y-78694410D01*
X76917166Y-78735004D01*
X76920000Y-78761362D01*
X76920000Y-80674999D01*
X76940165Y-80674999D01*
X76946447Y-80674678D01*
X77042604Y-80664856D01*
X77043791Y-80664463D01*
X77047809Y-80664324D01*
X77056117Y-80663476D01*
X77056174Y-80664036D01*
X77113619Y-80662058D01*
X77173663Y-80697787D01*
X77204858Y-80760306D01*
X77200506Y-80821171D01*
X77154563Y-80959814D01*
X77144819Y-81055193D01*
X77144817Y-81055213D01*
X77144500Y-81058326D01*
X77144500Y-81591674D01*
X77144818Y-81594787D01*
X77144819Y-81594806D01*
X77154563Y-81690185D01*
X77207450Y-81849785D01*
X77295720Y-81992893D01*
X77327646Y-82024819D01*
X77361131Y-82086142D01*
X77356147Y-82155834D01*
X77327646Y-82200181D01*
X77295720Y-82232106D01*
X77207450Y-82375214D01*
X77154563Y-82534814D01*
X77144819Y-82630193D01*
X77144817Y-82630213D01*
X77144500Y-82633326D01*
X77144500Y-83166674D01*
X77144818Y-83169787D01*
X77144819Y-83169806D01*
X77154563Y-83265185D01*
X77192483Y-83379618D01*
X77194885Y-83449446D01*
X77159153Y-83509488D01*
X77096633Y-83540681D01*
X77062177Y-83541980D01*
X77021452Y-83537820D01*
X77015168Y-83537500D01*
X76995000Y-83537500D01*
X76995000Y-84638500D01*
X76975315Y-84705539D01*
X76922511Y-84751294D01*
X76871000Y-84762500D01*
X75795001Y-84762500D01*
X75795001Y-84807665D01*
X75795321Y-84813947D01*
X75805143Y-84910103D01*
X75805604Y-84911493D01*
X75805765Y-84916194D01*
X75806524Y-84923617D01*
X75806022Y-84923668D01*
X75808007Y-84981321D01*
X75772277Y-85041364D01*
X75709758Y-85072558D01*
X75687899Y-85074500D01*
X75489742Y-85074500D01*
X75422703Y-85054815D01*
X75402061Y-85038181D01*
X74689360Y-84325480D01*
X74678666Y-84313286D01*
X74660452Y-84289549D01*
X74630271Y-84266391D01*
X74630268Y-84266388D01*
X74625201Y-84262500D01*
X75795000Y-84262500D01*
X76495000Y-84262500D01*
X76495000Y-83537500D01*
X76474836Y-83537500D01*
X76468550Y-83537821D01*
X76372394Y-83547643D01*
X76211513Y-83600953D01*
X76067267Y-83689926D01*
X75947426Y-83809767D01*
X75858453Y-83954013D01*
X75805143Y-84114893D01*
X75795319Y-84211054D01*
X75795000Y-84217332D01*
X75795000Y-84262500D01*
X74625201Y-84262500D01*
X74566339Y-84217334D01*
X74556474Y-84209764D01*
X74547696Y-84200391D01*
X74400236Y-84139313D01*
X74352362Y-84133010D01*
X74317175Y-84122928D01*
X73767564Y-83872739D01*
X73767559Y-83872737D01*
X73766610Y-83872305D01*
X73766267Y-83872155D01*
X73764465Y-83871497D01*
X73705386Y-83849925D01*
X73697481Y-83846726D01*
X73679803Y-83838855D01*
X73494648Y-83799500D01*
X73494646Y-83799500D01*
X73305354Y-83799500D01*
X73305352Y-83799500D01*
X73120197Y-83838855D01*
X72947269Y-83915848D01*
X72794129Y-84027110D01*
X72667466Y-84167783D01*
X72572820Y-84331715D01*
X72514326Y-84511742D01*
X72494540Y-84699999D01*
X72514326Y-84888257D01*
X72572820Y-85068284D01*
X72667464Y-85232213D01*
X72667467Y-85232216D01*
X72732452Y-85304390D01*
X72762682Y-85367380D01*
X72754057Y-85436715D01*
X72732453Y-85470332D01*
X72708140Y-85497334D01*
X72618749Y-85652164D01*
X72563503Y-85822195D01*
X72544815Y-86000000D01*
X72563503Y-86177804D01*
X72618749Y-86347835D01*
X72708140Y-86502665D01*
X72773722Y-86575500D01*
X72827770Y-86635526D01*
X72933564Y-86712391D01*
X72976228Y-86767719D01*
X72982207Y-86837333D01*
X72949601Y-86899128D01*
X72908131Y-86927268D01*
X72859769Y-86947300D01*
X72859072Y-86947835D01*
X72769732Y-87016388D01*
X72769729Y-87016390D01*
X72769724Y-87016393D01*
X72769716Y-87016399D01*
X72739547Y-87039549D01*
X72721334Y-87063285D01*
X72710641Y-87075477D01*
X71775477Y-88010641D01*
X71763285Y-88021334D01*
X71739549Y-88039547D01*
X71716391Y-88069728D01*
X71716388Y-88069732D01*
X71656584Y-88147670D01*
X71647302Y-88159766D01*
X71589312Y-88299764D01*
X71574500Y-88412280D01*
X71574500Y-88412286D01*
X71569534Y-88449999D01*
X71573439Y-88479653D01*
X71574500Y-88495839D01*
X71574500Y-97654160D01*
X71573439Y-97670345D01*
X71569534Y-97699999D01*
X71574500Y-97737714D01*
X71574500Y-97737720D01*
X71589312Y-97850235D01*
X71622202Y-97929636D01*
X71647301Y-97990232D01*
X71716388Y-98080268D01*
X71716391Y-98080271D01*
X71739549Y-98110452D01*
X71763286Y-98128666D01*
X71775480Y-98139360D01*
X72510642Y-98874522D01*
X72521337Y-98886717D01*
X72539549Y-98910452D01*
X72555173Y-98922440D01*
X72569729Y-98933609D01*
X72569732Y-98933612D01*
X72572963Y-98936091D01*
X72659765Y-99002698D01*
X72659766Y-99002698D01*
X72659767Y-99002699D01*
X72737190Y-99034768D01*
X72799764Y-99060687D01*
X72912280Y-99075500D01*
X72912286Y-99075500D01*
X72950000Y-99080465D01*
X72979655Y-99076560D01*
X72995840Y-99075500D01*
X73920500Y-99075500D01*
X73987539Y-99095185D01*
X74033294Y-99147989D01*
X74044500Y-99199500D01*
X74044500Y-99581616D01*
X74044754Y-99584420D01*
X74044755Y-99584424D01*
X74050913Y-99652193D01*
X74050914Y-99652196D01*
X74101522Y-99814606D01*
X74138031Y-99874999D01*
X74189528Y-99960185D01*
X74203359Y-99974016D01*
X74217648Y-99991141D01*
X74235403Y-100016800D01*
X74257363Y-100083129D01*
X74246987Y-100137177D01*
X74219220Y-100200466D01*
X74219210Y-100200488D01*
X74218439Y-100202248D01*
X74217779Y-100204051D01*
X74217776Y-100204059D01*
X74196687Y-100261688D01*
X74195974Y-100266560D01*
X74191216Y-100286904D01*
X74163503Y-100372197D01*
X74144815Y-100550000D01*
X74163503Y-100727804D01*
X74218749Y-100897835D01*
X74308140Y-101052665D01*
X74371089Y-101122576D01*
X74427770Y-101185526D01*
X74480871Y-101224106D01*
X74523536Y-101279435D01*
X74529515Y-101349048D01*
X74496909Y-101410843D01*
X74487666Y-101418442D01*
X74487992Y-101418814D01*
X74349787Y-101539742D01*
X74286372Y-101569073D01*
X74217166Y-101559464D01*
X74195248Y-101546740D01*
X74152730Y-101515849D01*
X74120327Y-101501421D01*
X74109193Y-101495775D01*
X74098335Y-101489563D01*
X74098281Y-101489534D01*
X74097170Y-101488898D01*
X74095445Y-101488005D01*
X74092723Y-101486909D01*
X74092719Y-101486907D01*
X74042568Y-101466712D01*
X74038453Y-101464968D01*
X73979801Y-101438854D01*
X73794648Y-101399500D01*
X73794646Y-101399500D01*
X73605354Y-101399500D01*
X73605352Y-101399500D01*
X73420197Y-101438855D01*
X73247269Y-101515848D01*
X73094129Y-101627110D01*
X72967466Y-101767783D01*
X72872820Y-101931715D01*
X72814326Y-102111742D01*
X72794540Y-102300000D01*
X72814326Y-102488257D01*
X72872820Y-102668284D01*
X72967466Y-102832216D01*
X73094129Y-102972889D01*
X73247269Y-103084151D01*
X73420197Y-103161144D01*
X73605352Y-103200500D01*
X73605354Y-103200500D01*
X73794648Y-103200500D01*
X73979799Y-103161145D01*
X73979799Y-103161144D01*
X73979803Y-103161144D01*
X73988224Y-103157394D01*
X74004766Y-103152486D01*
X74004560Y-103151821D01*
X74013033Y-103149191D01*
X74013038Y-103149191D01*
X74101713Y-103121676D01*
X74171570Y-103120610D01*
X74220109Y-103146787D01*
X74481318Y-103375345D01*
X74559322Y-103431463D01*
X74561877Y-103432955D01*
X74564341Y-103434555D01*
X74563335Y-103433935D01*
X74573494Y-103440670D01*
X74577669Y-103443796D01*
X74712517Y-103494091D01*
X74772127Y-103500500D01*
X74824279Y-103500499D01*
X74835217Y-103500982D01*
X74845561Y-103501899D01*
X74854503Y-103501411D01*
X74856193Y-103501227D01*
X74856227Y-103501224D01*
X74856304Y-103501219D01*
X74857810Y-103501097D01*
X74856799Y-103501192D01*
X74869614Y-103500499D01*
X77364561Y-103500499D01*
X77367872Y-103500499D01*
X77427483Y-103494091D01*
X77562331Y-103443796D01*
X77677546Y-103357546D01*
X77763796Y-103242331D01*
X77814091Y-103107483D01*
X77820500Y-103047873D01*
X77820499Y-101752128D01*
X77814091Y-101692517D01*
X77763796Y-101557669D01*
X77677546Y-101442454D01*
X77562331Y-101356204D01*
X77427483Y-101305909D01*
X77367873Y-101299500D01*
X77364551Y-101299500D01*
X77303096Y-101299500D01*
X77236057Y-101279815D01*
X77190302Y-101227011D01*
X77180358Y-101157853D01*
X77209383Y-101094297D01*
X77210946Y-101092528D01*
X77291859Y-101002665D01*
X77342613Y-100914757D01*
X77393180Y-100866542D01*
X77461787Y-100853318D01*
X77526652Y-100879286D01*
X77557387Y-100914757D01*
X77608140Y-101002665D01*
X77727771Y-101135527D01*
X77872403Y-101240610D01*
X78035735Y-101313330D01*
X78210607Y-101350500D01*
X78210609Y-101350500D01*
X78389393Y-101350500D01*
X78564264Y-101313330D01*
X78564265Y-101313329D01*
X78564267Y-101313329D01*
X78727593Y-101240612D01*
X78872230Y-101135526D01*
X78991859Y-101002665D01*
X79081250Y-100847835D01*
X79136497Y-100677803D01*
X79155185Y-100500000D01*
X79136497Y-100322197D01*
X79083839Y-100160134D01*
X79082283Y-100154964D01*
X79081475Y-100152053D01*
X79081475Y-100152052D01*
X79046558Y-100072469D01*
X79037649Y-100003173D01*
X79052625Y-99960822D01*
X79086555Y-99901843D01*
X79086589Y-99901780D01*
X79087341Y-99900411D01*
X79091564Y-99892575D01*
X79092033Y-99891708D01*
X79094948Y-99886610D01*
X79110858Y-99860292D01*
X79162386Y-99813110D01*
X79231246Y-99801273D01*
X79276140Y-99816628D01*
X79442893Y-99868590D01*
X79510620Y-99874745D01*
X79516238Y-99874999D01*
X79519999Y-99874998D01*
X79520000Y-99874998D01*
X79520000Y-98774000D01*
X79539685Y-98706961D01*
X79592489Y-98661206D01*
X79644000Y-98650000D01*
X79896000Y-98650000D01*
X79963039Y-98669685D01*
X80008794Y-98722489D01*
X80020000Y-98774000D01*
X80020000Y-99874999D01*
X80023753Y-99874999D01*
X80029389Y-99874743D01*
X80097104Y-99868591D01*
X80259397Y-99818018D01*
X80404873Y-99730075D01*
X80506964Y-99627984D01*
X80568287Y-99594499D01*
X80637979Y-99599483D01*
X80682325Y-99627982D01*
X80784815Y-99730472D01*
X80930394Y-99818478D01*
X81092804Y-99869086D01*
X81163384Y-99875500D01*
X81166203Y-99875500D01*
X81673797Y-99875500D01*
X81676616Y-99875500D01*
X81747196Y-99869086D01*
X81909606Y-99818478D01*
X81970787Y-99781492D01*
X82038339Y-99763656D01*
X82104813Y-99785173D01*
X82149102Y-99839213D01*
X82157143Y-99908618D01*
X82126385Y-99971353D01*
X82121290Y-99976598D01*
X81927665Y-100164489D01*
X81865845Y-100197049D01*
X81841311Y-100199500D01*
X81275439Y-100199500D01*
X81275420Y-100199500D01*
X81272128Y-100199501D01*
X81268848Y-100199853D01*
X81268840Y-100199854D01*
X81212515Y-100205909D01*
X81077669Y-100256204D01*
X80962454Y-100342454D01*
X80876204Y-100457668D01*
X80825910Y-100592515D01*
X80825909Y-100592517D01*
X80819500Y-100652127D01*
X80819500Y-100655448D01*
X80819500Y-100655449D01*
X80819500Y-101944560D01*
X80819500Y-101944578D01*
X80819501Y-101947872D01*
X80825909Y-102007483D01*
X80876204Y-102142331D01*
X80962454Y-102257546D01*
X81077669Y-102343796D01*
X81212517Y-102394091D01*
X81272127Y-102400500D01*
X83867872Y-102400499D01*
X83927483Y-102394091D01*
X84062331Y-102343796D01*
X84177546Y-102257546D01*
X84263796Y-102142331D01*
X84314091Y-102007483D01*
X84320500Y-101947873D01*
X84320499Y-100652128D01*
X84314091Y-100592517D01*
X84263796Y-100457669D01*
X84177546Y-100342454D01*
X84062331Y-100256204D01*
X83927483Y-100205909D01*
X83867873Y-100199500D01*
X83864551Y-100199500D01*
X83719715Y-100199500D01*
X83652676Y-100179815D01*
X83610194Y-100133647D01*
X83546308Y-100013317D01*
X83532257Y-99944875D01*
X83544054Y-99901483D01*
X83596017Y-99793304D01*
X83642784Y-99741401D01*
X83710192Y-99723020D01*
X83772885Y-99741459D01*
X83886513Y-99811546D01*
X84047393Y-99864856D01*
X84143536Y-99874678D01*
X84149851Y-99874999D01*
X84170000Y-99874999D01*
X84170000Y-99150000D01*
X84670000Y-99150000D01*
X84670000Y-99874999D01*
X84690165Y-99874999D01*
X84696447Y-99874678D01*
X84792605Y-99864856D01*
X84953486Y-99811546D01*
X85097732Y-99722573D01*
X85217573Y-99602732D01*
X85306546Y-99458486D01*
X85359856Y-99297606D01*
X85369680Y-99201445D01*
X85370000Y-99195167D01*
X85370000Y-99150000D01*
X84670000Y-99150000D01*
X84170000Y-99150000D01*
X84170000Y-98774000D01*
X84189685Y-98706961D01*
X84242489Y-98661206D01*
X84294000Y-98650000D01*
X85369998Y-98650000D01*
X85369999Y-98604834D01*
X85369678Y-98598552D01*
X85359856Y-98502396D01*
X85345021Y-98457627D01*
X85342619Y-98387798D01*
X85378350Y-98327756D01*
X85440871Y-98296563D01*
X85475330Y-98295264D01*
X85518535Y-98299678D01*
X85524852Y-98299999D01*
X85569999Y-98299999D01*
X85570000Y-98299998D01*
X85570000Y-97600000D01*
X83105001Y-97600000D01*
X83105001Y-97620165D01*
X83105321Y-97626447D01*
X83115143Y-97722604D01*
X83128031Y-97761498D01*
X83130431Y-97831326D01*
X83094699Y-97891368D01*
X83032178Y-97922559D01*
X83010324Y-97924500D01*
X82599805Y-97924500D01*
X82599785Y-97924500D01*
X82596656Y-97924501D01*
X82593524Y-97924820D01*
X82593522Y-97924821D01*
X82497292Y-97934650D01*
X82441445Y-97953156D01*
X82371617Y-97955556D01*
X82311575Y-97919824D01*
X82280384Y-97857303D01*
X82284057Y-97798561D01*
X82314086Y-97702196D01*
X82320500Y-97631616D01*
X82320500Y-96968384D01*
X82314086Y-96897804D01*
X82263478Y-96735394D01*
X82175472Y-96589815D01*
X82175471Y-96589814D01*
X82174767Y-96588649D01*
X82156931Y-96521094D01*
X82178449Y-96454621D01*
X82232489Y-96410333D01*
X82280884Y-96400499D01*
X82687831Y-96400499D01*
X82754870Y-96420184D01*
X82800625Y-96472988D01*
X82809454Y-96500337D01*
X82813011Y-96518245D01*
X82813013Y-96518256D01*
X82813605Y-96521232D01*
X82814481Y-96524126D01*
X82814485Y-96524139D01*
X82834029Y-96588649D01*
X82842301Y-96615953D01*
X82842495Y-96616422D01*
X82843209Y-96617917D01*
X82843220Y-96617941D01*
X82865092Y-96663716D01*
X82865099Y-96663731D01*
X82865814Y-96665226D01*
X82878501Y-96688490D01*
X82879361Y-96689885D01*
X82879364Y-96689889D01*
X82906901Y-96734523D01*
X83004879Y-96839882D01*
X83004882Y-96839885D01*
X83059259Y-96883757D01*
X83059728Y-96884134D01*
X83059732Y-96884136D01*
X83066619Y-96889673D01*
X83064367Y-96892473D01*
X83100366Y-96931046D01*
X83112907Y-96999286D01*
X83105319Y-97073552D01*
X83105000Y-97079832D01*
X83105000Y-97100000D01*
X85946000Y-97100000D01*
X86013039Y-97119685D01*
X86058794Y-97172489D01*
X86070000Y-97224000D01*
X86070000Y-98309824D01*
X86091666Y-98349503D01*
X86094500Y-98375861D01*
X86094500Y-103476000D01*
X86094854Y-103479294D01*
X86094855Y-103479309D01*
X86102672Y-103552011D01*
X86106053Y-103583456D01*
X86106757Y-103586693D01*
X86106759Y-103586704D01*
X86117259Y-103634967D01*
X86116242Y-103630830D01*
X86114989Y-103700464D01*
X86076163Y-103758553D01*
X86060817Y-103769507D01*
X86060128Y-103769923D01*
X85939924Y-103890126D01*
X85851980Y-104035603D01*
X85801409Y-104197893D01*
X85795255Y-104265615D01*
X85795000Y-104271244D01*
X85795000Y-104350000D01*
X86821000Y-104350000D01*
X86888039Y-104369685D01*
X86933794Y-104422489D01*
X86945000Y-104474000D01*
X86945000Y-105600024D01*
X86948383Y-105606220D01*
X86950538Y-105645537D01*
X86944815Y-105699997D01*
X86956345Y-105809701D01*
X86943775Y-105878431D01*
X86896043Y-105929454D01*
X86828303Y-105946572D01*
X86793810Y-105935000D01*
X86675482Y-105935000D01*
X86668867Y-105935354D01*
X86612628Y-105941400D01*
X86477911Y-105991647D01*
X86362809Y-106077812D01*
X86346696Y-106099337D01*
X86290762Y-106141207D01*
X86221070Y-106146190D01*
X86216372Y-106145071D01*
X86044674Y-106100615D01*
X86019474Y-106099337D01*
X85851608Y-106090823D01*
X85660525Y-106120096D01*
X85479247Y-106187235D01*
X85315196Y-106289488D01*
X85175079Y-106422678D01*
X85064647Y-106581341D01*
X84988412Y-106758988D01*
X84969159Y-106852679D01*
X84949500Y-106948344D01*
X84949500Y-108193206D01*
X84949816Y-108196317D01*
X84949817Y-108196329D01*
X84964155Y-108337323D01*
X84993551Y-108431012D01*
X85022026Y-108521768D01*
X85070254Y-108608658D01*
X85107946Y-108676568D01*
X85115841Y-108690791D01*
X85241760Y-108837468D01*
X85241763Y-108837470D01*
X85394624Y-108955795D01*
X85478050Y-108996717D01*
X85568184Y-109040930D01*
X85755326Y-109089385D01*
X85948390Y-109099176D01*
X85948390Y-109099175D01*
X85948391Y-109099176D01*
X86139474Y-109069903D01*
X86164360Y-109060686D01*
X86320753Y-109002764D01*
X86484807Y-108900509D01*
X86624919Y-108767323D01*
X86735353Y-108608658D01*
X86767419Y-108533934D01*
X86811944Y-108480093D01*
X86878513Y-108458869D01*
X86945988Y-108477004D01*
X86971992Y-108498199D01*
X86979319Y-108506044D01*
X87025186Y-108533936D01*
X87108618Y-108584672D01*
X87254335Y-108625500D01*
X87254337Y-108625500D01*
X87363421Y-108625500D01*
X87367658Y-108625500D01*
X87479920Y-108610070D01*
X87618720Y-108549780D01*
X87736108Y-108454278D01*
X87823377Y-108330647D01*
X87874054Y-108188056D01*
X87874054Y-108188052D01*
X87877636Y-108177974D01*
X87918634Y-108121398D01*
X87983712Y-108095967D01*
X87994477Y-108095499D01*
X88164562Y-108095499D01*
X88167872Y-108095499D01*
X88206744Y-108091320D01*
X88233252Y-108091320D01*
X88272127Y-108095500D01*
X88667872Y-108095499D01*
X88706744Y-108091320D01*
X88733252Y-108091320D01*
X88772127Y-108095500D01*
X89167872Y-108095499D01*
X89206744Y-108091320D01*
X89233252Y-108091320D01*
X89272127Y-108095500D01*
X89275453Y-108095499D01*
X89277133Y-108095590D01*
X89343023Y-108118832D01*
X89385888Y-108174008D01*
X89394499Y-108219386D01*
X89394500Y-108224134D01*
X89393439Y-108240345D01*
X89389534Y-108269999D01*
X89393419Y-108299501D01*
X89394500Y-108307714D01*
X89394500Y-108307720D01*
X89409313Y-108420236D01*
X89413777Y-108431012D01*
X89442353Y-108500001D01*
X89467302Y-108560233D01*
X89536388Y-108650268D01*
X89536391Y-108650271D01*
X89559549Y-108680452D01*
X89583286Y-108698666D01*
X89595480Y-108709360D01*
X89760642Y-108874522D01*
X89771337Y-108886717D01*
X89789549Y-108910451D01*
X89803430Y-108921102D01*
X89819724Y-108933605D01*
X89819732Y-108933612D01*
X89841826Y-108950565D01*
X89909766Y-109002698D01*
X89950770Y-109019682D01*
X90049764Y-109060687D01*
X90162280Y-109075500D01*
X90162285Y-109075500D01*
X90200000Y-109080465D01*
X90229654Y-109076561D01*
X90245840Y-109075500D01*
X90704160Y-109075500D01*
X90720345Y-109076561D01*
X90750000Y-109080465D01*
X90787714Y-109075500D01*
X90787720Y-109075500D01*
X90900236Y-109060687D01*
X91040233Y-109002698D01*
X91108174Y-108950565D01*
X91130268Y-108933612D01*
X91130269Y-108933609D01*
X91146561Y-108921109D01*
X91146561Y-108921108D01*
X91160451Y-108910451D01*
X91178670Y-108886706D01*
X91189350Y-108874528D01*
X91344528Y-108719350D01*
X91356706Y-108708670D01*
X91380451Y-108690451D01*
X91391110Y-108676560D01*
X91403610Y-108660269D01*
X91403612Y-108660268D01*
X91472698Y-108570233D01*
X91499286Y-108506044D01*
X91530687Y-108430236D01*
X91545500Y-108317720D01*
X91545500Y-108317714D01*
X91550465Y-108280000D01*
X91546560Y-108250344D01*
X91545500Y-108234168D01*
X91545500Y-108232285D01*
X91545500Y-108219415D01*
X91565179Y-108152379D01*
X91617980Y-108106620D01*
X91662875Y-108095588D01*
X91664537Y-108095499D01*
X91667872Y-108095499D01*
X91671181Y-108095143D01*
X91671185Y-108095143D01*
X91706744Y-108091320D01*
X91733252Y-108091320D01*
X91772127Y-108095500D01*
X92167872Y-108095499D01*
X92206744Y-108091320D01*
X92233252Y-108091320D01*
X92272127Y-108095500D01*
X92451116Y-108095499D01*
X92518155Y-108115183D01*
X92563910Y-108167987D01*
X92572522Y-108194269D01*
X92586407Y-108261083D01*
X92586407Y-108261084D01*
X92586408Y-108261085D01*
X92656029Y-108395447D01*
X92741453Y-108486913D01*
X92759321Y-108506045D01*
X92781171Y-108519332D01*
X92888618Y-108584672D01*
X93034335Y-108625500D01*
X93034337Y-108625500D01*
X93143421Y-108625500D01*
X93147658Y-108625500D01*
X93259920Y-108610070D01*
X93398720Y-108549780D01*
X93475994Y-108486912D01*
X93540420Y-108459875D01*
X93609237Y-108471960D01*
X93660595Y-108519332D01*
X93662658Y-108522907D01*
X93710254Y-108608658D01*
X93747946Y-108676568D01*
X93755841Y-108690791D01*
X93881760Y-108837468D01*
X93881763Y-108837470D01*
X94034624Y-108955795D01*
X94118050Y-108996717D01*
X94208184Y-109040930D01*
X94395326Y-109089385D01*
X94588390Y-109099176D01*
X94588390Y-109099175D01*
X94588391Y-109099176D01*
X94779474Y-109069903D01*
X94804360Y-109060686D01*
X94960753Y-109002764D01*
X95124807Y-108900509D01*
X95264919Y-108767323D01*
X95375353Y-108608658D01*
X95451587Y-108431012D01*
X95490500Y-108241656D01*
X95490500Y-106996794D01*
X95475845Y-106852679D01*
X95417974Y-106668232D01*
X95324159Y-106499209D01*
X95198240Y-106352532D01*
X95189289Y-106345604D01*
X95045375Y-106234204D01*
X94871816Y-106149070D01*
X94850369Y-106143517D01*
X94684674Y-106100615D01*
X94659474Y-106099337D01*
X94491608Y-106090823D01*
X94300528Y-106120096D01*
X94237289Y-106143517D01*
X94167586Y-106148340D01*
X94106340Y-106114714D01*
X94094957Y-106101546D01*
X94077189Y-106077811D01*
X93962089Y-105991647D01*
X93827371Y-105941400D01*
X93771132Y-105935354D01*
X93764518Y-105935000D01*
X93670000Y-105935000D01*
X93670000Y-106636595D01*
X93659947Y-106685504D01*
X93658446Y-106689001D01*
X93613915Y-106742841D01*
X93547345Y-106764059D01*
X93479872Y-106745919D01*
X93432917Y-106694179D01*
X93420499Y-106640092D01*
X93420499Y-106390439D01*
X93420499Y-106390438D01*
X93420499Y-106387128D01*
X93414091Y-106327517D01*
X93378318Y-106231603D01*
X93370500Y-106188271D01*
X93370500Y-105999679D01*
X93380769Y-105961383D01*
X93377222Y-105960231D01*
X93381660Y-105946572D01*
X93436497Y-105777803D01*
X93455185Y-105600000D01*
X93455093Y-105599128D01*
X93455523Y-105596778D01*
X93456547Y-105587038D01*
X93457290Y-105587116D01*
X93467662Y-105530401D01*
X93515393Y-105479377D01*
X93583133Y-105462258D01*
X93615310Y-105467784D01*
X93617900Y-105468591D01*
X93685620Y-105474745D01*
X93691238Y-105474999D01*
X93694999Y-105474998D01*
X93695000Y-105474998D01*
X93695000Y-104750000D01*
X94195000Y-104750000D01*
X94195000Y-105474999D01*
X94198753Y-105474999D01*
X94204389Y-105474743D01*
X94272104Y-105468591D01*
X94434397Y-105418018D01*
X94579875Y-105330074D01*
X94700074Y-105209875D01*
X94788019Y-105064396D01*
X94838590Y-104902106D01*
X94844744Y-104834384D01*
X94845000Y-104828755D01*
X94845000Y-104750000D01*
X94195000Y-104750000D01*
X93695000Y-104750000D01*
X93695000Y-104374000D01*
X93714685Y-104306961D01*
X93767489Y-104261206D01*
X93819000Y-104250000D01*
X94844999Y-104250000D01*
X94866591Y-104228408D01*
X94927914Y-104194923D01*
X94954272Y-104192089D01*
X95037571Y-104192089D01*
X95053756Y-104193150D01*
X95083411Y-104197054D01*
X95121125Y-104192089D01*
X95121131Y-104192089D01*
X95233647Y-104177276D01*
X95373644Y-104119287D01*
X95373644Y-104119286D01*
X95373644Y-104119285D01*
X95381108Y-104116194D01*
X95389885Y-104106823D01*
X95463679Y-104050201D01*
X95463678Y-104050201D01*
X95479970Y-104037701D01*
X95479974Y-104037695D01*
X95493862Y-104027040D01*
X95503918Y-104013933D01*
X95557225Y-103973898D01*
X96010988Y-103796868D01*
X96011185Y-103796789D01*
X96064104Y-103771924D01*
X96064107Y-103771921D01*
X96065298Y-103771362D01*
X96086854Y-103758748D01*
X96127593Y-103740612D01*
X96272230Y-103635526D01*
X96391859Y-103502665D01*
X96481250Y-103347835D01*
X96536497Y-103177803D01*
X96555185Y-103000000D01*
X96536497Y-102822197D01*
X96488565Y-102674678D01*
X96481250Y-102652164D01*
X96391859Y-102497334D01*
X96272228Y-102364472D01*
X96127596Y-102259389D01*
X95964264Y-102186669D01*
X95789393Y-102149500D01*
X95789391Y-102149500D01*
X95610609Y-102149500D01*
X95610607Y-102149500D01*
X95435735Y-102186669D01*
X95272407Y-102259388D01*
X95232876Y-102288108D01*
X95167069Y-102311586D01*
X95099015Y-102295759D01*
X95087107Y-102288105D01*
X95036007Y-102250978D01*
X94872675Y-102178258D01*
X94697804Y-102141089D01*
X94697802Y-102141089D01*
X94519020Y-102141089D01*
X94519018Y-102141089D01*
X94344145Y-102178259D01*
X94333986Y-102182782D01*
X94312871Y-102189241D01*
X93844342Y-102343296D01*
X93805610Y-102349500D01*
X93228384Y-102349500D01*
X93161345Y-102329815D01*
X93115590Y-102277011D01*
X93104384Y-102225500D01*
X93104383Y-101835439D01*
X93104383Y-101832128D01*
X93097975Y-101772517D01*
X93047680Y-101637669D01*
X92961430Y-101522454D01*
X92846215Y-101436204D01*
X92711367Y-101385909D01*
X92659691Y-101380353D01*
X92655050Y-101379854D01*
X92655049Y-101379853D01*
X92651757Y-101379500D01*
X92648434Y-101379500D01*
X92259323Y-101379500D01*
X92259304Y-101379500D01*
X92256012Y-101379501D01*
X92252737Y-101379852D01*
X92252718Y-101379854D01*
X92217137Y-101383679D01*
X92190633Y-101383679D01*
X92155047Y-101379853D01*
X92155034Y-101379852D01*
X92151757Y-101379500D01*
X92148446Y-101379500D01*
X91759323Y-101379500D01*
X91759304Y-101379500D01*
X91756012Y-101379501D01*
X91752724Y-101379854D01*
X91752713Y-101379855D01*
X91739789Y-101381244D01*
X91713289Y-101381244D01*
X91705006Y-101380353D01*
X91698402Y-101380000D01*
X91653883Y-101380000D01*
X91638243Y-101395640D01*
X91593899Y-101424139D01*
X91561552Y-101436204D01*
X91528194Y-101461176D01*
X91462730Y-101485593D01*
X91394457Y-101470741D01*
X91379574Y-101461176D01*
X91346215Y-101436203D01*
X91313869Y-101424139D01*
X91269523Y-101395639D01*
X91253884Y-101380000D01*
X91209369Y-101380000D01*
X91202757Y-101380354D01*
X91194473Y-101381244D01*
X91167986Y-101381243D01*
X91155063Y-101379854D01*
X91155036Y-101379852D01*
X91151757Y-101379500D01*
X91148445Y-101379500D01*
X90759323Y-101379500D01*
X90759304Y-101379500D01*
X90756012Y-101379501D01*
X90752737Y-101379852D01*
X90752718Y-101379854D01*
X90717137Y-101383679D01*
X90690633Y-101383679D01*
X90655047Y-101379853D01*
X90655034Y-101379852D01*
X90651757Y-101379500D01*
X90648446Y-101379500D01*
X90259323Y-101379500D01*
X90259304Y-101379500D01*
X90256012Y-101379501D01*
X90252732Y-101379853D01*
X90252724Y-101379854D01*
X90196399Y-101385909D01*
X90061556Y-101436203D01*
X90061553Y-101436204D01*
X90039059Y-101453042D01*
X89973596Y-101477459D01*
X89905323Y-101462607D01*
X89855918Y-101413202D01*
X89841392Y-101366376D01*
X89834856Y-101302394D01*
X89781546Y-101141513D01*
X89692573Y-100997267D01*
X89682986Y-100987680D01*
X89649501Y-100926357D01*
X89654485Y-100856665D01*
X89682988Y-100812316D01*
X89692572Y-100802732D01*
X89781546Y-100658484D01*
X89834856Y-100497606D01*
X89844680Y-100401445D01*
X89845000Y-100395167D01*
X89845000Y-100350000D01*
X89145000Y-100350000D01*
X89145000Y-102674999D01*
X89165165Y-102674999D01*
X89171447Y-102674678D01*
X89267605Y-102664856D01*
X89428486Y-102611546D01*
X89572728Y-102522576D01*
X89592315Y-102502989D01*
X89653638Y-102469503D01*
X89723330Y-102474487D01*
X89779264Y-102516357D01*
X89803682Y-102581821D01*
X89803820Y-102597304D01*
X89803737Y-102598834D01*
X89803384Y-102602127D01*
X89803384Y-102605439D01*
X89803384Y-102605440D01*
X89803384Y-103244560D01*
X89803384Y-103244578D01*
X89803385Y-103247872D01*
X89803737Y-103251152D01*
X89803738Y-103251159D01*
X89809793Y-103307484D01*
X89861682Y-103446605D01*
X89869500Y-103489938D01*
X89869500Y-104765256D01*
X89849815Y-104832295D01*
X89833181Y-104852937D01*
X89724709Y-104961409D01*
X89663386Y-104994894D01*
X89593694Y-104989910D01*
X89537761Y-104948038D01*
X89523828Y-104923117D01*
X89522487Y-104921272D01*
X89522486Y-104921268D01*
X89496798Y-104885912D01*
X89490409Y-104876184D01*
X89468170Y-104838579D01*
X89468169Y-104838578D01*
X89460195Y-104825094D01*
X89461137Y-104824536D01*
X89449166Y-104806782D01*
X89255336Y-104349624D01*
X89245500Y-104301224D01*
X89245500Y-104271203D01*
X89245500Y-104268384D01*
X89239086Y-104197804D01*
X89188478Y-104035394D01*
X89100472Y-103889815D01*
X89100471Y-103889813D01*
X88980186Y-103769528D01*
X88892180Y-103716326D01*
X88834606Y-103681522D01*
X88672196Y-103630914D01*
X88672193Y-103630913D01*
X88604424Y-103624755D01*
X88604420Y-103624754D01*
X88601616Y-103624500D01*
X88598797Y-103624500D01*
X88527253Y-103624500D01*
X88460214Y-103604815D01*
X88414459Y-103552011D01*
X88404515Y-103482856D01*
X88405500Y-103476003D01*
X88405500Y-102790227D01*
X88425185Y-102723188D01*
X88477989Y-102677433D01*
X88542104Y-102666869D01*
X88618538Y-102674678D01*
X88624851Y-102674999D01*
X88645000Y-102674999D01*
X88645000Y-99974000D01*
X88664685Y-99906961D01*
X88717489Y-99861206D01*
X88769000Y-99850000D01*
X89844999Y-99850000D01*
X89844999Y-99804834D01*
X89844678Y-99798552D01*
X89834856Y-99702394D01*
X89781546Y-99541513D01*
X89692573Y-99397267D01*
X89572732Y-99277426D01*
X89440456Y-99195837D01*
X89393731Y-99143889D01*
X89382510Y-99074927D01*
X89400463Y-99033605D01*
X89398161Y-99032554D01*
X89435873Y-98949974D01*
X89465338Y-98885459D01*
X89485023Y-98818420D01*
X89485024Y-98818416D01*
X89505500Y-98676000D01*
X89505500Y-97129500D01*
X89525185Y-97062461D01*
X89577989Y-97016706D01*
X89629500Y-97005500D01*
X89685849Y-97005500D01*
X89729388Y-97013395D01*
X89752452Y-97022044D01*
X92801454Y-98165419D01*
X92888755Y-98189494D01*
X92932294Y-98197389D01*
X93022486Y-98205500D01*
X93025274Y-98205500D01*
X95175786Y-98205500D01*
X95178917Y-98205500D01*
X95280478Y-98195193D01*
X95329290Y-98185182D01*
X95332291Y-98184242D01*
X95332296Y-98184241D01*
X95392406Y-98165419D01*
X95426722Y-98154674D01*
X95548786Y-98080271D01*
X95549575Y-98079790D01*
X95549575Y-98079789D01*
X95549578Y-98079788D01*
X95603456Y-98035302D01*
X95700233Y-97928845D01*
X95763102Y-97799427D01*
X95782685Y-97738170D01*
X95783763Y-97734798D01*
X95783766Y-97734786D01*
X95784377Y-97732876D01*
X95784378Y-97732872D01*
X95808239Y-97590984D01*
X95902334Y-93638984D01*
X95892168Y-93525383D01*
X95880997Y-93470920D01*
X95845625Y-93362496D01*
X95767837Y-93241457D01*
X95722082Y-93188653D01*
X95613348Y-93094433D01*
X95613347Y-93094432D01*
X95482472Y-93034662D01*
X95417125Y-93015474D01*
X95417123Y-93015473D01*
X95415432Y-93014977D01*
X95415428Y-93014976D01*
X95412302Y-93014526D01*
X95412289Y-93014524D01*
X95273012Y-92994500D01*
X92625452Y-92994500D01*
X92622335Y-92994816D01*
X92622326Y-92994817D01*
X92526931Y-93004506D01*
X92526924Y-93004506D01*
X92523813Y-93004823D01*
X92520769Y-93005447D01*
X92520748Y-93005451D01*
X92478038Y-93014218D01*
X92478025Y-93014221D01*
X92474967Y-93014849D01*
X92471982Y-93015784D01*
X92471968Y-93015788D01*
X92380490Y-93044454D01*
X92380476Y-93044459D01*
X92377480Y-93045398D01*
X92374586Y-93046638D01*
X92374584Y-93046639D01*
X89719636Y-94184474D01*
X89670790Y-94194500D01*
X89494000Y-94194500D01*
X89426961Y-94174815D01*
X89381206Y-94122011D01*
X89370000Y-94070500D01*
X89370000Y-93550000D01*
X86370000Y-93550000D01*
X86370000Y-94094518D01*
X86370354Y-94101132D01*
X86376401Y-94157375D01*
X86393044Y-94201999D01*
X86398028Y-94271691D01*
X86364542Y-94333014D01*
X86357300Y-94339701D01*
X86333769Y-94359757D01*
X86333759Y-94359765D01*
X86332486Y-94360851D01*
X86331284Y-94361993D01*
X86331258Y-94362017D01*
X86314253Y-94378182D01*
X86314230Y-94378205D01*
X86313034Y-94379342D01*
X86311893Y-94380550D01*
X86311880Y-94380564D01*
X86276561Y-94417987D01*
X86276543Y-94418006D01*
X86275420Y-94419197D01*
X86274378Y-94420428D01*
X86274348Y-94420462D01*
X86090063Y-94638256D01*
X85952722Y-94800570D01*
X85952699Y-94800597D01*
X85894369Y-94839059D01*
X85858039Y-94844500D01*
X85339332Y-94844500D01*
X85272293Y-94824815D01*
X85226538Y-94772011D01*
X85216594Y-94702853D01*
X85221401Y-94682182D01*
X85224176Y-94673642D01*
X85235674Y-94638256D01*
X85255460Y-94450000D01*
X85235674Y-94261744D01*
X85177179Y-94081716D01*
X85177179Y-94081715D01*
X85082533Y-93917783D01*
X84955870Y-93777110D01*
X84802730Y-93665848D01*
X84629802Y-93588855D01*
X84444648Y-93549500D01*
X84444646Y-93549500D01*
X84255354Y-93549500D01*
X84255352Y-93549500D01*
X84070197Y-93588855D01*
X83897269Y-93665848D01*
X83744129Y-93777110D01*
X83693382Y-93833472D01*
X83633895Y-93870121D01*
X83601232Y-93874500D01*
X83544499Y-93874500D01*
X83477460Y-93854815D01*
X83431705Y-93802011D01*
X83420499Y-93750500D01*
X83420499Y-93455439D01*
X83420499Y-93452128D01*
X83414091Y-93392517D01*
X83363796Y-93257669D01*
X83277546Y-93142454D01*
X83162331Y-93056204D01*
X83027483Y-93005909D01*
X82967873Y-92999500D01*
X82964551Y-92999500D01*
X82629495Y-92999500D01*
X82562456Y-92979815D01*
X82516701Y-92927011D01*
X82506757Y-92857853D01*
X82535782Y-92794297D01*
X82579061Y-92762220D01*
X82599079Y-92753307D01*
X82627593Y-92740612D01*
X82772230Y-92635526D01*
X82891859Y-92502665D01*
X82981250Y-92347835D01*
X83036497Y-92177803D01*
X83049930Y-92050000D01*
X84181210Y-92050000D01*
X84182854Y-92070915D01*
X84227967Y-92226194D01*
X84310281Y-92365379D01*
X84424620Y-92479718D01*
X84563803Y-92562031D01*
X84710000Y-92604504D01*
X84710000Y-92050000D01*
X84181210Y-92050000D01*
X83049930Y-92050000D01*
X83055185Y-92000000D01*
X83036497Y-91822197D01*
X82997007Y-91700662D01*
X82995013Y-91630823D01*
X83022789Y-91579374D01*
X83091859Y-91502665D01*
X83181250Y-91347835D01*
X83236497Y-91177803D01*
X83255185Y-91000000D01*
X83236497Y-90822197D01*
X83201339Y-90713991D01*
X83181250Y-90652164D01*
X83133524Y-90569501D01*
X83117051Y-90501601D01*
X83133523Y-90445504D01*
X83179191Y-90366407D01*
X83237686Y-90186379D01*
X83257472Y-89998123D01*
X83242425Y-89854963D01*
X83254994Y-89786237D01*
X83302726Y-89735213D01*
X83356019Y-89718387D01*
X83365204Y-89717665D01*
X83411406Y-89704242D01*
X83481274Y-89704441D01*
X83539944Y-89742383D01*
X83568788Y-89806021D01*
X83570000Y-89823318D01*
X83570000Y-89950000D01*
X84796000Y-89950000D01*
X84863039Y-89969685D01*
X84908794Y-90022489D01*
X84920000Y-90074000D01*
X84920000Y-90326000D01*
X84900315Y-90393039D01*
X84847511Y-90438794D01*
X84796000Y-90450000D01*
X83570000Y-90450000D01*
X83570000Y-90944518D01*
X83570354Y-90951132D01*
X83576400Y-91007371D01*
X83626647Y-91142089D01*
X83712811Y-91257188D01*
X83827910Y-91343352D01*
X83962628Y-91393599D01*
X84018867Y-91399645D01*
X84025482Y-91400000D01*
X84058872Y-91400000D01*
X84125911Y-91419685D01*
X84171666Y-91472489D01*
X84182490Y-91533729D01*
X84181209Y-91549999D01*
X84181210Y-91550000D01*
X85015500Y-91550000D01*
X85082539Y-91569685D01*
X85128294Y-91622489D01*
X85139500Y-91674000D01*
X85139500Y-92034690D01*
X85139690Y-92037110D01*
X85139691Y-92037124D01*
X85142357Y-92070996D01*
X85187504Y-92226392D01*
X85187506Y-92226395D01*
X85192731Y-92235230D01*
X85210000Y-92298352D01*
X85210000Y-92604503D01*
X85356193Y-92562032D01*
X85376383Y-92550091D01*
X85444106Y-92532906D01*
X85502629Y-92550089D01*
X85523605Y-92562494D01*
X85679003Y-92607642D01*
X85679007Y-92607643D01*
X85715310Y-92610500D01*
X85717755Y-92610500D01*
X86122245Y-92610500D01*
X86124690Y-92610500D01*
X86160993Y-92607643D01*
X86211404Y-92592997D01*
X86281274Y-92593196D01*
X86339944Y-92631138D01*
X86368788Y-92694776D01*
X86370000Y-92712073D01*
X86370000Y-93050000D01*
X87620000Y-93050000D01*
X87620000Y-92050000D01*
X86824500Y-92050000D01*
X86757461Y-92030315D01*
X86711706Y-91977511D01*
X86700500Y-91926000D01*
X86700500Y-91567755D01*
X86700500Y-91565310D01*
X86698556Y-91540610D01*
X86698054Y-91534227D01*
X86712419Y-91465850D01*
X86761470Y-91416093D01*
X86821672Y-91400499D01*
X87014561Y-91400499D01*
X87017872Y-91400499D01*
X87077483Y-91394091D01*
X87212331Y-91343796D01*
X87327546Y-91257546D01*
X87413796Y-91142331D01*
X87413797Y-91142329D01*
X87429965Y-91098980D01*
X87471835Y-91043046D01*
X87537299Y-91018628D01*
X87571924Y-91021021D01*
X87710609Y-91050500D01*
X87889391Y-91050500D01*
X88010252Y-91024810D01*
X88079917Y-91030126D01*
X88135651Y-91072262D01*
X88159757Y-91137842D01*
X88159353Y-91159061D01*
X88144540Y-91299999D01*
X88164326Y-91488257D01*
X88222820Y-91668284D01*
X88317466Y-91832215D01*
X88327201Y-91843027D01*
X88357431Y-91906018D01*
X88348807Y-91975353D01*
X88304067Y-92029019D01*
X88237414Y-92049977D01*
X88235052Y-92050000D01*
X88120000Y-92050000D01*
X88120000Y-93050000D01*
X89370000Y-93050000D01*
X89370000Y-92505481D01*
X89369645Y-92498867D01*
X89363599Y-92442628D01*
X89309481Y-92297533D01*
X89304497Y-92227841D01*
X89337981Y-92166518D01*
X89375227Y-92140919D01*
X89502730Y-92084151D01*
X89502730Y-92084150D01*
X89502732Y-92084150D01*
X89618554Y-92000000D01*
X89655871Y-91972888D01*
X89728213Y-91892542D01*
X89787696Y-91855896D01*
X89857553Y-91857225D01*
X89859367Y-91857811D01*
X89912291Y-91875349D01*
X90008522Y-91885180D01*
X90008523Y-91885180D01*
X90011655Y-91885500D01*
X90558344Y-91885499D01*
X90657708Y-91875349D01*
X90818697Y-91822003D01*
X90963044Y-91732968D01*
X90972672Y-91723339D01*
X91033992Y-91689854D01*
X91103684Y-91694837D01*
X91148036Y-91723341D01*
X91157269Y-91732574D01*
X91301513Y-91821546D01*
X91462393Y-91874856D01*
X91558536Y-91884678D01*
X91564851Y-91884999D01*
X91585000Y-91884999D01*
X91585000Y-89935000D01*
X91564836Y-89935000D01*
X91558550Y-89935321D01*
X91462761Y-89945106D01*
X91394068Y-89932336D01*
X91343184Y-89884455D01*
X91326264Y-89816665D01*
X91337018Y-89771004D01*
X91349855Y-89742383D01*
X91459403Y-89498131D01*
X91463445Y-89490421D01*
X91466728Y-89481592D01*
X91468670Y-89477121D01*
X91468894Y-89476588D01*
X91490724Y-89413158D01*
X91491589Y-89406110D01*
X91496275Y-89384350D01*
X91514086Y-89327196D01*
X91520500Y-89256616D01*
X91520499Y-89174499D01*
X91540185Y-89107461D01*
X91592989Y-89061706D01*
X91644500Y-89050500D01*
X92079192Y-89050500D01*
X92146231Y-89070185D01*
X92166873Y-89086819D01*
X92613180Y-89533127D01*
X92646665Y-89594450D01*
X92649499Y-89620808D01*
X92649499Y-89905856D01*
X92641350Y-89950067D01*
X92627834Y-89985484D01*
X92585540Y-90041100D01*
X92519893Y-90065020D01*
X92451734Y-90049652D01*
X92446886Y-90046812D01*
X92368483Y-89998452D01*
X92207606Y-89945143D01*
X92111445Y-89935319D01*
X92105168Y-89935000D01*
X92085000Y-89935000D01*
X92085000Y-91884999D01*
X92105165Y-91884999D01*
X92111447Y-91884678D01*
X92207605Y-91874856D01*
X92368486Y-91821546D01*
X92512727Y-91732576D01*
X92514639Y-91730665D01*
X92524998Y-91725007D01*
X92525068Y-91724965D01*
X92525070Y-91724968D01*
X92575961Y-91697178D01*
X92645653Y-91702159D01*
X92690006Y-91730663D01*
X92699815Y-91740472D01*
X92845394Y-91828478D01*
X93007804Y-91879086D01*
X93078384Y-91885500D01*
X93081203Y-91885500D01*
X93588797Y-91885500D01*
X93591616Y-91885500D01*
X93662196Y-91879086D01*
X93824606Y-91828478D01*
X93970185Y-91740472D01*
X94020803Y-91689854D01*
X94072319Y-91638339D01*
X94133642Y-91604854D01*
X94203334Y-91609838D01*
X94247681Y-91638339D01*
X94349813Y-91740471D01*
X94364772Y-91749514D01*
X94495394Y-91828478D01*
X94657804Y-91879086D01*
X94728384Y-91885500D01*
X94731203Y-91885500D01*
X95238797Y-91885500D01*
X95241616Y-91885500D01*
X95312196Y-91879086D01*
X95474606Y-91828478D01*
X95620185Y-91740472D01*
X95634180Y-91726476D01*
X95695499Y-91692991D01*
X95765191Y-91697972D01*
X95771913Y-91700706D01*
X95836367Y-91729141D01*
X95836588Y-91729236D01*
X95892668Y-91749514D01*
X95892669Y-91749514D01*
X95895971Y-91750708D01*
X95904231Y-91754035D01*
X95920197Y-91761144D01*
X95981916Y-91774262D01*
X96105352Y-91800500D01*
X96105354Y-91800500D01*
X96294648Y-91800500D01*
X96418083Y-91774262D01*
X96479803Y-91761144D01*
X96652730Y-91684151D01*
X96752288Y-91611818D01*
X96805870Y-91572889D01*
X96826480Y-91550000D01*
X96932533Y-91432216D01*
X97027179Y-91268284D01*
X97085674Y-91088256D01*
X97105460Y-90900000D01*
X97085674Y-90711744D01*
X97047935Y-90595595D01*
X97027179Y-90531715D01*
X96932533Y-90367783D01*
X96805870Y-90227110D01*
X96652730Y-90115848D01*
X96479802Y-90038855D01*
X96294648Y-89999500D01*
X96294646Y-89999500D01*
X96105354Y-89999500D01*
X96105352Y-89999500D01*
X95920199Y-90038855D01*
X95862330Y-90064619D01*
X95848356Y-90069857D01*
X95819999Y-90078580D01*
X95762548Y-90105709D01*
X95693522Y-90116534D01*
X95629601Y-90088323D01*
X95621920Y-90081262D01*
X95620186Y-90079528D01*
X95525345Y-90022195D01*
X95474606Y-89991522D01*
X95466532Y-89989006D01*
X95408385Y-89950267D01*
X95380413Y-89886241D01*
X95391496Y-89817256D01*
X95438116Y-89765214D01*
X95439278Y-89764502D01*
X95454877Y-89755072D01*
X95575074Y-89634875D01*
X95663019Y-89489396D01*
X95713590Y-89327106D01*
X95719744Y-89259384D01*
X95720000Y-89253755D01*
X95720000Y-88650000D01*
X93920002Y-88650000D01*
X93920000Y-88650001D01*
X93920000Y-88700693D01*
X93900315Y-88767732D01*
X93847510Y-88813487D01*
X93778352Y-88823430D01*
X93714796Y-88794404D01*
X93708319Y-88788373D01*
X93069946Y-88150000D01*
X93920000Y-88150000D01*
X94570000Y-88150000D01*
X94570000Y-86900000D01*
X95070000Y-86900000D01*
X95070000Y-88150000D01*
X95719999Y-88150000D01*
X95719999Y-87546246D01*
X95719743Y-87540610D01*
X95713591Y-87472895D01*
X95663018Y-87310602D01*
X95575074Y-87165124D01*
X95454875Y-87044925D01*
X95309396Y-86956980D01*
X95147106Y-86906409D01*
X95079384Y-86900255D01*
X95073756Y-86900000D01*
X95070000Y-86900000D01*
X94570000Y-86900000D01*
X94569999Y-86899999D01*
X94566228Y-86900000D01*
X94560628Y-86900255D01*
X94492895Y-86906408D01*
X94330602Y-86956981D01*
X94185124Y-87044925D01*
X94064925Y-87165124D01*
X93976980Y-87310603D01*
X93926409Y-87472893D01*
X93920255Y-87540615D01*
X93920000Y-87546244D01*
X93920000Y-88150000D01*
X93069946Y-88150000D01*
X92920434Y-88000488D01*
X92907091Y-87983833D01*
X92854166Y-87934134D01*
X92851369Y-87931423D01*
X92833789Y-87913843D01*
X92831035Y-87911089D01*
X92827956Y-87908701D01*
X92827951Y-87908696D01*
X92827548Y-87908383D01*
X92818669Y-87900800D01*
X92785392Y-87869551D01*
X92766793Y-87859326D01*
X92750532Y-87848645D01*
X92733764Y-87835638D01*
X92691870Y-87817508D01*
X92681379Y-87812369D01*
X92641367Y-87790372D01*
X92620800Y-87785091D01*
X92602398Y-87778791D01*
X92582924Y-87770364D01*
X92537837Y-87763223D01*
X92526398Y-87760854D01*
X92482178Y-87749500D01*
X92482177Y-87749500D01*
X92460955Y-87749500D01*
X92441556Y-87747973D01*
X92420596Y-87744653D01*
X92420595Y-87744653D01*
X92398558Y-87746736D01*
X92375139Y-87748950D01*
X92363470Y-87749500D01*
X91644500Y-87749500D01*
X91577461Y-87729815D01*
X91531706Y-87677011D01*
X91520500Y-87625500D01*
X91520500Y-87546203D01*
X91520500Y-87543384D01*
X91514086Y-87472804D01*
X91463478Y-87310394D01*
X91375472Y-87164815D01*
X91375471Y-87164813D01*
X91255186Y-87044528D01*
X91110365Y-86956981D01*
X91109606Y-86956522D01*
X90948785Y-86906409D01*
X90947193Y-86905913D01*
X90879424Y-86899755D01*
X90879420Y-86899754D01*
X90876616Y-86899500D01*
X90363384Y-86899500D01*
X90360580Y-86899754D01*
X90360575Y-86899755D01*
X90292806Y-86905913D01*
X90224275Y-86927268D01*
X90130394Y-86956522D01*
X90130392Y-86956522D01*
X90130392Y-86956523D01*
X89984813Y-87044528D01*
X89864528Y-87164813D01*
X89790649Y-87287025D01*
X89776522Y-87310394D01*
X89776457Y-87310603D01*
X89725913Y-87472806D01*
X89719755Y-87540575D01*
X89719500Y-87543384D01*
X89719500Y-89256616D01*
X89719754Y-89259420D01*
X89719755Y-89259424D01*
X89725913Y-89327193D01*
X89777100Y-89491461D01*
X89780592Y-89498123D01*
X89810350Y-89564472D01*
X89915807Y-89799602D01*
X89925280Y-89868826D01*
X89895824Y-89932183D01*
X89841670Y-89968052D01*
X89751299Y-89997998D01*
X89606958Y-90087029D01*
X89487030Y-90206958D01*
X89450887Y-90265554D01*
X89443135Y-90276705D01*
X89394817Y-90338669D01*
X89338070Y-90379431D01*
X89300930Y-90386358D01*
X89046820Y-90394350D01*
X89046818Y-90394350D01*
X89045422Y-90394394D01*
X88999833Y-90397896D01*
X88999831Y-90397896D01*
X88988174Y-90398792D01*
X88988118Y-90398073D01*
X88977407Y-90399500D01*
X88955351Y-90399500D01*
X88793818Y-90433834D01*
X88724151Y-90428518D01*
X88668418Y-90386381D01*
X88644313Y-90320801D01*
X88644716Y-90299598D01*
X88655185Y-90200000D01*
X88636497Y-90022197D01*
X88586664Y-89868826D01*
X88581250Y-89852164D01*
X88491859Y-89697334D01*
X88372228Y-89564472D01*
X88227596Y-89459389D01*
X88064264Y-89386669D01*
X87889393Y-89349500D01*
X87889391Y-89349500D01*
X87710609Y-89349500D01*
X87710607Y-89349500D01*
X87571927Y-89378977D01*
X87502260Y-89373661D01*
X87446526Y-89331524D01*
X87429964Y-89301019D01*
X87414450Y-89259424D01*
X87413796Y-89257669D01*
X87351080Y-89173892D01*
X87326664Y-89108428D01*
X87341516Y-89040155D01*
X87351082Y-89025270D01*
X87413352Y-88942089D01*
X87463599Y-88807371D01*
X87469645Y-88751132D01*
X87470000Y-88744518D01*
X87470000Y-88250000D01*
X86244000Y-88250000D01*
X86176961Y-88230315D01*
X86131206Y-88177511D01*
X86120000Y-88126000D01*
X86120000Y-87874000D01*
X86139685Y-87806961D01*
X86192489Y-87761206D01*
X86244000Y-87750000D01*
X87470000Y-87750000D01*
X87470000Y-87255481D01*
X87469645Y-87248867D01*
X87463599Y-87192628D01*
X87413352Y-87057910D01*
X87327188Y-86942811D01*
X87212089Y-86856647D01*
X87077371Y-86806400D01*
X87021132Y-86800354D01*
X87014518Y-86800000D01*
X86821128Y-86800000D01*
X86754089Y-86780315D01*
X86708334Y-86727511D01*
X86697510Y-86666271D01*
X86698790Y-86650000D01*
X85864500Y-86650000D01*
X85797461Y-86630315D01*
X85751706Y-86577511D01*
X85740500Y-86526000D01*
X85740500Y-86274000D01*
X85760185Y-86206961D01*
X85812989Y-86161206D01*
X85864500Y-86150000D01*
X86698790Y-86150000D01*
X86698790Y-86149999D01*
X86697943Y-86139222D01*
X86712310Y-86070846D01*
X86761365Y-86021092D01*
X86821561Y-86005500D01*
X87946387Y-86005500D01*
X88013426Y-86025185D01*
X88059181Y-86077989D01*
X88069125Y-86147147D01*
X88053774Y-86191499D01*
X88018750Y-86252162D01*
X87963503Y-86422195D01*
X87944815Y-86599999D01*
X87963503Y-86777804D01*
X88018749Y-86947835D01*
X88108140Y-87102665D01*
X88227771Y-87235527D01*
X88372403Y-87340610D01*
X88372406Y-87340611D01*
X88372407Y-87340612D01*
X88393511Y-87350008D01*
X88535735Y-87413330D01*
X88710607Y-87450500D01*
X88710609Y-87450500D01*
X88889393Y-87450500D01*
X89064264Y-87413330D01*
X89064265Y-87413329D01*
X89064267Y-87413329D01*
X89227593Y-87340612D01*
X89372230Y-87235526D01*
X89491859Y-87102665D01*
X89581250Y-86947835D01*
X89585465Y-86934863D01*
X89595466Y-86912129D01*
X89598623Y-86906550D01*
X89775485Y-86453169D01*
X89803323Y-86410555D01*
X89899664Y-86314214D01*
X89960985Y-86280731D01*
X90030677Y-86285715D01*
X90051489Y-86295778D01*
X90130394Y-86343478D01*
X90292804Y-86394086D01*
X90363384Y-86400500D01*
X90366203Y-86400500D01*
X90873797Y-86400500D01*
X90876616Y-86400500D01*
X90947196Y-86394086D01*
X91109606Y-86343478D01*
X91255185Y-86255472D01*
X91375472Y-86135185D01*
X91463478Y-85989606D01*
X91514086Y-85827196D01*
X91520500Y-85756616D01*
X91520500Y-85150000D01*
X93920001Y-85150000D01*
X93920001Y-85753753D01*
X93920256Y-85759389D01*
X93926408Y-85827104D01*
X93976981Y-85989397D01*
X94064925Y-86134875D01*
X94185124Y-86255074D01*
X94330603Y-86343019D01*
X94492893Y-86393590D01*
X94560620Y-86399745D01*
X94566238Y-86399999D01*
X95069999Y-86399999D01*
X95073753Y-86399999D01*
X95079389Y-86399743D01*
X95147104Y-86393591D01*
X95309397Y-86343018D01*
X95454875Y-86255074D01*
X95575074Y-86134875D01*
X95663019Y-85989396D01*
X95713590Y-85827106D01*
X95719744Y-85759384D01*
X95720000Y-85753755D01*
X95720000Y-85150000D01*
X95070000Y-85150000D01*
X95069999Y-86399999D01*
X94566238Y-86399999D01*
X94569999Y-86399998D01*
X94570000Y-86399998D01*
X94570000Y-85150000D01*
X93920001Y-85150000D01*
X91520500Y-85150000D01*
X91520500Y-84650000D01*
X93920000Y-84650000D01*
X94570000Y-84650000D01*
X94570000Y-83400000D01*
X95070000Y-83400000D01*
X95070000Y-84650000D01*
X95719999Y-84650000D01*
X95719999Y-84046246D01*
X95719743Y-84040610D01*
X95713591Y-83972895D01*
X95663018Y-83810602D01*
X95575074Y-83665124D01*
X95454875Y-83544925D01*
X95309396Y-83456980D01*
X95147106Y-83406409D01*
X95079384Y-83400255D01*
X95073756Y-83400000D01*
X95070000Y-83400000D01*
X94570000Y-83400000D01*
X94569999Y-83399999D01*
X94566228Y-83400000D01*
X94560628Y-83400255D01*
X94492895Y-83406408D01*
X94330602Y-83456981D01*
X94185124Y-83544925D01*
X94064925Y-83665124D01*
X93976980Y-83810603D01*
X93926409Y-83972893D01*
X93920255Y-84040615D01*
X93920000Y-84046244D01*
X93920000Y-84650000D01*
X91520500Y-84650000D01*
X91520500Y-84043384D01*
X91514086Y-83972804D01*
X91463478Y-83810394D01*
X91375472Y-83664815D01*
X91375471Y-83664813D01*
X91255186Y-83544528D01*
X91167179Y-83491326D01*
X91109606Y-83456522D01*
X90948785Y-83406409D01*
X90947193Y-83405913D01*
X90879424Y-83399755D01*
X90879420Y-83399754D01*
X90876616Y-83399500D01*
X90363384Y-83399500D01*
X90360580Y-83399754D01*
X90360575Y-83399755D01*
X90292806Y-83405913D01*
X90232237Y-83424787D01*
X90130394Y-83456522D01*
X90130392Y-83456522D01*
X90130392Y-83456523D01*
X89984813Y-83544528D01*
X89864527Y-83664814D01*
X89845825Y-83695751D01*
X89794297Y-83742938D01*
X89725437Y-83754776D01*
X89661109Y-83727506D01*
X89645997Y-83712804D01*
X89631220Y-83695751D01*
X89625070Y-83688653D01*
X89563127Y-83634978D01*
X89525355Y-83576202D01*
X89525355Y-83521307D01*
X89523476Y-83521116D01*
X89534680Y-83411445D01*
X89535000Y-83405167D01*
X89535000Y-83385000D01*
X86834000Y-83385000D01*
X86766961Y-83365315D01*
X86721206Y-83312511D01*
X86710000Y-83261000D01*
X86710000Y-83009000D01*
X86729685Y-82941961D01*
X86782489Y-82896206D01*
X86834000Y-82885000D01*
X89534999Y-82885000D01*
X89534999Y-82864834D01*
X89534678Y-82858552D01*
X89524856Y-82762394D01*
X89471547Y-82601516D01*
X89411041Y-82503421D01*
X89392601Y-82436029D01*
X89413523Y-82369365D01*
X89465836Y-82325183D01*
X89496234Y-82311550D01*
X89530108Y-82296358D01*
X89580850Y-82285500D01*
X89621680Y-82285500D01*
X89688719Y-82305185D01*
X89734474Y-82357989D01*
X89740062Y-82372600D01*
X89776522Y-82489606D01*
X89804266Y-82535500D01*
X89864528Y-82635186D01*
X89984813Y-82755471D01*
X89984815Y-82755472D01*
X90130394Y-82843478D01*
X90292804Y-82894086D01*
X90363384Y-82900500D01*
X90366203Y-82900500D01*
X90873797Y-82900500D01*
X90876616Y-82900500D01*
X90947196Y-82894086D01*
X91109606Y-82843478D01*
X91255185Y-82755472D01*
X91375472Y-82635185D01*
X91463478Y-82489606D01*
X91514086Y-82327196D01*
X91520500Y-82256616D01*
X91520500Y-81650000D01*
X93920001Y-81650000D01*
X93920001Y-82253753D01*
X93920256Y-82259389D01*
X93926408Y-82327104D01*
X93976981Y-82489397D01*
X94064925Y-82634875D01*
X94185124Y-82755074D01*
X94330603Y-82843019D01*
X94492893Y-82893590D01*
X94560620Y-82899745D01*
X94566238Y-82899999D01*
X94569999Y-82899998D01*
X94570000Y-82899998D01*
X95069999Y-82899998D01*
X95070000Y-82899999D01*
X95073753Y-82899999D01*
X95079389Y-82899743D01*
X95147104Y-82893591D01*
X95309397Y-82843018D01*
X95454875Y-82755074D01*
X95575074Y-82634875D01*
X95663019Y-82489396D01*
X95713590Y-82327106D01*
X95719744Y-82259384D01*
X95720000Y-82253755D01*
X95720000Y-81650000D01*
X95070000Y-81650000D01*
X95069999Y-82899998D01*
X94570000Y-82899998D01*
X94570000Y-81650000D01*
X93920001Y-81650000D01*
X91520500Y-81650000D01*
X91520500Y-81150000D01*
X93920000Y-81150000D01*
X94570000Y-81150000D01*
X94570000Y-79900000D01*
X95070000Y-79900000D01*
X95070000Y-81150000D01*
X95719999Y-81150000D01*
X95719999Y-80546246D01*
X95719743Y-80540610D01*
X95713591Y-80472895D01*
X95663018Y-80310602D01*
X95575074Y-80165124D01*
X95454875Y-80044925D01*
X95309396Y-79956980D01*
X95147106Y-79906409D01*
X95079384Y-79900255D01*
X95073756Y-79900000D01*
X95070000Y-79900000D01*
X94570000Y-79900000D01*
X94569999Y-79899999D01*
X94566228Y-79900000D01*
X94560628Y-79900255D01*
X94492895Y-79906408D01*
X94330602Y-79956981D01*
X94185124Y-80044925D01*
X94064925Y-80165124D01*
X93976980Y-80310603D01*
X93926409Y-80472893D01*
X93920255Y-80540615D01*
X93920000Y-80546244D01*
X93920000Y-81150000D01*
X91520500Y-81150000D01*
X91520500Y-80543384D01*
X91514086Y-80472804D01*
X91463478Y-80310394D01*
X91375472Y-80164815D01*
X91375471Y-80164813D01*
X91255186Y-80044528D01*
X91167179Y-79991326D01*
X91109606Y-79956522D01*
X90948785Y-79906409D01*
X90947193Y-79905913D01*
X90879424Y-79899755D01*
X90879420Y-79899754D01*
X90876616Y-79899500D01*
X90363384Y-79899500D01*
X90360580Y-79899754D01*
X90360575Y-79899755D01*
X90292806Y-79905913D01*
X90211598Y-79931218D01*
X90130394Y-79956522D01*
X90130392Y-79956522D01*
X90130392Y-79956523D01*
X89984813Y-80044528D01*
X89864528Y-80164813D01*
X89776520Y-80310397D01*
X89775075Y-80315035D01*
X89736336Y-80373182D01*
X89672310Y-80401153D01*
X89655626Y-80398472D01*
X89703712Y-80441543D01*
X89722291Y-80508897D01*
X89721799Y-80518078D01*
X89719755Y-80540569D01*
X89719755Y-80540575D01*
X89719500Y-80543384D01*
X89719500Y-80546203D01*
X89719500Y-80827806D01*
X89699815Y-80894845D01*
X89681405Y-80917228D01*
X89653542Y-80943995D01*
X89591559Y-80976244D01*
X89521982Y-80969862D01*
X89516892Y-80967714D01*
X89353834Y-80894581D01*
X89300721Y-80849186D01*
X89280582Y-80782281D01*
X89299811Y-80715110D01*
X89316893Y-80693763D01*
X89390472Y-80620185D01*
X89478478Y-80474606D01*
X89479922Y-80469969D01*
X89518657Y-80411823D01*
X89582682Y-80383847D01*
X89599370Y-80386527D01*
X89551283Y-80343450D01*
X89532708Y-80276094D01*
X89533198Y-80266938D01*
X89535500Y-80241616D01*
X89535500Y-79728384D01*
X89531157Y-79680600D01*
X89544692Y-79612058D01*
X89580522Y-79569975D01*
X89581686Y-79569107D01*
X89605371Y-79555235D01*
X89652730Y-79534151D01*
X89751350Y-79462500D01*
X89805870Y-79422889D01*
X89903110Y-79314894D01*
X89932533Y-79282216D01*
X90027179Y-79118284D01*
X90085674Y-78938256D01*
X90105460Y-78750000D01*
X90085674Y-78561744D01*
X90043207Y-78431045D01*
X90027179Y-78381715D01*
X89932533Y-78217783D01*
X89805870Y-78077110D01*
X89652730Y-77965848D01*
X89479802Y-77888855D01*
X89294648Y-77849500D01*
X89294646Y-77849500D01*
X89120447Y-77849500D01*
X89053408Y-77829815D01*
X89028255Y-77800787D01*
X89019631Y-77830162D01*
X88966827Y-77875917D01*
X88941096Y-77884413D01*
X88920197Y-77888855D01*
X88747269Y-77965848D01*
X88594129Y-78077110D01*
X88467466Y-78217783D01*
X88372821Y-78381715D01*
X88366227Y-78402008D01*
X88357067Y-78423226D01*
X88352786Y-78431045D01*
X88160326Y-78945263D01*
X88129794Y-78991511D01*
X87942950Y-79169788D01*
X87921502Y-79186189D01*
X87849816Y-79229526D01*
X87840000Y-79239342D01*
X87778675Y-79272823D01*
X87708984Y-79267836D01*
X87664642Y-79239337D01*
X87662733Y-79237428D01*
X87518484Y-79148453D01*
X87357606Y-79095143D01*
X87261445Y-79085319D01*
X87255168Y-79085000D01*
X87210000Y-79085000D01*
X87210000Y-80161000D01*
X87190315Y-80228039D01*
X87137511Y-80273794D01*
X87086000Y-80285000D01*
X85234000Y-80285000D01*
X85166961Y-80265315D01*
X85121206Y-80212511D01*
X85110000Y-80161000D01*
X85110000Y-79086910D01*
X85110302Y-79085000D01*
X85610000Y-79085000D01*
X85610000Y-79785000D01*
X86710000Y-79785000D01*
X86710000Y-79085000D01*
X86664835Y-79085000D01*
X86658551Y-79085321D01*
X86562394Y-79095143D01*
X86401513Y-79148453D01*
X86257267Y-79237426D01*
X86247681Y-79247013D01*
X86186358Y-79280498D01*
X86116666Y-79275514D01*
X86072319Y-79247013D01*
X86062732Y-79237426D01*
X85918486Y-79148453D01*
X85757606Y-79095143D01*
X85661445Y-79085319D01*
X85655168Y-79085000D01*
X85610000Y-79085000D01*
X85110302Y-79085000D01*
X85116068Y-79048595D01*
X85135674Y-78988256D01*
X85155460Y-78800000D01*
X85135674Y-78611744D01*
X85077179Y-78431716D01*
X85077179Y-78431715D01*
X84982533Y-78267783D01*
X84855870Y-78127110D01*
X84702730Y-78015848D01*
X84529802Y-77938855D01*
X84344648Y-77899500D01*
X84344646Y-77899500D01*
X84155354Y-77899500D01*
X84155352Y-77899500D01*
X83970197Y-77938855D01*
X83797269Y-78015848D01*
X83644129Y-78127110D01*
X83517466Y-78267783D01*
X83422821Y-78431715D01*
X83399186Y-78504452D01*
X83395581Y-78514151D01*
X83387899Y-78532437D01*
X83381628Y-78556508D01*
X83380265Y-78561742D01*
X83379946Y-78562965D01*
X83377883Y-78570017D01*
X83364325Y-78611744D01*
X83363333Y-78621185D01*
X83360007Y-78639486D01*
X83278812Y-78951103D01*
X83252557Y-79001010D01*
X83072836Y-79208554D01*
X83059777Y-79219564D01*
X82929528Y-79349813D01*
X82861407Y-79462500D01*
X82841522Y-79495394D01*
X82821128Y-79560841D01*
X82790913Y-79657806D01*
X82784755Y-79725575D01*
X82784500Y-79728384D01*
X82784500Y-80241616D01*
X82784755Y-80244417D01*
X82784755Y-80244424D01*
X82790913Y-80312193D01*
X82790914Y-80312196D01*
X82841522Y-80474606D01*
X82847809Y-80485006D01*
X82929528Y-80620186D01*
X83031661Y-80722319D01*
X83065146Y-80783642D01*
X83060162Y-80853334D01*
X83031661Y-80897681D01*
X82929528Y-80999813D01*
X82841523Y-81145392D01*
X82790913Y-81307806D01*
X82784755Y-81375575D01*
X82784500Y-81378384D01*
X82784500Y-81891616D01*
X82784754Y-81894420D01*
X82784755Y-81894424D01*
X82790914Y-81962196D01*
X82810135Y-82023883D01*
X82814606Y-82043971D01*
X82816688Y-82059202D01*
X82944716Y-82506653D01*
X82949500Y-82540764D01*
X82949500Y-83289441D01*
X82944064Y-83325752D01*
X82796406Y-83807897D01*
X82795910Y-83809651D01*
X82788117Y-83838049D01*
X82783251Y-83861417D01*
X82763503Y-83922196D01*
X82744815Y-84100000D01*
X82763503Y-84277804D01*
X82818749Y-84447835D01*
X82908140Y-84602665D01*
X83027771Y-84735527D01*
X83172403Y-84840610D01*
X83295439Y-84895389D01*
X83348676Y-84940639D01*
X83368998Y-85007488D01*
X83349953Y-85074712D01*
X83331016Y-85097989D01*
X82755528Y-85652164D01*
X82394315Y-86000000D01*
X82332194Y-86059820D01*
X82270250Y-86092142D01*
X82246182Y-86094500D01*
X81746592Y-86094500D01*
X81744290Y-86094563D01*
X81709308Y-86095877D01*
X81707045Y-86096024D01*
X81691068Y-86097226D01*
X81688783Y-86097459D01*
X81654023Y-86101339D01*
X81516138Y-86142550D01*
X81447683Y-86174213D01*
X81441803Y-86178975D01*
X81332064Y-86250251D01*
X80801154Y-86714797D01*
X80737740Y-86744128D01*
X80668534Y-86734519D01*
X80615510Y-86689020D01*
X80595501Y-86622076D01*
X80595500Y-86621477D01*
X80595500Y-85591256D01*
X80607726Y-85537567D01*
X80627051Y-85497335D01*
X80671017Y-85405804D01*
X80717784Y-85353901D01*
X80785192Y-85335520D01*
X80847885Y-85353959D01*
X80961513Y-85424046D01*
X81122393Y-85477356D01*
X81218536Y-85487178D01*
X81224851Y-85487499D01*
X81245000Y-85487499D01*
X81245000Y-84762500D01*
X81745000Y-84762500D01*
X81745000Y-85487499D01*
X81765165Y-85487499D01*
X81771447Y-85487178D01*
X81867605Y-85477356D01*
X82028486Y-85424046D01*
X82172732Y-85335073D01*
X82292573Y-85215232D01*
X82381546Y-85070986D01*
X82434856Y-84910106D01*
X82444680Y-84813945D01*
X82445000Y-84807667D01*
X82445000Y-84762500D01*
X81745000Y-84762500D01*
X81245000Y-84762500D01*
X81245000Y-83537500D01*
X81745000Y-83537500D01*
X81745000Y-84262500D01*
X82444999Y-84262500D01*
X82444999Y-84217334D01*
X82444678Y-84211052D01*
X82434856Y-84114894D01*
X82381546Y-83954013D01*
X82292573Y-83809767D01*
X82172732Y-83689926D01*
X82028486Y-83600953D01*
X81867606Y-83547643D01*
X81771445Y-83537819D01*
X81765168Y-83537500D01*
X81745000Y-83537500D01*
X81245000Y-83537500D01*
X81224836Y-83537500D01*
X81218550Y-83537821D01*
X81122395Y-83547643D01*
X81097771Y-83555803D01*
X81027943Y-83558203D01*
X80967902Y-83522471D01*
X80936710Y-83459950D01*
X80941062Y-83399094D01*
X80985436Y-83265185D01*
X80995500Y-83166674D01*
X80995500Y-82633326D01*
X80985436Y-82534815D01*
X80982299Y-82525349D01*
X80932549Y-82375214D01*
X80932549Y-82375213D01*
X80844281Y-82232109D01*
X80844280Y-82232108D01*
X80844279Y-82232106D01*
X80812354Y-82200182D01*
X80778868Y-82138860D01*
X80783852Y-82069168D01*
X80812354Y-82024818D01*
X80844279Y-81992893D01*
X80844281Y-81992891D01*
X80932549Y-81849787D01*
X80985436Y-81690185D01*
X80995500Y-81591674D01*
X80995500Y-81058326D01*
X80995180Y-81055193D01*
X80985436Y-80959814D01*
X80941063Y-80825907D01*
X80938661Y-80756079D01*
X80974393Y-80696037D01*
X81036913Y-80664844D01*
X81097775Y-80669198D01*
X81122393Y-80677356D01*
X81218536Y-80687178D01*
X81224851Y-80687499D01*
X81245000Y-80687499D01*
X81245000Y-79962500D01*
X81745000Y-79962500D01*
X81745000Y-80687499D01*
X81765165Y-80687499D01*
X81771447Y-80687178D01*
X81867605Y-80677356D01*
X82028486Y-80624046D01*
X82172732Y-80535073D01*
X82292573Y-80415232D01*
X82381546Y-80270986D01*
X82434856Y-80110106D01*
X82444680Y-80013945D01*
X82445000Y-80007667D01*
X82445000Y-79962500D01*
X81745000Y-79962500D01*
X81245000Y-79962500D01*
X81245000Y-78737500D01*
X81745000Y-78737500D01*
X81745000Y-79462500D01*
X82444999Y-79462500D01*
X82444999Y-79417334D01*
X82444678Y-79411052D01*
X82434856Y-79314894D01*
X82381546Y-79154013D01*
X82292573Y-79009767D01*
X82172732Y-78889926D01*
X82028486Y-78800953D01*
X81867606Y-78747643D01*
X81771445Y-78737819D01*
X81765168Y-78737500D01*
X81745000Y-78737500D01*
X81245000Y-78737500D01*
X81224836Y-78737500D01*
X81218550Y-78737821D01*
X81122394Y-78747643D01*
X80961516Y-78800952D01*
X80837335Y-78877549D01*
X80769943Y-78895989D01*
X80703279Y-78875067D01*
X80662349Y-78829459D01*
X80584611Y-78680762D01*
X80570500Y-78623313D01*
X80570500Y-78108124D01*
X80571561Y-78091939D01*
X80581319Y-78017823D01*
X80583685Y-77999846D01*
X80592063Y-77968579D01*
X80593194Y-77965849D01*
X80624476Y-77890328D01*
X80640659Y-77862300D01*
X80692219Y-77795107D01*
X80715107Y-77772219D01*
X80782300Y-77720659D01*
X80810328Y-77704476D01*
X80888580Y-77672062D01*
X80919846Y-77663685D01*
X81011940Y-77651561D01*
X81028126Y-77650500D01*
X88827317Y-77650500D01*
X88827318Y-77650500D01*
X88897668Y-77640385D01*
X88966826Y-77650329D01*
X89007775Y-77685810D01*
X89026734Y-77644297D01*
X89085512Y-77606523D01*
X89179408Y-77578951D01*
X89245710Y-77559484D01*
X89440950Y-77470321D01*
X89621513Y-77354281D01*
X89783724Y-77213724D01*
X89924281Y-77051513D01*
X90040321Y-76870950D01*
X90129484Y-76675710D01*
X90189954Y-76469769D01*
X90189954Y-76469768D01*
X90192453Y-76461258D01*
X90192662Y-76461319D01*
X90202319Y-76430980D01*
X90248745Y-76340380D01*
X90259829Y-76322629D01*
X90263708Y-76317448D01*
X90263796Y-76317331D01*
X90280681Y-76272056D01*
X90282947Y-76266411D01*
X90290288Y-76249359D01*
X90291331Y-76246405D01*
X90292144Y-76242744D01*
X90292566Y-76241271D01*
X90295592Y-76232078D01*
X90295841Y-76231412D01*
X90314091Y-76182483D01*
X90320500Y-76122873D01*
X90320499Y-75451577D01*
X90321000Y-75448097D01*
X90321000Y-75424000D01*
X90340685Y-75356961D01*
X90350000Y-75348889D01*
X90350000Y-76200000D01*
G37*
%TD.AperFunction*%
%TA.AperFunction,Conductor*%
G36*
X86975203Y-105971454D02*
G01*
X87011931Y-106026849D01*
X87018750Y-106047836D01*
X87052886Y-106106960D01*
X87069500Y-106168961D01*
X87069500Y-106188270D01*
X87061682Y-106231603D01*
X87025909Y-106327514D01*
X87025909Y-106327516D01*
X87025909Y-106327517D01*
X87019500Y-106387127D01*
X87019500Y-106390449D01*
X87019500Y-106628601D01*
X86999815Y-106695640D01*
X86947011Y-106741395D01*
X86877853Y-106751339D01*
X86814297Y-106722314D01*
X86777186Y-106665721D01*
X86775686Y-106660940D01*
X86770000Y-106623820D01*
X86770000Y-106065167D01*
X86789685Y-105998128D01*
X86842489Y-105952373D01*
X86911647Y-105942429D01*
X86975203Y-105971454D01*
G37*
%TD.AperFunction*%
%TA.AperFunction,Conductor*%
G36*
X74936903Y-91360966D02*
G01*
X74994952Y-91399852D01*
X74998087Y-91403771D01*
X75005963Y-91414036D01*
X75082141Y-91472489D01*
X75123571Y-91504279D01*
X75260528Y-91561009D01*
X75370599Y-91575500D01*
X75695500Y-91575499D01*
X75762539Y-91595183D01*
X75808294Y-91647987D01*
X75819500Y-91699499D01*
X75819500Y-92842409D01*
X75810811Y-92888008D01*
X75773047Y-92983505D01*
X75730089Y-93038609D01*
X75664159Y-93061740D01*
X75596190Y-93045554D01*
X75592639Y-93043444D01*
X75550000Y-93017143D01*
X75550000Y-92350000D01*
X73700000Y-92350000D01*
X73700000Y-96200000D01*
X74170741Y-96200000D01*
X74172426Y-96202732D01*
X74182513Y-96212819D01*
X74215998Y-96274142D01*
X74211014Y-96343834D01*
X74169142Y-96399767D01*
X74103678Y-96424184D01*
X74094832Y-96424500D01*
X73699500Y-96424500D01*
X73632461Y-96404815D01*
X73586706Y-96352011D01*
X73575500Y-96300500D01*
X73575500Y-91640914D01*
X73595185Y-91573875D01*
X73647989Y-91528120D01*
X73717147Y-91518176D01*
X73760325Y-91535702D01*
X73760500Y-91535311D01*
X73772274Y-91540553D01*
X73772391Y-91540600D01*
X73772407Y-91540612D01*
X73859466Y-91579373D01*
X73935735Y-91613330D01*
X74110607Y-91650500D01*
X74110609Y-91650500D01*
X74289393Y-91650500D01*
X74464264Y-91613330D01*
X74464265Y-91613329D01*
X74464267Y-91613329D01*
X74627593Y-91540612D01*
X74676372Y-91505172D01*
X74699911Y-91488069D01*
X74772230Y-91435526D01*
X74807564Y-91396283D01*
X74867046Y-91359637D01*
X74936903Y-91360966D01*
G37*
%TD.AperFunction*%
%TD*%
%TA.AperFunction,Conductor*%
%TO.N,Net-(AE1-Pad1)*%
G36*
X79952431Y-79717287D02*
G01*
X80370959Y-80043220D01*
X80375381Y-80051007D01*
X80374650Y-80056753D01*
X80147925Y-80630102D01*
X80141696Y-80636536D01*
X80137045Y-80637500D01*
X79901351Y-80637500D01*
X79893078Y-80634073D01*
X79891540Y-80632174D01*
X79527694Y-80072143D01*
X79526060Y-80063339D01*
X79530022Y-80056775D01*
X79937760Y-79717523D01*
X79946310Y-79714867D01*
X79952431Y-79717287D01*
G37*
%TD.AperFunction*%
%TD*%
%TA.AperFunction,Conductor*%
%TO.N,+3V3*%
G36*
X78202187Y-78104597D02*
G01*
X78620695Y-78430514D01*
X78625117Y-78438301D01*
X78624223Y-78444438D01*
X78373068Y-79017993D01*
X78366611Y-79024197D01*
X78362351Y-79025000D01*
X78077086Y-79025000D01*
X78068813Y-79021573D01*
X78066717Y-79018721D01*
X78066336Y-79017993D01*
X77766649Y-78444755D01*
X77765854Y-78435836D01*
X77769828Y-78430106D01*
X78187811Y-78104597D01*
X78196444Y-78102218D01*
X78202187Y-78104597D01*
G37*
%TD.AperFunction*%
%TD*%
%TA.AperFunction,Conductor*%
%TO.N,/BLE_MODE*%
G36*
X89861246Y-90581506D02*
G01*
X90276990Y-90902561D01*
X90281444Y-90910330D01*
X90279514Y-90918400D01*
X89978979Y-91360396D01*
X89971494Y-91365310D01*
X89965379Y-91364839D01*
X89544494Y-91214939D01*
X89540146Y-91212190D01*
X89443257Y-91115301D01*
X89439830Y-91107028D01*
X89442301Y-91099837D01*
X89844868Y-90583570D01*
X89852658Y-90579155D01*
X89861246Y-90581506D01*
G37*
%TD.AperFunction*%
%TD*%
%TA.AperFunction,Conductor*%
%TO.N,+5VA*%
G36*
X92868367Y-105468309D02*
G01*
X92898432Y-105531380D01*
X92900000Y-105551040D01*
X92900000Y-105693763D01*
X92884662Y-105753501D01*
X92879326Y-105763207D01*
X92868647Y-105779463D01*
X92864289Y-105785082D01*
X92855636Y-105796237D01*
X92841638Y-105828585D01*
X92796946Y-105882291D01*
X92730313Y-105903310D01*
X92662894Y-105884968D01*
X92616094Y-105833088D01*
X92606408Y-105800271D01*
X92605071Y-105796895D01*
X92605071Y-105796892D01*
X92588263Y-105754441D01*
X92584480Y-105743392D01*
X92571744Y-105699552D01*
X92567767Y-105692828D01*
X92550500Y-105629708D01*
X92550500Y-105609432D01*
X92570185Y-105542393D01*
X92607658Y-105504989D01*
X92689183Y-105452818D01*
X92719125Y-105438881D01*
X92731656Y-105434976D01*
X92739116Y-105432653D01*
X92808976Y-105431505D01*
X92868367Y-105468309D01*
G37*
%TD.AperFunction*%
%TD*%
%TA.AperFunction,Conductor*%
%TO.N,/CURRENT_SENSE*%
G36*
X73863051Y-101936918D02*
G01*
X73864776Y-101937811D01*
X74474640Y-102321559D01*
X74479817Y-102328865D01*
X74480109Y-102331461D01*
X74480109Y-102466380D01*
X74476682Y-102474653D01*
X74471876Y-102477554D01*
X73863241Y-102666396D01*
X73854324Y-102665575D01*
X73848975Y-102659725D01*
X73700875Y-102304499D01*
X73700855Y-102295550D01*
X73847750Y-101943214D01*
X73854097Y-101936897D01*
X73863051Y-101936918D01*
G37*
%TD.AperFunction*%
%TD*%
%TA.AperFunction,Conductor*%
%TO.N,+3V3*%
G36*
X73740272Y-87925773D02*
G01*
X73740576Y-87926091D01*
X74151192Y-88371641D01*
X74154288Y-88379569D01*
X74154288Y-88514479D01*
X74150861Y-88522752D01*
X74143826Y-88526113D01*
X73462405Y-88598626D01*
X73453816Y-88596094D01*
X73449533Y-88588230D01*
X73449467Y-88587031D01*
X73448512Y-88204874D01*
X73451918Y-88196594D01*
X73723726Y-87925743D01*
X73732005Y-87922332D01*
X73740272Y-87925773D01*
G37*
%TD.AperFunction*%
%TD*%
%TA.AperFunction,Conductor*%
%TO.N,Net-(D2-RK)*%
G36*
X78375630Y-99803427D02*
G01*
X78378071Y-99806999D01*
X78618570Y-100355150D01*
X78618756Y-100364103D01*
X78612557Y-100370565D01*
X78612362Y-100370649D01*
X78304506Y-100499119D01*
X78295551Y-100499142D01*
X78295494Y-100499119D01*
X77987637Y-100370649D01*
X77981322Y-100364300D01*
X77981345Y-100355345D01*
X77981429Y-100355150D01*
X78221929Y-99806999D01*
X78228391Y-99800800D01*
X78232643Y-99800000D01*
X78367357Y-99800000D01*
X78375630Y-99803427D01*
G37*
%TD.AperFunction*%
%TD*%
%TA.AperFunction,Conductor*%
%TO.N,/LED_B*%
G36*
X74674875Y-97297223D02*
G01*
X74902192Y-97545327D01*
X75013758Y-97667096D01*
X75016820Y-97675511D01*
X75013758Y-97682904D01*
X74674877Y-98052775D01*
X74666761Y-98056560D01*
X74660291Y-98054940D01*
X74150741Y-97753397D01*
X74145367Y-97746234D01*
X74145000Y-97743328D01*
X74145000Y-97606671D01*
X74148427Y-97598398D01*
X74150737Y-97596604D01*
X74660293Y-97295058D01*
X74669156Y-97293795D01*
X74674875Y-97297223D01*
G37*
%TD.AperFunction*%
%TD*%
%TA.AperFunction,Conductor*%
%TO.N,/CHIP_EN*%
G36*
X87305558Y-81157539D02*
G01*
X87879057Y-81481641D01*
X87884573Y-81488694D01*
X87885000Y-81491826D01*
X87885000Y-81777045D01*
X87881573Y-81785318D01*
X87877602Y-81787925D01*
X87304253Y-82014650D01*
X87295300Y-82014506D01*
X87290720Y-82010959D01*
X86964607Y-81592200D01*
X86962227Y-81583567D01*
X86964618Y-81577808D01*
X87290585Y-81160521D01*
X87298376Y-81156113D01*
X87305558Y-81157539D01*
G37*
%TD.AperFunction*%
%TD*%
%TA.AperFunction,Conductor*%
%TO.N,/CHIP_EN*%
G36*
X73544654Y-85681345D02*
G01*
X73544849Y-85681429D01*
X74093001Y-85921929D01*
X74099200Y-85928391D01*
X74100000Y-85932643D01*
X74100000Y-86067356D01*
X74096573Y-86075629D01*
X74093001Y-86078070D01*
X73544849Y-86318570D01*
X73535896Y-86318756D01*
X73529434Y-86312557D01*
X73529350Y-86312362D01*
X73400880Y-86004506D01*
X73400857Y-85995551D01*
X73400880Y-85995494D01*
X73427108Y-85932643D01*
X73529351Y-85687635D01*
X73535699Y-85681322D01*
X73544654Y-85681345D01*
G37*
%TD.AperFunction*%
%TD*%
%TA.AperFunction,Conductor*%
%TO.N,/CHIP_BOOT*%
G36*
X84119244Y-81253680D02*
G01*
X84628089Y-81481900D01*
X84634234Y-81488411D01*
X84635000Y-81492574D01*
X84635000Y-81777425D01*
X84631573Y-81785698D01*
X84628088Y-81788100D01*
X84119245Y-82016318D01*
X84110294Y-82016577D01*
X84105830Y-82013547D01*
X83899272Y-81788100D01*
X83766240Y-81642902D01*
X83763179Y-81634489D01*
X83766240Y-81627097D01*
X84105831Y-81256451D01*
X84113946Y-81252667D01*
X84119244Y-81253680D01*
G37*
%TD.AperFunction*%
%TD*%
%TA.AperFunction,Conductor*%
%TO.N,+3.3VP*%
G36*
X78302722Y-84518341D02*
G01*
X78720251Y-84842683D01*
X78724682Y-84850465D01*
X78723509Y-84857213D01*
X78499135Y-85299853D01*
X78496972Y-85302836D01*
X78331132Y-85468676D01*
X78322859Y-85472103D01*
X78314586Y-85468676D01*
X78313443Y-85467348D01*
X77916677Y-84929430D01*
X77914524Y-84920738D01*
X77917548Y-84914494D01*
X78287000Y-84519587D01*
X78295155Y-84515887D01*
X78302722Y-84518341D01*
G37*
%TD.AperFunction*%
%TD*%
%TA.AperFunction,Conductor*%
%TO.N,+3V3*%
G36*
X88660004Y-79200092D02*
G01*
X88757085Y-79297173D01*
X88758676Y-79299154D01*
X89013319Y-79698341D01*
X89014879Y-79707158D01*
X89009747Y-79714496D01*
X89009490Y-79714655D01*
X88567806Y-79980581D01*
X88558951Y-79981913D01*
X88552857Y-79978137D01*
X88235370Y-79604712D01*
X88232622Y-79596189D01*
X88236207Y-79588668D01*
X88643655Y-79199899D01*
X88652005Y-79196668D01*
X88660004Y-79200092D01*
G37*
%TD.AperFunction*%
%TD*%
%TA.AperFunction,Conductor*%
%TO.N,/USB_D+*%
G36*
X90569840Y-106288427D02*
G01*
X90572667Y-106293000D01*
X90614965Y-106419897D01*
X90615547Y-106424246D01*
X90615009Y-106433908D01*
X90615008Y-106433943D01*
X90615000Y-106434089D01*
X90615000Y-106435448D01*
X90615009Y-106435595D01*
X90615010Y-106435619D01*
X90615841Y-106448789D01*
X90615493Y-106452450D01*
X90481328Y-106972118D01*
X90475941Y-106979272D01*
X90467074Y-106980522D01*
X90459920Y-106975135D01*
X90458671Y-106972122D01*
X90320869Y-106438368D01*
X90320500Y-106435453D01*
X90320500Y-106435391D01*
X90321097Y-106431707D01*
X90367333Y-106292999D01*
X90373201Y-106286235D01*
X90378433Y-106285000D01*
X90561567Y-106285000D01*
X90569840Y-106288427D01*
G37*
%TD.AperFunction*%
%TD*%
%TA.AperFunction,Conductor*%
%TO.N,/XTAL_P*%
G36*
X81209846Y-88348646D02*
G01*
X81217594Y-88353136D01*
X81220000Y-88360243D01*
X81220000Y-88539756D01*
X81216573Y-88548029D01*
X81209846Y-88551353D01*
X81035177Y-88574643D01*
X81029940Y-88574149D01*
X80926486Y-88539756D01*
X80689896Y-88461102D01*
X80683127Y-88455241D01*
X80682485Y-88446309D01*
X80688347Y-88439539D01*
X80689893Y-88438898D01*
X81029944Y-88325849D01*
X81035172Y-88325356D01*
X81209846Y-88348646D01*
G37*
%TD.AperFunction*%
%TD*%
%TA.AperFunction,Conductor*%
%TO.N,/BLE_MODE*%
G36*
X93451140Y-90038427D02*
G01*
X93453267Y-90041340D01*
X93715680Y-90550515D01*
X93716424Y-90559439D01*
X93713184Y-90564502D01*
X93342904Y-90903758D01*
X93334489Y-90906820D01*
X93327096Y-90903758D01*
X92956085Y-90563833D01*
X92952300Y-90555717D01*
X92953057Y-90551039D01*
X93147126Y-90042528D01*
X93153279Y-90036021D01*
X93158058Y-90035000D01*
X93442867Y-90035000D01*
X93451140Y-90038427D01*
G37*
%TD.AperFunction*%
%TD*%
%TA.AperFunction,Conductor*%
%TO.N,Net-(C19-Pad1)*%
G36*
X81570698Y-98028427D02*
G01*
X81573100Y-98031912D01*
X81801318Y-98540754D01*
X81801577Y-98549705D01*
X81798547Y-98554169D01*
X81427904Y-98893758D01*
X81419489Y-98896820D01*
X81412096Y-98893758D01*
X81041452Y-98554169D01*
X81037667Y-98546053D01*
X81038680Y-98540756D01*
X81266899Y-98031912D01*
X81273412Y-98025766D01*
X81277575Y-98025000D01*
X81562425Y-98025000D01*
X81570698Y-98028427D01*
G37*
%TD.AperFunction*%
%TD*%
%TA.AperFunction,Conductor*%
%TO.N,+3V3*%
G36*
X78246518Y-80453427D02*
G01*
X78248378Y-80455851D01*
X78552362Y-80982435D01*
X78553530Y-80991313D01*
X78549338Y-80997577D01*
X78127109Y-81320561D01*
X78118455Y-81322866D01*
X78112891Y-81320561D01*
X77690661Y-80997577D01*
X77686172Y-80989829D01*
X77687636Y-80982437D01*
X77991622Y-80455850D01*
X77998726Y-80450399D01*
X78001755Y-80450000D01*
X78238245Y-80450000D01*
X78246518Y-80453427D01*
G37*
%TD.AperFunction*%
%TD*%
%TA.AperFunction,Conductor*%
%TO.N,+3V3*%
G36*
X76670914Y-94578427D02*
G01*
X76673187Y-94581634D01*
X76948788Y-95155393D01*
X76949282Y-95164334D01*
X76945431Y-95169690D01*
X76527189Y-95495401D01*
X76518556Y-95497781D01*
X76512811Y-95495401D01*
X76094568Y-95169690D01*
X76090146Y-95161903D01*
X76091211Y-95155393D01*
X76366813Y-94581634D01*
X76373484Y-94575660D01*
X76377359Y-94575000D01*
X76662641Y-94575000D01*
X76670914Y-94578427D01*
G37*
%TD.AperFunction*%
%TD*%
%TA.AperFunction,Conductor*%
%TO.N,/CHIP_EN*%
G36*
X85643773Y-82554956D02*
G01*
X85647345Y-82557397D01*
X85742602Y-82652654D01*
X85746029Y-82660927D01*
X85745229Y-82665179D01*
X85556078Y-83150058D01*
X85555987Y-83150283D01*
X85526096Y-83222447D01*
X85519764Y-83228779D01*
X85510838Y-83228791D01*
X85203808Y-83102563D01*
X85197460Y-83096249D01*
X85070591Y-82787660D01*
X85070614Y-82778706D01*
X85076963Y-82772391D01*
X85077131Y-82772323D01*
X85634822Y-82554770D01*
X85643773Y-82554956D01*
G37*
%TD.AperFunction*%
%TD*%
%TA.AperFunction,Conductor*%
%TO.N,/USB_D-*%
G36*
X90959470Y-102938222D02*
G01*
X90964163Y-102942915D01*
X91051964Y-103104467D01*
X91053384Y-103110054D01*
X91053384Y-103219748D01*
X91065017Y-103278231D01*
X91070366Y-103286236D01*
X91072113Y-103295018D01*
X91071738Y-103296436D01*
X91056551Y-103342000D01*
X91050684Y-103348765D01*
X91045451Y-103350000D01*
X90862317Y-103350000D01*
X90854044Y-103346573D01*
X90851217Y-103342000D01*
X90836029Y-103296436D01*
X90805958Y-103206223D01*
X90805369Y-103202039D01*
X90805474Y-103199568D01*
X90806881Y-103194483D01*
X90943604Y-102942913D01*
X90950565Y-102937282D01*
X90959470Y-102938222D01*
G37*
%TD.AperFunction*%
%TD*%
%TA.AperFunction,Conductor*%
%TO.N,GND*%
G36*
X75550000Y-96200000D02*
G01*
X73700000Y-96200000D01*
X73700000Y-92350000D01*
X75550000Y-92350000D01*
X75550000Y-96200000D01*
G37*
%TD.AperFunction*%
%TD*%
%TA.AperFunction,Conductor*%
%TO.N,/USB_D-*%
G36*
X91053900Y-106288427D02*
G01*
X91056651Y-106292780D01*
X91106071Y-106431749D01*
X91106434Y-106438358D01*
X90980882Y-106969927D01*
X90975645Y-106977191D01*
X90966806Y-106978625D01*
X90959542Y-106973388D01*
X90958166Y-106970163D01*
X90820871Y-106438373D01*
X90820500Y-106435448D01*
X90820500Y-106434089D01*
X90820788Y-106431511D01*
X90851823Y-106294122D01*
X90856988Y-106286807D01*
X90863235Y-106285000D01*
X91045627Y-106285000D01*
X91053900Y-106288427D01*
G37*
%TD.AperFunction*%
%TD*%
%TA.AperFunction,Conductor*%
%TO.N,/USB_D-_ESP*%
G36*
X81765176Y-91454769D02*
G01*
X82248340Y-91643250D01*
X82322839Y-91672312D01*
X82329301Y-91678511D01*
X82329487Y-91687464D01*
X82329408Y-91687661D01*
X82202563Y-91996191D01*
X82196248Y-92002540D01*
X82196191Y-92002563D01*
X81887661Y-92129408D01*
X81878706Y-92129385D01*
X81872391Y-92123036D01*
X81872312Y-92122839D01*
X81698981Y-91678511D01*
X81654770Y-91565177D01*
X81654956Y-91556226D01*
X81657394Y-91552657D01*
X81752655Y-91457396D01*
X81760927Y-91453970D01*
X81765176Y-91454769D01*
G37*
%TD.AperFunction*%
%TD*%
%TA.AperFunction,Conductor*%
%TO.N,/CHIP_EN*%
G36*
X88919244Y-81253680D02*
G01*
X89428089Y-81481900D01*
X89434234Y-81488411D01*
X89435000Y-81492574D01*
X89435000Y-81777425D01*
X89431573Y-81785698D01*
X89428088Y-81788100D01*
X88919245Y-82016318D01*
X88910294Y-82016577D01*
X88905830Y-82013547D01*
X88699272Y-81788100D01*
X88566240Y-81642902D01*
X88563179Y-81634489D01*
X88566240Y-81627097D01*
X88905831Y-81256451D01*
X88913946Y-81252667D01*
X88919244Y-81253680D01*
G37*
%TD.AperFunction*%
%TD*%
%TA.AperFunction,Conductor*%
%TO.N,/CHIP_EN*%
G36*
X90227949Y-81106718D02*
G01*
X90611598Y-81392985D01*
X90616179Y-81400679D01*
X90613978Y-81409359D01*
X90613960Y-81409383D01*
X90225254Y-81927500D01*
X90217548Y-81932062D01*
X90211799Y-81931439D01*
X89827604Y-81787842D01*
X89821054Y-81781735D01*
X89820000Y-81776882D01*
X89820000Y-81489984D01*
X89823427Y-81481711D01*
X89823554Y-81481586D01*
X90212848Y-81107656D01*
X90221187Y-81104397D01*
X90227949Y-81106718D01*
G37*
%TD.AperFunction*%
%TD*%
%TA.AperFunction,Conductor*%
%TO.N,/CHIP_BOOT*%
G36*
X75386815Y-90330730D02*
G01*
X75746232Y-90438795D01*
X75753168Y-90444459D01*
X75754068Y-90453369D01*
X75748404Y-90460305D01*
X75746232Y-90461205D01*
X75386815Y-90569269D01*
X75380327Y-90569341D01*
X75228581Y-90527373D01*
X75221521Y-90521865D01*
X75220000Y-90516096D01*
X75220000Y-90383903D01*
X75223427Y-90375630D01*
X75228578Y-90372627D01*
X75380327Y-90330658D01*
X75386815Y-90330730D01*
G37*
%TD.AperFunction*%
%TD*%
%TA.AperFunction,Conductor*%
%TO.N,Net-(AE1-Pad1)*%
G36*
X80146518Y-80453427D02*
G01*
X80148378Y-80455851D01*
X80452362Y-80982435D01*
X80453530Y-80991313D01*
X80449338Y-80997577D01*
X80027109Y-81320561D01*
X80018455Y-81322866D01*
X80012891Y-81320561D01*
X79590661Y-80997577D01*
X79586172Y-80989829D01*
X79587636Y-80982437D01*
X79891622Y-80455850D01*
X79898726Y-80450399D01*
X79901755Y-80450000D01*
X80138245Y-80450000D01*
X80146518Y-80453427D01*
G37*
%TD.AperFunction*%
%TD*%
%TA.AperFunction,Conductor*%
%TO.N,/USB_D+_ESP*%
G36*
X81965771Y-90458664D02*
G01*
X82049171Y-90522659D01*
X82195250Y-90583167D01*
X82343382Y-90602668D01*
X82346104Y-90603368D01*
X82522839Y-90672312D01*
X82529301Y-90678511D01*
X82529487Y-90687464D01*
X82529408Y-90687661D01*
X82402563Y-90996191D01*
X82396248Y-91002540D01*
X82396191Y-91002563D01*
X82087661Y-91129408D01*
X82078706Y-91129385D01*
X82072391Y-91123036D01*
X82072312Y-91122839D01*
X81898981Y-90678511D01*
X81854770Y-90565177D01*
X81854956Y-90556226D01*
X81857394Y-90552657D01*
X81950378Y-90459673D01*
X81958650Y-90456247D01*
X81965771Y-90458664D01*
G37*
%TD.AperFunction*%
%TD*%
%TA.AperFunction,Conductor*%
%TO.N,+3V3*%
G36*
X95340051Y-93519685D02*
G01*
X95385806Y-93572489D01*
X95396977Y-93626952D01*
X95302882Y-97578952D01*
X95281607Y-97645503D01*
X95227729Y-97689989D01*
X95178917Y-97700000D01*
X93022486Y-97700000D01*
X92978947Y-97692105D01*
X92184209Y-97394078D01*
X89800000Y-96500000D01*
X89799999Y-96500000D01*
X88900000Y-96500000D01*
X88900000Y-94700000D01*
X89800000Y-94700000D01*
X92576606Y-93510026D01*
X92625452Y-93500000D01*
X95273012Y-93500000D01*
X95340051Y-93519685D01*
G37*
%TD.AperFunction*%
%TD*%
%TA.AperFunction,Conductor*%
%TO.N,Net-(C19-Pad1)*%
G36*
X81427902Y-97306240D02*
G01*
X81757200Y-97607947D01*
X81798547Y-97645830D01*
X81802332Y-97653946D01*
X81801318Y-97659245D01*
X81573100Y-98168088D01*
X81566588Y-98174234D01*
X81562425Y-98175000D01*
X81277575Y-98175000D01*
X81269302Y-98171573D01*
X81266900Y-98168088D01*
X81038681Y-97659245D01*
X81038422Y-97650294D01*
X81041450Y-97645832D01*
X81412097Y-97306240D01*
X81420511Y-97303179D01*
X81427902Y-97306240D01*
G37*
%TD.AperFunction*%
%TD*%
%TA.AperFunction,Conductor*%
%TO.N,+3V3*%
G36*
X78227300Y-79706794D02*
G01*
X78597626Y-80102188D01*
X78600781Y-80110568D01*
X78598690Y-80116869D01*
X78248491Y-80619984D01*
X78240952Y-80624817D01*
X78238888Y-80625000D01*
X78003278Y-80625000D01*
X77995005Y-80621573D01*
X77992245Y-80617194D01*
X77789932Y-80044050D01*
X77790410Y-80035108D01*
X77793773Y-80030927D01*
X78211574Y-79705561D01*
X78220206Y-79703182D01*
X78227300Y-79706794D01*
G37*
%TD.AperFunction*%
%TD*%
%TA.AperFunction,Conductor*%
%TO.N,/USB_D-_ESP*%
G36*
X94473118Y-102672284D02*
G01*
X94478641Y-102678221D01*
X94607530Y-102987083D01*
X94607553Y-102996038D01*
X94607530Y-102996095D01*
X94479566Y-103302738D01*
X94473217Y-103309053D01*
X94464262Y-103309030D01*
X94462981Y-103308400D01*
X94285393Y-103207226D01*
X93927564Y-103003365D01*
X93922072Y-102996292D01*
X93921656Y-102993199D01*
X93921656Y-102858469D01*
X93925083Y-102850196D01*
X93929698Y-102847355D01*
X94464189Y-102671612D01*
X94473118Y-102672284D01*
G37*
%TD.AperFunction*%
%TD*%
%TA.AperFunction,Conductor*%
%TO.N,/CURRENT_SENSE*%
G36*
X74826957Y-101803337D02*
G01*
X76049005Y-102389451D01*
X76054982Y-102396118D01*
X76054494Y-102405060D01*
X76049005Y-102410549D01*
X74826957Y-102996662D01*
X74818015Y-102997150D01*
X74814192Y-102994918D01*
X74223995Y-102478495D01*
X74220026Y-102470468D01*
X74220000Y-102469690D01*
X74220000Y-102330309D01*
X74223427Y-102322036D01*
X74223995Y-102321504D01*
X74814193Y-101805080D01*
X74822675Y-101802212D01*
X74826957Y-101803337D01*
G37*
%TD.AperFunction*%
%TD*%
%TA.AperFunction,Conductor*%
%TO.N,Net-(C4-Pad1)*%
G36*
X84080608Y-87725292D02*
G01*
X84080733Y-87725349D01*
X84665231Y-87997316D01*
X84671286Y-88003913D01*
X84671882Y-88006300D01*
X84767673Y-88689836D01*
X84765427Y-88698505D01*
X84759205Y-88702736D01*
X83609083Y-89020900D01*
X83600196Y-89019803D01*
X83594688Y-89012743D01*
X83594264Y-89009624D01*
X83594264Y-88777516D01*
X83595299Y-88772705D01*
X83943856Y-88000000D01*
X84065132Y-87731145D01*
X84071657Y-87725014D01*
X84080608Y-87725292D01*
G37*
%TD.AperFunction*%
%TD*%
%TA.AperFunction,Conductor*%
%TO.N,+3V3*%
G36*
X83789487Y-79171037D02*
G01*
X83790101Y-79171609D01*
X83886743Y-79268251D01*
X83887734Y-79269377D01*
X84169484Y-79634587D01*
X84171824Y-79643231D01*
X84167640Y-79650780D01*
X83767607Y-79978887D01*
X83759037Y-79981484D01*
X83751797Y-79977996D01*
X83401467Y-79617593D01*
X83398159Y-79609274D01*
X83401012Y-79601782D01*
X83772986Y-79172221D01*
X83780990Y-79168212D01*
X83789487Y-79171037D01*
G37*
%TD.AperFunction*%
%TD*%
%TA.AperFunction,Conductor*%
%TO.N,/XTAL_P*%
G36*
X86978200Y-89606833D02*
G01*
X87565790Y-90096492D01*
X87569952Y-90104420D01*
X87570000Y-90105479D01*
X87570000Y-90294520D01*
X87566573Y-90302793D01*
X87565790Y-90303508D01*
X86978201Y-90793165D01*
X86969652Y-90795829D01*
X86962445Y-90792457D01*
X86718572Y-90548990D01*
X86377292Y-90208278D01*
X86373859Y-90200010D01*
X86377278Y-90191735D01*
X86962445Y-89607541D01*
X86970721Y-89604122D01*
X86978200Y-89606833D01*
G37*
%TD.AperFunction*%
%TD*%
%TA.AperFunction,Conductor*%
%TO.N,+3V3*%
G36*
X85932536Y-84009438D02*
G01*
X85935205Y-84010544D01*
X86091967Y-84031182D01*
X86248729Y-84010544D01*
X86251397Y-84009438D01*
X86298849Y-84000000D01*
X89176000Y-84000000D01*
X89243039Y-84019685D01*
X89288794Y-84072489D01*
X89300000Y-84124000D01*
X89300000Y-85376000D01*
X89280315Y-85443039D01*
X89227511Y-85488794D01*
X89176000Y-85500000D01*
X84799999Y-85500000D01*
X82936319Y-87363681D01*
X82874996Y-87397166D01*
X82848638Y-87400000D01*
X81799999Y-87400000D01*
X81136319Y-88063681D01*
X81074996Y-88097166D01*
X81048638Y-88100000D01*
X80324000Y-88100000D01*
X80256961Y-88080315D01*
X80211206Y-88027511D01*
X80200000Y-87976000D01*
X80200000Y-87424000D01*
X80219685Y-87356961D01*
X80272489Y-87311206D01*
X80324000Y-87300000D01*
X80899998Y-87300000D01*
X80900000Y-87300000D01*
X81435455Y-86831475D01*
X81664938Y-86630680D01*
X81728352Y-86601349D01*
X81746592Y-86600000D01*
X82499999Y-86600000D01*
X82500000Y-86600000D01*
X85163986Y-84034679D01*
X85225930Y-84002358D01*
X85249998Y-84000000D01*
X85885085Y-84000000D01*
X85932536Y-84009438D01*
G37*
%TD.AperFunction*%
%TD*%
%TA.AperFunction,Conductor*%
%TO.N,/LNA_IN*%
G36*
X80071187Y-83590927D02*
G01*
X80073283Y-83593779D01*
X80373349Y-84167743D01*
X80374145Y-84176663D01*
X80370169Y-84182395D01*
X79952189Y-84507901D01*
X79943556Y-84510281D01*
X79937811Y-84507901D01*
X79519830Y-84182395D01*
X79515408Y-84174608D01*
X79516649Y-84167745D01*
X79816717Y-83593778D01*
X79823587Y-83588035D01*
X79827086Y-83587500D01*
X80062914Y-83587500D01*
X80071187Y-83590927D01*
G37*
%TD.AperFunction*%
%TD*%
%TA.AperFunction,Conductor*%
%TO.N,+3V3*%
G36*
X83892839Y-78652026D02*
G01*
X84245496Y-78797146D01*
X84251843Y-78803464D01*
X84251858Y-78803499D01*
X84398557Y-79158621D01*
X84398548Y-79167576D01*
X84392210Y-79173902D01*
X84392092Y-79173949D01*
X83837095Y-79396197D01*
X83832746Y-79397036D01*
X83700139Y-79397036D01*
X83691866Y-79393609D01*
X83688439Y-79385336D01*
X83688817Y-79382386D01*
X83743127Y-79173949D01*
X83877068Y-78659895D01*
X83882470Y-78652755D01*
X83891340Y-78651525D01*
X83892839Y-78652026D01*
G37*
%TD.AperFunction*%
%TD*%
%TA.AperFunction,Conductor*%
%TO.N,Net-(D2-GK)*%
G36*
X76695397Y-99807405D02*
G01*
X76697964Y-99811274D01*
X76918995Y-100355322D01*
X76918934Y-100364277D01*
X76912661Y-100370524D01*
X76604506Y-100499119D01*
X76595551Y-100499142D01*
X76595494Y-100499119D01*
X76287994Y-100370798D01*
X76281679Y-100364449D01*
X76281702Y-100355494D01*
X76281942Y-100354959D01*
X76541821Y-99810637D01*
X76548478Y-99804648D01*
X76552379Y-99803978D01*
X76687124Y-99803978D01*
X76695397Y-99807405D01*
G37*
%TD.AperFunction*%
%TD*%
%TA.AperFunction,Conductor*%
%TO.N,/USB_D-_ESP*%
G36*
X81093898Y-90865694D02*
G01*
X81211816Y-90925734D01*
X81238175Y-90939156D01*
X81243992Y-90945963D01*
X81243292Y-90954891D01*
X81241139Y-90957855D01*
X81148982Y-91050012D01*
X81142972Y-91053218D01*
X81035537Y-91074401D01*
X81029562Y-91074017D01*
X80698714Y-90963319D01*
X80691955Y-90957445D01*
X80691331Y-90948512D01*
X80697205Y-90941753D01*
X80700158Y-90940746D01*
X81086331Y-90864642D01*
X81093898Y-90865694D01*
G37*
%TD.AperFunction*%
%TD*%
%TA.AperFunction,Conductor*%
%TO.N,+3V3*%
G36*
X77596107Y-77284911D02*
G01*
X78346684Y-77620655D01*
X78352837Y-77627161D01*
X78352992Y-77635079D01*
X78197411Y-78095661D01*
X78191516Y-78102403D01*
X78190783Y-78102735D01*
X77755349Y-78282132D01*
X77746394Y-78282115D01*
X77740282Y-78276245D01*
X77659644Y-78102735D01*
X77380069Y-77501171D01*
X77379691Y-77492227D01*
X77382405Y-77487972D01*
X77583059Y-77287318D01*
X77591331Y-77283892D01*
X77596107Y-77284911D01*
G37*
%TD.AperFunction*%
%TD*%
%TA.AperFunction,Conductor*%
%TO.N,Net-(C19-Pad1)*%
G36*
X83021238Y-100103427D02*
G01*
X83023299Y-100106213D01*
X83333960Y-100691337D01*
X83334813Y-100700252D01*
X83330833Y-100706041D01*
X82579231Y-101293780D01*
X82570603Y-101296176D01*
X82562808Y-101291770D01*
X82403205Y-101086946D01*
X82108140Y-100708278D01*
X82105758Y-100699646D01*
X82109219Y-100692692D01*
X82716596Y-100103302D01*
X82724744Y-100100000D01*
X83012965Y-100100000D01*
X83021238Y-100103427D01*
G37*
%TD.AperFunction*%
%TD*%
%TA.AperFunction,Conductor*%
%TO.N,/CHIP_BOOT*%
G36*
X89243773Y-86054956D02*
G01*
X89247345Y-86057397D01*
X89342602Y-86152654D01*
X89346029Y-86160927D01*
X89345229Y-86165179D01*
X89127687Y-86722839D01*
X89121488Y-86729301D01*
X89112535Y-86729487D01*
X89112338Y-86729408D01*
X88803808Y-86602563D01*
X88797460Y-86596249D01*
X88670591Y-86287660D01*
X88670614Y-86278706D01*
X88676963Y-86272391D01*
X88677131Y-86272323D01*
X89234822Y-86054770D01*
X89243773Y-86054956D01*
G37*
%TD.AperFunction*%
%TD*%
%TA.AperFunction,Conductor*%
%TO.N,/XTAL_P*%
G36*
X87664340Y-89881004D02*
G01*
X87670479Y-89887230D01*
X87799119Y-90195493D01*
X87799142Y-90204448D01*
X87799119Y-90204505D01*
X87670479Y-90512769D01*
X87664130Y-90519084D01*
X87655387Y-90519146D01*
X87107406Y-90302922D01*
X87100968Y-90296698D01*
X87100000Y-90292039D01*
X87100000Y-90107960D01*
X87103427Y-90099687D01*
X87107403Y-90097078D01*
X87655388Y-89880853D01*
X87664340Y-89881004D01*
G37*
%TD.AperFunction*%
%TD*%
%TA.AperFunction,Conductor*%
%TO.N,/BLE_MODE*%
G36*
X89666534Y-90884040D02*
G01*
X89666798Y-90884296D01*
X89762191Y-90979689D01*
X89765618Y-90987962D01*
X89763358Y-90994874D01*
X89340885Y-91571859D01*
X89333233Y-91576510D01*
X89324533Y-91574387D01*
X89323193Y-91573241D01*
X89052749Y-91304146D01*
X89049301Y-91295882D01*
X89049980Y-90911316D01*
X89053421Y-90903050D01*
X89061311Y-90899644D01*
X89658157Y-90880875D01*
X89666534Y-90884040D01*
G37*
%TD.AperFunction*%
%TD*%
%TA.AperFunction,Conductor*%
%TO.N,+3V3*%
G36*
X76621446Y-92978427D02*
G01*
X76623359Y-92980944D01*
X76947458Y-93554439D01*
X76948545Y-93563327D01*
X76944475Y-93569415D01*
X76527191Y-93895381D01*
X76518561Y-93897774D01*
X76512799Y-93895392D01*
X76094040Y-93569279D01*
X76089618Y-93561492D01*
X76090348Y-93555749D01*
X76317074Y-92982398D01*
X76323304Y-92975964D01*
X76327955Y-92975000D01*
X76613173Y-92975000D01*
X76621446Y-92978427D01*
G37*
%TD.AperFunction*%
%TD*%
%TA.AperFunction,Conductor*%
%TO.N,/CHIP_EN*%
G36*
X88214169Y-81256452D02*
G01*
X88553758Y-81627096D01*
X88556820Y-81635511D01*
X88553758Y-81642904D01*
X88214169Y-82013547D01*
X88206053Y-82017332D01*
X88200754Y-82016318D01*
X87691912Y-81788100D01*
X87685766Y-81781588D01*
X87685000Y-81777425D01*
X87685000Y-81492574D01*
X87688427Y-81484301D01*
X87691908Y-81481901D01*
X88200755Y-81253680D01*
X88209705Y-81253422D01*
X88214169Y-81256452D01*
G37*
%TD.AperFunction*%
%TD*%
%TA.AperFunction,Conductor*%
%TO.N,/CHIP_BOOT*%
G36*
X83749620Y-83403427D02*
G01*
X83752534Y-83408274D01*
X83920252Y-83955920D01*
X83919398Y-83964834D01*
X83913571Y-83970144D01*
X83604506Y-84099119D01*
X83595551Y-84099142D01*
X83595494Y-84099119D01*
X83286428Y-83970144D01*
X83280113Y-83963795D01*
X83279747Y-83955922D01*
X83447466Y-83408273D01*
X83453165Y-83401367D01*
X83458653Y-83400000D01*
X83741347Y-83400000D01*
X83749620Y-83403427D01*
G37*
%TD.AperFunction*%
%TD*%
%TA.AperFunction,Conductor*%
%TO.N,/CHIP_BOOT*%
G36*
X83766440Y-81641613D02*
G01*
X84083663Y-82016588D01*
X84086390Y-82025118D01*
X84083746Y-82031603D01*
X83753510Y-82430758D01*
X83745596Y-82434948D01*
X83744495Y-82435000D01*
X83458822Y-82435000D01*
X83450549Y-82431573D01*
X83447573Y-82426519D01*
X83302687Y-81920145D01*
X83303706Y-81911248D01*
X83307888Y-81906910D01*
X83751463Y-81639152D01*
X83760315Y-81637812D01*
X83766440Y-81641613D01*
G37*
%TD.AperFunction*%
%TD*%
%TA.AperFunction,Conductor*%
%TO.N,Net-(D2-BK)*%
G36*
X75027614Y-99330994D02*
G01*
X75403297Y-99676089D01*
X75407071Y-99684209D01*
X75404692Y-99691791D01*
X75078511Y-100120386D01*
X75070774Y-100124894D01*
X75069201Y-100125000D01*
X74931132Y-100125000D01*
X74922859Y-100121573D01*
X74921511Y-100119958D01*
X74617224Y-99680221D01*
X74615335Y-99671469D01*
X74619266Y-99664652D01*
X75012124Y-99330694D01*
X75020644Y-99327948D01*
X75027614Y-99330994D01*
G37*
%TD.AperFunction*%
%TD*%
%TA.AperFunction,Conductor*%
%TO.N,/BLE_MODE*%
G36*
X91027882Y-88004926D02*
G01*
X91414501Y-88246563D01*
X91419700Y-88253854D01*
X91420000Y-88256485D01*
X91420000Y-88543514D01*
X91416573Y-88551787D01*
X91414501Y-88553436D01*
X91027882Y-88795073D01*
X91019050Y-88796551D01*
X91013418Y-88793434D01*
X90870667Y-88651039D01*
X90627302Y-88408281D01*
X90623866Y-88400015D01*
X90627282Y-88391738D01*
X91013419Y-88006564D01*
X91021696Y-88003148D01*
X91027882Y-88004926D01*
G37*
%TD.AperFunction*%
%TD*%
%TA.AperFunction,Conductor*%
%TO.N,Net-(AE1-Pad1)*%
G36*
X80071187Y-78790927D02*
G01*
X80073281Y-78793777D01*
X80253441Y-79138385D01*
X80373349Y-79367743D01*
X80374145Y-79376663D01*
X80370169Y-79382395D01*
X79952189Y-79707901D01*
X79943556Y-79710281D01*
X79937811Y-79707901D01*
X79519304Y-79381985D01*
X79514882Y-79374198D01*
X79515775Y-79368063D01*
X79766931Y-78794507D01*
X79773389Y-78788303D01*
X79777649Y-78787500D01*
X80062914Y-78787500D01*
X80071187Y-78790927D01*
G37*
%TD.AperFunction*%
%TD*%
%TA.AperFunction,Conductor*%
%TO.N,/USB_D+*%
G36*
X90459536Y-102938742D02*
G01*
X90464533Y-102943594D01*
X90601781Y-103196131D01*
X90602913Y-103204296D01*
X90572061Y-103340878D01*
X90566896Y-103348193D01*
X90560649Y-103350000D01*
X90378132Y-103350000D01*
X90369859Y-103346573D01*
X90367166Y-103342378D01*
X90316001Y-103204795D01*
X90316329Y-103195846D01*
X90316516Y-103195458D01*
X90443815Y-102943896D01*
X90450607Y-102938064D01*
X90459536Y-102938742D01*
G37*
%TD.AperFunction*%
%TD*%
%TA.AperFunction,Conductor*%
%TO.N,Net-(D2-GK)*%
G36*
X76627747Y-99330844D02*
G01*
X77012032Y-99670353D01*
X77015963Y-99678399D01*
X77013753Y-99685995D01*
X76698504Y-100120174D01*
X76690870Y-100124855D01*
X76689036Y-100125000D01*
X76550964Y-100125000D01*
X76542691Y-100121573D01*
X76541496Y-100120174D01*
X76226246Y-99685995D01*
X76224159Y-99677287D01*
X76227965Y-99670355D01*
X76612253Y-99330843D01*
X76620722Y-99327934D01*
X76627747Y-99330844D01*
G37*
%TD.AperFunction*%
%TD*%
%TA.AperFunction,Conductor*%
%TO.N,/BLE_MODE*%
G36*
X81211420Y-89872627D02*
G01*
X81218479Y-89878134D01*
X81220000Y-89883903D01*
X81220000Y-90016096D01*
X81216573Y-90024369D01*
X81211419Y-90027373D01*
X81059672Y-90069341D01*
X81053184Y-90069269D01*
X80693767Y-89961205D01*
X80686831Y-89955541D01*
X80685931Y-89946631D01*
X80691595Y-89939695D01*
X80693767Y-89938795D01*
X81053185Y-89830729D01*
X81059672Y-89830658D01*
X81211420Y-89872627D01*
G37*
%TD.AperFunction*%
%TD*%
%TA.AperFunction,Conductor*%
%TO.N,/XTAL_N*%
G36*
X81211420Y-88872627D02*
G01*
X81218479Y-88878134D01*
X81220000Y-88883903D01*
X81220000Y-89016096D01*
X81216573Y-89024369D01*
X81211419Y-89027373D01*
X81059672Y-89069341D01*
X81053184Y-89069269D01*
X80693767Y-88961205D01*
X80686831Y-88955541D01*
X80685931Y-88946631D01*
X80691595Y-88939695D01*
X80693767Y-88938795D01*
X81053185Y-88830729D01*
X81059672Y-88830658D01*
X81211420Y-88872627D01*
G37*
%TD.AperFunction*%
%TD*%
%TA.AperFunction,Conductor*%
%TO.N,/CHIP_EN*%
G36*
X86517191Y-81434477D02*
G01*
X86955661Y-81582588D01*
X86962403Y-81588483D01*
X86962735Y-81589216D01*
X87141786Y-82023808D01*
X87141769Y-82032763D01*
X87135425Y-82039083D01*
X87135056Y-82039228D01*
X86307766Y-82347717D01*
X86298817Y-82347396D01*
X86295405Y-82345027D01*
X86199874Y-82249496D01*
X86196447Y-82241223D01*
X86197117Y-82237321D01*
X86267251Y-82039083D01*
X86481153Y-81434475D01*
X86487142Y-81427820D01*
X86495926Y-81427294D01*
X86517191Y-81434477D01*
G37*
%TD.AperFunction*%
%TD*%
%TA.AperFunction,Conductor*%
%TO.N,+3V3*%
G36*
X75642060Y-76847305D02*
G01*
X75648793Y-76853208D01*
X75650000Y-76858384D01*
X75650000Y-77141615D01*
X75646573Y-77149888D01*
X75642060Y-77152694D01*
X75013425Y-77366038D01*
X75004489Y-77365452D01*
X74998866Y-77359461D01*
X74912661Y-77152694D01*
X74850875Y-77004499D01*
X74850855Y-76995550D01*
X74998866Y-76640537D01*
X75005213Y-76634220D01*
X75013424Y-76633961D01*
X75642060Y-76847305D01*
G37*
%TD.AperFunction*%
%TD*%
%TA.AperFunction,Conductor*%
%TO.N,/LED_B*%
G36*
X75386815Y-88830730D02*
G01*
X75746232Y-88938795D01*
X75753168Y-88944459D01*
X75754068Y-88953369D01*
X75748404Y-88960305D01*
X75746232Y-88961205D01*
X75386815Y-89069269D01*
X75380327Y-89069341D01*
X75228581Y-89027373D01*
X75221521Y-89021865D01*
X75220000Y-89016096D01*
X75220000Y-88883903D01*
X75223427Y-88875630D01*
X75228578Y-88872627D01*
X75380327Y-88830658D01*
X75386815Y-88830730D01*
G37*
%TD.AperFunction*%
%TD*%
%TA.AperFunction,Conductor*%
%TO.N,Net-(C4-Pad1)*%
G36*
X84967491Y-86405246D02*
G01*
X85173878Y-86577329D01*
X85222852Y-86618164D01*
X85227011Y-86626094D01*
X85226245Y-86631438D01*
X85087920Y-86982588D01*
X85081699Y-86989030D01*
X85077034Y-86990000D01*
X84842966Y-86990000D01*
X84834693Y-86986573D01*
X84832080Y-86982588D01*
X84693754Y-86631438D01*
X84693910Y-86622485D01*
X84697145Y-86618165D01*
X84952508Y-86405246D01*
X84961056Y-86402581D01*
X84967491Y-86405246D01*
G37*
%TD.AperFunction*%
%TD*%
%TA.AperFunction,Conductor*%
%TO.N,/CURRENT_SENSE*%
G36*
X73563724Y-84335304D02*
G01*
X73564067Y-84335454D01*
X73577568Y-84341601D01*
X74193148Y-84621880D01*
X74199258Y-84628427D01*
X74200000Y-84632528D01*
X74200000Y-84767471D01*
X74196573Y-84775744D01*
X74193148Y-84778119D01*
X73564070Y-85064544D01*
X73555121Y-85064854D01*
X73548574Y-85058744D01*
X73548423Y-85058398D01*
X73431569Y-84778119D01*
X73400875Y-84704499D01*
X73400855Y-84695550D01*
X73548423Y-84341600D01*
X73554770Y-84335283D01*
X73563724Y-84335304D01*
G37*
%TD.AperFunction*%
%TD*%
%TA.AperFunction,Conductor*%
%TO.N,Net-(D2-RK)*%
G36*
X78228233Y-99330013D02*
G01*
X78645144Y-99634493D01*
X78649804Y-99642139D01*
X78648386Y-99649775D01*
X78378375Y-100119134D01*
X78371279Y-100124597D01*
X78368233Y-100125000D01*
X78230323Y-100125000D01*
X78222050Y-100121573D01*
X78221503Y-100120987D01*
X77862739Y-99709331D01*
X77859886Y-99700843D01*
X77863143Y-99693516D01*
X78212919Y-99331332D01*
X78221129Y-99327763D01*
X78228233Y-99330013D01*
G37*
%TD.AperFunction*%
%TD*%
%TA.AperFunction,Conductor*%
%TO.N,+3.3VP*%
G36*
X78128399Y-82904561D02*
G01*
X78571266Y-83197773D01*
X78576272Y-83205198D01*
X78576084Y-83210648D01*
X78422373Y-83766419D01*
X78416864Y-83773479D01*
X78411096Y-83775000D01*
X78175283Y-83775000D01*
X78167010Y-83771573D01*
X78166506Y-83771037D01*
X77761651Y-83311779D01*
X77758751Y-83303307D01*
X77761738Y-83296208D01*
X78113252Y-82906480D01*
X78121338Y-82902633D01*
X78128399Y-82904561D01*
G37*
%TD.AperFunction*%
%TD*%
%TA.AperFunction,Conductor*%
%TO.N,+3V3*%
G36*
X76973615Y-95245595D02*
G01*
X77388476Y-95824062D01*
X77390512Y-95832782D01*
X77387241Y-95839154D01*
X77186022Y-96040373D01*
X77177749Y-96043800D01*
X77176655Y-96043749D01*
X76457323Y-95976163D01*
X76449406Y-95971977D01*
X76446768Y-95963420D01*
X76446857Y-95962707D01*
X76518435Y-95504776D01*
X76523099Y-95497133D01*
X76524076Y-95496492D01*
X76958196Y-95242316D01*
X76967066Y-95241094D01*
X76973615Y-95245595D01*
G37*
%TD.AperFunction*%
%TD*%
%TA.AperFunction,Conductor*%
%TO.N,+3V3*%
G36*
X75386815Y-88330730D02*
G01*
X75746232Y-88438795D01*
X75753168Y-88444459D01*
X75754068Y-88453369D01*
X75748404Y-88460305D01*
X75746232Y-88461205D01*
X75386815Y-88569269D01*
X75380327Y-88569341D01*
X75228581Y-88527373D01*
X75221521Y-88521865D01*
X75220000Y-88516096D01*
X75220000Y-88383903D01*
X75223427Y-88375630D01*
X75228578Y-88372627D01*
X75380327Y-88330658D01*
X75386815Y-88330730D01*
G37*
%TD.AperFunction*%
%TD*%
%TA.AperFunction,Conductor*%
%TO.N,/USB_D+_ESP*%
G36*
X81211420Y-90372627D02*
G01*
X81218479Y-90378134D01*
X81220000Y-90383903D01*
X81220000Y-90516096D01*
X81216573Y-90524369D01*
X81211419Y-90527373D01*
X81059672Y-90569341D01*
X81053184Y-90569269D01*
X80693767Y-90461205D01*
X80686831Y-90455541D01*
X80685931Y-90446631D01*
X80691595Y-90439695D01*
X80693767Y-90438795D01*
X81053185Y-90330729D01*
X81059672Y-90330658D01*
X81211420Y-90372627D01*
G37*
%TD.AperFunction*%
%TD*%
%TA.AperFunction,Conductor*%
%TO.N,Net-(C4-Pad1)*%
G36*
X85084637Y-86703427D02*
G01*
X85087545Y-86708253D01*
X85268101Y-87293841D01*
X85267264Y-87302756D01*
X85265809Y-87304896D01*
X84680143Y-87989149D01*
X84672160Y-87993206D01*
X84663646Y-87990430D01*
X84661462Y-87987945D01*
X84216837Y-87308112D01*
X84215177Y-87299313D01*
X84218514Y-87293279D01*
X84831602Y-86703269D01*
X84839715Y-86700000D01*
X85076364Y-86700000D01*
X85084637Y-86703427D01*
G37*
%TD.AperFunction*%
%TD*%
%TA.AperFunction,Conductor*%
%TO.N,/LNA_IN*%
G36*
X79952187Y-84517097D02*
G01*
X80156003Y-84675820D01*
X80370431Y-84842809D01*
X80374853Y-84850596D01*
X80373788Y-84857106D01*
X80098187Y-85430866D01*
X80091516Y-85436840D01*
X80087641Y-85437500D01*
X79851826Y-85437500D01*
X79843553Y-85434073D01*
X79841641Y-85431557D01*
X79517093Y-84857390D01*
X79516005Y-84848502D01*
X79520086Y-84842405D01*
X79937811Y-84517097D01*
X79946444Y-84514718D01*
X79952187Y-84517097D01*
G37*
%TD.AperFunction*%
%TD*%
%TA.AperFunction,Conductor*%
%TO.N,/USB_D-_ESP*%
G36*
X92611400Y-102778758D02*
G01*
X92747416Y-102846766D01*
X92753284Y-102853531D01*
X92753884Y-102857231D01*
X92753884Y-102992768D01*
X92750457Y-103001041D01*
X92747416Y-103003233D01*
X92611400Y-103071241D01*
X92602468Y-103071876D01*
X92597922Y-103069077D01*
X92461240Y-102933301D01*
X92457786Y-102925039D01*
X92461185Y-102916754D01*
X92461240Y-102916699D01*
X92597922Y-102780921D01*
X92606207Y-102777523D01*
X92611400Y-102778758D01*
G37*
%TD.AperFunction*%
%TD*%
%TA.AperFunction,Conductor*%
%TO.N,+3V3*%
G36*
X88900000Y-96500000D02*
G01*
X83424664Y-96500000D01*
X83377148Y-96490534D01*
X83376674Y-96490338D01*
X83322297Y-96446466D01*
X83309610Y-96423202D01*
X83309416Y-96422733D01*
X83300000Y-96375336D01*
X83300000Y-95474663D01*
X83309415Y-95427268D01*
X83309611Y-95426794D01*
X83353425Y-95372372D01*
X83376873Y-95359579D01*
X83377355Y-95359379D01*
X83424664Y-95350000D01*
X86103622Y-95350000D01*
X86150000Y-95350000D01*
X86661312Y-94745720D01*
X86680764Y-94727229D01*
X86682530Y-94725882D01*
X86731062Y-94703379D01*
X86733237Y-94702899D01*
X86759893Y-94700000D01*
X88900000Y-94700000D01*
X88900000Y-96500000D01*
G37*
%TD.AperFunction*%
%TD*%
%TA.AperFunction,Conductor*%
%TO.N,/XTAL_P*%
G36*
X86020791Y-91213427D02*
G01*
X86023139Y-91216792D01*
X86185578Y-91568277D01*
X86185938Y-91577224D01*
X86182450Y-91582171D01*
X85927493Y-91794752D01*
X85918944Y-91797418D01*
X85912507Y-91794752D01*
X85800383Y-91701264D01*
X85657548Y-91582170D01*
X85653390Y-91574241D01*
X85654420Y-91568280D01*
X85816861Y-91216791D01*
X85823443Y-91210719D01*
X85827482Y-91210000D01*
X86012518Y-91210000D01*
X86020791Y-91213427D01*
G37*
%TD.AperFunction*%
%TD*%
%TA.AperFunction,Conductor*%
%TO.N,/USB_D+_ESP*%
G36*
X91959471Y-102938222D02*
G01*
X91964164Y-102942915D01*
X92100970Y-103194638D01*
X92101910Y-103203543D01*
X92101155Y-103205457D01*
X92032118Y-103343532D01*
X92025353Y-103349400D01*
X92021653Y-103350000D01*
X91886115Y-103350000D01*
X91877842Y-103346573D01*
X91875650Y-103343533D01*
X91844611Y-103281454D01*
X91843602Y-103273948D01*
X91854384Y-103219748D01*
X91854384Y-103110054D01*
X91855804Y-103104467D01*
X91943604Y-102942915D01*
X91950566Y-102937282D01*
X91959471Y-102938222D01*
G37*
%TD.AperFunction*%
%TD*%
%TA.AperFunction,Conductor*%
%TO.N,/LED_G*%
G36*
X75386815Y-89330730D02*
G01*
X75746232Y-89438795D01*
X75753168Y-89444459D01*
X75754068Y-89453369D01*
X75748404Y-89460305D01*
X75746232Y-89461205D01*
X75386815Y-89569269D01*
X75380327Y-89569341D01*
X75228581Y-89527373D01*
X75221521Y-89521865D01*
X75220000Y-89516096D01*
X75220000Y-89383903D01*
X75223427Y-89375630D01*
X75228578Y-89372627D01*
X75380327Y-89330658D01*
X75386815Y-89330730D01*
G37*
%TD.AperFunction*%
%TD*%
%TA.AperFunction,Conductor*%
%TO.N,/LED_G*%
G36*
X75998776Y-96988273D02*
G01*
X76766489Y-97270873D01*
X76773069Y-97276947D01*
X76773427Y-97285895D01*
X76773341Y-97286121D01*
X76622994Y-97669867D01*
X76616785Y-97676320D01*
X76614576Y-97677034D01*
X76154858Y-97776593D01*
X76146047Y-97774995D01*
X76141436Y-97769290D01*
X76106343Y-97676320D01*
X75888354Y-97098817D01*
X75888638Y-97089869D01*
X75891024Y-97086417D01*
X75986462Y-96990979D01*
X75994734Y-96987553D01*
X75998776Y-96988273D01*
G37*
%TD.AperFunction*%
%TD*%
%TA.AperFunction,Conductor*%
%TO.N,Net-(J2-CC2)*%
G36*
X91907206Y-104404541D02*
G01*
X92289327Y-104497618D01*
X92296554Y-104502906D01*
X92297306Y-104504362D01*
X92495471Y-104965000D01*
X92495592Y-104973954D01*
X92491030Y-104979479D01*
X92052883Y-105259868D01*
X92046576Y-105261713D01*
X91763837Y-105261713D01*
X91755564Y-105258286D01*
X91752137Y-105250013D01*
X91752300Y-105248068D01*
X91892910Y-104413963D01*
X91897663Y-104406378D01*
X91906391Y-104404374D01*
X91907206Y-104404541D01*
G37*
%TD.AperFunction*%
%TD*%
%TA.AperFunction,Conductor*%
%TO.N,+5VA*%
G36*
X88943039Y-97025185D02*
G01*
X88988794Y-97077989D01*
X89000000Y-97129500D01*
X89000000Y-98676000D01*
X88980315Y-98743039D01*
X88927511Y-98788794D01*
X88876000Y-98800000D01*
X88400000Y-98800000D01*
X87900000Y-99400000D01*
X87900000Y-103476000D01*
X87880315Y-103543039D01*
X87827511Y-103588794D01*
X87776000Y-103600000D01*
X86724000Y-103600000D01*
X86656961Y-103580315D01*
X86611206Y-103527511D01*
X86600000Y-103476000D01*
X86600000Y-98122374D01*
X86619685Y-98055335D01*
X86636316Y-98034695D01*
X86642968Y-98028044D01*
X86732003Y-97883697D01*
X86785349Y-97722708D01*
X86795500Y-97623345D01*
X86795499Y-97129499D01*
X86815183Y-97062461D01*
X86867987Y-97016706D01*
X86919499Y-97005500D01*
X88876000Y-97005500D01*
X88943039Y-97025185D01*
G37*
%TD.AperFunction*%
%TD*%
%TA.AperFunction,Conductor*%
%TO.N,+3V3*%
G36*
X76527187Y-93904597D02*
G01*
X76731003Y-94063320D01*
X76945431Y-94230309D01*
X76949853Y-94238096D01*
X76948788Y-94244606D01*
X76673187Y-94818366D01*
X76666516Y-94824340D01*
X76662641Y-94825000D01*
X76377359Y-94825000D01*
X76369086Y-94821573D01*
X76366813Y-94818366D01*
X76091211Y-94244606D01*
X76090717Y-94235665D01*
X76094568Y-94230309D01*
X76512811Y-93904597D01*
X76521444Y-93902218D01*
X76527187Y-93904597D01*
G37*
%TD.AperFunction*%
%TD*%
%TA.AperFunction,Conductor*%
%TO.N,+3.3VP*%
G36*
X78421187Y-83590927D02*
G01*
X78423283Y-83593779D01*
X78723349Y-84167743D01*
X78724145Y-84176663D01*
X78720169Y-84182395D01*
X78302189Y-84507901D01*
X78293556Y-84510281D01*
X78287811Y-84507901D01*
X77869830Y-84182395D01*
X77865408Y-84174608D01*
X77866649Y-84167745D01*
X78166717Y-83593778D01*
X78173587Y-83588035D01*
X78177086Y-83587500D01*
X78412914Y-83587500D01*
X78421187Y-83590927D01*
G37*
%TD.AperFunction*%
%TD*%
%TA.AperFunction,Conductor*%
%TO.N,/CURRENT_SENSE*%
G36*
X78418357Y-86193709D02*
G01*
X78419843Y-86195528D01*
X78503237Y-86321638D01*
X78505141Y-86329017D01*
X78471497Y-86753243D01*
X78467427Y-86761219D01*
X78460743Y-86763983D01*
X78356629Y-86772093D01*
X78348114Y-86769319D01*
X78344058Y-86761373D01*
X78306312Y-86295035D01*
X78309060Y-86286513D01*
X78309688Y-86285832D01*
X78401812Y-86193708D01*
X78410084Y-86190282D01*
X78418357Y-86193709D01*
G37*
%TD.AperFunction*%
%TD*%
%TA.AperFunction,Conductor*%
%TO.N,Net-(C4-Pad1)*%
G36*
X83375420Y-88633820D02*
G01*
X83663357Y-88771816D01*
X83669336Y-88778482D01*
X83670000Y-88782367D01*
X83670000Y-89017632D01*
X83666573Y-89025905D01*
X83663357Y-89028183D01*
X83375421Y-89166178D01*
X83366479Y-89166663D01*
X83361595Y-89163372D01*
X83135838Y-88907743D01*
X83132931Y-88899275D01*
X83135838Y-88892256D01*
X83361596Y-88636625D01*
X83369639Y-88632694D01*
X83375420Y-88633820D01*
G37*
%TD.AperFunction*%
%TD*%
%TA.AperFunction,Conductor*%
%TO.N,/CHIP_BOOT*%
G36*
X90230491Y-84716162D02*
G01*
X90610143Y-84894335D01*
X90616176Y-84900952D01*
X90615776Y-84909870D01*
X90235074Y-85726579D01*
X90228473Y-85732630D01*
X90219527Y-85732240D01*
X90216425Y-85730131D01*
X89990304Y-85515982D01*
X89990076Y-85515760D01*
X89889991Y-85415675D01*
X89886564Y-85407402D01*
X89887718Y-85402335D01*
X90214977Y-84721684D01*
X90221651Y-84715714D01*
X90230491Y-84716162D01*
G37*
%TD.AperFunction*%
%TD*%
%TA.AperFunction,Conductor*%
%TO.N,/LNA_IN*%
G36*
X80026744Y-82905253D02*
G01*
X80419250Y-83269178D01*
X80422987Y-83277316D01*
X80420811Y-83284565D01*
X80073500Y-83770107D01*
X80065900Y-83774842D01*
X80063984Y-83775000D01*
X79827557Y-83775000D01*
X79819284Y-83771573D01*
X79816892Y-83768112D01*
X79779703Y-83685696D01*
X79565743Y-83211532D01*
X79565465Y-83202584D01*
X79569947Y-83196969D01*
X80012332Y-82904076D01*
X80021120Y-82902368D01*
X80026744Y-82905253D01*
G37*
%TD.AperFunction*%
%TD*%
%TA.AperFunction,Conductor*%
%TO.N,Net-(AE1-Pad1)*%
G36*
X89576604Y-75710507D02*
G01*
X89579906Y-75713831D01*
X89812999Y-76069307D01*
X89814670Y-76078105D01*
X89813627Y-76081059D01*
X89716254Y-76271076D01*
X89709432Y-76276876D01*
X89703559Y-76277215D01*
X89422716Y-76221353D01*
X89415296Y-76216416D01*
X89324376Y-76081494D01*
X89322596Y-76072721D01*
X89324337Y-76068481D01*
X89560383Y-75713763D01*
X89567818Y-75708776D01*
X89576604Y-75710507D01*
G37*
%TD.AperFunction*%
%TD*%
%TA.AperFunction,Conductor*%
%TO.N,Net-(J2-CC1)*%
G36*
X88743337Y-104445296D02*
G01*
X88749455Y-104451463D01*
X89088103Y-105250177D01*
X89088177Y-105259131D01*
X89081898Y-105265516D01*
X89077331Y-105266444D01*
X88846814Y-105266444D01*
X88843270Y-105265894D01*
X88682552Y-105214806D01*
X88252861Y-105078218D01*
X88246015Y-105072447D01*
X88244967Y-105064613D01*
X88343685Y-104605118D01*
X88348772Y-104597753D01*
X88350816Y-104596701D01*
X88734385Y-104445149D01*
X88743337Y-104445296D01*
G37*
%TD.AperFunction*%
%TD*%
%TA.AperFunction,Conductor*%
%TO.N,/BLE_MODE*%
G36*
X90624698Y-88417420D02*
G01*
X90630715Y-88423437D01*
X91002692Y-89271785D01*
X91002876Y-89280738D01*
X91002652Y-89281271D01*
X90773100Y-89793088D01*
X90766588Y-89799234D01*
X90762425Y-89800000D01*
X90477575Y-89800000D01*
X90469302Y-89796573D01*
X90466900Y-89793088D01*
X90237347Y-89281271D01*
X90237088Y-89272320D01*
X90237298Y-89271806D01*
X90609285Y-88423436D01*
X90615745Y-88417236D01*
X90624698Y-88417420D01*
G37*
%TD.AperFunction*%
%TD*%
%TA.AperFunction,Conductor*%
%TO.N,+3V3*%
G36*
X88841609Y-78601519D02*
G01*
X89196195Y-78747436D01*
X89202542Y-78753754D01*
X89202563Y-78753804D01*
X89348474Y-79108377D01*
X89348453Y-79117331D01*
X89342106Y-79123649D01*
X89341755Y-79123787D01*
X88694398Y-79366079D01*
X88685449Y-79365769D01*
X88682024Y-79363394D01*
X88586605Y-79267975D01*
X88583178Y-79259702D01*
X88583919Y-79255606D01*
X88826212Y-78608243D01*
X88832322Y-78601697D01*
X88841271Y-78601387D01*
X88841609Y-78601519D01*
G37*
%TD.AperFunction*%
%TD*%
%TA.AperFunction,Conductor*%
%TO.N,GND*%
G36*
X90982039Y-75319685D02*
G01*
X91027794Y-75372489D01*
X91039000Y-75423997D01*
X91039000Y-75435878D01*
X91043355Y-75444922D01*
X91052392Y-75470553D01*
X91054672Y-75480329D01*
X91054673Y-75480331D01*
X91054674Y-75480332D01*
X91059993Y-75486937D01*
X91075131Y-75510903D01*
X91078810Y-75518543D01*
X91078811Y-75518544D01*
X91086046Y-75524314D01*
X91086661Y-75524804D01*
X91105922Y-75543975D01*
X91112220Y-75551796D01*
X91119875Y-75555438D01*
X91143917Y-75570465D01*
X91150547Y-75575752D01*
X91160330Y-75577984D01*
X91186012Y-75586903D01*
X91189310Y-75588472D01*
X91195076Y-75591215D01*
X91240425Y-75591000D01*
X92074123Y-75591000D01*
X92165877Y-75591000D01*
X92174217Y-75586982D01*
X92200424Y-75577812D01*
X92209453Y-75575752D01*
X92216692Y-75569978D01*
X92240203Y-75555205D01*
X92248544Y-75551189D01*
X92254315Y-75543951D01*
X92273953Y-75524314D01*
X92281189Y-75518544D01*
X92285205Y-75510203D01*
X92299978Y-75486692D01*
X92305752Y-75479453D01*
X92307812Y-75470424D01*
X92316984Y-75444215D01*
X92321000Y-75435877D01*
X92320999Y-75424000D01*
X92340685Y-75356961D01*
X92393489Y-75311206D01*
X92445000Y-75300000D01*
X92575140Y-75300000D01*
X92642179Y-75319685D01*
X92687934Y-75372489D01*
X92697910Y-75406576D01*
X92700000Y-75421302D01*
X92700000Y-76200000D01*
X90350000Y-76200000D01*
X90350000Y-75300000D01*
X90915000Y-75300000D01*
X90982039Y-75319685D01*
G37*
%TD.AperFunction*%
%TD*%
%TA.AperFunction,Conductor*%
%TO.N,/USB_D+_ESP*%
G36*
X95387639Y-102870582D02*
G01*
X95696191Y-102997436D01*
X95702540Y-103003751D01*
X95702563Y-103003808D01*
X95829408Y-103312338D01*
X95829385Y-103321293D01*
X95823036Y-103327608D01*
X95822839Y-103327687D01*
X95265179Y-103545229D01*
X95256226Y-103545043D01*
X95252654Y-103542602D01*
X95157397Y-103447345D01*
X95153970Y-103439072D01*
X95154769Y-103434824D01*
X95372312Y-102877159D01*
X95378511Y-102870698D01*
X95387464Y-102870512D01*
X95387639Y-102870582D01*
G37*
%TD.AperFunction*%
%TD*%
%TA.AperFunction,Conductor*%
%TO.N,Net-(C19-Pad1)*%
G36*
X82553025Y-98458214D02*
G01*
X82866080Y-98893165D01*
X82868132Y-98901882D01*
X82866080Y-98906835D01*
X82553025Y-99341785D01*
X82545411Y-99346498D01*
X82538133Y-99345331D01*
X81976304Y-99053277D01*
X81970544Y-99046421D01*
X81970000Y-99042896D01*
X81970000Y-98757103D01*
X81973427Y-98748830D01*
X81976299Y-98746725D01*
X82538133Y-98454667D01*
X82547054Y-98453893D01*
X82553025Y-98458214D01*
G37*
%TD.AperFunction*%
%TD*%
%TA.AperFunction,Conductor*%
%TO.N,Net-(C19-Pad1)*%
G36*
X82877187Y-98904597D02*
G01*
X83081003Y-99063320D01*
X83295431Y-99230309D01*
X83299853Y-99238096D01*
X83298788Y-99244606D01*
X83023187Y-99818366D01*
X83016516Y-99824340D01*
X83012641Y-99825000D01*
X82727359Y-99825000D01*
X82719086Y-99821573D01*
X82716813Y-99818366D01*
X82441211Y-99244606D01*
X82440717Y-99235665D01*
X82444568Y-99230309D01*
X82862811Y-98904597D01*
X82871444Y-98902218D01*
X82877187Y-98904597D01*
G37*
%TD.AperFunction*%
%TD*%
M02*
